G04 #@! TF.FileFunction,Legend,Bot*
%FSLAX46Y46*%
G04 Gerber Fmt 4.6, Leading zero omitted, Abs format (unit mm)*
G04 Created by KiCad (PCBNEW 4.0.6) date 06/20/18 20:32:45*
%MOMM*%
%LPD*%
G01*
G04 APERTURE LIST*
%ADD10C,0.100000*%
%ADD11C,0.300000*%
%ADD12C,0.152400*%
%ADD13C,0.200000*%
%ADD14C,0.150000*%
%ADD15R,0.831800X2.051000*%
%ADD16C,2.100000*%
%ADD17O,2.100000X2.100000*%
%ADD18R,2.400000X2.000000*%
%ADD19R,2.400000X2.100000*%
G04 APERTURE END LIST*
D10*
D11*
X99638571Y-99352571D02*
X99638571Y-97852571D01*
X99281428Y-97852571D01*
X99067143Y-97924000D01*
X98924285Y-98066857D01*
X98852857Y-98209714D01*
X98781428Y-98495429D01*
X98781428Y-98709714D01*
X98852857Y-98995429D01*
X98924285Y-99138286D01*
X99067143Y-99281143D01*
X99281428Y-99352571D01*
X99638571Y-99352571D01*
X97567143Y-99281143D02*
X97710000Y-99352571D01*
X97995714Y-99352571D01*
X98138571Y-99281143D01*
X98210000Y-99138286D01*
X98210000Y-98566857D01*
X98138571Y-98424000D01*
X97995714Y-98352571D01*
X97710000Y-98352571D01*
X97567143Y-98424000D01*
X97495714Y-98566857D01*
X97495714Y-98709714D01*
X98210000Y-98852571D01*
X96924286Y-99281143D02*
X96781429Y-99352571D01*
X96495714Y-99352571D01*
X96352857Y-99281143D01*
X96281429Y-99138286D01*
X96281429Y-99066857D01*
X96352857Y-98924000D01*
X96495714Y-98852571D01*
X96710000Y-98852571D01*
X96852857Y-98781143D01*
X96924286Y-98638286D01*
X96924286Y-98566857D01*
X96852857Y-98424000D01*
X96710000Y-98352571D01*
X96495714Y-98352571D01*
X96352857Y-98424000D01*
X95638571Y-99352571D02*
X95638571Y-98352571D01*
X95638571Y-97852571D02*
X95710000Y-97924000D01*
X95638571Y-97995429D01*
X95567143Y-97924000D01*
X95638571Y-97852571D01*
X95638571Y-97995429D01*
X94281428Y-98352571D02*
X94281428Y-99566857D01*
X94352857Y-99709714D01*
X94424285Y-99781143D01*
X94567142Y-99852571D01*
X94781428Y-99852571D01*
X94924285Y-99781143D01*
X94281428Y-99281143D02*
X94424285Y-99352571D01*
X94709999Y-99352571D01*
X94852857Y-99281143D01*
X94924285Y-99209714D01*
X94995714Y-99066857D01*
X94995714Y-98638286D01*
X94924285Y-98495429D01*
X94852857Y-98424000D01*
X94709999Y-98352571D01*
X94424285Y-98352571D01*
X94281428Y-98424000D01*
X93567142Y-98352571D02*
X93567142Y-99352571D01*
X93567142Y-98495429D02*
X93495714Y-98424000D01*
X93352856Y-98352571D01*
X93138571Y-98352571D01*
X92995714Y-98424000D01*
X92924285Y-98566857D01*
X92924285Y-99352571D01*
X91638571Y-99281143D02*
X91781428Y-99352571D01*
X92067142Y-99352571D01*
X92209999Y-99281143D01*
X92281428Y-99138286D01*
X92281428Y-98566857D01*
X92209999Y-98424000D01*
X92067142Y-98352571D01*
X91781428Y-98352571D01*
X91638571Y-98424000D01*
X91567142Y-98566857D01*
X91567142Y-98709714D01*
X92281428Y-98852571D01*
X90281428Y-99352571D02*
X90281428Y-97852571D01*
X90281428Y-99281143D02*
X90424285Y-99352571D01*
X90709999Y-99352571D01*
X90852857Y-99281143D01*
X90924285Y-99209714D01*
X90995714Y-99066857D01*
X90995714Y-98638286D01*
X90924285Y-98495429D01*
X90852857Y-98424000D01*
X90709999Y-98352571D01*
X90424285Y-98352571D01*
X90281428Y-98424000D01*
X87924285Y-98566857D02*
X87709999Y-98638286D01*
X87638571Y-98709714D01*
X87567142Y-98852571D01*
X87567142Y-99066857D01*
X87638571Y-99209714D01*
X87709999Y-99281143D01*
X87852857Y-99352571D01*
X88424285Y-99352571D01*
X88424285Y-97852571D01*
X87924285Y-97852571D01*
X87781428Y-97924000D01*
X87709999Y-97995429D01*
X87638571Y-98138286D01*
X87638571Y-98281143D01*
X87709999Y-98424000D01*
X87781428Y-98495429D01*
X87924285Y-98566857D01*
X88424285Y-98566857D01*
X87067142Y-98352571D02*
X86709999Y-99352571D01*
X86352857Y-98352571D02*
X86709999Y-99352571D01*
X86852857Y-99709714D01*
X86924285Y-99781143D01*
X87067142Y-99852571D01*
X85781428Y-99209714D02*
X85710000Y-99281143D01*
X85781428Y-99352571D01*
X85852857Y-99281143D01*
X85781428Y-99209714D01*
X85781428Y-99352571D01*
X85781428Y-98424000D02*
X85710000Y-98495429D01*
X85781428Y-98566857D01*
X85852857Y-98495429D01*
X85781428Y-98424000D01*
X85781428Y-98566857D01*
X95674285Y-101831143D02*
X95459999Y-101902571D01*
X95102856Y-101902571D01*
X94959999Y-101831143D01*
X94888570Y-101759714D01*
X94817142Y-101616857D01*
X94817142Y-101474000D01*
X94888570Y-101331143D01*
X94959999Y-101259714D01*
X95102856Y-101188286D01*
X95388570Y-101116857D01*
X95531428Y-101045429D01*
X95602856Y-100974000D01*
X95674285Y-100831143D01*
X95674285Y-100688286D01*
X95602856Y-100545429D01*
X95531428Y-100474000D01*
X95388570Y-100402571D01*
X95031428Y-100402571D01*
X94817142Y-100474000D01*
X94174285Y-100902571D02*
X94174285Y-102402571D01*
X94174285Y-100974000D02*
X94031428Y-100902571D01*
X93745714Y-100902571D01*
X93602857Y-100974000D01*
X93531428Y-101045429D01*
X93459999Y-101188286D01*
X93459999Y-101616857D01*
X93531428Y-101759714D01*
X93602857Y-101831143D01*
X93745714Y-101902571D01*
X94031428Y-101902571D01*
X94174285Y-101831143D01*
X92174285Y-101902571D02*
X92174285Y-101116857D01*
X92245714Y-100974000D01*
X92388571Y-100902571D01*
X92674285Y-100902571D01*
X92817142Y-100974000D01*
X92174285Y-101831143D02*
X92317142Y-101902571D01*
X92674285Y-101902571D01*
X92817142Y-101831143D01*
X92888571Y-101688286D01*
X92888571Y-101545429D01*
X92817142Y-101402571D01*
X92674285Y-101331143D01*
X92317142Y-101331143D01*
X92174285Y-101259714D01*
X91459999Y-101902571D02*
X91459999Y-100902571D01*
X91459999Y-101188286D02*
X91388571Y-101045429D01*
X91317142Y-100974000D01*
X91174285Y-100902571D01*
X91031428Y-100902571D01*
X90674285Y-100402571D02*
X89674285Y-101902571D01*
X89674285Y-100402571D02*
X90674285Y-101902571D01*
X103150572Y-124305143D02*
X102936286Y-124376571D01*
X102579143Y-124376571D01*
X102436286Y-124305143D01*
X102364857Y-124233714D01*
X102293429Y-124090857D01*
X102293429Y-123948000D01*
X102364857Y-123805143D01*
X102436286Y-123733714D01*
X102579143Y-123662286D01*
X102864857Y-123590857D01*
X103007715Y-123519429D01*
X103079143Y-123448000D01*
X103150572Y-123305143D01*
X103150572Y-123162286D01*
X103079143Y-123019429D01*
X103007715Y-122948000D01*
X102864857Y-122876571D01*
X102507715Y-122876571D01*
X102293429Y-122948000D01*
X101650572Y-123376571D02*
X101650572Y-124876571D01*
X101650572Y-123448000D02*
X101507715Y-123376571D01*
X101222001Y-123376571D01*
X101079144Y-123448000D01*
X101007715Y-123519429D01*
X100936286Y-123662286D01*
X100936286Y-124090857D01*
X101007715Y-124233714D01*
X101079144Y-124305143D01*
X101222001Y-124376571D01*
X101507715Y-124376571D01*
X101650572Y-124305143D01*
X99722001Y-124305143D02*
X99864858Y-124376571D01*
X100150572Y-124376571D01*
X100293429Y-124305143D01*
X100364858Y-124162286D01*
X100364858Y-123590857D01*
X100293429Y-123448000D01*
X100150572Y-123376571D01*
X99864858Y-123376571D01*
X99722001Y-123448000D01*
X99650572Y-123590857D01*
X99650572Y-123733714D01*
X100364858Y-123876571D01*
X98364858Y-124305143D02*
X98507715Y-124376571D01*
X98793429Y-124376571D01*
X98936287Y-124305143D01*
X99007715Y-124233714D01*
X99079144Y-124090857D01*
X99079144Y-123662286D01*
X99007715Y-123519429D01*
X98936287Y-123448000D01*
X98793429Y-123376571D01*
X98507715Y-123376571D01*
X98364858Y-123448000D01*
X97722001Y-124376571D02*
X97722001Y-123376571D01*
X97722001Y-122876571D02*
X97793430Y-122948000D01*
X97722001Y-123019429D01*
X97650573Y-122948000D01*
X97722001Y-122876571D01*
X97722001Y-123019429D01*
X96364858Y-124376571D02*
X96364858Y-123590857D01*
X96436287Y-123448000D01*
X96579144Y-123376571D01*
X96864858Y-123376571D01*
X97007715Y-123448000D01*
X96364858Y-124305143D02*
X96507715Y-124376571D01*
X96864858Y-124376571D01*
X97007715Y-124305143D01*
X97079144Y-124162286D01*
X97079144Y-124019429D01*
X97007715Y-123876571D01*
X96864858Y-123805143D01*
X96507715Y-123805143D01*
X96364858Y-123733714D01*
X95436286Y-124376571D02*
X95579144Y-124305143D01*
X95650572Y-124162286D01*
X95650572Y-122876571D01*
X95079144Y-122876571D02*
X94222001Y-122876571D01*
X94650572Y-124376571D02*
X94650572Y-122876571D01*
X93722001Y-124376571D02*
X93722001Y-122876571D01*
X93079144Y-124376571D02*
X93079144Y-123590857D01*
X93150573Y-123448000D01*
X93293430Y-123376571D01*
X93507715Y-123376571D01*
X93650573Y-123448000D01*
X93722001Y-123519429D01*
X91722001Y-124376571D02*
X91722001Y-123590857D01*
X91793430Y-123448000D01*
X91936287Y-123376571D01*
X92222001Y-123376571D01*
X92364858Y-123448000D01*
X91722001Y-124305143D02*
X91864858Y-124376571D01*
X92222001Y-124376571D01*
X92364858Y-124305143D01*
X92436287Y-124162286D01*
X92436287Y-124019429D01*
X92364858Y-123876571D01*
X92222001Y-123805143D01*
X91864858Y-123805143D01*
X91722001Y-123733714D01*
X91007715Y-123376571D02*
X91007715Y-124376571D01*
X91007715Y-123519429D02*
X90936287Y-123448000D01*
X90793429Y-123376571D01*
X90579144Y-123376571D01*
X90436287Y-123448000D01*
X90364858Y-123590857D01*
X90364858Y-124376571D01*
X89650572Y-124376571D02*
X89650572Y-122876571D01*
X89507715Y-123805143D02*
X89079144Y-124376571D01*
X89079144Y-123376571D02*
X89650572Y-123948000D01*
X88507715Y-124305143D02*
X88364858Y-124376571D01*
X88079143Y-124376571D01*
X87936286Y-124305143D01*
X87864858Y-124162286D01*
X87864858Y-124090857D01*
X87936286Y-123948000D01*
X88079143Y-123876571D01*
X88293429Y-123876571D01*
X88436286Y-123805143D01*
X88507715Y-123662286D01*
X88507715Y-123590857D01*
X88436286Y-123448000D01*
X88293429Y-123376571D01*
X88079143Y-123376571D01*
X87936286Y-123448000D01*
X86293429Y-123376571D02*
X85722000Y-123376571D01*
X86079143Y-122876571D02*
X86079143Y-124162286D01*
X86007715Y-124305143D01*
X85864857Y-124376571D01*
X85722000Y-124376571D01*
X85007714Y-124376571D02*
X85150572Y-124305143D01*
X85222000Y-124233714D01*
X85293429Y-124090857D01*
X85293429Y-123662286D01*
X85222000Y-123519429D01*
X85150572Y-123448000D01*
X85007714Y-123376571D01*
X84793429Y-123376571D01*
X84650572Y-123448000D01*
X84579143Y-123519429D01*
X84507714Y-123662286D01*
X84507714Y-124090857D01*
X84579143Y-124233714D01*
X84650572Y-124305143D01*
X84793429Y-124376571D01*
X85007714Y-124376571D01*
X83864857Y-124233714D02*
X83793429Y-124305143D01*
X83864857Y-124376571D01*
X83936286Y-124305143D01*
X83864857Y-124233714D01*
X83864857Y-124376571D01*
X83864857Y-123448000D02*
X83793429Y-123519429D01*
X83864857Y-123590857D01*
X83936286Y-123519429D01*
X83864857Y-123448000D01*
X83864857Y-123590857D01*
X98222000Y-126926571D02*
X98222000Y-125426571D01*
X98222000Y-126855143D02*
X98364857Y-126926571D01*
X98650571Y-126926571D01*
X98793429Y-126855143D01*
X98864857Y-126783714D01*
X98936286Y-126640857D01*
X98936286Y-126212286D01*
X98864857Y-126069429D01*
X98793429Y-125998000D01*
X98650571Y-125926571D01*
X98364857Y-125926571D01*
X98222000Y-125998000D01*
X96864857Y-125926571D02*
X96864857Y-126926571D01*
X97222000Y-125355143D02*
X97579143Y-126426571D01*
X96650571Y-126426571D01*
X96079143Y-126926571D02*
X96079143Y-125926571D01*
X96079143Y-126212286D02*
X96007715Y-126069429D01*
X95936286Y-125998000D01*
X95793429Y-125926571D01*
X95650572Y-125926571D01*
X95150572Y-126926571D02*
X95150572Y-125426571D01*
X95007715Y-126355143D02*
X94579144Y-126926571D01*
X94579144Y-125926571D02*
X95150572Y-126498000D01*
X94079143Y-125926571D02*
X93793429Y-126926571D01*
X93507715Y-126212286D01*
X93222000Y-126926571D01*
X92936286Y-125926571D01*
X92507714Y-125926571D02*
X92150571Y-126926571D01*
X91793429Y-125926571D02*
X92150571Y-126926571D01*
X92293429Y-127283714D01*
X92364857Y-127355143D01*
X92507714Y-127426571D01*
X91222000Y-125926571D02*
X91222000Y-126926571D01*
X91222000Y-126069429D02*
X91150572Y-125998000D01*
X91007714Y-125926571D01*
X90793429Y-125926571D01*
X90650572Y-125998000D01*
X90579143Y-126140857D01*
X90579143Y-126926571D01*
X89222000Y-125926571D02*
X89222000Y-127140857D01*
X89293429Y-127283714D01*
X89364857Y-127355143D01*
X89507714Y-127426571D01*
X89722000Y-127426571D01*
X89864857Y-127355143D01*
X89222000Y-126855143D02*
X89364857Y-126926571D01*
X89650571Y-126926571D01*
X89793429Y-126855143D01*
X89864857Y-126783714D01*
X89936286Y-126640857D01*
X89936286Y-126212286D01*
X89864857Y-126069429D01*
X89793429Y-125998000D01*
X89650571Y-125926571D01*
X89364857Y-125926571D01*
X89222000Y-125998000D01*
X97972000Y-129048000D02*
X97257714Y-129048000D01*
X98114857Y-129476571D02*
X97614857Y-127976571D01*
X97114857Y-129476571D01*
X96614857Y-129476571D02*
X96614857Y-127976571D01*
X95757714Y-129476571D01*
X95757714Y-127976571D01*
X95043428Y-129476571D02*
X95043428Y-127976571D01*
X94686285Y-127976571D01*
X94472000Y-128048000D01*
X94329142Y-128190857D01*
X94257714Y-128333714D01*
X94186285Y-128619429D01*
X94186285Y-128833714D01*
X94257714Y-129119429D01*
X94329142Y-129262286D01*
X94472000Y-129405143D01*
X94686285Y-129476571D01*
X95043428Y-129476571D01*
X93543428Y-129333714D02*
X93472000Y-129405143D01*
X93543428Y-129476571D01*
X93614857Y-129405143D01*
X93543428Y-129333714D01*
X93543428Y-129476571D01*
X93543428Y-128905143D02*
X93614857Y-128048000D01*
X93543428Y-127976571D01*
X93472000Y-128048000D01*
X93543428Y-128905143D01*
X93543428Y-127976571D01*
X92971999Y-127976571D02*
X91971999Y-129476571D01*
X91971999Y-127976571D02*
X92971999Y-129476571D01*
X91114857Y-127976571D02*
X90829143Y-127976571D01*
X90686285Y-128048000D01*
X90543428Y-128190857D01*
X90472000Y-128476571D01*
X90472000Y-128976571D01*
X90543428Y-129262286D01*
X90686285Y-129405143D01*
X90829143Y-129476571D01*
X91114857Y-129476571D01*
X91257714Y-129405143D01*
X91400571Y-129262286D01*
X91472000Y-128976571D01*
X91472000Y-128476571D01*
X91400571Y-128190857D01*
X91257714Y-128048000D01*
X91114857Y-127976571D01*
X88971999Y-129476571D02*
X89471999Y-128762286D01*
X89829142Y-129476571D02*
X89829142Y-127976571D01*
X89257714Y-127976571D01*
X89114856Y-128048000D01*
X89043428Y-128119429D01*
X88971999Y-128262286D01*
X88971999Y-128476571D01*
X89043428Y-128619429D01*
X89114856Y-128690857D01*
X89257714Y-128762286D01*
X89829142Y-128762286D01*
X97281286Y-75497571D02*
X96209857Y-75497571D01*
X96852714Y-74854714D02*
X97281286Y-76783286D01*
X96352714Y-76140429D02*
X97424143Y-76140429D01*
X96781286Y-76783286D02*
X96352714Y-74854714D01*
X95209857Y-75711857D02*
X94995571Y-75783286D01*
X94924143Y-75854714D01*
X94852714Y-75997571D01*
X94852714Y-76211857D01*
X94924143Y-76354714D01*
X94995571Y-76426143D01*
X95138429Y-76497571D01*
X95709857Y-76497571D01*
X95709857Y-74997571D01*
X95209857Y-74997571D01*
X95067000Y-75069000D01*
X94995571Y-75140429D01*
X94924143Y-75283286D01*
X94924143Y-75426143D01*
X94995571Y-75569000D01*
X95067000Y-75640429D01*
X95209857Y-75711857D01*
X95709857Y-75711857D01*
X93567000Y-76497571D02*
X93567000Y-75711857D01*
X93638429Y-75569000D01*
X93781286Y-75497571D01*
X94067000Y-75497571D01*
X94209857Y-75569000D01*
X93567000Y-76426143D02*
X93709857Y-76497571D01*
X94067000Y-76497571D01*
X94209857Y-76426143D01*
X94281286Y-76283286D01*
X94281286Y-76140429D01*
X94209857Y-75997571D01*
X94067000Y-75926143D01*
X93709857Y-75926143D01*
X93567000Y-75854714D01*
X92209857Y-76497571D02*
X92209857Y-74997571D01*
X92209857Y-76426143D02*
X92352714Y-76497571D01*
X92638428Y-76497571D01*
X92781286Y-76426143D01*
X92852714Y-76354714D01*
X92924143Y-76211857D01*
X92924143Y-75783286D01*
X92852714Y-75640429D01*
X92781286Y-75569000D01*
X92638428Y-75497571D01*
X92352714Y-75497571D01*
X92209857Y-75569000D01*
X90852714Y-75497571D02*
X90852714Y-76711857D01*
X90924143Y-76854714D01*
X90995571Y-76926143D01*
X91138428Y-76997571D01*
X91352714Y-76997571D01*
X91495571Y-76926143D01*
X90852714Y-76426143D02*
X90995571Y-76497571D01*
X91281285Y-76497571D01*
X91424143Y-76426143D01*
X91495571Y-76354714D01*
X91567000Y-76211857D01*
X91567000Y-75783286D01*
X91495571Y-75640429D01*
X91424143Y-75569000D01*
X91281285Y-75497571D01*
X90995571Y-75497571D01*
X90852714Y-75569000D01*
X89567000Y-76426143D02*
X89709857Y-76497571D01*
X89995571Y-76497571D01*
X90138428Y-76426143D01*
X90209857Y-76283286D01*
X90209857Y-75711857D01*
X90138428Y-75569000D01*
X89995571Y-75497571D01*
X89709857Y-75497571D01*
X89567000Y-75569000D01*
X89495571Y-75711857D01*
X89495571Y-75854714D01*
X90209857Y-75997571D01*
X88638428Y-76497571D02*
X88781286Y-76426143D01*
X88852714Y-76283286D01*
X88852714Y-74997571D01*
X88067000Y-76497571D02*
X88067000Y-75497571D01*
X88067000Y-74997571D02*
X88138429Y-75069000D01*
X88067000Y-75140429D01*
X87995572Y-75069000D01*
X88067000Y-74997571D01*
X88067000Y-75140429D01*
X87567000Y-75497571D02*
X86995571Y-75497571D01*
X87352714Y-76497571D02*
X87352714Y-75211857D01*
X87281286Y-75069000D01*
X87138428Y-74997571D01*
X86995571Y-74997571D01*
X85924143Y-76426143D02*
X86067000Y-76497571D01*
X86352714Y-76497571D01*
X86495571Y-76426143D01*
X86567000Y-76283286D01*
X86567000Y-75711857D01*
X86495571Y-75569000D01*
X86352714Y-75497571D01*
X86067000Y-75497571D01*
X85924143Y-75569000D01*
X85852714Y-75711857D01*
X85852714Y-75854714D01*
X86567000Y-75997571D01*
X101467858Y-93158571D02*
X101467858Y-93444286D01*
X100896429Y-93158571D02*
X100896429Y-93444286D01*
X100325001Y-94230000D02*
X99610715Y-94230000D01*
X100467858Y-94658571D02*
X99967858Y-93158571D01*
X99467858Y-94658571D01*
X98325001Y-94658571D02*
X98325001Y-93872857D01*
X98396430Y-93730000D01*
X98539287Y-93658571D01*
X98825001Y-93658571D01*
X98967858Y-93730000D01*
X98325001Y-94587143D02*
X98467858Y-94658571D01*
X98825001Y-94658571D01*
X98967858Y-94587143D01*
X99039287Y-94444286D01*
X99039287Y-94301429D01*
X98967858Y-94158571D01*
X98825001Y-94087143D01*
X98467858Y-94087143D01*
X98325001Y-94015714D01*
X96967858Y-94658571D02*
X96967858Y-93872857D01*
X97039287Y-93730000D01*
X97182144Y-93658571D01*
X97467858Y-93658571D01*
X97610715Y-93730000D01*
X96967858Y-94587143D02*
X97110715Y-94658571D01*
X97467858Y-94658571D01*
X97610715Y-94587143D01*
X97682144Y-94444286D01*
X97682144Y-94301429D01*
X97610715Y-94158571D01*
X97467858Y-94087143D01*
X97110715Y-94087143D01*
X96967858Y-94015714D01*
X95610715Y-94658571D02*
X95610715Y-93872857D01*
X95682144Y-93730000D01*
X95825001Y-93658571D01*
X96110715Y-93658571D01*
X96253572Y-93730000D01*
X95610715Y-94587143D02*
X95753572Y-94658571D01*
X96110715Y-94658571D01*
X96253572Y-94587143D01*
X96325001Y-94444286D01*
X96325001Y-94301429D01*
X96253572Y-94158571D01*
X96110715Y-94087143D01*
X95753572Y-94087143D01*
X95610715Y-94015714D01*
X94896429Y-93658571D02*
X94896429Y-94658571D01*
X94896429Y-93801429D02*
X94825001Y-93730000D01*
X94682143Y-93658571D01*
X94467858Y-93658571D01*
X94325001Y-93730000D01*
X94253572Y-93872857D01*
X94253572Y-94658571D01*
X92896429Y-94658571D02*
X92896429Y-93158571D01*
X92896429Y-94587143D02*
X93039286Y-94658571D01*
X93325000Y-94658571D01*
X93467858Y-94587143D01*
X93539286Y-94515714D01*
X93610715Y-94372857D01*
X93610715Y-93944286D01*
X93539286Y-93801429D01*
X93467858Y-93730000D01*
X93325000Y-93658571D01*
X93039286Y-93658571D01*
X92896429Y-93730000D01*
X90753572Y-93158571D02*
X90467858Y-93158571D01*
X90325000Y-93230000D01*
X90182143Y-93372857D01*
X90110715Y-93658571D01*
X90110715Y-94158571D01*
X90182143Y-94444286D01*
X90325000Y-94587143D01*
X90467858Y-94658571D01*
X90753572Y-94658571D01*
X90896429Y-94587143D01*
X91039286Y-94444286D01*
X91110715Y-94158571D01*
X91110715Y-93658571D01*
X91039286Y-93372857D01*
X90896429Y-93230000D01*
X90753572Y-93158571D01*
X89467857Y-94658571D02*
X89467857Y-93158571D01*
X88896429Y-93158571D01*
X88753571Y-93230000D01*
X88682143Y-93301429D01*
X88610714Y-93444286D01*
X88610714Y-93658571D01*
X88682143Y-93801429D01*
X88753571Y-93872857D01*
X88896429Y-93944286D01*
X89467857Y-93944286D01*
X87967857Y-93872857D02*
X87467857Y-93872857D01*
X87253571Y-94658571D02*
X87967857Y-94658571D01*
X87967857Y-93158571D01*
X87253571Y-93158571D01*
X86610714Y-94658571D02*
X86610714Y-93158571D01*
X85753571Y-94658571D01*
X85753571Y-93158571D01*
X85039285Y-94515714D02*
X84967857Y-94587143D01*
X85039285Y-94658571D01*
X85110714Y-94587143D01*
X85039285Y-94515714D01*
X85039285Y-94658571D01*
X85039285Y-94087143D02*
X85110714Y-93230000D01*
X85039285Y-93158571D01*
X84967857Y-93230000D01*
X85039285Y-94087143D01*
X85039285Y-93158571D01*
X84396428Y-93158571D02*
X84396428Y-93444286D01*
X83824999Y-93158571D02*
X83824999Y-93444286D01*
D12*
X84056400Y-114365120D02*
X84056400Y-119965120D01*
X94556400Y-119965120D02*
X94556400Y-114365120D01*
D13*
X84806400Y-111965120D02*
G75*
G03X84806400Y-111965120I-100000J0D01*
G01*
D10*
X96862000Y-135411333D02*
X96762000Y-135444667D01*
X96595333Y-135444667D01*
X96528666Y-135411333D01*
X96495333Y-135378000D01*
X96462000Y-135311333D01*
X96462000Y-135244667D01*
X96495333Y-135178000D01*
X96528666Y-135144667D01*
X96595333Y-135111333D01*
X96728666Y-135078000D01*
X96795333Y-135044667D01*
X96828666Y-135011333D01*
X96862000Y-134944667D01*
X96862000Y-134878000D01*
X96828666Y-134811333D01*
X96795333Y-134778000D01*
X96728666Y-134744667D01*
X96562000Y-134744667D01*
X96462000Y-134778000D01*
X96161999Y-135444667D02*
X96161999Y-134744667D01*
X95995333Y-134744667D01*
X95895333Y-134778000D01*
X95828666Y-134844667D01*
X95795333Y-134911333D01*
X95761999Y-135044667D01*
X95761999Y-135144667D01*
X95795333Y-135278000D01*
X95828666Y-135344667D01*
X95895333Y-135411333D01*
X95995333Y-135444667D01*
X96161999Y-135444667D01*
X95495333Y-135244667D02*
X95161999Y-135244667D01*
X95561999Y-135444667D02*
X95328666Y-134744667D01*
X95095333Y-135444667D01*
X96845334Y-140491333D02*
X96745334Y-140524667D01*
X96578667Y-140524667D01*
X96512000Y-140491333D01*
X96478667Y-140458000D01*
X96445334Y-140391333D01*
X96445334Y-140324667D01*
X96478667Y-140258000D01*
X96512000Y-140224667D01*
X96578667Y-140191333D01*
X96712000Y-140158000D01*
X96778667Y-140124667D01*
X96812000Y-140091333D01*
X96845334Y-140024667D01*
X96845334Y-139958000D01*
X96812000Y-139891333D01*
X96778667Y-139858000D01*
X96712000Y-139824667D01*
X96545334Y-139824667D01*
X96445334Y-139858000D01*
X95745333Y-140458000D02*
X95778667Y-140491333D01*
X95878667Y-140524667D01*
X95945333Y-140524667D01*
X96045333Y-140491333D01*
X96112000Y-140424667D01*
X96145333Y-140358000D01*
X96178667Y-140224667D01*
X96178667Y-140124667D01*
X96145333Y-139991333D01*
X96112000Y-139924667D01*
X96045333Y-139858000D01*
X95945333Y-139824667D01*
X95878667Y-139824667D01*
X95778667Y-139858000D01*
X95745333Y-139891333D01*
X95112000Y-140524667D02*
X95445333Y-140524667D01*
X95445333Y-139824667D01*
X91465333Y-139858000D02*
X91531999Y-139824667D01*
X91631999Y-139824667D01*
X91731999Y-139858000D01*
X91798666Y-139924667D01*
X91831999Y-139991333D01*
X91865333Y-140124667D01*
X91865333Y-140224667D01*
X91831999Y-140358000D01*
X91798666Y-140424667D01*
X91731999Y-140491333D01*
X91631999Y-140524667D01*
X91565333Y-140524667D01*
X91465333Y-140491333D01*
X91431999Y-140458000D01*
X91431999Y-140224667D01*
X91565333Y-140224667D01*
X91131999Y-140524667D02*
X91131999Y-139824667D01*
X90731999Y-140524667D01*
X90731999Y-139824667D01*
X90398666Y-140524667D02*
X90398666Y-139824667D01*
X90232000Y-139824667D01*
X90132000Y-139858000D01*
X90065333Y-139924667D01*
X90032000Y-139991333D01*
X89998666Y-140124667D01*
X89998666Y-140224667D01*
X90032000Y-140358000D01*
X90065333Y-140424667D01*
X90132000Y-140491333D01*
X90232000Y-140524667D01*
X90398666Y-140524667D01*
X91865333Y-134744667D02*
X91632000Y-135444667D01*
X91398667Y-134744667D01*
X90765333Y-135378000D02*
X90798667Y-135411333D01*
X90898667Y-135444667D01*
X90965333Y-135444667D01*
X91065333Y-135411333D01*
X91132000Y-135344667D01*
X91165333Y-135278000D01*
X91198667Y-135144667D01*
X91198667Y-135044667D01*
X91165333Y-134911333D01*
X91132000Y-134844667D01*
X91065333Y-134778000D01*
X90965333Y-134744667D01*
X90898667Y-134744667D01*
X90798667Y-134778000D01*
X90765333Y-134811333D01*
X90065333Y-135378000D02*
X90098667Y-135411333D01*
X90198667Y-135444667D01*
X90265333Y-135444667D01*
X90365333Y-135411333D01*
X90432000Y-135344667D01*
X90465333Y-135278000D01*
X90498667Y-135144667D01*
X90498667Y-135044667D01*
X90465333Y-134911333D01*
X90432000Y-134844667D01*
X90365333Y-134778000D01*
X90265333Y-134744667D01*
X90198667Y-134744667D01*
X90098667Y-134778000D01*
X90065333Y-134811333D01*
D14*
X92228966Y-131156983D02*
X92276585Y-131204602D01*
X92419442Y-131252221D01*
X92514680Y-131252221D01*
X92657538Y-131204602D01*
X92752776Y-131109364D01*
X92800395Y-131014126D01*
X92848014Y-130823650D01*
X92848014Y-130680792D01*
X92800395Y-130490316D01*
X92752776Y-130395078D01*
X92657538Y-130299840D01*
X92514680Y-130252221D01*
X92419442Y-130252221D01*
X92276585Y-130299840D01*
X92228966Y-130347459D01*
X91276585Y-131252221D02*
X91848014Y-131252221D01*
X91562300Y-131252221D02*
X91562300Y-130252221D01*
X91657538Y-130395078D01*
X91752776Y-130490316D01*
X91848014Y-130537935D01*
%LPC*%
D15*
X85081400Y-113660120D03*
X85731400Y-113660120D03*
X86381400Y-113660120D03*
X87031400Y-113660120D03*
X87681400Y-113660120D03*
X88331400Y-113660120D03*
X88981400Y-113660120D03*
X89631400Y-113660120D03*
X90281400Y-113660120D03*
X90931400Y-113660120D03*
X91581400Y-113660120D03*
X92231400Y-113660120D03*
X92881400Y-113660120D03*
X93531400Y-113660120D03*
X93531400Y-120670120D03*
X92881400Y-120670120D03*
X92231400Y-120670120D03*
X91581400Y-120670120D03*
X90931400Y-120670120D03*
X90281400Y-120670120D03*
X89631400Y-120670120D03*
X88981400Y-120670120D03*
X88331400Y-120670120D03*
X87681400Y-120670120D03*
X87031400Y-120670120D03*
X86381400Y-120670120D03*
X85731400Y-120670120D03*
X85081400Y-120670120D03*
D16*
X94742000Y-136398000D03*
D17*
X94742000Y-138938000D03*
X92202000Y-136398000D03*
X92202000Y-138938000D03*
D18*
X90062300Y-130926840D03*
X94062300Y-130926840D03*
D19*
X102013000Y-98539300D03*
X106013000Y-98539300D03*
X94704920Y-107670600D03*
X90704920Y-107670600D03*
X102622600Y-94983300D03*
X106622600Y-94983300D03*
X102523540Y-88262460D03*
X106523540Y-88262460D03*
X104680000Y-74676000D03*
X108680000Y-74676000D03*
X89948000Y-82804000D03*
X93948000Y-82804000D03*
X75381100Y-77518260D03*
X79381100Y-77518260D03*
X77248000Y-88392000D03*
X81248000Y-88392000D03*
X78772000Y-99060000D03*
X82772000Y-99060000D03*
M02*
