G04 #@! TF.FileFunction,Soldermask,Top*
%FSLAX46Y46*%
G04 Gerber Fmt 4.6, Leading zero omitted, Abs format (unit mm)*
G04 Created by KiCad (PCBNEW 4.0.6) date 06/20/18 20:32:45*
%MOMM*%
%LPD*%
G01*
G04 APERTURE LIST*
%ADD10C,0.100000*%
%ADD11C,0.010000*%
%ADD12C,2.100000*%
%ADD13O,2.100000X2.100000*%
%ADD14R,2.400000X2.100000*%
G04 APERTURE END LIST*
D10*
D11*
G36*
X92874802Y-123074224D02*
X93034812Y-123126091D01*
X93112413Y-123246990D01*
X93135360Y-123326918D01*
X93141692Y-123614503D01*
X92983624Y-123794052D01*
X92654309Y-123871674D01*
X92519959Y-123876000D01*
X92075200Y-123876000D01*
X92075200Y-123063200D01*
X92572185Y-123063200D01*
X92874802Y-123074224D01*
X92874802Y-123074224D01*
G37*
X92874802Y-123074224D02*
X93034812Y-123126091D01*
X93112413Y-123246990D01*
X93135360Y-123326918D01*
X93141692Y-123614503D01*
X92983624Y-123794052D01*
X92654309Y-123871674D01*
X92519959Y-123876000D01*
X92075200Y-123876000D01*
X92075200Y-123063200D01*
X92572185Y-123063200D01*
X92874802Y-123074224D01*
G36*
X89072990Y-116798163D02*
X89290048Y-116963661D01*
X89571804Y-117193089D01*
X89880067Y-117453713D01*
X90176642Y-117712800D01*
X90423336Y-117937618D01*
X90581957Y-118095434D01*
X90619169Y-118152297D01*
X90499715Y-118178453D01*
X90235864Y-118200366D01*
X89886406Y-118216184D01*
X89510131Y-118224052D01*
X89165828Y-118222118D01*
X88912286Y-118208527D01*
X88895635Y-118206634D01*
X88698308Y-118156753D01*
X88658633Y-118042678D01*
X88680779Y-117954278D01*
X88733905Y-117725351D01*
X88789632Y-117393787D01*
X88812344Y-117224867D01*
X88848570Y-117018000D01*
X88925600Y-117018000D01*
X88976400Y-117068800D01*
X89027200Y-117018000D01*
X88976400Y-116967200D01*
X88925600Y-117018000D01*
X88848570Y-117018000D01*
X88862593Y-116937927D01*
X88923328Y-116759784D01*
X88958825Y-116729327D01*
X89072990Y-116798163D01*
X89072990Y-116798163D01*
G37*
X89072990Y-116798163D02*
X89290048Y-116963661D01*
X89571804Y-117193089D01*
X89880067Y-117453713D01*
X90176642Y-117712800D01*
X90423336Y-117937618D01*
X90581957Y-118095434D01*
X90619169Y-118152297D01*
X90499715Y-118178453D01*
X90235864Y-118200366D01*
X89886406Y-118216184D01*
X89510131Y-118224052D01*
X89165828Y-118222118D01*
X88912286Y-118208527D01*
X88895635Y-118206634D01*
X88698308Y-118156753D01*
X88658633Y-118042678D01*
X88680779Y-117954278D01*
X88733905Y-117725351D01*
X88789632Y-117393787D01*
X88812344Y-117224867D01*
X88848570Y-117018000D01*
X88925600Y-117018000D01*
X88976400Y-117068800D01*
X89027200Y-117018000D01*
X88976400Y-116967200D01*
X88925600Y-117018000D01*
X88848570Y-117018000D01*
X88862593Y-116937927D01*
X88923328Y-116759784D01*
X88958825Y-116729327D01*
X89072990Y-116798163D01*
G36*
X89777562Y-116598419D02*
X89968828Y-116653438D01*
X90236999Y-116732631D01*
X90565413Y-116801983D01*
X90597926Y-116807332D01*
X90995896Y-116883015D01*
X91490833Y-116996073D01*
X92050075Y-117136958D01*
X92640958Y-117296121D01*
X93230820Y-117464013D01*
X93786996Y-117631084D01*
X94276825Y-117787785D01*
X94667642Y-117924569D01*
X94926785Y-118031885D01*
X95021592Y-118100184D01*
X95021600Y-118100587D01*
X94930418Y-118145167D01*
X94698470Y-118175255D01*
X94539000Y-118181750D01*
X94229431Y-118187430D01*
X93786286Y-118197071D01*
X93279110Y-118209113D01*
X92959945Y-118217180D01*
X92512827Y-118226992D01*
X92149553Y-118231578D01*
X91912572Y-118230618D01*
X91842345Y-118225561D01*
X91738589Y-118198100D01*
X91512838Y-118157480D01*
X91478996Y-118152120D01*
X91246420Y-118070366D01*
X90947574Y-117905405D01*
X90629016Y-117691619D01*
X90337302Y-117463392D01*
X90118989Y-117255107D01*
X90020633Y-117101148D01*
X90020317Y-117074847D01*
X89990289Y-116998186D01*
X89951470Y-117011899D01*
X89820223Y-116990254D01*
X89617686Y-116861135D01*
X89567953Y-116819462D01*
X89452875Y-116713200D01*
X89636800Y-116713200D01*
X89687600Y-116764000D01*
X89738400Y-116713200D01*
X89687600Y-116662400D01*
X89636800Y-116713200D01*
X89452875Y-116713200D01*
X89390325Y-116655442D01*
X89358063Y-116583569D01*
X89461288Y-116564882D01*
X89503185Y-116564010D01*
X89777562Y-116598419D01*
X89777562Y-116598419D01*
G37*
X89777562Y-116598419D02*
X89968828Y-116653438D01*
X90236999Y-116732631D01*
X90565413Y-116801983D01*
X90597926Y-116807332D01*
X90995896Y-116883015D01*
X91490833Y-116996073D01*
X92050075Y-117136958D01*
X92640958Y-117296121D01*
X93230820Y-117464013D01*
X93786996Y-117631084D01*
X94276825Y-117787785D01*
X94667642Y-117924569D01*
X94926785Y-118031885D01*
X95021592Y-118100184D01*
X95021600Y-118100587D01*
X94930418Y-118145167D01*
X94698470Y-118175255D01*
X94539000Y-118181750D01*
X94229431Y-118187430D01*
X93786286Y-118197071D01*
X93279110Y-118209113D01*
X92959945Y-118217180D01*
X92512827Y-118226992D01*
X92149553Y-118231578D01*
X91912572Y-118230618D01*
X91842345Y-118225561D01*
X91738589Y-118198100D01*
X91512838Y-118157480D01*
X91478996Y-118152120D01*
X91246420Y-118070366D01*
X90947574Y-117905405D01*
X90629016Y-117691619D01*
X90337302Y-117463392D01*
X90118989Y-117255107D01*
X90020633Y-117101148D01*
X90020317Y-117074847D01*
X89990289Y-116998186D01*
X89951470Y-117011899D01*
X89820223Y-116990254D01*
X89617686Y-116861135D01*
X89567953Y-116819462D01*
X89452875Y-116713200D01*
X89636800Y-116713200D01*
X89687600Y-116764000D01*
X89738400Y-116713200D01*
X89687600Y-116662400D01*
X89636800Y-116713200D01*
X89452875Y-116713200D01*
X89390325Y-116655442D01*
X89358063Y-116583569D01*
X89461288Y-116564882D01*
X89503185Y-116564010D01*
X89777562Y-116598419D01*
G36*
X88574903Y-117027892D02*
X88487033Y-117551923D01*
X88356014Y-117897002D01*
X88153231Y-118086855D01*
X87850068Y-118145211D01*
X87417907Y-118095796D01*
X87312266Y-118074817D01*
X87049757Y-117988251D01*
X86877315Y-117874624D01*
X86870882Y-117866345D01*
X86806367Y-117797179D01*
X86829904Y-117906619D01*
X86830027Y-117907000D01*
X86834167Y-118053849D01*
X86788811Y-118084800D01*
X86650994Y-118016557D01*
X86467191Y-117860453D01*
X86315654Y-117689421D01*
X86271033Y-117602200D01*
X86234728Y-117351737D01*
X86251272Y-117184000D01*
X86354150Y-117065310D01*
X86576843Y-116961992D01*
X86952837Y-116840371D01*
X87061503Y-116807188D01*
X87500495Y-116679361D01*
X87911591Y-116570102D01*
X88222057Y-116498467D01*
X88280521Y-116487832D01*
X88648088Y-116428184D01*
X88574903Y-117027892D01*
X88574903Y-117027892D01*
G37*
X88574903Y-117027892D02*
X88487033Y-117551923D01*
X88356014Y-117897002D01*
X88153231Y-118086855D01*
X87850068Y-118145211D01*
X87417907Y-118095796D01*
X87312266Y-118074817D01*
X87049757Y-117988251D01*
X86877315Y-117874624D01*
X86870882Y-117866345D01*
X86806367Y-117797179D01*
X86829904Y-117906619D01*
X86830027Y-117907000D01*
X86834167Y-118053849D01*
X86788811Y-118084800D01*
X86650994Y-118016557D01*
X86467191Y-117860453D01*
X86315654Y-117689421D01*
X86271033Y-117602200D01*
X86234728Y-117351737D01*
X86251272Y-117184000D01*
X86354150Y-117065310D01*
X86576843Y-116961992D01*
X86952837Y-116840371D01*
X87061503Y-116807188D01*
X87500495Y-116679361D01*
X87911591Y-116570102D01*
X88222057Y-116498467D01*
X88280521Y-116487832D01*
X88648088Y-116428184D01*
X88574903Y-117027892D01*
G36*
X97374478Y-114487937D02*
X97527476Y-114524017D01*
X97824267Y-114552864D01*
X98205451Y-114569045D01*
X98273333Y-114570133D01*
X98825383Y-114613143D01*
X99217427Y-114745385D01*
X99480413Y-114995024D01*
X99645288Y-115390230D01*
X99736345Y-115901738D01*
X99768730Y-116190021D01*
X99768874Y-116294433D01*
X99730287Y-116232663D01*
X99669978Y-116082678D01*
X99528173Y-115765515D01*
X99432532Y-115642627D01*
X99391769Y-115712332D01*
X99414596Y-115972947D01*
X99442737Y-116126573D01*
X99494861Y-116470101D01*
X99506511Y-116746837D01*
X99486073Y-116865600D01*
X99402213Y-117051093D01*
X99281886Y-117332951D01*
X99237584Y-117439632D01*
X99091115Y-117724405D01*
X98902887Y-117884366D01*
X98631989Y-117982195D01*
X98304052Y-118053986D01*
X98017537Y-118084304D01*
X97957034Y-118082716D01*
X97749416Y-118073552D01*
X97663200Y-118080290D01*
X97543524Y-118092237D01*
X97277230Y-118106576D01*
X96920829Y-118120290D01*
X96903711Y-118120840D01*
X96485398Y-118116693D01*
X96098900Y-118065269D01*
X95664975Y-117952102D01*
X95278111Y-117824065D01*
X94776322Y-117655304D01*
X94171265Y-117460722D01*
X93555237Y-117269677D01*
X93214865Y-117167817D01*
X92707839Y-117009373D01*
X92365854Y-116881544D01*
X92201163Y-116789391D01*
X92198865Y-116748212D01*
X92269236Y-116677641D01*
X92208196Y-116663955D01*
X92048407Y-116738030D01*
X92014887Y-116779391D01*
X91916878Y-116819200D01*
X91805691Y-116709172D01*
X91702358Y-116606015D01*
X91668800Y-116632281D01*
X91590142Y-116692917D01*
X91344714Y-116664930D01*
X91287800Y-116651986D01*
X91037519Y-116594666D01*
X93836266Y-116594666D01*
X93850213Y-116655067D01*
X93904000Y-116662400D01*
X93987628Y-116625226D01*
X93971733Y-116594666D01*
X93851157Y-116582507D01*
X93836266Y-116594666D01*
X91037519Y-116594666D01*
X90995361Y-116585011D01*
X90885880Y-116560800D01*
X94412000Y-116560800D01*
X94449173Y-116644428D01*
X94479733Y-116628533D01*
X94480220Y-116623703D01*
X94769212Y-116623703D01*
X94869398Y-116670489D01*
X95092316Y-116745010D01*
X95200203Y-116726869D01*
X95254195Y-116630742D01*
X95235688Y-116543344D01*
X95061487Y-116534674D01*
X94985864Y-116544372D01*
X94785931Y-116582605D01*
X94769212Y-116623703D01*
X94480220Y-116623703D01*
X94491892Y-116507957D01*
X94479733Y-116493066D01*
X95665066Y-116493066D01*
X95679013Y-116553467D01*
X95732800Y-116560800D01*
X95816428Y-116523626D01*
X95800533Y-116493066D01*
X95679957Y-116480907D01*
X95665066Y-116493066D01*
X94479733Y-116493066D01*
X94419332Y-116507013D01*
X94412000Y-116560800D01*
X90885880Y-116560800D01*
X90590150Y-116495402D01*
X90158277Y-116402195D01*
X90145044Y-116399379D01*
X89814346Y-116318243D01*
X96174124Y-116318243D01*
X96190000Y-116357600D01*
X96281298Y-116454524D01*
X96297596Y-116459200D01*
X96341235Y-116380592D01*
X96342400Y-116357600D01*
X96264294Y-116259904D01*
X96234803Y-116256000D01*
X96174124Y-116318243D01*
X89814346Y-116318243D01*
X89660103Y-116280400D01*
X89540436Y-116231709D01*
X90595265Y-116231709D01*
X90695133Y-116247978D01*
X90826910Y-116229299D01*
X90828483Y-116194616D01*
X90792882Y-116188266D01*
X94344266Y-116188266D01*
X94358213Y-116248667D01*
X94412000Y-116256000D01*
X94495628Y-116218826D01*
X94479733Y-116188266D01*
X94750666Y-116188266D01*
X94764613Y-116248667D01*
X94818400Y-116256000D01*
X94902028Y-116218826D01*
X94886133Y-116188266D01*
X94765557Y-116176107D01*
X94750666Y-116188266D01*
X94479733Y-116188266D01*
X94359157Y-116176107D01*
X94344266Y-116188266D01*
X90792882Y-116188266D01*
X90692502Y-116170362D01*
X90633750Y-116186595D01*
X90595265Y-116231709D01*
X89540436Y-116231709D01*
X89357776Y-116157387D01*
X89270493Y-116052800D01*
X91059200Y-116052800D01*
X91093864Y-116151758D01*
X91104003Y-116154400D01*
X91186529Y-116086666D01*
X91397866Y-116086666D01*
X91411813Y-116147067D01*
X91465600Y-116154400D01*
X91549228Y-116117226D01*
X91533333Y-116086666D01*
X91412757Y-116074507D01*
X91397866Y-116086666D01*
X91186529Y-116086666D01*
X91190746Y-116083205D01*
X91204534Y-116063101D01*
X95253581Y-116063101D01*
X95274899Y-116164906D01*
X95282132Y-116184181D01*
X95362619Y-116308595D01*
X95408378Y-116309488D01*
X95396981Y-116202010D01*
X95339007Y-116127306D01*
X95253581Y-116063101D01*
X91204534Y-116063101D01*
X91211600Y-116052800D01*
X91203544Y-115959177D01*
X91166796Y-115951200D01*
X91063334Y-116024952D01*
X91059200Y-116052800D01*
X89270493Y-116052800D01*
X89237708Y-116013516D01*
X89282002Y-115883466D01*
X89772266Y-115883466D01*
X89786213Y-115943867D01*
X89840000Y-115951200D01*
X89923628Y-115914026D01*
X89907733Y-115883466D01*
X89787157Y-115871307D01*
X89772266Y-115883466D01*
X89282002Y-115883466D01*
X89299542Y-115831968D01*
X89542923Y-115595920D01*
X89964386Y-115290800D01*
X99187200Y-115290800D01*
X99238000Y-115341600D01*
X99288800Y-115290800D01*
X99238000Y-115240000D01*
X99187200Y-115290800D01*
X89964386Y-115290800D01*
X89967494Y-115288550D01*
X90119400Y-115187016D01*
X90526560Y-114922337D01*
X90827132Y-114748919D01*
X91082614Y-114643847D01*
X91354507Y-114584205D01*
X91704312Y-114547078D01*
X91872000Y-114533990D01*
X92242697Y-114513838D01*
X92728827Y-114498863D01*
X93294819Y-114488942D01*
X93905103Y-114483954D01*
X94524111Y-114483779D01*
X95116272Y-114488294D01*
X95646017Y-114497378D01*
X96077775Y-114510911D01*
X96375979Y-114528769D01*
X96503457Y-114549795D01*
X96681225Y-114598352D01*
X96920642Y-114608603D01*
X97138998Y-114584257D01*
X97253579Y-114529023D01*
X97256800Y-114516008D01*
X97321365Y-114466031D01*
X97374478Y-114487937D01*
X97374478Y-114487937D01*
G37*
X97374478Y-114487937D02*
X97527476Y-114524017D01*
X97824267Y-114552864D01*
X98205451Y-114569045D01*
X98273333Y-114570133D01*
X98825383Y-114613143D01*
X99217427Y-114745385D01*
X99480413Y-114995024D01*
X99645288Y-115390230D01*
X99736345Y-115901738D01*
X99768730Y-116190021D01*
X99768874Y-116294433D01*
X99730287Y-116232663D01*
X99669978Y-116082678D01*
X99528173Y-115765515D01*
X99432532Y-115642627D01*
X99391769Y-115712332D01*
X99414596Y-115972947D01*
X99442737Y-116126573D01*
X99494861Y-116470101D01*
X99506511Y-116746837D01*
X99486073Y-116865600D01*
X99402213Y-117051093D01*
X99281886Y-117332951D01*
X99237584Y-117439632D01*
X99091115Y-117724405D01*
X98902887Y-117884366D01*
X98631989Y-117982195D01*
X98304052Y-118053986D01*
X98017537Y-118084304D01*
X97957034Y-118082716D01*
X97749416Y-118073552D01*
X97663200Y-118080290D01*
X97543524Y-118092237D01*
X97277230Y-118106576D01*
X96920829Y-118120290D01*
X96903711Y-118120840D01*
X96485398Y-118116693D01*
X96098900Y-118065269D01*
X95664975Y-117952102D01*
X95278111Y-117824065D01*
X94776322Y-117655304D01*
X94171265Y-117460722D01*
X93555237Y-117269677D01*
X93214865Y-117167817D01*
X92707839Y-117009373D01*
X92365854Y-116881544D01*
X92201163Y-116789391D01*
X92198865Y-116748212D01*
X92269236Y-116677641D01*
X92208196Y-116663955D01*
X92048407Y-116738030D01*
X92014887Y-116779391D01*
X91916878Y-116819200D01*
X91805691Y-116709172D01*
X91702358Y-116606015D01*
X91668800Y-116632281D01*
X91590142Y-116692917D01*
X91344714Y-116664930D01*
X91287800Y-116651986D01*
X91037519Y-116594666D01*
X93836266Y-116594666D01*
X93850213Y-116655067D01*
X93904000Y-116662400D01*
X93987628Y-116625226D01*
X93971733Y-116594666D01*
X93851157Y-116582507D01*
X93836266Y-116594666D01*
X91037519Y-116594666D01*
X90995361Y-116585011D01*
X90885880Y-116560800D01*
X94412000Y-116560800D01*
X94449173Y-116644428D01*
X94479733Y-116628533D01*
X94480220Y-116623703D01*
X94769212Y-116623703D01*
X94869398Y-116670489D01*
X95092316Y-116745010D01*
X95200203Y-116726869D01*
X95254195Y-116630742D01*
X95235688Y-116543344D01*
X95061487Y-116534674D01*
X94985864Y-116544372D01*
X94785931Y-116582605D01*
X94769212Y-116623703D01*
X94480220Y-116623703D01*
X94491892Y-116507957D01*
X94479733Y-116493066D01*
X95665066Y-116493066D01*
X95679013Y-116553467D01*
X95732800Y-116560800D01*
X95816428Y-116523626D01*
X95800533Y-116493066D01*
X95679957Y-116480907D01*
X95665066Y-116493066D01*
X94479733Y-116493066D01*
X94419332Y-116507013D01*
X94412000Y-116560800D01*
X90885880Y-116560800D01*
X90590150Y-116495402D01*
X90158277Y-116402195D01*
X90145044Y-116399379D01*
X89814346Y-116318243D01*
X96174124Y-116318243D01*
X96190000Y-116357600D01*
X96281298Y-116454524D01*
X96297596Y-116459200D01*
X96341235Y-116380592D01*
X96342400Y-116357600D01*
X96264294Y-116259904D01*
X96234803Y-116256000D01*
X96174124Y-116318243D01*
X89814346Y-116318243D01*
X89660103Y-116280400D01*
X89540436Y-116231709D01*
X90595265Y-116231709D01*
X90695133Y-116247978D01*
X90826910Y-116229299D01*
X90828483Y-116194616D01*
X90792882Y-116188266D01*
X94344266Y-116188266D01*
X94358213Y-116248667D01*
X94412000Y-116256000D01*
X94495628Y-116218826D01*
X94479733Y-116188266D01*
X94750666Y-116188266D01*
X94764613Y-116248667D01*
X94818400Y-116256000D01*
X94902028Y-116218826D01*
X94886133Y-116188266D01*
X94765557Y-116176107D01*
X94750666Y-116188266D01*
X94479733Y-116188266D01*
X94359157Y-116176107D01*
X94344266Y-116188266D01*
X90792882Y-116188266D01*
X90692502Y-116170362D01*
X90633750Y-116186595D01*
X90595265Y-116231709D01*
X89540436Y-116231709D01*
X89357776Y-116157387D01*
X89270493Y-116052800D01*
X91059200Y-116052800D01*
X91093864Y-116151758D01*
X91104003Y-116154400D01*
X91186529Y-116086666D01*
X91397866Y-116086666D01*
X91411813Y-116147067D01*
X91465600Y-116154400D01*
X91549228Y-116117226D01*
X91533333Y-116086666D01*
X91412757Y-116074507D01*
X91397866Y-116086666D01*
X91186529Y-116086666D01*
X91190746Y-116083205D01*
X91204534Y-116063101D01*
X95253581Y-116063101D01*
X95274899Y-116164906D01*
X95282132Y-116184181D01*
X95362619Y-116308595D01*
X95408378Y-116309488D01*
X95396981Y-116202010D01*
X95339007Y-116127306D01*
X95253581Y-116063101D01*
X91204534Y-116063101D01*
X91211600Y-116052800D01*
X91203544Y-115959177D01*
X91166796Y-115951200D01*
X91063334Y-116024952D01*
X91059200Y-116052800D01*
X89270493Y-116052800D01*
X89237708Y-116013516D01*
X89282002Y-115883466D01*
X89772266Y-115883466D01*
X89786213Y-115943867D01*
X89840000Y-115951200D01*
X89923628Y-115914026D01*
X89907733Y-115883466D01*
X89787157Y-115871307D01*
X89772266Y-115883466D01*
X89282002Y-115883466D01*
X89299542Y-115831968D01*
X89542923Y-115595920D01*
X89964386Y-115290800D01*
X99187200Y-115290800D01*
X99238000Y-115341600D01*
X99288800Y-115290800D01*
X99238000Y-115240000D01*
X99187200Y-115290800D01*
X89964386Y-115290800D01*
X89967494Y-115288550D01*
X90119400Y-115187016D01*
X90526560Y-114922337D01*
X90827132Y-114748919D01*
X91082614Y-114643847D01*
X91354507Y-114584205D01*
X91704312Y-114547078D01*
X91872000Y-114533990D01*
X92242697Y-114513838D01*
X92728827Y-114498863D01*
X93294819Y-114488942D01*
X93905103Y-114483954D01*
X94524111Y-114483779D01*
X95116272Y-114488294D01*
X95646017Y-114497378D01*
X96077775Y-114510911D01*
X96375979Y-114528769D01*
X96503457Y-114549795D01*
X96681225Y-114598352D01*
X96920642Y-114608603D01*
X97138998Y-114584257D01*
X97253579Y-114529023D01*
X97256800Y-114516008D01*
X97321365Y-114466031D01*
X97374478Y-114487937D01*
G36*
X87044403Y-115041929D02*
X87386710Y-115292103D01*
X87668460Y-115549489D01*
X87945408Y-115832256D01*
X88129883Y-116054815D01*
X88197482Y-116186123D01*
X88185089Y-116206618D01*
X87917367Y-116289825D01*
X87555070Y-116389914D01*
X87157721Y-116492028D01*
X86784843Y-116581309D01*
X86495959Y-116642900D01*
X86359053Y-116662400D01*
X86181346Y-116601329D01*
X86131413Y-116535400D01*
X86099945Y-116364704D01*
X86070168Y-116073713D01*
X86058402Y-115900400D01*
X86057914Y-115565873D01*
X86119318Y-115349662D01*
X86266337Y-115170502D01*
X86273435Y-115163800D01*
X86519638Y-114986589D01*
X86766003Y-114943028D01*
X87044403Y-115041929D01*
X87044403Y-115041929D01*
G37*
X87044403Y-115041929D02*
X87386710Y-115292103D01*
X87668460Y-115549489D01*
X87945408Y-115832256D01*
X88129883Y-116054815D01*
X88197482Y-116186123D01*
X88185089Y-116206618D01*
X87917367Y-116289825D01*
X87555070Y-116389914D01*
X87157721Y-116492028D01*
X86784843Y-116581309D01*
X86495959Y-116642900D01*
X86359053Y-116662400D01*
X86181346Y-116601329D01*
X86131413Y-116535400D01*
X86099945Y-116364704D01*
X86070168Y-116073713D01*
X86058402Y-115900400D01*
X86057914Y-115565873D01*
X86119318Y-115349662D01*
X86266337Y-115170502D01*
X86273435Y-115163800D01*
X86519638Y-114986589D01*
X86766003Y-114943028D01*
X87044403Y-115041929D01*
G36*
X87639361Y-114618947D02*
X87757200Y-114632735D01*
X87942133Y-114651795D01*
X88036255Y-114651107D01*
X88198870Y-114734340D01*
X88291705Y-114981030D01*
X88304443Y-115360329D01*
X88298085Y-115433969D01*
X88265200Y-115757655D01*
X87709870Y-115194027D01*
X87437240Y-114912315D01*
X87294299Y-114743106D01*
X87265413Y-114656875D01*
X87334951Y-114624100D01*
X87405070Y-114618368D01*
X87639361Y-114618947D01*
X87639361Y-114618947D01*
G37*
X87639361Y-114618947D02*
X87757200Y-114632735D01*
X87942133Y-114651795D01*
X88036255Y-114651107D01*
X88198870Y-114734340D01*
X88291705Y-114981030D01*
X88304443Y-115360329D01*
X88298085Y-115433969D01*
X88265200Y-115757655D01*
X87709870Y-115194027D01*
X87437240Y-114912315D01*
X87294299Y-114743106D01*
X87265413Y-114656875D01*
X87334951Y-114624100D01*
X87405070Y-114618368D01*
X87639361Y-114618947D01*
G36*
X89080343Y-115107876D02*
X88992321Y-115476278D01*
X88874187Y-115693925D01*
X88747216Y-115748649D01*
X88632682Y-115628280D01*
X88565200Y-115402546D01*
X88523637Y-115024123D01*
X88582434Y-114795024D01*
X88755352Y-114680748D01*
X88861704Y-114659171D01*
X89153408Y-114620152D01*
X89080343Y-115107876D01*
X89080343Y-115107876D01*
G37*
X89080343Y-115107876D02*
X88992321Y-115476278D01*
X88874187Y-115693925D01*
X88747216Y-115748649D01*
X88632682Y-115628280D01*
X88565200Y-115402546D01*
X88523637Y-115024123D01*
X88582434Y-114795024D01*
X88755352Y-114680748D01*
X88861704Y-114659171D01*
X89153408Y-114620152D01*
X89080343Y-115107876D01*
G36*
X90045417Y-114548343D02*
X90587203Y-114579600D01*
X90011965Y-114960600D01*
X89715627Y-115152141D01*
X89490326Y-115288953D01*
X89384555Y-115341597D01*
X89384363Y-115341600D01*
X89346820Y-115253761D01*
X89333555Y-115062200D01*
X89365347Y-114770544D01*
X89483035Y-114607682D01*
X89726196Y-114545045D01*
X90045417Y-114548343D01*
X90045417Y-114548343D01*
G37*
X90045417Y-114548343D02*
X90587203Y-114579600D01*
X90011965Y-114960600D01*
X89715627Y-115152141D01*
X89490326Y-115288953D01*
X89384555Y-115341597D01*
X89384363Y-115341600D01*
X89346820Y-115253761D01*
X89333555Y-115062200D01*
X89365347Y-114770544D01*
X89483035Y-114607682D01*
X89726196Y-114545045D01*
X90045417Y-114548343D01*
G36*
X86535614Y-114721814D02*
X86504312Y-114802612D01*
X86379424Y-114874066D01*
X86164160Y-114992047D01*
X86056955Y-115084788D01*
X85995400Y-115097195D01*
X85980755Y-115008126D01*
X86064358Y-114835569D01*
X86207800Y-114740655D01*
X86424783Y-114691839D01*
X86535614Y-114721814D01*
X86535614Y-114721814D01*
G37*
X86535614Y-114721814D02*
X86504312Y-114802612D01*
X86379424Y-114874066D01*
X86164160Y-114992047D01*
X86056955Y-115084788D01*
X85995400Y-115097195D01*
X85980755Y-115008126D01*
X86064358Y-114835569D01*
X86207800Y-114740655D01*
X86424783Y-114691839D01*
X86535614Y-114721814D01*
G36*
X98181563Y-105237828D02*
X98428573Y-105247443D01*
X98491461Y-105258021D01*
X98564954Y-105386658D01*
X98696392Y-105671992D01*
X98874531Y-106085484D01*
X99088128Y-106598590D01*
X99325940Y-107182769D01*
X99576724Y-107809480D01*
X99829237Y-108450181D01*
X100072236Y-109076331D01*
X100294477Y-109659388D01*
X100484718Y-110170811D01*
X100631716Y-110582058D01*
X100724228Y-110864587D01*
X100751010Y-110989858D01*
X100750163Y-110991952D01*
X100741618Y-111057810D01*
X100797101Y-111033301D01*
X100902280Y-111003919D01*
X100887752Y-111090147D01*
X100784884Y-111218430D01*
X100651869Y-111275335D01*
X100371193Y-111317349D01*
X99925865Y-111345959D01*
X99298896Y-111362652D01*
X99108484Y-111365174D01*
X97561600Y-111382402D01*
X97561600Y-111126801D01*
X97570879Y-110998312D01*
X97626790Y-110921477D01*
X97771443Y-110882049D01*
X98046946Y-110865785D01*
X98349000Y-110860434D01*
X98769606Y-110857538D01*
X99144605Y-110859935D01*
X99399144Y-110867088D01*
X99415800Y-110868091D01*
X99620606Y-110840934D01*
X99691108Y-110710103D01*
X99629889Y-110455523D01*
X99504193Y-110181352D01*
X99368712Y-109892469D01*
X99198119Y-109499453D01*
X99031687Y-109093200D01*
X98858458Y-108674714D01*
X98643277Y-108178800D01*
X99085600Y-108178800D01*
X99136400Y-108229600D01*
X99187200Y-108178800D01*
X99136400Y-108128000D01*
X99085600Y-108178800D01*
X98643277Y-108178800D01*
X98625251Y-108137258D01*
X98462406Y-107772400D01*
X98984000Y-107772400D01*
X99034800Y-107823200D01*
X99085600Y-107772400D01*
X99034800Y-107721600D01*
X98984000Y-107772400D01*
X98462406Y-107772400D01*
X98360771Y-107544688D01*
X98093723Y-106960860D01*
X97852814Y-106449629D01*
X97735359Y-106209508D01*
X97678149Y-106107907D01*
X97602587Y-106041703D01*
X97471509Y-106005940D01*
X97247754Y-105995663D01*
X96894158Y-106005917D01*
X96394211Y-106030675D01*
X95941568Y-106051073D01*
X95331631Y-106074083D01*
X94610264Y-106098220D01*
X93823331Y-106121998D01*
X93016695Y-106143929D01*
X92532400Y-106155817D01*
X91803463Y-106173903D01*
X91127729Y-106192573D01*
X90536122Y-106210822D01*
X90059570Y-106227645D01*
X89728999Y-106242036D01*
X89586000Y-106251594D01*
X89357824Y-106266400D01*
X88984862Y-106279368D01*
X88525526Y-106288795D01*
X88189000Y-106292343D01*
X87096800Y-106299200D01*
X87092998Y-106578600D01*
X87059502Y-106762000D01*
X86968792Y-107100568D01*
X86831711Y-107558003D01*
X86659101Y-108098010D01*
X86478428Y-108636000D01*
X86279615Y-109224946D01*
X86102388Y-109769150D01*
X85958515Y-110230933D01*
X85859767Y-110572621D01*
X85819208Y-110746276D01*
X85770756Y-111078552D01*
X87525978Y-111031551D01*
X89098344Y-110991246D01*
X90552021Y-110957611D01*
X91878045Y-110930725D01*
X93067455Y-110910665D01*
X94111287Y-110897512D01*
X95000579Y-110891344D01*
X95726369Y-110892239D01*
X96279693Y-110900277D01*
X96651589Y-110915536D01*
X96833094Y-110938094D01*
X96850400Y-110949592D01*
X96884512Y-111135203D01*
X96912070Y-111218490D01*
X96927045Y-111246646D01*
X96940825Y-111271372D01*
X96941126Y-111292782D01*
X96915662Y-111310993D01*
X96852148Y-111326121D01*
X96738299Y-111338281D01*
X96561831Y-111347588D01*
X96310457Y-111354160D01*
X95971893Y-111358110D01*
X95533854Y-111359555D01*
X94984056Y-111358611D01*
X94310212Y-111355393D01*
X93500037Y-111350018D01*
X92541248Y-111342599D01*
X91421558Y-111333255D01*
X90128683Y-111322099D01*
X88650338Y-111309248D01*
X87933418Y-111303048D01*
X84655236Y-111274780D01*
X84722564Y-110996790D01*
X84773744Y-110803881D01*
X84868867Y-110462356D01*
X84999139Y-110002541D01*
X85155764Y-109454760D01*
X85329946Y-108849341D01*
X85512891Y-108216607D01*
X85695804Y-107586885D01*
X85869889Y-106990500D01*
X86026350Y-106457779D01*
X86156393Y-106019045D01*
X86251223Y-105704625D01*
X86302044Y-105544845D01*
X86307760Y-105531110D01*
X86423949Y-105512022D01*
X86721401Y-105490733D01*
X87178423Y-105467727D01*
X87773316Y-105443493D01*
X88484386Y-105418515D01*
X89289936Y-105393280D01*
X90168269Y-105368275D01*
X91097690Y-105343985D01*
X92056503Y-105320898D01*
X93023011Y-105299499D01*
X93975518Y-105280274D01*
X94892329Y-105263711D01*
X95751746Y-105250295D01*
X96532074Y-105240512D01*
X97211617Y-105234849D01*
X97768679Y-105233793D01*
X98181563Y-105237828D01*
X98181563Y-105237828D01*
G37*
X98181563Y-105237828D02*
X98428573Y-105247443D01*
X98491461Y-105258021D01*
X98564954Y-105386658D01*
X98696392Y-105671992D01*
X98874531Y-106085484D01*
X99088128Y-106598590D01*
X99325940Y-107182769D01*
X99576724Y-107809480D01*
X99829237Y-108450181D01*
X100072236Y-109076331D01*
X100294477Y-109659388D01*
X100484718Y-110170811D01*
X100631716Y-110582058D01*
X100724228Y-110864587D01*
X100751010Y-110989858D01*
X100750163Y-110991952D01*
X100741618Y-111057810D01*
X100797101Y-111033301D01*
X100902280Y-111003919D01*
X100887752Y-111090147D01*
X100784884Y-111218430D01*
X100651869Y-111275335D01*
X100371193Y-111317349D01*
X99925865Y-111345959D01*
X99298896Y-111362652D01*
X99108484Y-111365174D01*
X97561600Y-111382402D01*
X97561600Y-111126801D01*
X97570879Y-110998312D01*
X97626790Y-110921477D01*
X97771443Y-110882049D01*
X98046946Y-110865785D01*
X98349000Y-110860434D01*
X98769606Y-110857538D01*
X99144605Y-110859935D01*
X99399144Y-110867088D01*
X99415800Y-110868091D01*
X99620606Y-110840934D01*
X99691108Y-110710103D01*
X99629889Y-110455523D01*
X99504193Y-110181352D01*
X99368712Y-109892469D01*
X99198119Y-109499453D01*
X99031687Y-109093200D01*
X98858458Y-108674714D01*
X98643277Y-108178800D01*
X99085600Y-108178800D01*
X99136400Y-108229600D01*
X99187200Y-108178800D01*
X99136400Y-108128000D01*
X99085600Y-108178800D01*
X98643277Y-108178800D01*
X98625251Y-108137258D01*
X98462406Y-107772400D01*
X98984000Y-107772400D01*
X99034800Y-107823200D01*
X99085600Y-107772400D01*
X99034800Y-107721600D01*
X98984000Y-107772400D01*
X98462406Y-107772400D01*
X98360771Y-107544688D01*
X98093723Y-106960860D01*
X97852814Y-106449629D01*
X97735359Y-106209508D01*
X97678149Y-106107907D01*
X97602587Y-106041703D01*
X97471509Y-106005940D01*
X97247754Y-105995663D01*
X96894158Y-106005917D01*
X96394211Y-106030675D01*
X95941568Y-106051073D01*
X95331631Y-106074083D01*
X94610264Y-106098220D01*
X93823331Y-106121998D01*
X93016695Y-106143929D01*
X92532400Y-106155817D01*
X91803463Y-106173903D01*
X91127729Y-106192573D01*
X90536122Y-106210822D01*
X90059570Y-106227645D01*
X89728999Y-106242036D01*
X89586000Y-106251594D01*
X89357824Y-106266400D01*
X88984862Y-106279368D01*
X88525526Y-106288795D01*
X88189000Y-106292343D01*
X87096800Y-106299200D01*
X87092998Y-106578600D01*
X87059502Y-106762000D01*
X86968792Y-107100568D01*
X86831711Y-107558003D01*
X86659101Y-108098010D01*
X86478428Y-108636000D01*
X86279615Y-109224946D01*
X86102388Y-109769150D01*
X85958515Y-110230933D01*
X85859767Y-110572621D01*
X85819208Y-110746276D01*
X85770756Y-111078552D01*
X87525978Y-111031551D01*
X89098344Y-110991246D01*
X90552021Y-110957611D01*
X91878045Y-110930725D01*
X93067455Y-110910665D01*
X94111287Y-110897512D01*
X95000579Y-110891344D01*
X95726369Y-110892239D01*
X96279693Y-110900277D01*
X96651589Y-110915536D01*
X96833094Y-110938094D01*
X96850400Y-110949592D01*
X96884512Y-111135203D01*
X96912070Y-111218490D01*
X96927045Y-111246646D01*
X96940825Y-111271372D01*
X96941126Y-111292782D01*
X96915662Y-111310993D01*
X96852148Y-111326121D01*
X96738299Y-111338281D01*
X96561831Y-111347588D01*
X96310457Y-111354160D01*
X95971893Y-111358110D01*
X95533854Y-111359555D01*
X94984056Y-111358611D01*
X94310212Y-111355393D01*
X93500037Y-111350018D01*
X92541248Y-111342599D01*
X91421558Y-111333255D01*
X90128683Y-111322099D01*
X88650338Y-111309248D01*
X87933418Y-111303048D01*
X84655236Y-111274780D01*
X84722564Y-110996790D01*
X84773744Y-110803881D01*
X84868867Y-110462356D01*
X84999139Y-110002541D01*
X85155764Y-109454760D01*
X85329946Y-108849341D01*
X85512891Y-108216607D01*
X85695804Y-107586885D01*
X85869889Y-106990500D01*
X86026350Y-106457779D01*
X86156393Y-106019045D01*
X86251223Y-105704625D01*
X86302044Y-105544845D01*
X86307760Y-105531110D01*
X86423949Y-105512022D01*
X86721401Y-105490733D01*
X87178423Y-105467727D01*
X87773316Y-105443493D01*
X88484386Y-105418515D01*
X89289936Y-105393280D01*
X90168269Y-105368275D01*
X91097690Y-105343985D01*
X92056503Y-105320898D01*
X93023011Y-105299499D01*
X93975518Y-105280274D01*
X94892329Y-105263711D01*
X95751746Y-105250295D01*
X96532074Y-105240512D01*
X97211617Y-105234849D01*
X97768679Y-105233793D01*
X98181563Y-105237828D01*
G36*
X112972961Y-97338707D02*
X112985234Y-97434600D01*
X113015982Y-97622751D01*
X113113371Y-97915449D01*
X113202936Y-98129562D01*
X113359858Y-98431228D01*
X113539407Y-98644149D01*
X113803961Y-98829404D01*
X114059504Y-98968293D01*
X114366031Y-99159671D01*
X114707723Y-99424399D01*
X115051951Y-99729851D01*
X115366087Y-100043405D01*
X115617501Y-100332437D01*
X115773565Y-100564323D01*
X115801649Y-100706441D01*
X115800286Y-100708795D01*
X115815188Y-100767908D01*
X115895123Y-100749966D01*
X116020680Y-100759604D01*
X116052800Y-100909526D01*
X116088497Y-101058028D01*
X116149302Y-101069950D01*
X116259690Y-101094320D01*
X116361374Y-101231589D01*
X116405466Y-101395470D01*
X116379425Y-101476130D01*
X116377739Y-101511202D01*
X116425664Y-101488521D01*
X116555604Y-101514296D01*
X116720517Y-101653182D01*
X116861701Y-101837969D01*
X116920458Y-102001446D01*
X116909738Y-102042778D01*
X116937260Y-102087439D01*
X117024447Y-102066267D01*
X117142763Y-102052524D01*
X117137114Y-102178591D01*
X117127191Y-102211280D01*
X117122453Y-102415940D01*
X117181965Y-102496347D01*
X117255002Y-102513151D01*
X117222755Y-102440917D01*
X117205225Y-102349079D01*
X117283257Y-102359559D01*
X117390030Y-102485653D01*
X117394177Y-102577548D01*
X117428576Y-102707928D01*
X117495777Y-102719407D01*
X117608251Y-102777123D01*
X117628895Y-102863029D01*
X117679512Y-103059847D01*
X117721384Y-103117029D01*
X117765331Y-103129119D01*
X117739492Y-103073400D01*
X117706166Y-102959854D01*
X117777313Y-102965934D01*
X117903092Y-103079059D01*
X117937876Y-103123471D01*
X118124174Y-103269262D01*
X118252516Y-103301271D01*
X118382007Y-103373114D01*
X118561499Y-103597037D01*
X118800964Y-103986904D01*
X118983903Y-104318000D01*
X119213706Y-104764054D01*
X119433449Y-105223351D01*
X119627235Y-105658406D01*
X119779163Y-106031735D01*
X119873336Y-106305854D01*
X119893853Y-106443278D01*
X119888463Y-106450626D01*
X119660357Y-106591087D01*
X119406876Y-106738903D01*
X119193100Y-106857083D01*
X119084112Y-106908632D01*
X119082416Y-106908800D01*
X118990473Y-106842258D01*
X118819782Y-106677495D01*
X118773755Y-106629400D01*
X118607960Y-106442611D01*
X118362012Y-106151871D01*
X118060644Y-105787878D01*
X117728594Y-105381331D01*
X117390596Y-104962928D01*
X117071386Y-104563368D01*
X116795698Y-104213349D01*
X116588270Y-103943570D01*
X116473834Y-103784729D01*
X116459200Y-103756850D01*
X116547541Y-103646215D01*
X116764665Y-103531836D01*
X117038715Y-103442152D01*
X117297837Y-103405604D01*
X117342493Y-103407249D01*
X117556485Y-103412890D01*
X117606947Y-103359664D01*
X117546654Y-103240684D01*
X117420676Y-103087656D01*
X117349160Y-103048000D01*
X117280617Y-102965373D01*
X117272000Y-102895600D01*
X117246264Y-102760070D01*
X117224697Y-102743200D01*
X117060271Y-102799524D01*
X116778370Y-102949336D01*
X116423847Y-103163895D01*
X116041553Y-103414460D01*
X115676343Y-103672289D01*
X115373068Y-103908642D01*
X115282226Y-103987913D01*
X115011514Y-104227420D01*
X114805198Y-104395074D01*
X114701836Y-104459861D01*
X114697277Y-104458412D01*
X114567652Y-104283894D01*
X114374753Y-104031630D01*
X114164292Y-103760488D01*
X113981984Y-103529332D01*
X113873542Y-103397027D01*
X113869861Y-103392947D01*
X113766158Y-103267407D01*
X113571628Y-103021691D01*
X113318789Y-102697106D01*
X113157200Y-102487633D01*
X113141550Y-102467523D01*
X116577177Y-102467523D01*
X116601898Y-102524301D01*
X116704198Y-102633374D01*
X116763011Y-102610999D01*
X116764000Y-102596796D01*
X116691835Y-102510861D01*
X116660663Y-102489200D01*
X116865600Y-102489200D01*
X116916400Y-102540000D01*
X116967200Y-102489200D01*
X116916400Y-102438400D01*
X116865600Y-102489200D01*
X116660663Y-102489200D01*
X116646701Y-102479498D01*
X116577177Y-102467523D01*
X113141550Y-102467523D01*
X113000282Y-102286000D01*
X116662400Y-102286000D01*
X116713200Y-102336800D01*
X116764000Y-102286000D01*
X116713200Y-102235200D01*
X116662400Y-102286000D01*
X113000282Y-102286000D01*
X112836924Y-102076094D01*
X112761576Y-101981200D01*
X116154400Y-101981200D01*
X116205200Y-102032000D01*
X116256000Y-101981200D01*
X116205200Y-101930400D01*
X116154400Y-101981200D01*
X112761576Y-101981200D01*
X112559894Y-101727200D01*
X116560800Y-101727200D01*
X116597973Y-101810828D01*
X116628533Y-101794933D01*
X116640692Y-101674357D01*
X116628533Y-101659466D01*
X116568132Y-101673413D01*
X116560800Y-101727200D01*
X112559894Y-101727200D01*
X112507858Y-101661666D01*
X112437315Y-101574800D01*
X115849600Y-101574800D01*
X115900400Y-101625600D01*
X115951200Y-101574800D01*
X115900400Y-101524000D01*
X115849600Y-101574800D01*
X112437315Y-101574800D01*
X112225197Y-101313602D01*
X112188841Y-101270000D01*
X115544800Y-101270000D01*
X115595600Y-101320800D01*
X115646400Y-101270000D01*
X115595600Y-101219200D01*
X115544800Y-101270000D01*
X112188841Y-101270000D01*
X112141200Y-101212866D01*
X111738269Y-100731772D01*
X111515287Y-100457200D01*
X115341600Y-100457200D01*
X115392400Y-100508000D01*
X115443200Y-100457200D01*
X115392400Y-100406400D01*
X115341600Y-100457200D01*
X111515287Y-100457200D01*
X111454078Y-100381831D01*
X111273543Y-100141283D01*
X111181580Y-99988370D01*
X111163107Y-99901334D01*
X111202471Y-99858665D01*
X111250918Y-99817541D01*
X111176000Y-99817891D01*
X110978747Y-99784349D01*
X110720028Y-99679767D01*
X110469805Y-99540996D01*
X110298042Y-99404889D01*
X110261600Y-99336248D01*
X110340656Y-99179528D01*
X110554493Y-98939092D01*
X110868112Y-98642873D01*
X111246517Y-98318805D01*
X111654710Y-97994820D01*
X112057692Y-97698851D01*
X112420467Y-97458833D01*
X112708036Y-97302697D01*
X112866953Y-97256800D01*
X112972961Y-97338707D01*
X112972961Y-97338707D01*
G37*
X112972961Y-97338707D02*
X112985234Y-97434600D01*
X113015982Y-97622751D01*
X113113371Y-97915449D01*
X113202936Y-98129562D01*
X113359858Y-98431228D01*
X113539407Y-98644149D01*
X113803961Y-98829404D01*
X114059504Y-98968293D01*
X114366031Y-99159671D01*
X114707723Y-99424399D01*
X115051951Y-99729851D01*
X115366087Y-100043405D01*
X115617501Y-100332437D01*
X115773565Y-100564323D01*
X115801649Y-100706441D01*
X115800286Y-100708795D01*
X115815188Y-100767908D01*
X115895123Y-100749966D01*
X116020680Y-100759604D01*
X116052800Y-100909526D01*
X116088497Y-101058028D01*
X116149302Y-101069950D01*
X116259690Y-101094320D01*
X116361374Y-101231589D01*
X116405466Y-101395470D01*
X116379425Y-101476130D01*
X116377739Y-101511202D01*
X116425664Y-101488521D01*
X116555604Y-101514296D01*
X116720517Y-101653182D01*
X116861701Y-101837969D01*
X116920458Y-102001446D01*
X116909738Y-102042778D01*
X116937260Y-102087439D01*
X117024447Y-102066267D01*
X117142763Y-102052524D01*
X117137114Y-102178591D01*
X117127191Y-102211280D01*
X117122453Y-102415940D01*
X117181965Y-102496347D01*
X117255002Y-102513151D01*
X117222755Y-102440917D01*
X117205225Y-102349079D01*
X117283257Y-102359559D01*
X117390030Y-102485653D01*
X117394177Y-102577548D01*
X117428576Y-102707928D01*
X117495777Y-102719407D01*
X117608251Y-102777123D01*
X117628895Y-102863029D01*
X117679512Y-103059847D01*
X117721384Y-103117029D01*
X117765331Y-103129119D01*
X117739492Y-103073400D01*
X117706166Y-102959854D01*
X117777313Y-102965934D01*
X117903092Y-103079059D01*
X117937876Y-103123471D01*
X118124174Y-103269262D01*
X118252516Y-103301271D01*
X118382007Y-103373114D01*
X118561499Y-103597037D01*
X118800964Y-103986904D01*
X118983903Y-104318000D01*
X119213706Y-104764054D01*
X119433449Y-105223351D01*
X119627235Y-105658406D01*
X119779163Y-106031735D01*
X119873336Y-106305854D01*
X119893853Y-106443278D01*
X119888463Y-106450626D01*
X119660357Y-106591087D01*
X119406876Y-106738903D01*
X119193100Y-106857083D01*
X119084112Y-106908632D01*
X119082416Y-106908800D01*
X118990473Y-106842258D01*
X118819782Y-106677495D01*
X118773755Y-106629400D01*
X118607960Y-106442611D01*
X118362012Y-106151871D01*
X118060644Y-105787878D01*
X117728594Y-105381331D01*
X117390596Y-104962928D01*
X117071386Y-104563368D01*
X116795698Y-104213349D01*
X116588270Y-103943570D01*
X116473834Y-103784729D01*
X116459200Y-103756850D01*
X116547541Y-103646215D01*
X116764665Y-103531836D01*
X117038715Y-103442152D01*
X117297837Y-103405604D01*
X117342493Y-103407249D01*
X117556485Y-103412890D01*
X117606947Y-103359664D01*
X117546654Y-103240684D01*
X117420676Y-103087656D01*
X117349160Y-103048000D01*
X117280617Y-102965373D01*
X117272000Y-102895600D01*
X117246264Y-102760070D01*
X117224697Y-102743200D01*
X117060271Y-102799524D01*
X116778370Y-102949336D01*
X116423847Y-103163895D01*
X116041553Y-103414460D01*
X115676343Y-103672289D01*
X115373068Y-103908642D01*
X115282226Y-103987913D01*
X115011514Y-104227420D01*
X114805198Y-104395074D01*
X114701836Y-104459861D01*
X114697277Y-104458412D01*
X114567652Y-104283894D01*
X114374753Y-104031630D01*
X114164292Y-103760488D01*
X113981984Y-103529332D01*
X113873542Y-103397027D01*
X113869861Y-103392947D01*
X113766158Y-103267407D01*
X113571628Y-103021691D01*
X113318789Y-102697106D01*
X113157200Y-102487633D01*
X113141550Y-102467523D01*
X116577177Y-102467523D01*
X116601898Y-102524301D01*
X116704198Y-102633374D01*
X116763011Y-102610999D01*
X116764000Y-102596796D01*
X116691835Y-102510861D01*
X116660663Y-102489200D01*
X116865600Y-102489200D01*
X116916400Y-102540000D01*
X116967200Y-102489200D01*
X116916400Y-102438400D01*
X116865600Y-102489200D01*
X116660663Y-102489200D01*
X116646701Y-102479498D01*
X116577177Y-102467523D01*
X113141550Y-102467523D01*
X113000282Y-102286000D01*
X116662400Y-102286000D01*
X116713200Y-102336800D01*
X116764000Y-102286000D01*
X116713200Y-102235200D01*
X116662400Y-102286000D01*
X113000282Y-102286000D01*
X112836924Y-102076094D01*
X112761576Y-101981200D01*
X116154400Y-101981200D01*
X116205200Y-102032000D01*
X116256000Y-101981200D01*
X116205200Y-101930400D01*
X116154400Y-101981200D01*
X112761576Y-101981200D01*
X112559894Y-101727200D01*
X116560800Y-101727200D01*
X116597973Y-101810828D01*
X116628533Y-101794933D01*
X116640692Y-101674357D01*
X116628533Y-101659466D01*
X116568132Y-101673413D01*
X116560800Y-101727200D01*
X112559894Y-101727200D01*
X112507858Y-101661666D01*
X112437315Y-101574800D01*
X115849600Y-101574800D01*
X115900400Y-101625600D01*
X115951200Y-101574800D01*
X115900400Y-101524000D01*
X115849600Y-101574800D01*
X112437315Y-101574800D01*
X112225197Y-101313602D01*
X112188841Y-101270000D01*
X115544800Y-101270000D01*
X115595600Y-101320800D01*
X115646400Y-101270000D01*
X115595600Y-101219200D01*
X115544800Y-101270000D01*
X112188841Y-101270000D01*
X112141200Y-101212866D01*
X111738269Y-100731772D01*
X111515287Y-100457200D01*
X115341600Y-100457200D01*
X115392400Y-100508000D01*
X115443200Y-100457200D01*
X115392400Y-100406400D01*
X115341600Y-100457200D01*
X111515287Y-100457200D01*
X111454078Y-100381831D01*
X111273543Y-100141283D01*
X111181580Y-99988370D01*
X111163107Y-99901334D01*
X111202471Y-99858665D01*
X111250918Y-99817541D01*
X111176000Y-99817891D01*
X110978747Y-99784349D01*
X110720028Y-99679767D01*
X110469805Y-99540996D01*
X110298042Y-99404889D01*
X110261600Y-99336248D01*
X110340656Y-99179528D01*
X110554493Y-98939092D01*
X110868112Y-98642873D01*
X111246517Y-98318805D01*
X111654710Y-97994820D01*
X112057692Y-97698851D01*
X112420467Y-97458833D01*
X112708036Y-97302697D01*
X112866953Y-97256800D01*
X112972961Y-97338707D01*
G36*
X74394565Y-94038448D02*
X74658764Y-94252763D01*
X74850453Y-94464947D01*
X74898018Y-94548922D01*
X74940561Y-94781461D01*
X74933338Y-95053911D01*
X74885984Y-95291969D01*
X74808135Y-95421336D01*
X74784011Y-95428000D01*
X74720249Y-95514943D01*
X74708523Y-95707400D01*
X74704204Y-95973037D01*
X74670355Y-96139200D01*
X74631472Y-96315887D01*
X74590286Y-96624547D01*
X74559585Y-96952000D01*
X74524535Y-97388684D01*
X74493814Y-97658363D01*
X74457328Y-97796718D01*
X74404981Y-97839433D01*
X74326680Y-97822190D01*
X74314696Y-97817646D01*
X74219156Y-97798946D01*
X74276160Y-97894109D01*
X74289357Y-97910160D01*
X74354228Y-98054125D01*
X74300385Y-98243414D01*
X74231022Y-98369686D01*
X74089109Y-98575544D01*
X73979350Y-98676976D01*
X73968494Y-98679200D01*
X73911535Y-98746977D01*
X73914199Y-98757331D01*
X73880814Y-98884612D01*
X73763170Y-99119316D01*
X73591409Y-99414143D01*
X73395671Y-99721791D01*
X73206097Y-99994958D01*
X73052828Y-100186343D01*
X72966005Y-100248644D01*
X72964438Y-100247843D01*
X72915385Y-100271156D01*
X72931690Y-100340046D01*
X72944849Y-100499963D01*
X72810718Y-100532916D01*
X72525876Y-100438420D01*
X72362067Y-100355600D01*
X72669600Y-100355600D01*
X72720400Y-100406400D01*
X72771200Y-100355600D01*
X72720400Y-100304800D01*
X72669600Y-100355600D01*
X72362067Y-100355600D01*
X72097158Y-100221665D01*
X71484588Y-99873012D01*
X71118773Y-99644400D01*
X73076000Y-99644400D01*
X73126800Y-99695200D01*
X73177600Y-99644400D01*
X73126800Y-99593600D01*
X73076000Y-99644400D01*
X71118773Y-99644400D01*
X71044512Y-99597992D01*
X70763828Y-99387503D01*
X70634248Y-99238000D01*
X70739200Y-99238000D01*
X70790000Y-99288800D01*
X70840800Y-99238000D01*
X70790000Y-99187200D01*
X70739200Y-99238000D01*
X70634248Y-99238000D01*
X70629434Y-99232446D01*
X70615033Y-99192294D01*
X70555394Y-99144509D01*
X70429421Y-99284549D01*
X70409179Y-99314819D01*
X70232379Y-99584649D01*
X70688989Y-99898805D01*
X70942342Y-100089268D01*
X71108144Y-100244890D01*
X71145600Y-100308418D01*
X71096069Y-100415892D01*
X70961373Y-100661556D01*
X70762355Y-101010246D01*
X70519859Y-101426795D01*
X70254729Y-101876039D01*
X69987807Y-102322811D01*
X69739937Y-102731946D01*
X69531964Y-103068280D01*
X69384730Y-103296645D01*
X69328715Y-103373714D01*
X69211543Y-103370574D01*
X68998486Y-103274405D01*
X68927862Y-103232087D01*
X68703107Y-103056458D01*
X68634418Y-102890718D01*
X68647222Y-102794392D01*
X68700615Y-102543769D01*
X68758028Y-102222070D01*
X68765720Y-102174018D01*
X68832848Y-101880011D01*
X68957273Y-101450564D01*
X69121737Y-100939264D01*
X69308984Y-100399701D01*
X69501760Y-99885465D01*
X69506657Y-99873000D01*
X69596206Y-99746000D01*
X69926400Y-99746000D01*
X69977200Y-99796800D01*
X70028000Y-99746000D01*
X70129600Y-99746000D01*
X70180400Y-99796800D01*
X70231200Y-99746000D01*
X70180400Y-99695200D01*
X70129600Y-99746000D01*
X70028000Y-99746000D01*
X69977200Y-99695200D01*
X69926400Y-99746000D01*
X69596206Y-99746000D01*
X69665335Y-99647962D01*
X69822285Y-99593600D01*
X69989745Y-99530661D01*
X70028000Y-99441200D01*
X70082861Y-99305993D01*
X70129600Y-99288800D01*
X70219737Y-99206508D01*
X70231200Y-99136400D01*
X70274822Y-99034800D01*
X70627549Y-99034800D01*
X70835774Y-98794944D01*
X70982511Y-98599518D01*
X71043997Y-98465170D01*
X71044000Y-98464744D01*
X71029191Y-98425200D01*
X71247200Y-98425200D01*
X71298000Y-98476000D01*
X71348800Y-98425200D01*
X71298000Y-98374400D01*
X71247200Y-98425200D01*
X71029191Y-98425200D01*
X71010693Y-98375807D01*
X70917298Y-98468519D01*
X70787583Y-98704600D01*
X70627549Y-99034800D01*
X70274822Y-99034800D01*
X70289231Y-99001243D01*
X70338796Y-98984000D01*
X70402776Y-98923582D01*
X70390179Y-98893046D01*
X70418264Y-98786219D01*
X70492223Y-98741363D01*
X70596833Y-98640674D01*
X70587243Y-98578317D01*
X70597976Y-98484330D01*
X70637600Y-98476000D01*
X70703854Y-98414109D01*
X70688400Y-98374400D01*
X70696455Y-98280777D01*
X70733203Y-98272800D01*
X70827598Y-98190190D01*
X70830906Y-98171200D01*
X71094800Y-98171200D01*
X71102855Y-98264822D01*
X71139603Y-98272800D01*
X71210866Y-98222000D01*
X71348800Y-98222000D01*
X71399600Y-98272800D01*
X71450400Y-98222000D01*
X71399600Y-98171200D01*
X71348800Y-98222000D01*
X71210866Y-98222000D01*
X71243065Y-98199047D01*
X71247200Y-98171200D01*
X71212535Y-98072241D01*
X71202396Y-98069600D01*
X71115653Y-98140794D01*
X71094800Y-98171200D01*
X70830906Y-98171200D01*
X70840800Y-98114403D01*
X70893634Y-98011286D01*
X70959665Y-98029470D01*
X71036733Y-98034535D01*
X71016881Y-97942275D01*
X71021702Y-97900266D01*
X71281066Y-97900266D01*
X71295013Y-97960667D01*
X71348800Y-97968000D01*
X71432428Y-97930826D01*
X71425341Y-97917200D01*
X71552000Y-97917200D01*
X71602800Y-97968000D01*
X71653600Y-97917200D01*
X71602800Y-97866400D01*
X71552000Y-97917200D01*
X71425341Y-97917200D01*
X71416533Y-97900266D01*
X71295957Y-97888107D01*
X71281066Y-97900266D01*
X71021702Y-97900266D01*
X71031420Y-97815600D01*
X73990400Y-97815600D01*
X74041200Y-97866400D01*
X74092000Y-97815600D01*
X74041200Y-97764800D01*
X73990400Y-97815600D01*
X71031420Y-97815600D01*
X71036130Y-97774573D01*
X71107654Y-97723125D01*
X71126435Y-97704188D01*
X71393743Y-97704188D01*
X71470034Y-97711097D01*
X71503230Y-97699161D01*
X71612688Y-97621514D01*
X71611571Y-97612400D01*
X71755200Y-97612400D01*
X71806000Y-97663200D01*
X71856800Y-97612400D01*
X71806000Y-97561600D01*
X71755200Y-97612400D01*
X71611571Y-97612400D01*
X71608063Y-97583796D01*
X71617597Y-97472554D01*
X71679881Y-97373645D01*
X71755057Y-97266060D01*
X71691641Y-97286577D01*
X71679546Y-97293755D01*
X71529130Y-97442277D01*
X71448595Y-97564971D01*
X71393743Y-97704188D01*
X71126435Y-97704188D01*
X71207742Y-97622206D01*
X71196843Y-97562317D01*
X71204220Y-97468179D01*
X71241203Y-97460000D01*
X71336625Y-97377803D01*
X71348800Y-97307600D01*
X71406831Y-97172443D01*
X71456396Y-97155200D01*
X71462845Y-97148584D01*
X71780110Y-97148584D01*
X71794007Y-97155200D01*
X71859859Y-97104400D01*
X72060000Y-97104400D01*
X72110800Y-97155200D01*
X72161600Y-97104400D01*
X72110800Y-97053600D01*
X72060000Y-97104400D01*
X71859859Y-97104400D01*
X71886726Y-97083675D01*
X71907600Y-97053600D01*
X71933489Y-96958615D01*
X71919592Y-96952000D01*
X71826873Y-97023524D01*
X71806000Y-97053600D01*
X71780110Y-97148584D01*
X71462845Y-97148584D01*
X71517075Y-97092956D01*
X71501200Y-97053600D01*
X71509255Y-96959977D01*
X71546003Y-96952000D01*
X71641425Y-96869803D01*
X71653600Y-96799600D01*
X71659239Y-96781578D01*
X71959866Y-96781578D01*
X72004767Y-96824934D01*
X72060000Y-96799600D01*
X72153484Y-96652597D01*
X72160817Y-96596400D01*
X72364800Y-96596400D01*
X72415600Y-96647200D01*
X72466400Y-96596400D01*
X72415600Y-96545600D01*
X72364800Y-96596400D01*
X72160817Y-96596400D01*
X72161600Y-96590403D01*
X72218406Y-96459091D01*
X72263200Y-96444000D01*
X72355381Y-96364122D01*
X72361419Y-96317000D01*
X72305810Y-96294858D01*
X72174717Y-96410497D01*
X72158219Y-96429855D01*
X72014898Y-96635275D01*
X71959866Y-96781578D01*
X71659239Y-96781578D01*
X71695963Y-96664225D01*
X71731748Y-96647200D01*
X71817962Y-96565614D01*
X71967820Y-96352064D01*
X72127509Y-96088400D01*
X72364800Y-96088400D01*
X72415600Y-96139200D01*
X72466400Y-96088400D01*
X72415600Y-96037600D01*
X72364800Y-96088400D01*
X72127509Y-96088400D01*
X72142893Y-96063000D01*
X72302431Y-95783600D01*
X72568000Y-95783600D01*
X72618800Y-95834400D01*
X72669600Y-95783600D01*
X72618800Y-95732800D01*
X72568000Y-95783600D01*
X72302431Y-95783600D01*
X72354736Y-95692000D01*
X72415964Y-95585086D01*
X72705797Y-95585086D01*
X72713250Y-95631200D01*
X72794849Y-95553316D01*
X72872800Y-95428000D01*
X72938202Y-95270913D01*
X72930749Y-95224800D01*
X72849150Y-95302683D01*
X72771200Y-95428000D01*
X72705797Y-95585086D01*
X72415964Y-95585086D01*
X72559746Y-95334022D01*
X72680926Y-95123200D01*
X72861938Y-94870099D01*
X73135865Y-94554155D01*
X73429659Y-94257126D01*
X73973356Y-93746653D01*
X74394565Y-94038448D01*
X74394565Y-94038448D01*
G37*
X74394565Y-94038448D02*
X74658764Y-94252763D01*
X74850453Y-94464947D01*
X74898018Y-94548922D01*
X74940561Y-94781461D01*
X74933338Y-95053911D01*
X74885984Y-95291969D01*
X74808135Y-95421336D01*
X74784011Y-95428000D01*
X74720249Y-95514943D01*
X74708523Y-95707400D01*
X74704204Y-95973037D01*
X74670355Y-96139200D01*
X74631472Y-96315887D01*
X74590286Y-96624547D01*
X74559585Y-96952000D01*
X74524535Y-97388684D01*
X74493814Y-97658363D01*
X74457328Y-97796718D01*
X74404981Y-97839433D01*
X74326680Y-97822190D01*
X74314696Y-97817646D01*
X74219156Y-97798946D01*
X74276160Y-97894109D01*
X74289357Y-97910160D01*
X74354228Y-98054125D01*
X74300385Y-98243414D01*
X74231022Y-98369686D01*
X74089109Y-98575544D01*
X73979350Y-98676976D01*
X73968494Y-98679200D01*
X73911535Y-98746977D01*
X73914199Y-98757331D01*
X73880814Y-98884612D01*
X73763170Y-99119316D01*
X73591409Y-99414143D01*
X73395671Y-99721791D01*
X73206097Y-99994958D01*
X73052828Y-100186343D01*
X72966005Y-100248644D01*
X72964438Y-100247843D01*
X72915385Y-100271156D01*
X72931690Y-100340046D01*
X72944849Y-100499963D01*
X72810718Y-100532916D01*
X72525876Y-100438420D01*
X72362067Y-100355600D01*
X72669600Y-100355600D01*
X72720400Y-100406400D01*
X72771200Y-100355600D01*
X72720400Y-100304800D01*
X72669600Y-100355600D01*
X72362067Y-100355600D01*
X72097158Y-100221665D01*
X71484588Y-99873012D01*
X71118773Y-99644400D01*
X73076000Y-99644400D01*
X73126800Y-99695200D01*
X73177600Y-99644400D01*
X73126800Y-99593600D01*
X73076000Y-99644400D01*
X71118773Y-99644400D01*
X71044512Y-99597992D01*
X70763828Y-99387503D01*
X70634248Y-99238000D01*
X70739200Y-99238000D01*
X70790000Y-99288800D01*
X70840800Y-99238000D01*
X70790000Y-99187200D01*
X70739200Y-99238000D01*
X70634248Y-99238000D01*
X70629434Y-99232446D01*
X70615033Y-99192294D01*
X70555394Y-99144509D01*
X70429421Y-99284549D01*
X70409179Y-99314819D01*
X70232379Y-99584649D01*
X70688989Y-99898805D01*
X70942342Y-100089268D01*
X71108144Y-100244890D01*
X71145600Y-100308418D01*
X71096069Y-100415892D01*
X70961373Y-100661556D01*
X70762355Y-101010246D01*
X70519859Y-101426795D01*
X70254729Y-101876039D01*
X69987807Y-102322811D01*
X69739937Y-102731946D01*
X69531964Y-103068280D01*
X69384730Y-103296645D01*
X69328715Y-103373714D01*
X69211543Y-103370574D01*
X68998486Y-103274405D01*
X68927862Y-103232087D01*
X68703107Y-103056458D01*
X68634418Y-102890718D01*
X68647222Y-102794392D01*
X68700615Y-102543769D01*
X68758028Y-102222070D01*
X68765720Y-102174018D01*
X68832848Y-101880011D01*
X68957273Y-101450564D01*
X69121737Y-100939264D01*
X69308984Y-100399701D01*
X69501760Y-99885465D01*
X69506657Y-99873000D01*
X69596206Y-99746000D01*
X69926400Y-99746000D01*
X69977200Y-99796800D01*
X70028000Y-99746000D01*
X70129600Y-99746000D01*
X70180400Y-99796800D01*
X70231200Y-99746000D01*
X70180400Y-99695200D01*
X70129600Y-99746000D01*
X70028000Y-99746000D01*
X69977200Y-99695200D01*
X69926400Y-99746000D01*
X69596206Y-99746000D01*
X69665335Y-99647962D01*
X69822285Y-99593600D01*
X69989745Y-99530661D01*
X70028000Y-99441200D01*
X70082861Y-99305993D01*
X70129600Y-99288800D01*
X70219737Y-99206508D01*
X70231200Y-99136400D01*
X70274822Y-99034800D01*
X70627549Y-99034800D01*
X70835774Y-98794944D01*
X70982511Y-98599518D01*
X71043997Y-98465170D01*
X71044000Y-98464744D01*
X71029191Y-98425200D01*
X71247200Y-98425200D01*
X71298000Y-98476000D01*
X71348800Y-98425200D01*
X71298000Y-98374400D01*
X71247200Y-98425200D01*
X71029191Y-98425200D01*
X71010693Y-98375807D01*
X70917298Y-98468519D01*
X70787583Y-98704600D01*
X70627549Y-99034800D01*
X70274822Y-99034800D01*
X70289231Y-99001243D01*
X70338796Y-98984000D01*
X70402776Y-98923582D01*
X70390179Y-98893046D01*
X70418264Y-98786219D01*
X70492223Y-98741363D01*
X70596833Y-98640674D01*
X70587243Y-98578317D01*
X70597976Y-98484330D01*
X70637600Y-98476000D01*
X70703854Y-98414109D01*
X70688400Y-98374400D01*
X70696455Y-98280777D01*
X70733203Y-98272800D01*
X70827598Y-98190190D01*
X70830906Y-98171200D01*
X71094800Y-98171200D01*
X71102855Y-98264822D01*
X71139603Y-98272800D01*
X71210866Y-98222000D01*
X71348800Y-98222000D01*
X71399600Y-98272800D01*
X71450400Y-98222000D01*
X71399600Y-98171200D01*
X71348800Y-98222000D01*
X71210866Y-98222000D01*
X71243065Y-98199047D01*
X71247200Y-98171200D01*
X71212535Y-98072241D01*
X71202396Y-98069600D01*
X71115653Y-98140794D01*
X71094800Y-98171200D01*
X70830906Y-98171200D01*
X70840800Y-98114403D01*
X70893634Y-98011286D01*
X70959665Y-98029470D01*
X71036733Y-98034535D01*
X71016881Y-97942275D01*
X71021702Y-97900266D01*
X71281066Y-97900266D01*
X71295013Y-97960667D01*
X71348800Y-97968000D01*
X71432428Y-97930826D01*
X71425341Y-97917200D01*
X71552000Y-97917200D01*
X71602800Y-97968000D01*
X71653600Y-97917200D01*
X71602800Y-97866400D01*
X71552000Y-97917200D01*
X71425341Y-97917200D01*
X71416533Y-97900266D01*
X71295957Y-97888107D01*
X71281066Y-97900266D01*
X71021702Y-97900266D01*
X71031420Y-97815600D01*
X73990400Y-97815600D01*
X74041200Y-97866400D01*
X74092000Y-97815600D01*
X74041200Y-97764800D01*
X73990400Y-97815600D01*
X71031420Y-97815600D01*
X71036130Y-97774573D01*
X71107654Y-97723125D01*
X71126435Y-97704188D01*
X71393743Y-97704188D01*
X71470034Y-97711097D01*
X71503230Y-97699161D01*
X71612688Y-97621514D01*
X71611571Y-97612400D01*
X71755200Y-97612400D01*
X71806000Y-97663200D01*
X71856800Y-97612400D01*
X71806000Y-97561600D01*
X71755200Y-97612400D01*
X71611571Y-97612400D01*
X71608063Y-97583796D01*
X71617597Y-97472554D01*
X71679881Y-97373645D01*
X71755057Y-97266060D01*
X71691641Y-97286577D01*
X71679546Y-97293755D01*
X71529130Y-97442277D01*
X71448595Y-97564971D01*
X71393743Y-97704188D01*
X71126435Y-97704188D01*
X71207742Y-97622206D01*
X71196843Y-97562317D01*
X71204220Y-97468179D01*
X71241203Y-97460000D01*
X71336625Y-97377803D01*
X71348800Y-97307600D01*
X71406831Y-97172443D01*
X71456396Y-97155200D01*
X71462845Y-97148584D01*
X71780110Y-97148584D01*
X71794007Y-97155200D01*
X71859859Y-97104400D01*
X72060000Y-97104400D01*
X72110800Y-97155200D01*
X72161600Y-97104400D01*
X72110800Y-97053600D01*
X72060000Y-97104400D01*
X71859859Y-97104400D01*
X71886726Y-97083675D01*
X71907600Y-97053600D01*
X71933489Y-96958615D01*
X71919592Y-96952000D01*
X71826873Y-97023524D01*
X71806000Y-97053600D01*
X71780110Y-97148584D01*
X71462845Y-97148584D01*
X71517075Y-97092956D01*
X71501200Y-97053600D01*
X71509255Y-96959977D01*
X71546003Y-96952000D01*
X71641425Y-96869803D01*
X71653600Y-96799600D01*
X71659239Y-96781578D01*
X71959866Y-96781578D01*
X72004767Y-96824934D01*
X72060000Y-96799600D01*
X72153484Y-96652597D01*
X72160817Y-96596400D01*
X72364800Y-96596400D01*
X72415600Y-96647200D01*
X72466400Y-96596400D01*
X72415600Y-96545600D01*
X72364800Y-96596400D01*
X72160817Y-96596400D01*
X72161600Y-96590403D01*
X72218406Y-96459091D01*
X72263200Y-96444000D01*
X72355381Y-96364122D01*
X72361419Y-96317000D01*
X72305810Y-96294858D01*
X72174717Y-96410497D01*
X72158219Y-96429855D01*
X72014898Y-96635275D01*
X71959866Y-96781578D01*
X71659239Y-96781578D01*
X71695963Y-96664225D01*
X71731748Y-96647200D01*
X71817962Y-96565614D01*
X71967820Y-96352064D01*
X72127509Y-96088400D01*
X72364800Y-96088400D01*
X72415600Y-96139200D01*
X72466400Y-96088400D01*
X72415600Y-96037600D01*
X72364800Y-96088400D01*
X72127509Y-96088400D01*
X72142893Y-96063000D01*
X72302431Y-95783600D01*
X72568000Y-95783600D01*
X72618800Y-95834400D01*
X72669600Y-95783600D01*
X72618800Y-95732800D01*
X72568000Y-95783600D01*
X72302431Y-95783600D01*
X72354736Y-95692000D01*
X72415964Y-95585086D01*
X72705797Y-95585086D01*
X72713250Y-95631200D01*
X72794849Y-95553316D01*
X72872800Y-95428000D01*
X72938202Y-95270913D01*
X72930749Y-95224800D01*
X72849150Y-95302683D01*
X72771200Y-95428000D01*
X72705797Y-95585086D01*
X72415964Y-95585086D01*
X72559746Y-95334022D01*
X72680926Y-95123200D01*
X72861938Y-94870099D01*
X73135865Y-94554155D01*
X73429659Y-94257126D01*
X73973356Y-93746653D01*
X74394565Y-94038448D01*
G36*
X96555331Y-90955000D02*
X96789967Y-91123385D01*
X97021063Y-91352903D01*
X97145896Y-91568552D01*
X97155197Y-91625348D01*
X97140562Y-91792678D01*
X97100041Y-92122835D01*
X97038712Y-92577819D01*
X96961652Y-93119629D01*
X96897243Y-93555748D01*
X96789264Y-94296439D01*
X96672647Y-95130910D01*
X96559673Y-95969230D01*
X96462624Y-96721469D01*
X96440370Y-96901200D01*
X96359180Y-97544628D01*
X96271956Y-98202284D01*
X96187493Y-98809905D01*
X96114585Y-99303227D01*
X96092742Y-99441200D01*
X96016634Y-99921566D01*
X95945609Y-100391220D01*
X95892088Y-100767439D01*
X95881515Y-100848036D01*
X95832732Y-101142417D01*
X95767877Y-101277666D01*
X95661204Y-101297620D01*
X95622486Y-101289082D01*
X95418903Y-101283035D01*
X95100069Y-101321383D01*
X94842787Y-101372059D01*
X94497592Y-101425825D01*
X93994781Y-101469401D01*
X93379807Y-101499856D01*
X92698124Y-101514258D01*
X92630705Y-101514690D01*
X92033408Y-101521112D01*
X91469111Y-101533322D01*
X90986476Y-101549827D01*
X90634165Y-101569135D01*
X90522505Y-101579324D01*
X90222418Y-101595333D01*
X90060022Y-101562569D01*
X90043200Y-101535361D01*
X89959125Y-101448200D01*
X89865400Y-101430792D01*
X89650053Y-101420277D01*
X89346321Y-101399759D01*
X89283864Y-101394984D01*
X89093026Y-101374568D01*
X88957278Y-101325321D01*
X88852370Y-101212121D01*
X88754049Y-100999842D01*
X88742453Y-100965200D01*
X95529600Y-100965200D01*
X95580400Y-101016000D01*
X95631200Y-100965200D01*
X95580400Y-100914400D01*
X95529600Y-100965200D01*
X88742453Y-100965200D01*
X88638064Y-100653362D01*
X88531135Y-100304800D01*
X88422874Y-99949200D01*
X88454097Y-100283873D01*
X88456651Y-100523937D01*
X88420833Y-100657540D01*
X88416071Y-100661344D01*
X88371561Y-100583922D01*
X88297654Y-100341883D01*
X88203655Y-99970091D01*
X88098871Y-99503409D01*
X88092497Y-99473049D01*
X88280428Y-99473049D01*
X88296557Y-99654105D01*
X88298169Y-99662096D01*
X88345428Y-99833427D01*
X88383470Y-99812507D01*
X88396681Y-99760608D01*
X88383869Y-99553490D01*
X88338144Y-99473504D01*
X88280428Y-99473049D01*
X88092497Y-99473049D01*
X88069071Y-99361471D01*
X88032786Y-99187200D01*
X88214400Y-99187200D01*
X88251573Y-99270828D01*
X88282133Y-99254933D01*
X88294292Y-99134357D01*
X88282133Y-99119466D01*
X88221732Y-99133413D01*
X88214400Y-99187200D01*
X88032786Y-99187200D01*
X87958459Y-98830228D01*
X87926613Y-98679200D01*
X88112800Y-98679200D01*
X88149973Y-98762828D01*
X88180533Y-98746933D01*
X88192692Y-98626357D01*
X88180533Y-98611466D01*
X88120132Y-98625413D01*
X88112800Y-98679200D01*
X87926613Y-98679200D01*
X87855136Y-98340228D01*
X87840695Y-98272800D01*
X88011200Y-98272800D01*
X88048373Y-98356428D01*
X88078933Y-98340533D01*
X88091092Y-98219957D01*
X88078933Y-98205066D01*
X88018532Y-98219013D01*
X88011200Y-98272800D01*
X87840695Y-98272800D01*
X87775414Y-97968000D01*
X87909600Y-97968000D01*
X87946773Y-98051628D01*
X87977333Y-98035733D01*
X87989492Y-97915157D01*
X87977333Y-97900266D01*
X87916932Y-97914213D01*
X87909600Y-97968000D01*
X87775414Y-97968000D01*
X87769786Y-97941727D01*
X87713093Y-97684983D01*
X87708048Y-97663200D01*
X87627094Y-97307600D01*
X87808000Y-97307600D01*
X87858800Y-97358400D01*
X87909600Y-97307600D01*
X87858800Y-97256800D01*
X87808000Y-97307600D01*
X87627094Y-97307600D01*
X87583729Y-97117119D01*
X87508582Y-96741531D01*
X87479729Y-96510510D01*
X87494290Y-96398129D01*
X87549384Y-96378460D01*
X87565942Y-96383724D01*
X87688474Y-96356872D01*
X87706400Y-96288411D01*
X87625158Y-96156036D01*
X87555935Y-96139200D01*
X87419249Y-96050001D01*
X87332578Y-95827326D01*
X87315160Y-95538549D01*
X87340158Y-95383426D01*
X87350154Y-95172409D01*
X87296240Y-95070076D01*
X87234530Y-94932469D01*
X87249093Y-94820665D01*
X87804902Y-94820665D01*
X87816918Y-94838306D01*
X87867158Y-94938654D01*
X87964827Y-95203993D01*
X88100634Y-95604191D01*
X88265284Y-96109117D01*
X88449486Y-96688639D01*
X88643945Y-97312625D01*
X88839370Y-97950945D01*
X89026466Y-98573466D01*
X89195941Y-99150058D01*
X89338501Y-99650588D01*
X89444854Y-100044925D01*
X89505707Y-100302937D01*
X89510710Y-100330200D01*
X89558263Y-100609600D01*
X92283935Y-100609600D01*
X93049744Y-100606199D01*
X93726182Y-100596529D01*
X94289731Y-100581382D01*
X94716874Y-100561555D01*
X94984093Y-100537842D01*
X95067755Y-100515514D01*
X95096118Y-100394994D01*
X95148759Y-100098457D01*
X95221707Y-99651114D01*
X95310991Y-99078174D01*
X95412639Y-98404848D01*
X95522682Y-97656345D01*
X95572649Y-97310293D01*
X96019394Y-94199158D01*
X95174000Y-93401080D01*
X92024400Y-93397153D01*
X91235911Y-93394458D01*
X90506485Y-93388702D01*
X89862703Y-93380350D01*
X89331146Y-93369867D01*
X88938395Y-93357717D01*
X88711031Y-93344367D01*
X88671118Y-93338479D01*
X88555326Y-93338980D01*
X88440798Y-93428842D01*
X88301510Y-93639729D01*
X88111437Y-94003305D01*
X88091228Y-94044036D01*
X87931371Y-94393508D01*
X87830887Y-94666983D01*
X87804902Y-94820665D01*
X87249093Y-94820665D01*
X87249520Y-94817390D01*
X87235699Y-94620348D01*
X87167733Y-94546540D01*
X87052065Y-94395183D01*
X86964705Y-94142864D01*
X86961610Y-94127549D01*
X86936674Y-93903506D01*
X86986713Y-93851462D01*
X87012734Y-93864036D01*
X87085651Y-93858868D01*
X87063391Y-93691287D01*
X87012263Y-93471835D01*
X86996587Y-93364603D01*
X86931443Y-93327787D01*
X86893600Y-93345200D01*
X86800241Y-93321806D01*
X86779300Y-93249596D01*
X86752951Y-93007883D01*
X86711477Y-92885140D01*
X86665000Y-92828733D01*
X86591251Y-92631111D01*
X86634725Y-92379787D01*
X86714997Y-92254109D01*
X87242465Y-92254109D01*
X87342333Y-92270378D01*
X87474110Y-92251699D01*
X87475683Y-92217016D01*
X87339702Y-92192762D01*
X87280950Y-92208995D01*
X87242465Y-92254109D01*
X86714997Y-92254109D01*
X86741200Y-92213085D01*
X86856009Y-92000154D01*
X86893600Y-91775583D01*
X86942425Y-91522360D01*
X87038956Y-91369845D01*
X87296292Y-91263329D01*
X87624824Y-91251595D01*
X87916265Y-91334161D01*
X87976383Y-91374038D01*
X88090187Y-91448016D01*
X88075506Y-91389400D01*
X88054551Y-91279760D01*
X88169120Y-91286048D01*
X88316000Y-91364000D01*
X88415392Y-91443324D01*
X88337670Y-91463736D01*
X88318793Y-91464044D01*
X88256438Y-91499065D01*
X88353584Y-91588554D01*
X88580129Y-91713893D01*
X88905972Y-91856464D01*
X89030596Y-91904283D01*
X89375444Y-92025032D01*
X89560631Y-92067747D01*
X89612701Y-92035738D01*
X89586000Y-91973600D01*
X89557411Y-91877323D01*
X89630859Y-91891432D01*
X89752201Y-91996315D01*
X89794792Y-92049229D01*
X89899960Y-92142748D01*
X90074849Y-92191802D01*
X90368496Y-92204650D01*
X90669592Y-92196580D01*
X91184205Y-92176854D01*
X91760140Y-92156117D01*
X92176800Y-92142019D01*
X92618173Y-92117199D01*
X93039242Y-92075989D01*
X93345200Y-92027987D01*
X93872113Y-91926898D01*
X94301933Y-91880466D01*
X94396023Y-91840268D01*
X94383935Y-91810068D01*
X94424573Y-91731182D01*
X94461615Y-91705449D01*
X96170284Y-91705449D01*
X96171385Y-91812260D01*
X96290990Y-91931727D01*
X96455406Y-92010540D01*
X96580963Y-92002544D01*
X96610250Y-91925239D01*
X96540595Y-91888964D01*
X96361560Y-91778669D01*
X96322524Y-91732708D01*
X96209117Y-91681880D01*
X96170284Y-91705449D01*
X94461615Y-91705449D01*
X94607966Y-91603780D01*
X94887424Y-91452835D01*
X95216257Y-91303321D01*
X95547777Y-91180213D01*
X95580904Y-91169816D01*
X95897717Y-91062946D01*
X96165246Y-90957275D01*
X96205770Y-90938506D01*
X96374823Y-90893899D01*
X96555331Y-90955000D01*
X96555331Y-90955000D01*
G37*
X96555331Y-90955000D02*
X96789967Y-91123385D01*
X97021063Y-91352903D01*
X97145896Y-91568552D01*
X97155197Y-91625348D01*
X97140562Y-91792678D01*
X97100041Y-92122835D01*
X97038712Y-92577819D01*
X96961652Y-93119629D01*
X96897243Y-93555748D01*
X96789264Y-94296439D01*
X96672647Y-95130910D01*
X96559673Y-95969230D01*
X96462624Y-96721469D01*
X96440370Y-96901200D01*
X96359180Y-97544628D01*
X96271956Y-98202284D01*
X96187493Y-98809905D01*
X96114585Y-99303227D01*
X96092742Y-99441200D01*
X96016634Y-99921566D01*
X95945609Y-100391220D01*
X95892088Y-100767439D01*
X95881515Y-100848036D01*
X95832732Y-101142417D01*
X95767877Y-101277666D01*
X95661204Y-101297620D01*
X95622486Y-101289082D01*
X95418903Y-101283035D01*
X95100069Y-101321383D01*
X94842787Y-101372059D01*
X94497592Y-101425825D01*
X93994781Y-101469401D01*
X93379807Y-101499856D01*
X92698124Y-101514258D01*
X92630705Y-101514690D01*
X92033408Y-101521112D01*
X91469111Y-101533322D01*
X90986476Y-101549827D01*
X90634165Y-101569135D01*
X90522505Y-101579324D01*
X90222418Y-101595333D01*
X90060022Y-101562569D01*
X90043200Y-101535361D01*
X89959125Y-101448200D01*
X89865400Y-101430792D01*
X89650053Y-101420277D01*
X89346321Y-101399759D01*
X89283864Y-101394984D01*
X89093026Y-101374568D01*
X88957278Y-101325321D01*
X88852370Y-101212121D01*
X88754049Y-100999842D01*
X88742453Y-100965200D01*
X95529600Y-100965200D01*
X95580400Y-101016000D01*
X95631200Y-100965200D01*
X95580400Y-100914400D01*
X95529600Y-100965200D01*
X88742453Y-100965200D01*
X88638064Y-100653362D01*
X88531135Y-100304800D01*
X88422874Y-99949200D01*
X88454097Y-100283873D01*
X88456651Y-100523937D01*
X88420833Y-100657540D01*
X88416071Y-100661344D01*
X88371561Y-100583922D01*
X88297654Y-100341883D01*
X88203655Y-99970091D01*
X88098871Y-99503409D01*
X88092497Y-99473049D01*
X88280428Y-99473049D01*
X88296557Y-99654105D01*
X88298169Y-99662096D01*
X88345428Y-99833427D01*
X88383470Y-99812507D01*
X88396681Y-99760608D01*
X88383869Y-99553490D01*
X88338144Y-99473504D01*
X88280428Y-99473049D01*
X88092497Y-99473049D01*
X88069071Y-99361471D01*
X88032786Y-99187200D01*
X88214400Y-99187200D01*
X88251573Y-99270828D01*
X88282133Y-99254933D01*
X88294292Y-99134357D01*
X88282133Y-99119466D01*
X88221732Y-99133413D01*
X88214400Y-99187200D01*
X88032786Y-99187200D01*
X87958459Y-98830228D01*
X87926613Y-98679200D01*
X88112800Y-98679200D01*
X88149973Y-98762828D01*
X88180533Y-98746933D01*
X88192692Y-98626357D01*
X88180533Y-98611466D01*
X88120132Y-98625413D01*
X88112800Y-98679200D01*
X87926613Y-98679200D01*
X87855136Y-98340228D01*
X87840695Y-98272800D01*
X88011200Y-98272800D01*
X88048373Y-98356428D01*
X88078933Y-98340533D01*
X88091092Y-98219957D01*
X88078933Y-98205066D01*
X88018532Y-98219013D01*
X88011200Y-98272800D01*
X87840695Y-98272800D01*
X87775414Y-97968000D01*
X87909600Y-97968000D01*
X87946773Y-98051628D01*
X87977333Y-98035733D01*
X87989492Y-97915157D01*
X87977333Y-97900266D01*
X87916932Y-97914213D01*
X87909600Y-97968000D01*
X87775414Y-97968000D01*
X87769786Y-97941727D01*
X87713093Y-97684983D01*
X87708048Y-97663200D01*
X87627094Y-97307600D01*
X87808000Y-97307600D01*
X87858800Y-97358400D01*
X87909600Y-97307600D01*
X87858800Y-97256800D01*
X87808000Y-97307600D01*
X87627094Y-97307600D01*
X87583729Y-97117119D01*
X87508582Y-96741531D01*
X87479729Y-96510510D01*
X87494290Y-96398129D01*
X87549384Y-96378460D01*
X87565942Y-96383724D01*
X87688474Y-96356872D01*
X87706400Y-96288411D01*
X87625158Y-96156036D01*
X87555935Y-96139200D01*
X87419249Y-96050001D01*
X87332578Y-95827326D01*
X87315160Y-95538549D01*
X87340158Y-95383426D01*
X87350154Y-95172409D01*
X87296240Y-95070076D01*
X87234530Y-94932469D01*
X87249093Y-94820665D01*
X87804902Y-94820665D01*
X87816918Y-94838306D01*
X87867158Y-94938654D01*
X87964827Y-95203993D01*
X88100634Y-95604191D01*
X88265284Y-96109117D01*
X88449486Y-96688639D01*
X88643945Y-97312625D01*
X88839370Y-97950945D01*
X89026466Y-98573466D01*
X89195941Y-99150058D01*
X89338501Y-99650588D01*
X89444854Y-100044925D01*
X89505707Y-100302937D01*
X89510710Y-100330200D01*
X89558263Y-100609600D01*
X92283935Y-100609600D01*
X93049744Y-100606199D01*
X93726182Y-100596529D01*
X94289731Y-100581382D01*
X94716874Y-100561555D01*
X94984093Y-100537842D01*
X95067755Y-100515514D01*
X95096118Y-100394994D01*
X95148759Y-100098457D01*
X95221707Y-99651114D01*
X95310991Y-99078174D01*
X95412639Y-98404848D01*
X95522682Y-97656345D01*
X95572649Y-97310293D01*
X96019394Y-94199158D01*
X95174000Y-93401080D01*
X92024400Y-93397153D01*
X91235911Y-93394458D01*
X90506485Y-93388702D01*
X89862703Y-93380350D01*
X89331146Y-93369867D01*
X88938395Y-93357717D01*
X88711031Y-93344367D01*
X88671118Y-93338479D01*
X88555326Y-93338980D01*
X88440798Y-93428842D01*
X88301510Y-93639729D01*
X88111437Y-94003305D01*
X88091228Y-94044036D01*
X87931371Y-94393508D01*
X87830887Y-94666983D01*
X87804902Y-94820665D01*
X87249093Y-94820665D01*
X87249520Y-94817390D01*
X87235699Y-94620348D01*
X87167733Y-94546540D01*
X87052065Y-94395183D01*
X86964705Y-94142864D01*
X86961610Y-94127549D01*
X86936674Y-93903506D01*
X86986713Y-93851462D01*
X87012734Y-93864036D01*
X87085651Y-93858868D01*
X87063391Y-93691287D01*
X87012263Y-93471835D01*
X86996587Y-93364603D01*
X86931443Y-93327787D01*
X86893600Y-93345200D01*
X86800241Y-93321806D01*
X86779300Y-93249596D01*
X86752951Y-93007883D01*
X86711477Y-92885140D01*
X86665000Y-92828733D01*
X86591251Y-92631111D01*
X86634725Y-92379787D01*
X86714997Y-92254109D01*
X87242465Y-92254109D01*
X87342333Y-92270378D01*
X87474110Y-92251699D01*
X87475683Y-92217016D01*
X87339702Y-92192762D01*
X87280950Y-92208995D01*
X87242465Y-92254109D01*
X86714997Y-92254109D01*
X86741200Y-92213085D01*
X86856009Y-92000154D01*
X86893600Y-91775583D01*
X86942425Y-91522360D01*
X87038956Y-91369845D01*
X87296292Y-91263329D01*
X87624824Y-91251595D01*
X87916265Y-91334161D01*
X87976383Y-91374038D01*
X88090187Y-91448016D01*
X88075506Y-91389400D01*
X88054551Y-91279760D01*
X88169120Y-91286048D01*
X88316000Y-91364000D01*
X88415392Y-91443324D01*
X88337670Y-91463736D01*
X88318793Y-91464044D01*
X88256438Y-91499065D01*
X88353584Y-91588554D01*
X88580129Y-91713893D01*
X88905972Y-91856464D01*
X89030596Y-91904283D01*
X89375444Y-92025032D01*
X89560631Y-92067747D01*
X89612701Y-92035738D01*
X89586000Y-91973600D01*
X89557411Y-91877323D01*
X89630859Y-91891432D01*
X89752201Y-91996315D01*
X89794792Y-92049229D01*
X89899960Y-92142748D01*
X90074849Y-92191802D01*
X90368496Y-92204650D01*
X90669592Y-92196580D01*
X91184205Y-92176854D01*
X91760140Y-92156117D01*
X92176800Y-92142019D01*
X92618173Y-92117199D01*
X93039242Y-92075989D01*
X93345200Y-92027987D01*
X93872113Y-91926898D01*
X94301933Y-91880466D01*
X94396023Y-91840268D01*
X94383935Y-91810068D01*
X94424573Y-91731182D01*
X94461615Y-91705449D01*
X96170284Y-91705449D01*
X96171385Y-91812260D01*
X96290990Y-91931727D01*
X96455406Y-92010540D01*
X96580963Y-92002544D01*
X96610250Y-91925239D01*
X96540595Y-91888964D01*
X96361560Y-91778669D01*
X96322524Y-91732708D01*
X96209117Y-91681880D01*
X96170284Y-91705449D01*
X94461615Y-91705449D01*
X94607966Y-91603780D01*
X94887424Y-91452835D01*
X95216257Y-91303321D01*
X95547777Y-91180213D01*
X95580904Y-91169816D01*
X95897717Y-91062946D01*
X96165246Y-90957275D01*
X96205770Y-90938506D01*
X96374823Y-90893899D01*
X96555331Y-90955000D01*
G36*
X92346677Y-76933226D02*
X92761460Y-76965493D01*
X93123764Y-77020012D01*
X93216938Y-77041258D01*
X93484375Y-77124981D01*
X93636939Y-77204105D01*
X93651812Y-77238666D01*
X93697116Y-77280521D01*
X93833230Y-77270284D01*
X94193197Y-77290224D01*
X94674711Y-77460188D01*
X95267179Y-77775827D01*
X95638640Y-78011375D01*
X96310394Y-78493176D01*
X96814287Y-78945551D01*
X97175152Y-79403565D01*
X97417822Y-79902286D01*
X97567131Y-80476781D01*
X97614276Y-80801178D01*
X97629230Y-81128990D01*
X97565392Y-81347699D01*
X97462481Y-81482730D01*
X97304250Y-81733023D01*
X97260861Y-81981584D01*
X97342785Y-82158121D01*
X97360057Y-82170224D01*
X97412834Y-82297174D01*
X97393974Y-82346235D01*
X97334048Y-82528737D01*
X97307185Y-82720214D01*
X97262144Y-83089326D01*
X97177589Y-83530538D01*
X97065570Y-84001858D01*
X96938137Y-84461297D01*
X96807341Y-84866861D01*
X96685232Y-85176559D01*
X96583859Y-85348400D01*
X96546894Y-85369600D01*
X96456663Y-85452869D01*
X96352425Y-85649000D01*
X96221123Y-85873715D01*
X96000000Y-86169661D01*
X95795147Y-86407915D01*
X95577855Y-86663288D01*
X95441977Y-86861006D01*
X95416448Y-86953936D01*
X95385479Y-86979905D01*
X95250200Y-86950174D01*
X95065237Y-86933378D01*
X95021600Y-86994349D01*
X94959760Y-87061393D01*
X94920000Y-87046000D01*
X94830315Y-87065638D01*
X94818400Y-87124435D01*
X94781737Y-87229374D01*
X94651859Y-87338310D01*
X94398933Y-87468469D01*
X93993124Y-87637077D01*
X93802400Y-87711066D01*
X93402178Y-87832158D01*
X92917102Y-87913022D01*
X92294905Y-87961679D01*
X92118742Y-87969480D01*
X91661520Y-87982664D01*
X91283510Y-87984599D01*
X91028159Y-87975644D01*
X90940051Y-87959784D01*
X90785918Y-87885518D01*
X90503670Y-87804076D01*
X90167113Y-87731065D01*
X89850052Y-87682094D01*
X89626290Y-87672770D01*
X89601088Y-87676621D01*
X89469734Y-87686735D01*
X89501139Y-87638369D01*
X89565196Y-87523642D01*
X89491093Y-87377135D01*
X89366570Y-87261217D01*
X89303819Y-87260447D01*
X89155845Y-87293288D01*
X88933605Y-87249037D01*
X88726039Y-87157110D01*
X88622091Y-87046925D01*
X88621995Y-87046000D01*
X88722400Y-87046000D01*
X88773200Y-87096800D01*
X88802814Y-87067186D01*
X88966932Y-87067186D01*
X88980738Y-87103820D01*
X89078819Y-87193909D01*
X89126812Y-87091300D01*
X89128800Y-87040003D01*
X89078812Y-86935360D01*
X89025542Y-86945424D01*
X88966932Y-87067186D01*
X88802814Y-87067186D01*
X88824000Y-87046000D01*
X88773200Y-86995200D01*
X88722400Y-87046000D01*
X88621995Y-87046000D01*
X88620800Y-87034540D01*
X88553293Y-86880572D01*
X88381719Y-86655821D01*
X88266405Y-86532432D01*
X88053867Y-86283716D01*
X87804951Y-85938515D01*
X87548029Y-85543576D01*
X87311472Y-85145648D01*
X87123653Y-84791477D01*
X87012943Y-84527810D01*
X86995200Y-84437920D01*
X86938803Y-84250657D01*
X86886673Y-84196919D01*
X86819825Y-84058131D01*
X86832684Y-83987723D01*
X86838007Y-83862904D01*
X86805857Y-83845600D01*
X86725917Y-83758650D01*
X86637655Y-83550983D01*
X86620039Y-83490000D01*
X86893600Y-83490000D01*
X86944400Y-83540800D01*
X86995200Y-83490000D01*
X86944400Y-83439200D01*
X86893600Y-83490000D01*
X86620039Y-83490000D01*
X86565835Y-83302369D01*
X86535215Y-83092580D01*
X86543247Y-83045803D01*
X87511128Y-83045803D01*
X87604769Y-83693200D01*
X87675012Y-84038379D01*
X87723460Y-84311955D01*
X87738085Y-84433235D01*
X87803936Y-84591804D01*
X87961182Y-84801746D01*
X87977333Y-84819470D01*
X88138358Y-85020166D01*
X88213648Y-85167086D01*
X88214400Y-85175922D01*
X88272588Y-85338636D01*
X88314468Y-85399288D01*
X88439754Y-85554262D01*
X88626541Y-85786642D01*
X88679099Y-85852200D01*
X88878837Y-86059777D01*
X89054123Y-86174454D01*
X89093027Y-86182400D01*
X89196428Y-86226355D01*
X89189727Y-86267613D01*
X89237527Y-86362629D01*
X89418919Y-86505722D01*
X89539331Y-86578914D01*
X89787748Y-86707611D01*
X89907948Y-86731480D01*
X89941423Y-86657449D01*
X89941600Y-86646100D01*
X89988923Y-86506692D01*
X90032329Y-86487200D01*
X90142804Y-86570338D01*
X90209616Y-86745912D01*
X90192863Y-86898027D01*
X90246137Y-86974436D01*
X90443940Y-87064011D01*
X90555889Y-87098062D01*
X90866319Y-87158502D01*
X91058662Y-87128534D01*
X91120210Y-87088326D01*
X91274193Y-87018400D01*
X91338112Y-87037046D01*
X91330411Y-87140607D01*
X91270110Y-87193634D01*
X91199302Y-87269758D01*
X91317594Y-87320938D01*
X91323853Y-87322348D01*
X91553339Y-87309578D01*
X91651650Y-87262551D01*
X91847092Y-87221803D01*
X91985982Y-87284154D01*
X92203568Y-87356457D01*
X92350797Y-87292524D01*
X92380000Y-87192403D01*
X92297618Y-87107556D01*
X92227600Y-87096800D01*
X92092361Y-87044107D01*
X92075200Y-86999290D01*
X92162902Y-86937131D01*
X92374405Y-86922728D01*
X92379798Y-86923090D01*
X92601090Y-86983071D01*
X92686390Y-87093143D01*
X92609285Y-87207364D01*
X92557800Y-87232712D01*
X92547097Y-87271637D01*
X92696651Y-87291978D01*
X93001637Y-87249568D01*
X93412728Y-87126506D01*
X93863725Y-86949849D01*
X94288428Y-86746654D01*
X94620638Y-86543979D01*
X94715085Y-86466991D01*
X94862303Y-86345387D01*
X94920000Y-86326876D01*
X94981893Y-86289709D01*
X95143048Y-86139143D01*
X95366674Y-85912711D01*
X95615984Y-85647944D01*
X95854187Y-85382378D01*
X95908876Y-85318800D01*
X95936000Y-85318800D01*
X95986800Y-85369600D01*
X96037600Y-85318800D01*
X95986800Y-85268000D01*
X95936000Y-85318800D01*
X95908876Y-85318800D01*
X95914511Y-85312250D01*
X96054168Y-85118081D01*
X96097371Y-84993709D01*
X96092089Y-84983822D01*
X96105616Y-84875732D01*
X96180706Y-84768244D01*
X96257943Y-84658631D01*
X96323908Y-84497700D01*
X96387902Y-84248679D01*
X96459229Y-83874795D01*
X96547191Y-83339276D01*
X96555470Y-83286800D01*
X96574577Y-82761866D01*
X97087466Y-82761866D01*
X97101413Y-82822267D01*
X97155200Y-82829600D01*
X97238828Y-82792426D01*
X97222933Y-82761866D01*
X97102357Y-82749707D01*
X97087466Y-82761866D01*
X96574577Y-82761866D01*
X96584322Y-82494171D01*
X96457407Y-81762800D01*
X97053600Y-81762800D01*
X97104400Y-81813600D01*
X97155200Y-81762800D01*
X97104400Y-81712000D01*
X97053600Y-81762800D01*
X96457407Y-81762800D01*
X96442150Y-81674881D01*
X96247953Y-81153200D01*
X96952000Y-81153200D01*
X97002800Y-81204000D01*
X97053600Y-81153200D01*
X97002800Y-81102400D01*
X96952000Y-81153200D01*
X96247953Y-81153200D01*
X96145979Y-80879265D01*
X95712831Y-80157659D01*
X95357016Y-79743205D01*
X94646256Y-79164261D01*
X93837337Y-78758155D01*
X92922939Y-78522029D01*
X92054297Y-78452800D01*
X91231576Y-78497194D01*
X90521053Y-78660370D01*
X89858378Y-78960504D01*
X89525770Y-79167010D01*
X88760672Y-79787899D01*
X88171304Y-80498840D01*
X87763020Y-81287216D01*
X87541177Y-82140409D01*
X87511128Y-83045803D01*
X86543247Y-83045803D01*
X86548360Y-83016035D01*
X86523273Y-82937557D01*
X86482326Y-82931200D01*
X86409277Y-82857540D01*
X86422341Y-82778800D01*
X86427029Y-82647843D01*
X86387853Y-82626400D01*
X86346600Y-82535778D01*
X86326474Y-82305260D01*
X86325802Y-81996864D01*
X86342907Y-81672612D01*
X86376113Y-81394521D01*
X86423746Y-81224613D01*
X86425821Y-81221115D01*
X86491102Y-81062190D01*
X86580796Y-80780391D01*
X86639646Y-80570219D01*
X86785962Y-80089993D01*
X86961706Y-79687427D01*
X87004193Y-79621667D01*
X87198400Y-79621667D01*
X87264648Y-79719281D01*
X87419606Y-79878169D01*
X87600299Y-80014052D01*
X87698250Y-80028896D01*
X87677735Y-79920868D01*
X87660115Y-79890505D01*
X87601397Y-79832400D01*
X88011200Y-79832400D01*
X88062000Y-79883200D01*
X88112800Y-79832400D01*
X88062000Y-79781600D01*
X88011200Y-79832400D01*
X87601397Y-79832400D01*
X87549143Y-79780693D01*
X87385143Y-79672195D01*
X87243959Y-79609172D01*
X87198400Y-79621667D01*
X87004193Y-79621667D01*
X87195273Y-79325925D01*
X87515058Y-78968894D01*
X87949456Y-78579738D01*
X88526864Y-78121863D01*
X88557814Y-78098178D01*
X89087473Y-77743556D01*
X89606637Y-77487197D01*
X90070589Y-77347931D01*
X90373400Y-77333657D01*
X90389246Y-77330370D01*
X92640401Y-77330370D01*
X92718666Y-77343200D01*
X92806295Y-77292400D01*
X93396000Y-77292400D01*
X93446800Y-77343200D01*
X93497600Y-77292400D01*
X93446800Y-77241600D01*
X93396000Y-77292400D01*
X92806295Y-77292400D01*
X92861383Y-77260465D01*
X92886444Y-77165400D01*
X92853858Y-77061467D01*
X92809062Y-77089200D01*
X92663414Y-77247706D01*
X92641284Y-77267000D01*
X92640401Y-77330370D01*
X90389246Y-77330370D01*
X90522997Y-77302627D01*
X90551200Y-77247986D01*
X90616912Y-77190800D01*
X91262400Y-77190800D01*
X91313200Y-77241600D01*
X91364000Y-77190800D01*
X91313200Y-77140000D01*
X91262400Y-77190800D01*
X90616912Y-77190800D01*
X90639258Y-77171354D01*
X90847533Y-77140000D01*
X91071047Y-77106943D01*
X91180023Y-77031529D01*
X91296086Y-76972361D01*
X91563125Y-76936417D01*
X91930277Y-76923453D01*
X92346677Y-76933226D01*
X92346677Y-76933226D01*
G37*
X92346677Y-76933226D02*
X92761460Y-76965493D01*
X93123764Y-77020012D01*
X93216938Y-77041258D01*
X93484375Y-77124981D01*
X93636939Y-77204105D01*
X93651812Y-77238666D01*
X93697116Y-77280521D01*
X93833230Y-77270284D01*
X94193197Y-77290224D01*
X94674711Y-77460188D01*
X95267179Y-77775827D01*
X95638640Y-78011375D01*
X96310394Y-78493176D01*
X96814287Y-78945551D01*
X97175152Y-79403565D01*
X97417822Y-79902286D01*
X97567131Y-80476781D01*
X97614276Y-80801178D01*
X97629230Y-81128990D01*
X97565392Y-81347699D01*
X97462481Y-81482730D01*
X97304250Y-81733023D01*
X97260861Y-81981584D01*
X97342785Y-82158121D01*
X97360057Y-82170224D01*
X97412834Y-82297174D01*
X97393974Y-82346235D01*
X97334048Y-82528737D01*
X97307185Y-82720214D01*
X97262144Y-83089326D01*
X97177589Y-83530538D01*
X97065570Y-84001858D01*
X96938137Y-84461297D01*
X96807341Y-84866861D01*
X96685232Y-85176559D01*
X96583859Y-85348400D01*
X96546894Y-85369600D01*
X96456663Y-85452869D01*
X96352425Y-85649000D01*
X96221123Y-85873715D01*
X96000000Y-86169661D01*
X95795147Y-86407915D01*
X95577855Y-86663288D01*
X95441977Y-86861006D01*
X95416448Y-86953936D01*
X95385479Y-86979905D01*
X95250200Y-86950174D01*
X95065237Y-86933378D01*
X95021600Y-86994349D01*
X94959760Y-87061393D01*
X94920000Y-87046000D01*
X94830315Y-87065638D01*
X94818400Y-87124435D01*
X94781737Y-87229374D01*
X94651859Y-87338310D01*
X94398933Y-87468469D01*
X93993124Y-87637077D01*
X93802400Y-87711066D01*
X93402178Y-87832158D01*
X92917102Y-87913022D01*
X92294905Y-87961679D01*
X92118742Y-87969480D01*
X91661520Y-87982664D01*
X91283510Y-87984599D01*
X91028159Y-87975644D01*
X90940051Y-87959784D01*
X90785918Y-87885518D01*
X90503670Y-87804076D01*
X90167113Y-87731065D01*
X89850052Y-87682094D01*
X89626290Y-87672770D01*
X89601088Y-87676621D01*
X89469734Y-87686735D01*
X89501139Y-87638369D01*
X89565196Y-87523642D01*
X89491093Y-87377135D01*
X89366570Y-87261217D01*
X89303819Y-87260447D01*
X89155845Y-87293288D01*
X88933605Y-87249037D01*
X88726039Y-87157110D01*
X88622091Y-87046925D01*
X88621995Y-87046000D01*
X88722400Y-87046000D01*
X88773200Y-87096800D01*
X88802814Y-87067186D01*
X88966932Y-87067186D01*
X88980738Y-87103820D01*
X89078819Y-87193909D01*
X89126812Y-87091300D01*
X89128800Y-87040003D01*
X89078812Y-86935360D01*
X89025542Y-86945424D01*
X88966932Y-87067186D01*
X88802814Y-87067186D01*
X88824000Y-87046000D01*
X88773200Y-86995200D01*
X88722400Y-87046000D01*
X88621995Y-87046000D01*
X88620800Y-87034540D01*
X88553293Y-86880572D01*
X88381719Y-86655821D01*
X88266405Y-86532432D01*
X88053867Y-86283716D01*
X87804951Y-85938515D01*
X87548029Y-85543576D01*
X87311472Y-85145648D01*
X87123653Y-84791477D01*
X87012943Y-84527810D01*
X86995200Y-84437920D01*
X86938803Y-84250657D01*
X86886673Y-84196919D01*
X86819825Y-84058131D01*
X86832684Y-83987723D01*
X86838007Y-83862904D01*
X86805857Y-83845600D01*
X86725917Y-83758650D01*
X86637655Y-83550983D01*
X86620039Y-83490000D01*
X86893600Y-83490000D01*
X86944400Y-83540800D01*
X86995200Y-83490000D01*
X86944400Y-83439200D01*
X86893600Y-83490000D01*
X86620039Y-83490000D01*
X86565835Y-83302369D01*
X86535215Y-83092580D01*
X86543247Y-83045803D01*
X87511128Y-83045803D01*
X87604769Y-83693200D01*
X87675012Y-84038379D01*
X87723460Y-84311955D01*
X87738085Y-84433235D01*
X87803936Y-84591804D01*
X87961182Y-84801746D01*
X87977333Y-84819470D01*
X88138358Y-85020166D01*
X88213648Y-85167086D01*
X88214400Y-85175922D01*
X88272588Y-85338636D01*
X88314468Y-85399288D01*
X88439754Y-85554262D01*
X88626541Y-85786642D01*
X88679099Y-85852200D01*
X88878837Y-86059777D01*
X89054123Y-86174454D01*
X89093027Y-86182400D01*
X89196428Y-86226355D01*
X89189727Y-86267613D01*
X89237527Y-86362629D01*
X89418919Y-86505722D01*
X89539331Y-86578914D01*
X89787748Y-86707611D01*
X89907948Y-86731480D01*
X89941423Y-86657449D01*
X89941600Y-86646100D01*
X89988923Y-86506692D01*
X90032329Y-86487200D01*
X90142804Y-86570338D01*
X90209616Y-86745912D01*
X90192863Y-86898027D01*
X90246137Y-86974436D01*
X90443940Y-87064011D01*
X90555889Y-87098062D01*
X90866319Y-87158502D01*
X91058662Y-87128534D01*
X91120210Y-87088326D01*
X91274193Y-87018400D01*
X91338112Y-87037046D01*
X91330411Y-87140607D01*
X91270110Y-87193634D01*
X91199302Y-87269758D01*
X91317594Y-87320938D01*
X91323853Y-87322348D01*
X91553339Y-87309578D01*
X91651650Y-87262551D01*
X91847092Y-87221803D01*
X91985982Y-87284154D01*
X92203568Y-87356457D01*
X92350797Y-87292524D01*
X92380000Y-87192403D01*
X92297618Y-87107556D01*
X92227600Y-87096800D01*
X92092361Y-87044107D01*
X92075200Y-86999290D01*
X92162902Y-86937131D01*
X92374405Y-86922728D01*
X92379798Y-86923090D01*
X92601090Y-86983071D01*
X92686390Y-87093143D01*
X92609285Y-87207364D01*
X92557800Y-87232712D01*
X92547097Y-87271637D01*
X92696651Y-87291978D01*
X93001637Y-87249568D01*
X93412728Y-87126506D01*
X93863725Y-86949849D01*
X94288428Y-86746654D01*
X94620638Y-86543979D01*
X94715085Y-86466991D01*
X94862303Y-86345387D01*
X94920000Y-86326876D01*
X94981893Y-86289709D01*
X95143048Y-86139143D01*
X95366674Y-85912711D01*
X95615984Y-85647944D01*
X95854187Y-85382378D01*
X95908876Y-85318800D01*
X95936000Y-85318800D01*
X95986800Y-85369600D01*
X96037600Y-85318800D01*
X95986800Y-85268000D01*
X95936000Y-85318800D01*
X95908876Y-85318800D01*
X95914511Y-85312250D01*
X96054168Y-85118081D01*
X96097371Y-84993709D01*
X96092089Y-84983822D01*
X96105616Y-84875732D01*
X96180706Y-84768244D01*
X96257943Y-84658631D01*
X96323908Y-84497700D01*
X96387902Y-84248679D01*
X96459229Y-83874795D01*
X96547191Y-83339276D01*
X96555470Y-83286800D01*
X96574577Y-82761866D01*
X97087466Y-82761866D01*
X97101413Y-82822267D01*
X97155200Y-82829600D01*
X97238828Y-82792426D01*
X97222933Y-82761866D01*
X97102357Y-82749707D01*
X97087466Y-82761866D01*
X96574577Y-82761866D01*
X96584322Y-82494171D01*
X96457407Y-81762800D01*
X97053600Y-81762800D01*
X97104400Y-81813600D01*
X97155200Y-81762800D01*
X97104400Y-81712000D01*
X97053600Y-81762800D01*
X96457407Y-81762800D01*
X96442150Y-81674881D01*
X96247953Y-81153200D01*
X96952000Y-81153200D01*
X97002800Y-81204000D01*
X97053600Y-81153200D01*
X97002800Y-81102400D01*
X96952000Y-81153200D01*
X96247953Y-81153200D01*
X96145979Y-80879265D01*
X95712831Y-80157659D01*
X95357016Y-79743205D01*
X94646256Y-79164261D01*
X93837337Y-78758155D01*
X92922939Y-78522029D01*
X92054297Y-78452800D01*
X91231576Y-78497194D01*
X90521053Y-78660370D01*
X89858378Y-78960504D01*
X89525770Y-79167010D01*
X88760672Y-79787899D01*
X88171304Y-80498840D01*
X87763020Y-81287216D01*
X87541177Y-82140409D01*
X87511128Y-83045803D01*
X86543247Y-83045803D01*
X86548360Y-83016035D01*
X86523273Y-82937557D01*
X86482326Y-82931200D01*
X86409277Y-82857540D01*
X86422341Y-82778800D01*
X86427029Y-82647843D01*
X86387853Y-82626400D01*
X86346600Y-82535778D01*
X86326474Y-82305260D01*
X86325802Y-81996864D01*
X86342907Y-81672612D01*
X86376113Y-81394521D01*
X86423746Y-81224613D01*
X86425821Y-81221115D01*
X86491102Y-81062190D01*
X86580796Y-80780391D01*
X86639646Y-80570219D01*
X86785962Y-80089993D01*
X86961706Y-79687427D01*
X87004193Y-79621667D01*
X87198400Y-79621667D01*
X87264648Y-79719281D01*
X87419606Y-79878169D01*
X87600299Y-80014052D01*
X87698250Y-80028896D01*
X87677735Y-79920868D01*
X87660115Y-79890505D01*
X87601397Y-79832400D01*
X88011200Y-79832400D01*
X88062000Y-79883200D01*
X88112800Y-79832400D01*
X88062000Y-79781600D01*
X88011200Y-79832400D01*
X87601397Y-79832400D01*
X87549143Y-79780693D01*
X87385143Y-79672195D01*
X87243959Y-79609172D01*
X87198400Y-79621667D01*
X87004193Y-79621667D01*
X87195273Y-79325925D01*
X87515058Y-78968894D01*
X87949456Y-78579738D01*
X88526864Y-78121863D01*
X88557814Y-78098178D01*
X89087473Y-77743556D01*
X89606637Y-77487197D01*
X90070589Y-77347931D01*
X90373400Y-77333657D01*
X90389246Y-77330370D01*
X92640401Y-77330370D01*
X92718666Y-77343200D01*
X92806295Y-77292400D01*
X93396000Y-77292400D01*
X93446800Y-77343200D01*
X93497600Y-77292400D01*
X93446800Y-77241600D01*
X93396000Y-77292400D01*
X92806295Y-77292400D01*
X92861383Y-77260465D01*
X92886444Y-77165400D01*
X92853858Y-77061467D01*
X92809062Y-77089200D01*
X92663414Y-77247706D01*
X92641284Y-77267000D01*
X92640401Y-77330370D01*
X90389246Y-77330370D01*
X90522997Y-77302627D01*
X90551200Y-77247986D01*
X90616912Y-77190800D01*
X91262400Y-77190800D01*
X91313200Y-77241600D01*
X91364000Y-77190800D01*
X91313200Y-77140000D01*
X91262400Y-77190800D01*
X90616912Y-77190800D01*
X90639258Y-77171354D01*
X90847533Y-77140000D01*
X91071047Y-77106943D01*
X91180023Y-77031529D01*
X91296086Y-76972361D01*
X91563125Y-76936417D01*
X91930277Y-76923453D01*
X92346677Y-76933226D01*
G36*
X82584690Y-73409024D02*
X82718664Y-73464016D01*
X82696008Y-73566508D01*
X82568900Y-73691159D01*
X82404965Y-73878566D01*
X82267520Y-74098342D01*
X82218923Y-74217266D01*
X82196070Y-74362243D01*
X82202415Y-74565497D01*
X82241413Y-74859255D01*
X82316519Y-75275740D01*
X82431188Y-75847177D01*
X82480726Y-76086942D01*
X82617315Y-76746870D01*
X82780593Y-77538230D01*
X82956629Y-78393353D01*
X83131493Y-79244572D01*
X83283187Y-79984800D01*
X83434361Y-80719988D01*
X83591102Y-81475942D01*
X83742194Y-82199006D01*
X83876421Y-82835525D01*
X83982566Y-83331843D01*
X83991081Y-83371128D01*
X84121843Y-83998463D01*
X84202840Y-84462346D01*
X84236082Y-84795820D01*
X84223579Y-85031925D01*
X84167343Y-85203704D01*
X84108266Y-85296547D01*
X84014465Y-85395777D01*
X83957799Y-85350812D01*
X83906542Y-85133856D01*
X83903369Y-85117019D01*
X83872297Y-84854495D01*
X83884374Y-84681143D01*
X83890353Y-84668183D01*
X83868190Y-84541227D01*
X83785937Y-84447845D01*
X83643104Y-84366897D01*
X83547211Y-84444866D01*
X83544415Y-84449349D01*
X83412888Y-84530050D01*
X83348959Y-84513020D01*
X83247389Y-84510898D01*
X83236000Y-84550803D01*
X83315445Y-84651907D01*
X83356608Y-84658400D01*
X83369822Y-84721050D01*
X83261448Y-84878844D01*
X83187029Y-84961290D01*
X83006461Y-85172765D01*
X82955748Y-85330713D01*
X83010824Y-85514265D01*
X83015621Y-85524870D01*
X83109237Y-85790348D01*
X83087666Y-85892616D01*
X82967728Y-85822948D01*
X82808469Y-85632355D01*
X82706628Y-85427002D01*
X82583878Y-85084087D01*
X82461226Y-84664879D01*
X82417620Y-84492548D01*
X82392652Y-84391681D01*
X82655355Y-84391681D01*
X82660377Y-84459647D01*
X82682473Y-84556800D01*
X82732807Y-84801207D01*
X82752292Y-84937800D01*
X82785740Y-85050733D01*
X82882585Y-85015677D01*
X83014657Y-84892684D01*
X83127985Y-84769616D01*
X83092599Y-84757555D01*
X83006143Y-84788378D01*
X82875906Y-84802210D01*
X82858481Y-84669702D01*
X82864330Y-84630293D01*
X82875501Y-84513185D01*
X82851891Y-84556800D01*
X82798283Y-84638024D01*
X82726223Y-84536819D01*
X82712219Y-84506000D01*
X82655355Y-84391681D01*
X82392652Y-84391681D01*
X82370650Y-84302800D01*
X83032800Y-84302800D01*
X83083600Y-84353600D01*
X83134400Y-84302800D01*
X83083600Y-84252000D01*
X83032800Y-84302800D01*
X82370650Y-84302800D01*
X82341307Y-84184266D01*
X82457066Y-84184266D01*
X82471013Y-84244667D01*
X82524800Y-84252000D01*
X82608428Y-84214826D01*
X82592533Y-84184266D01*
X82545499Y-84179523D01*
X83252377Y-84179523D01*
X83277098Y-84236301D01*
X83379398Y-84345374D01*
X83438211Y-84322999D01*
X83439200Y-84308796D01*
X83367035Y-84222861D01*
X83321901Y-84191498D01*
X83252377Y-84179523D01*
X82545499Y-84179523D01*
X82471957Y-84172107D01*
X82457066Y-84184266D01*
X82341307Y-84184266D01*
X82320349Y-84099600D01*
X83845600Y-84099600D01*
X83896400Y-84150400D01*
X83947200Y-84099600D01*
X83896400Y-84048800D01*
X83845600Y-84099600D01*
X82320349Y-84099600D01*
X82223115Y-83706814D01*
X82044186Y-83034720D01*
X81857321Y-82390503D01*
X81713482Y-81923820D01*
X81607974Y-81560263D01*
X81534071Y-81252924D01*
X81508800Y-81080574D01*
X81463750Y-80850636D01*
X81370013Y-80614754D01*
X81260603Y-80348109D01*
X81127453Y-79949592D01*
X80984156Y-79469747D01*
X80844309Y-78959116D01*
X80721505Y-78468244D01*
X80629338Y-78047674D01*
X80581404Y-77747949D01*
X80577764Y-77669218D01*
X80562732Y-77459721D01*
X80511783Y-77384354D01*
X80502103Y-77388250D01*
X80444341Y-77317366D01*
X80349806Y-77085111D01*
X80231301Y-76727174D01*
X80101630Y-76279244D01*
X80093544Y-76249431D01*
X79960405Y-75760799D01*
X79839136Y-75323176D01*
X79743501Y-74985774D01*
X79688852Y-74802652D01*
X79641376Y-74502408D01*
X79664289Y-74187087D01*
X79745089Y-73931555D01*
X79853634Y-73815792D01*
X79939357Y-73746613D01*
X80181779Y-73746613D01*
X80322266Y-73762645D01*
X80391200Y-73763628D01*
X80576042Y-73753035D01*
X80589782Y-73736400D01*
X81000800Y-73736400D01*
X81051600Y-73787200D01*
X81102400Y-73736400D01*
X81407200Y-73736400D01*
X81458000Y-73787200D01*
X81508800Y-73736400D01*
X81458000Y-73685600D01*
X81407200Y-73736400D01*
X81102400Y-73736400D01*
X81051600Y-73685600D01*
X81000800Y-73736400D01*
X80589782Y-73736400D01*
X80597826Y-73726662D01*
X80569000Y-73717164D01*
X80311319Y-73701363D01*
X80213400Y-73717164D01*
X80181779Y-73746613D01*
X79939357Y-73746613D01*
X79941403Y-73744962D01*
X79881358Y-73684462D01*
X79885162Y-73637755D01*
X80054073Y-73590385D01*
X80397196Y-73541096D01*
X80923637Y-73488630D01*
X81642499Y-73431732D01*
X81788200Y-73421266D01*
X82279422Y-73396463D01*
X82584690Y-73409024D01*
X82584690Y-73409024D01*
G37*
X82584690Y-73409024D02*
X82718664Y-73464016D01*
X82696008Y-73566508D01*
X82568900Y-73691159D01*
X82404965Y-73878566D01*
X82267520Y-74098342D01*
X82218923Y-74217266D01*
X82196070Y-74362243D01*
X82202415Y-74565497D01*
X82241413Y-74859255D01*
X82316519Y-75275740D01*
X82431188Y-75847177D01*
X82480726Y-76086942D01*
X82617315Y-76746870D01*
X82780593Y-77538230D01*
X82956629Y-78393353D01*
X83131493Y-79244572D01*
X83283187Y-79984800D01*
X83434361Y-80719988D01*
X83591102Y-81475942D01*
X83742194Y-82199006D01*
X83876421Y-82835525D01*
X83982566Y-83331843D01*
X83991081Y-83371128D01*
X84121843Y-83998463D01*
X84202840Y-84462346D01*
X84236082Y-84795820D01*
X84223579Y-85031925D01*
X84167343Y-85203704D01*
X84108266Y-85296547D01*
X84014465Y-85395777D01*
X83957799Y-85350812D01*
X83906542Y-85133856D01*
X83903369Y-85117019D01*
X83872297Y-84854495D01*
X83884374Y-84681143D01*
X83890353Y-84668183D01*
X83868190Y-84541227D01*
X83785937Y-84447845D01*
X83643104Y-84366897D01*
X83547211Y-84444866D01*
X83544415Y-84449349D01*
X83412888Y-84530050D01*
X83348959Y-84513020D01*
X83247389Y-84510898D01*
X83236000Y-84550803D01*
X83315445Y-84651907D01*
X83356608Y-84658400D01*
X83369822Y-84721050D01*
X83261448Y-84878844D01*
X83187029Y-84961290D01*
X83006461Y-85172765D01*
X82955748Y-85330713D01*
X83010824Y-85514265D01*
X83015621Y-85524870D01*
X83109237Y-85790348D01*
X83087666Y-85892616D01*
X82967728Y-85822948D01*
X82808469Y-85632355D01*
X82706628Y-85427002D01*
X82583878Y-85084087D01*
X82461226Y-84664879D01*
X82417620Y-84492548D01*
X82392652Y-84391681D01*
X82655355Y-84391681D01*
X82660377Y-84459647D01*
X82682473Y-84556800D01*
X82732807Y-84801207D01*
X82752292Y-84937800D01*
X82785740Y-85050733D01*
X82882585Y-85015677D01*
X83014657Y-84892684D01*
X83127985Y-84769616D01*
X83092599Y-84757555D01*
X83006143Y-84788378D01*
X82875906Y-84802210D01*
X82858481Y-84669702D01*
X82864330Y-84630293D01*
X82875501Y-84513185D01*
X82851891Y-84556800D01*
X82798283Y-84638024D01*
X82726223Y-84536819D01*
X82712219Y-84506000D01*
X82655355Y-84391681D01*
X82392652Y-84391681D01*
X82370650Y-84302800D01*
X83032800Y-84302800D01*
X83083600Y-84353600D01*
X83134400Y-84302800D01*
X83083600Y-84252000D01*
X83032800Y-84302800D01*
X82370650Y-84302800D01*
X82341307Y-84184266D01*
X82457066Y-84184266D01*
X82471013Y-84244667D01*
X82524800Y-84252000D01*
X82608428Y-84214826D01*
X82592533Y-84184266D01*
X82545499Y-84179523D01*
X83252377Y-84179523D01*
X83277098Y-84236301D01*
X83379398Y-84345374D01*
X83438211Y-84322999D01*
X83439200Y-84308796D01*
X83367035Y-84222861D01*
X83321901Y-84191498D01*
X83252377Y-84179523D01*
X82545499Y-84179523D01*
X82471957Y-84172107D01*
X82457066Y-84184266D01*
X82341307Y-84184266D01*
X82320349Y-84099600D01*
X83845600Y-84099600D01*
X83896400Y-84150400D01*
X83947200Y-84099600D01*
X83896400Y-84048800D01*
X83845600Y-84099600D01*
X82320349Y-84099600D01*
X82223115Y-83706814D01*
X82044186Y-83034720D01*
X81857321Y-82390503D01*
X81713482Y-81923820D01*
X81607974Y-81560263D01*
X81534071Y-81252924D01*
X81508800Y-81080574D01*
X81463750Y-80850636D01*
X81370013Y-80614754D01*
X81260603Y-80348109D01*
X81127453Y-79949592D01*
X80984156Y-79469747D01*
X80844309Y-78959116D01*
X80721505Y-78468244D01*
X80629338Y-78047674D01*
X80581404Y-77747949D01*
X80577764Y-77669218D01*
X80562732Y-77459721D01*
X80511783Y-77384354D01*
X80502103Y-77388250D01*
X80444341Y-77317366D01*
X80349806Y-77085111D01*
X80231301Y-76727174D01*
X80101630Y-76279244D01*
X80093544Y-76249431D01*
X79960405Y-75760799D01*
X79839136Y-75323176D01*
X79743501Y-74985774D01*
X79688852Y-74802652D01*
X79641376Y-74502408D01*
X79664289Y-74187087D01*
X79745089Y-73931555D01*
X79853634Y-73815792D01*
X79939357Y-73746613D01*
X80181779Y-73746613D01*
X80322266Y-73762645D01*
X80391200Y-73763628D01*
X80576042Y-73753035D01*
X80589782Y-73736400D01*
X81000800Y-73736400D01*
X81051600Y-73787200D01*
X81102400Y-73736400D01*
X81407200Y-73736400D01*
X81458000Y-73787200D01*
X81508800Y-73736400D01*
X81458000Y-73685600D01*
X81407200Y-73736400D01*
X81102400Y-73736400D01*
X81051600Y-73685600D01*
X81000800Y-73736400D01*
X80589782Y-73736400D01*
X80597826Y-73726662D01*
X80569000Y-73717164D01*
X80311319Y-73701363D01*
X80213400Y-73717164D01*
X80181779Y-73746613D01*
X79939357Y-73746613D01*
X79941403Y-73744962D01*
X79881358Y-73684462D01*
X79885162Y-73637755D01*
X80054073Y-73590385D01*
X80397196Y-73541096D01*
X80923637Y-73488630D01*
X81642499Y-73431732D01*
X81788200Y-73421266D01*
X82279422Y-73396463D01*
X82584690Y-73409024D01*
G36*
X102438400Y-73154688D02*
X102411599Y-73477988D01*
X102343066Y-73881103D01*
X102289200Y-74114121D01*
X102196197Y-74498447D01*
X102120419Y-74859189D01*
X102092165Y-75024467D01*
X102016336Y-75545910D01*
X101959906Y-75897661D01*
X101917156Y-76111670D01*
X101882367Y-76219886D01*
X101876135Y-76231205D01*
X101840485Y-76368476D01*
X101798782Y-76641829D01*
X101769232Y-76902911D01*
X101713501Y-77347351D01*
X101621838Y-77940215D01*
X101503582Y-78631834D01*
X101368075Y-79372540D01*
X101224657Y-80112664D01*
X101082669Y-80802538D01*
X100951453Y-81392492D01*
X100845713Y-81813600D01*
X100760543Y-82153873D01*
X100706034Y-82434221D01*
X100694853Y-82550200D01*
X100631293Y-82700428D01*
X100555674Y-82728000D01*
X100452708Y-82796115D01*
X100456662Y-82855000D01*
X100500329Y-83055618D01*
X100533371Y-83339061D01*
X100552896Y-83644571D01*
X100556011Y-83911385D01*
X100539822Y-84078744D01*
X100516155Y-84104640D01*
X100449293Y-84159069D01*
X100385150Y-84358513D01*
X100369199Y-84443851D01*
X100272850Y-84802228D01*
X100132540Y-84972587D01*
X99955193Y-84949700D01*
X99837622Y-84845290D01*
X99709731Y-84691937D01*
X99725297Y-84652375D01*
X99873000Y-84683737D01*
X100047703Y-84703595D01*
X100099100Y-84674288D01*
X100010814Y-84577028D01*
X99803005Y-84461052D01*
X99552603Y-84359562D01*
X99336541Y-84305762D01*
X99255433Y-84310168D01*
X99085639Y-84285264D01*
X98987837Y-84205823D01*
X98909493Y-84081774D01*
X98983274Y-84047551D01*
X98996959Y-84047244D01*
X99077906Y-84022653D01*
X99013937Y-83967852D01*
X98963589Y-83885360D01*
X98947603Y-83702861D01*
X98966642Y-83389485D01*
X99021368Y-82914357D01*
X99039516Y-82775608D01*
X99086639Y-82422463D01*
X99156943Y-81897719D01*
X99246428Y-81231152D01*
X99351090Y-80452535D01*
X99466926Y-79591644D01*
X99589935Y-78678252D01*
X99716113Y-77742136D01*
X99734190Y-77608088D01*
X100280823Y-73554977D01*
X100085880Y-73224574D01*
X99890938Y-72894172D01*
X100580469Y-72840309D01*
X101052830Y-72809374D01*
X101549944Y-72785930D01*
X101854200Y-72777258D01*
X102438400Y-72768069D01*
X102438400Y-73154688D01*
X102438400Y-73154688D01*
G37*
X102438400Y-73154688D02*
X102411599Y-73477988D01*
X102343066Y-73881103D01*
X102289200Y-74114121D01*
X102196197Y-74498447D01*
X102120419Y-74859189D01*
X102092165Y-75024467D01*
X102016336Y-75545910D01*
X101959906Y-75897661D01*
X101917156Y-76111670D01*
X101882367Y-76219886D01*
X101876135Y-76231205D01*
X101840485Y-76368476D01*
X101798782Y-76641829D01*
X101769232Y-76902911D01*
X101713501Y-77347351D01*
X101621838Y-77940215D01*
X101503582Y-78631834D01*
X101368075Y-79372540D01*
X101224657Y-80112664D01*
X101082669Y-80802538D01*
X100951453Y-81392492D01*
X100845713Y-81813600D01*
X100760543Y-82153873D01*
X100706034Y-82434221D01*
X100694853Y-82550200D01*
X100631293Y-82700428D01*
X100555674Y-82728000D01*
X100452708Y-82796115D01*
X100456662Y-82855000D01*
X100500329Y-83055618D01*
X100533371Y-83339061D01*
X100552896Y-83644571D01*
X100556011Y-83911385D01*
X100539822Y-84078744D01*
X100516155Y-84104640D01*
X100449293Y-84159069D01*
X100385150Y-84358513D01*
X100369199Y-84443851D01*
X100272850Y-84802228D01*
X100132540Y-84972587D01*
X99955193Y-84949700D01*
X99837622Y-84845290D01*
X99709731Y-84691937D01*
X99725297Y-84652375D01*
X99873000Y-84683737D01*
X100047703Y-84703595D01*
X100099100Y-84674288D01*
X100010814Y-84577028D01*
X99803005Y-84461052D01*
X99552603Y-84359562D01*
X99336541Y-84305762D01*
X99255433Y-84310168D01*
X99085639Y-84285264D01*
X98987837Y-84205823D01*
X98909493Y-84081774D01*
X98983274Y-84047551D01*
X98996959Y-84047244D01*
X99077906Y-84022653D01*
X99013937Y-83967852D01*
X98963589Y-83885360D01*
X98947603Y-83702861D01*
X98966642Y-83389485D01*
X99021368Y-82914357D01*
X99039516Y-82775608D01*
X99086639Y-82422463D01*
X99156943Y-81897719D01*
X99246428Y-81231152D01*
X99351090Y-80452535D01*
X99466926Y-79591644D01*
X99589935Y-78678252D01*
X99716113Y-77742136D01*
X99734190Y-77608088D01*
X100280823Y-73554977D01*
X100085880Y-73224574D01*
X99890938Y-72894172D01*
X100580469Y-72840309D01*
X101052830Y-72809374D01*
X101549944Y-72785930D01*
X101854200Y-72777258D01*
X102438400Y-72768069D01*
X102438400Y-73154688D01*
D12*
X94742000Y-136398000D03*
D13*
X94742000Y-138938000D03*
X92202000Y-136398000D03*
X92202000Y-138938000D03*
D14*
X102020620Y-98572320D03*
X106020620Y-98572320D03*
X90735400Y-107640120D03*
X94735400Y-107640120D03*
X127387600Y-120738900D03*
X131387600Y-120738900D03*
X102531160Y-88270080D03*
X106531160Y-88270080D03*
X104680000Y-74676000D03*
X108680000Y-74676000D03*
X89948000Y-82804000D03*
X93948000Y-82804000D03*
X75393800Y-77541120D03*
X79393800Y-77541120D03*
X77248000Y-88392000D03*
X81248000Y-88392000D03*
X78772000Y-99060000D03*
X82772000Y-99060000D03*
M02*
