G04 #@! TF.FileFunction,Copper,L1,Top,Signal*
%FSLAX46Y46*%
G04 Gerber Fmt 4.6, Leading zero omitted, Abs format (unit mm)*
G04 Created by KiCad (PCBNEW 4.0.6) date 06/05/18 18:48:05*
%MOMM*%
%LPD*%
G01*
G04 APERTURE LIST*
%ADD10C,0.100000*%
%ADD11R,0.300000X0.350000*%
%ADD12R,2.000000X1.700000*%
%ADD13C,1.700000*%
%ADD14O,1.700000X1.700000*%
%ADD15C,0.600000*%
%ADD16C,0.250000*%
G04 APERTURE END LIST*
D10*
D11*
X93700000Y-127508000D03*
X94260000Y-127508000D03*
D12*
X78772000Y-99060000D03*
X82772000Y-99060000D03*
X77248000Y-88392000D03*
X81248000Y-88392000D03*
X74200000Y-75692000D03*
X78200000Y-75692000D03*
X89948000Y-82804000D03*
X93948000Y-82804000D03*
X104680000Y-74676000D03*
X108680000Y-74676000D03*
X103664000Y-87376000D03*
X107664000Y-87376000D03*
X102140000Y-98552000D03*
X106140000Y-98552000D03*
X94964000Y-108712000D03*
X90964000Y-108712000D03*
X131540000Y-120904000D03*
X127540000Y-120904000D03*
X102140000Y-92964000D03*
X106140000Y-92964000D03*
D13*
X94742000Y-136398000D03*
D14*
X94742000Y-138938000D03*
X92202000Y-136398000D03*
X92202000Y-138938000D03*
D15*
X91948000Y-133096000D03*
X92964000Y-127000000D03*
X102108000Y-112268000D03*
X130302000Y-118872000D03*
X96012000Y-125984000D03*
X91948000Y-85090000D03*
X99060000Y-87630000D03*
X103886000Y-89408000D03*
X104394000Y-95504000D03*
X98806000Y-124206000D03*
X100838000Y-100838000D03*
X97536000Y-108712000D03*
X94996000Y-129540000D03*
X94996000Y-127000000D03*
X80772000Y-99060000D03*
X79248000Y-88392000D03*
X76200000Y-75692000D03*
X91948000Y-82804000D03*
X106680000Y-74676000D03*
X105664000Y-87376000D03*
X104140000Y-98552000D03*
X92964000Y-108712000D03*
X109220000Y-97028000D03*
X116078000Y-105156000D03*
X97536000Y-103124000D03*
X103124000Y-107696000D03*
X104140000Y-107696000D03*
X99314000Y-127508000D03*
X93726000Y-121920000D03*
X98552000Y-132588000D03*
X96520000Y-134620000D03*
D16*
X93700000Y-127508000D02*
X93700000Y-131344000D01*
X93700000Y-131344000D02*
X91948000Y-133096000D01*
X93472000Y-127508000D02*
X93700000Y-127508000D01*
X92964000Y-127000000D02*
X93472000Y-127508000D01*
X104394000Y-110490000D02*
X102616000Y-112268000D01*
X102616000Y-112268000D02*
X102108000Y-112268000D01*
X130302000Y-118872000D02*
X131540000Y-120110000D01*
X78772000Y-99060000D02*
X78772000Y-108744000D01*
X87630000Y-125984000D02*
X96012000Y-125984000D01*
X82804000Y-121158000D02*
X87630000Y-125984000D01*
X82804000Y-112776000D02*
X82804000Y-121158000D01*
X78772000Y-108744000D02*
X82804000Y-112776000D01*
X77248000Y-88392000D02*
X77248000Y-93504000D01*
X78772000Y-95028000D02*
X78772000Y-99060000D01*
X77248000Y-93504000D02*
X78772000Y-95028000D01*
X74200000Y-75692000D02*
X74200000Y-85344000D01*
X74200000Y-85344000D02*
X77248000Y-88392000D01*
X89948000Y-82804000D02*
X89948000Y-83090000D01*
X89948000Y-83090000D02*
X91948000Y-85090000D01*
X99060000Y-87630000D02*
X99314000Y-87376000D01*
X99314000Y-87376000D02*
X103664000Y-87376000D01*
X103664000Y-87376000D02*
X103664000Y-79216000D01*
X104680000Y-78200000D02*
X104680000Y-74676000D01*
X103664000Y-79216000D02*
X104680000Y-78200000D01*
X103664000Y-89186000D02*
X103664000Y-87376000D01*
X103886000Y-89408000D02*
X103664000Y-89186000D01*
X102140000Y-98552000D02*
X102140000Y-97758000D01*
X102140000Y-97758000D02*
X104394000Y-95504000D01*
X131540000Y-120110000D02*
X131540000Y-120904000D01*
X102140000Y-98552000D02*
X102140000Y-99092000D01*
X102140000Y-99092000D02*
X104902000Y-101854000D01*
X104902000Y-101854000D02*
X104902000Y-109982000D01*
X104902000Y-109982000D02*
X104394000Y-110490000D01*
X104394000Y-110490000D02*
X104394000Y-118618000D01*
X104394000Y-118618000D02*
X98806000Y-124206000D01*
X94964000Y-108712000D02*
X97282000Y-108712000D01*
X102140000Y-99536000D02*
X102140000Y-98552000D01*
X100838000Y-100838000D02*
X102140000Y-99536000D01*
X97282000Y-108712000D02*
X97536000Y-108712000D01*
X94260000Y-127508000D02*
X94260000Y-128804000D01*
X94260000Y-128804000D02*
X94996000Y-129540000D01*
X94488000Y-127508000D02*
X94260000Y-127508000D01*
X94996000Y-127000000D02*
X94488000Y-127508000D01*
X82772000Y-99060000D02*
X80772000Y-99060000D01*
X79248000Y-88392000D02*
X81248000Y-88392000D01*
X76200000Y-75692000D02*
X78200000Y-75692000D01*
X91948000Y-82804000D02*
X93948000Y-82804000D01*
X106680000Y-74676000D02*
X108680000Y-74676000D01*
X105664000Y-87376000D02*
X107664000Y-87376000D01*
X104140000Y-98552000D02*
X106140000Y-98552000D01*
X92964000Y-108712000D02*
X90964000Y-108712000D01*
X127508000Y-120872000D02*
X127508000Y-118618000D01*
X106140000Y-93948000D02*
X109220000Y-97028000D01*
X116078000Y-105156000D02*
X119634000Y-108712000D01*
X119634000Y-108712000D02*
X119634000Y-109855000D01*
X119634000Y-109855000D02*
X127508000Y-117729000D01*
X127508000Y-117729000D02*
X127508000Y-118618000D01*
X106140000Y-93948000D02*
X106140000Y-92964000D01*
X127508000Y-120872000D02*
X127540000Y-120904000D01*
X101600000Y-103124000D02*
X97536000Y-103124000D01*
X103124000Y-104648000D02*
X101600000Y-103124000D01*
X103124000Y-107696000D02*
X103124000Y-104648000D01*
X98806000Y-96298000D02*
X102140000Y-92964000D01*
X98806000Y-101346000D02*
X98806000Y-96298000D01*
X99822000Y-102362000D02*
X98806000Y-101346000D01*
X101600000Y-102362000D02*
X99822000Y-102362000D01*
X104140000Y-104902000D02*
X101600000Y-102362000D01*
X104140000Y-107696000D02*
X104140000Y-104902000D01*
X93726000Y-121920000D02*
X99314000Y-127508000D01*
X96520000Y-134620000D02*
X98552000Y-132588000D01*
M02*
