G04 #@! TF.FileFunction,Copper,L2,Bot,Signal*
%FSLAX46Y46*%
G04 Gerber Fmt 4.6, Leading zero omitted, Abs format (unit mm)*
G04 Created by KiCad (PCBNEW 4.0.6) date 06/26/18 20:30:44*
%MOMM*%
%LPD*%
G01*
G04 APERTURE LIST*
%ADD10C,0.100000*%
%ADD11R,0.431800X1.651000*%
%ADD12C,1.700000*%
%ADD13O,1.700000X1.700000*%
%ADD14R,2.000000X1.600000*%
%ADD15R,2.000000X1.700000*%
%ADD16C,0.600000*%
%ADD17C,0.250000*%
%ADD18C,0.400000*%
%ADD19C,0.500000*%
%ADD20C,0.254000*%
G04 APERTURE END LIST*
D10*
D11*
X85081400Y-113660120D03*
X85731400Y-113660120D03*
X86381400Y-113660120D03*
X87031400Y-113660120D03*
X87681400Y-113660120D03*
X88331400Y-113660120D03*
X88981400Y-113660120D03*
X89631400Y-113660120D03*
X90281400Y-113660120D03*
X90931400Y-113660120D03*
X91581400Y-113660120D03*
X92231400Y-113660120D03*
X92881400Y-113660120D03*
X93531400Y-113660120D03*
X93531400Y-120670120D03*
X92881400Y-120670120D03*
X92231400Y-120670120D03*
X91581400Y-120670120D03*
X90931400Y-120670120D03*
X90281400Y-120670120D03*
X89631400Y-120670120D03*
X88981400Y-120670120D03*
X88331400Y-120670120D03*
X87681400Y-120670120D03*
X87031400Y-120670120D03*
X86381400Y-120670120D03*
X85731400Y-120670120D03*
X85081400Y-120670120D03*
D12*
X94742000Y-136398000D03*
D13*
X94742000Y-138938000D03*
X92202000Y-136398000D03*
X92202000Y-138938000D03*
D14*
X90062300Y-130926840D03*
X94062300Y-130926840D03*
D15*
X102013000Y-98539300D03*
X106013000Y-98539300D03*
X94704920Y-107670600D03*
X90704920Y-107670600D03*
X102622600Y-94983300D03*
X106622600Y-94983300D03*
X102523540Y-88262460D03*
X106523540Y-88262460D03*
X104680000Y-74676000D03*
X108680000Y-74676000D03*
X89948000Y-82804000D03*
X93948000Y-82804000D03*
X75381100Y-77518260D03*
X79381100Y-77518260D03*
X77248000Y-88392000D03*
X81248000Y-88392000D03*
X78772000Y-99060000D03*
X82772000Y-99060000D03*
D16*
X92095320Y-130865880D03*
X88625680Y-137464800D03*
X80772000Y-99060000D03*
X79248000Y-88392000D03*
X77403960Y-77518260D03*
X91948000Y-82804000D03*
X106680000Y-74676000D03*
X104612440Y-88231980D03*
X129334260Y-120616980D03*
X92659200Y-107670600D03*
X104066340Y-98549460D03*
D17*
X90281400Y-113660120D02*
X90281400Y-111265482D01*
X89711780Y-106677460D02*
X90704920Y-107670600D01*
X88033860Y-106677460D02*
X89711780Y-106677460D01*
X87416640Y-107294680D02*
X88033860Y-106677460D01*
X87416640Y-108400722D02*
X87416640Y-107294680D01*
X90281400Y-111265482D02*
X87416640Y-108400722D01*
D18*
X90281400Y-113660120D02*
X90281400Y-116697400D01*
X90281400Y-116697400D02*
X91581400Y-117997400D01*
X91581400Y-117997400D02*
X91581400Y-124095080D01*
X90062300Y-125614180D02*
X90062300Y-130926840D01*
X90062300Y-125614180D02*
X91581400Y-124095080D01*
D19*
X92202000Y-136398000D02*
X92202000Y-134475220D01*
X92202000Y-134475220D02*
X90062300Y-132335520D01*
X90062300Y-132335520D02*
X90062300Y-130926840D01*
D17*
X92202000Y-138938000D02*
X90098880Y-138938000D01*
X92156280Y-130926840D02*
X94062300Y-130926840D01*
X92095320Y-130865880D02*
X92156280Y-130926840D01*
X90098880Y-138938000D02*
X88625680Y-137464800D01*
X93531400Y-120670120D02*
X93531400Y-125741720D01*
X93531400Y-125741720D02*
X93512640Y-125760480D01*
X92881400Y-120670120D02*
X92881400Y-125111560D01*
X92903040Y-125166120D02*
X92903040Y-125150880D01*
X92872560Y-125135640D02*
X92903040Y-125166120D01*
X92872560Y-125120400D02*
X92872560Y-125135640D01*
X92881400Y-125111560D02*
X92872560Y-125120400D01*
X92231400Y-120670120D02*
X92231400Y-124479240D01*
X93512640Y-125760480D02*
X93512640Y-130377180D01*
X92231400Y-124479240D02*
X92903040Y-125150880D01*
X92903040Y-125150880D02*
X93512640Y-125760480D01*
X93512640Y-130377180D02*
X94062300Y-130926840D01*
X80772000Y-99060000D02*
X82772000Y-99060000D01*
X81248000Y-88392000D02*
X79248000Y-88392000D01*
X79381100Y-77518260D02*
X77403960Y-77518260D01*
X93948000Y-82804000D02*
X91948000Y-82804000D01*
X108680000Y-74676000D02*
X106680000Y-74676000D01*
X106523540Y-88262460D02*
X104642920Y-88262460D01*
X104642920Y-88262460D02*
X104612440Y-88231980D01*
X122153680Y-110223300D02*
X122153680Y-110647480D01*
X112468660Y-98935540D02*
X119440960Y-105907840D01*
X119440960Y-105907840D02*
X119440960Y-107510580D01*
X119440960Y-107510580D02*
X122153680Y-110223300D01*
X106622600Y-94983300D02*
X108506260Y-94983300D01*
X129194560Y-120477280D02*
X129334260Y-120616980D01*
X129194560Y-118409720D02*
X129194560Y-120477280D01*
X108506260Y-94983300D02*
X112458500Y-98935540D01*
X112458500Y-98935540D02*
X112468660Y-98935540D01*
X129194560Y-117688360D02*
X129194560Y-118409720D01*
X122153680Y-110647480D02*
X129194560Y-117688360D01*
X94704920Y-107670600D02*
X92659200Y-107670600D01*
X104076500Y-98539300D02*
X106013000Y-98539300D01*
X104066340Y-98549460D02*
X104076500Y-98539300D01*
X79756000Y-110230920D02*
X79756000Y-111013240D01*
X82402880Y-113660120D02*
X85081400Y-113660120D01*
X79756000Y-111013240D02*
X82402880Y-113660120D01*
X79756000Y-110236000D02*
X79756000Y-110230920D01*
X79756000Y-110230920D02*
X79756000Y-100044000D01*
X79756000Y-100044000D02*
X78772000Y-99060000D01*
X82382360Y-111846360D02*
X80772000Y-110236000D01*
X85176360Y-111846360D02*
X82382360Y-111846360D01*
X85731400Y-112401400D02*
X85176360Y-111846360D01*
X85731400Y-113660120D02*
X85731400Y-112401400D01*
X76708000Y-93472000D02*
X76708000Y-88932000D01*
X78740000Y-95504000D02*
X83312000Y-95504000D01*
X80772000Y-110236000D02*
X80772000Y-104648000D01*
X84836000Y-100584000D02*
X84836000Y-97028000D01*
X80772000Y-104648000D02*
X84836000Y-100584000D01*
X83312000Y-95504000D02*
X84836000Y-97028000D01*
X76708000Y-93472000D02*
X78740000Y-95504000D01*
X76708000Y-88932000D02*
X77248000Y-88392000D01*
X85862160Y-111358680D02*
X82722720Y-111358680D01*
X75381100Y-82066380D02*
X75381100Y-77518260D01*
X78150720Y-84836000D02*
X75381100Y-82066380D01*
X82255360Y-84836000D02*
X78150720Y-84836000D01*
X84145120Y-86725760D02*
X82255360Y-84836000D01*
X84145120Y-90109040D02*
X84145120Y-86725760D01*
X83294220Y-90959940D02*
X84145120Y-90109040D01*
X78531720Y-90959940D02*
X83294220Y-90959940D01*
X77182980Y-92308680D02*
X78531720Y-90959940D01*
X77182980Y-93309018D02*
X77182980Y-92308680D01*
X78927960Y-95053998D02*
X77182980Y-93309018D01*
X78950820Y-95053998D02*
X78927960Y-95053998D01*
X83517318Y-95053998D02*
X78950820Y-95053998D01*
X85305900Y-96842580D02*
X83517318Y-95053998D01*
X85305900Y-100759260D02*
X85305900Y-96842580D01*
X81222002Y-104843158D02*
X85305900Y-100759260D01*
X81222002Y-109857962D02*
X81222002Y-104843158D01*
X82722720Y-111358680D02*
X81222002Y-109857962D01*
X85859620Y-111358680D02*
X85862160Y-111358680D01*
X86381400Y-111877920D02*
X86381400Y-113660120D01*
X85862160Y-111358680D02*
X86381400Y-111877920D01*
X85852000Y-111358680D02*
X85859620Y-111358680D01*
X86360000Y-110744000D02*
X86362540Y-110744000D01*
X89948000Y-97504000D02*
X81788000Y-105664000D01*
X81788000Y-109585760D02*
X81788000Y-105664000D01*
X82946240Y-110744000D02*
X81788000Y-109585760D01*
X86360000Y-110744000D02*
X82946240Y-110744000D01*
X89948000Y-82804000D02*
X89948000Y-89884000D01*
X89948000Y-89884000D02*
X89948000Y-97504000D01*
X87031400Y-111412860D02*
X87031400Y-113660120D01*
X86362540Y-110744000D02*
X87031400Y-111412860D01*
X87589360Y-113568080D02*
X87589360Y-111272320D01*
X86553040Y-110236000D02*
X87589360Y-111272320D01*
X100076000Y-79280000D02*
X104680000Y-74676000D01*
X100076000Y-88056720D02*
X100076000Y-79280000D01*
X82296000Y-105836720D02*
X100076000Y-88056720D01*
X82296000Y-109093000D02*
X82296000Y-105836720D01*
X83439000Y-110236000D02*
X82296000Y-109093000D01*
X83439000Y-110236000D02*
X86553040Y-110236000D01*
X87589360Y-113568080D02*
X87681400Y-113660120D01*
X82804000Y-106680000D02*
X82804000Y-106202480D01*
X88258650Y-111174530D02*
X86812120Y-109728000D01*
X82804000Y-108808520D02*
X82804000Y-106680000D01*
X83723480Y-109728000D02*
X82804000Y-108808520D01*
X83723480Y-109728000D02*
X86812120Y-109728000D01*
X100744020Y-88262460D02*
X102523540Y-88262460D01*
X82804000Y-106202480D02*
X100744020Y-88262460D01*
X88258650Y-111174530D02*
X88258650Y-113587370D01*
X88258650Y-113587370D02*
X88331400Y-113660120D01*
X88258650Y-111174530D02*
X88275160Y-111191040D01*
X88981400Y-113660120D02*
X88981400Y-111259740D01*
X95140780Y-94983300D02*
X102622600Y-94983300D01*
X83278980Y-106845100D02*
X95140780Y-94983300D01*
X83278980Y-108491020D02*
X83278980Y-106845100D01*
X84040980Y-109253020D02*
X83278980Y-108491020D01*
X86974680Y-109253020D02*
X84040980Y-109253020D01*
X88981400Y-111259740D02*
X86974680Y-109253020D01*
X89631400Y-113660120D02*
X89631400Y-111251880D01*
X92433140Y-98516440D02*
X101992680Y-98516440D01*
X83761580Y-107188000D02*
X92433140Y-98516440D01*
X83761580Y-108143040D02*
X83761580Y-107188000D01*
X84350860Y-108732320D02*
X83761580Y-108143040D01*
X87111840Y-108732320D02*
X84350860Y-108732320D01*
X89631400Y-111251880D02*
X87111840Y-108732320D01*
X97678240Y-121818400D02*
X97678240Y-121716800D01*
X95702120Y-138938000D02*
X97678240Y-136961880D01*
X97678240Y-136961880D02*
X97678240Y-121818400D01*
X94742000Y-138938000D02*
X95702120Y-138938000D01*
X92231400Y-111557880D02*
X92231400Y-113660120D01*
X93167200Y-110622080D02*
X92231400Y-111557880D01*
X94183200Y-110622080D02*
X93167200Y-110622080D01*
X95158560Y-111597440D02*
X94183200Y-110622080D01*
X95158560Y-119197120D02*
X95158560Y-111597440D01*
X97678240Y-121716800D02*
X95158560Y-119197120D01*
X94742000Y-136398000D02*
X95559880Y-136398000D01*
X95559880Y-136398000D02*
X97147380Y-134810500D01*
X97147380Y-134810500D02*
X97147380Y-121958100D01*
X97147380Y-121958100D02*
X92881400Y-117692120D01*
X92881400Y-117692120D02*
X92881400Y-113660120D01*
D20*
G36*
X110872551Y-73519363D02*
X110039294Y-80304457D01*
X110043425Y-80360062D01*
X110034409Y-80415085D01*
X110053592Y-80496912D01*
X110059819Y-80580724D01*
X110084913Y-80630513D01*
X110097640Y-80684800D01*
X115043481Y-91565650D01*
X114051084Y-91947341D01*
X113931962Y-91899692D01*
X111257515Y-86307667D01*
X111185672Y-86211667D01*
X111119046Y-86111954D01*
X110865046Y-85857954D01*
X110634705Y-85704046D01*
X110363000Y-85650000D01*
X110236000Y-85650000D01*
X110124397Y-85672199D01*
X110011478Y-85686434D01*
X109989312Y-85699070D01*
X109964295Y-85704046D01*
X109869677Y-85767267D01*
X109770807Y-85823628D01*
X109755167Y-85843780D01*
X109733954Y-85857954D01*
X109670729Y-85952578D01*
X109600957Y-86042478D01*
X109473957Y-86296478D01*
X109443155Y-86408956D01*
X109405347Y-86519277D01*
X108516347Y-93123277D01*
X108523619Y-93239410D01*
X108523498Y-93355786D01*
X108532231Y-93376933D01*
X108533661Y-93399764D01*
X108584823Y-93504276D01*
X108629244Y-93611837D01*
X108883244Y-93992837D01*
X108891274Y-94000883D01*
X108895940Y-94011245D01*
X108988833Y-94098646D01*
X109078928Y-94188930D01*
X109089423Y-94193290D01*
X109097701Y-94201079D01*
X110045130Y-94793222D01*
X110622954Y-95371046D01*
X110644167Y-95385220D01*
X110659807Y-95405372D01*
X110758673Y-95461730D01*
X110853295Y-95524954D01*
X110878314Y-95529931D01*
X110900478Y-95542565D01*
X111191275Y-95639497D01*
X111407485Y-95783637D01*
X112488311Y-97080629D01*
X112583660Y-97652723D01*
X112587509Y-97662903D01*
X112587498Y-97673786D01*
X112636368Y-97792119D01*
X112681639Y-97911846D01*
X112689089Y-97919776D01*
X112693244Y-97929837D01*
X112947244Y-98310837D01*
X112996899Y-98360596D01*
X113035954Y-98419046D01*
X113416954Y-98800046D01*
X113465964Y-98832793D01*
X113506321Y-98875751D01*
X114333636Y-99466690D01*
X116923865Y-102315943D01*
X113006061Y-98398139D01*
X112975442Y-98377680D01*
X109043661Y-94445899D01*
X108797099Y-94281152D01*
X108506260Y-94223300D01*
X108270040Y-94223300D01*
X108270040Y-94133300D01*
X108225762Y-93897983D01*
X108086690Y-93681859D01*
X107874490Y-93536869D01*
X107622600Y-93485860D01*
X105622600Y-93485860D01*
X105387283Y-93530138D01*
X105171159Y-93669210D01*
X105026169Y-93881410D01*
X104975160Y-94133300D01*
X104975160Y-95833300D01*
X105019438Y-96068617D01*
X105158510Y-96284741D01*
X105370710Y-96429731D01*
X105622600Y-96480740D01*
X107622600Y-96480740D01*
X107857917Y-96436462D01*
X108074041Y-96297390D01*
X108219031Y-96085190D01*
X108270040Y-95833300D01*
X108270040Y-95821882D01*
X111921099Y-99472941D01*
X111951718Y-99493400D01*
X118680960Y-106222642D01*
X118680960Y-107510580D01*
X118738812Y-107801419D01*
X118903559Y-108047981D01*
X121393680Y-110538102D01*
X121393680Y-110647480D01*
X121451532Y-110938319D01*
X121616279Y-111184881D01*
X128434560Y-118003162D01*
X128434560Y-120345560D01*
X128399422Y-120430181D01*
X128399098Y-120802147D01*
X128541143Y-121145923D01*
X128803933Y-121409172D01*
X129147461Y-121551818D01*
X129519427Y-121552142D01*
X129863203Y-121410097D01*
X130126452Y-121147307D01*
X130269098Y-120803779D01*
X130269422Y-120431813D01*
X130127377Y-120088037D01*
X129954560Y-119914918D01*
X129954560Y-117688360D01*
X129896708Y-117397521D01*
X129731961Y-117150959D01*
X128883746Y-116302744D01*
X131464040Y-117831807D01*
X131470142Y-117833956D01*
X131475032Y-117838188D01*
X131600576Y-117879890D01*
X131725338Y-117923827D01*
X131731795Y-117923477D01*
X131737935Y-117925517D01*
X132747744Y-118051743D01*
X133594333Y-118172684D01*
X134020056Y-118279115D01*
X134582888Y-118504248D01*
X134916699Y-118671153D01*
X136951734Y-121348831D01*
X135897655Y-122315071D01*
X135521242Y-122239788D01*
X135455235Y-122239719D01*
X135390657Y-122226053D01*
X135318060Y-122239575D01*
X135244214Y-122239498D01*
X135183205Y-122264694D01*
X135118313Y-122276781D01*
X133848313Y-122784782D01*
X133844618Y-122787186D01*
X133840295Y-122788046D01*
X133728619Y-122862665D01*
X133616113Y-122935871D01*
X133613621Y-122939504D01*
X133609954Y-122941954D01*
X133535354Y-123053601D01*
X133459407Y-123164317D01*
X133458494Y-123168631D01*
X133456046Y-123172295D01*
X133454174Y-123181705D01*
X131813758Y-123509788D01*
X130772169Y-123718106D01*
X129078249Y-122927610D01*
X128995004Y-122907214D01*
X128915786Y-122874498D01*
X128861705Y-122874554D01*
X128809179Y-122861685D01*
X128724467Y-122874698D01*
X128638757Y-122874787D01*
X128588815Y-122895535D01*
X128535362Y-122903746D01*
X128462074Y-122948189D01*
X128382928Y-122981070D01*
X128344728Y-123019350D01*
X128298486Y-123047392D01*
X128247787Y-123116493D01*
X128210641Y-123153717D01*
X128176087Y-123146844D01*
X128066331Y-123116787D01*
X128041023Y-123119977D01*
X128016000Y-123115000D01*
X126874748Y-123115000D01*
X126092034Y-122821482D01*
X125536625Y-122358641D01*
X125151673Y-121588738D01*
X125038657Y-120571594D01*
X125015961Y-120500004D01*
X125006566Y-120425478D01*
X124974501Y-120369227D01*
X124954937Y-120307519D01*
X124906569Y-120250060D01*
X124869372Y-120184807D01*
X124818228Y-120145114D01*
X124776534Y-120095583D01*
X124709856Y-120061006D01*
X124650522Y-120014957D01*
X124396522Y-119887957D01*
X124371916Y-119881219D01*
X124350705Y-119867046D01*
X124239087Y-119844844D01*
X124129331Y-119814787D01*
X124104023Y-119817977D01*
X124079000Y-119813000D01*
X123230608Y-119813000D01*
X123126520Y-119760956D01*
X122868575Y-119631984D01*
X123125534Y-119426417D01*
X123151073Y-119396078D01*
X123184046Y-119374046D01*
X123692046Y-118866046D01*
X123755271Y-118771422D01*
X123825043Y-118681522D01*
X123952043Y-118427521D01*
X123958781Y-118402917D01*
X123972954Y-118381705D01*
X123995157Y-118270086D01*
X124025213Y-118160331D01*
X124022023Y-118135022D01*
X124027000Y-118110000D01*
X124027000Y-117856000D01*
X124004798Y-117744383D01*
X123990565Y-117631478D01*
X123963406Y-117550000D01*
X124079000Y-117550000D01*
X124350705Y-117495954D01*
X124581046Y-117342046D01*
X124734954Y-117111705D01*
X124789000Y-116840000D01*
X124789000Y-116713000D01*
X124775429Y-116644777D01*
X124775502Y-116575214D01*
X124748668Y-116510238D01*
X124734954Y-116441295D01*
X124696310Y-116383459D01*
X124669756Y-116319163D01*
X124468497Y-116017275D01*
X124408000Y-115835783D01*
X124408000Y-115570000D01*
X124394429Y-115501777D01*
X124394502Y-115432214D01*
X124367668Y-115367238D01*
X124353954Y-115298295D01*
X124315310Y-115240459D01*
X124288756Y-115176163D01*
X124034756Y-114795163D01*
X124010499Y-114770855D01*
X123994417Y-114740512D01*
X121200417Y-111311512D01*
X121172307Y-111288277D01*
X121152046Y-111257954D01*
X120898046Y-111003954D01*
X120667705Y-110850046D01*
X120396000Y-110796000D01*
X120204670Y-110796000D01*
X116888009Y-106619464D01*
X116886086Y-106617833D01*
X116884916Y-106615596D01*
X113201915Y-102043596D01*
X113186806Y-102030964D01*
X113176739Y-102014035D01*
X110890739Y-99474035D01*
X110833601Y-99431348D01*
X110785684Y-99378529D01*
X110723715Y-99349255D01*
X110668806Y-99308233D01*
X110599684Y-99290662D01*
X110535200Y-99260199D01*
X110217988Y-99180896D01*
X109214046Y-98176954D01*
X108983705Y-98023046D01*
X108712000Y-97969000D01*
X108440295Y-98023046D01*
X108209954Y-98176954D01*
X108082954Y-98303954D01*
X108033494Y-98377976D01*
X107974064Y-98444259D01*
X107957230Y-98492114D01*
X107929046Y-98534295D01*
X107911678Y-98621608D01*
X107882136Y-98705590D01*
X107755136Y-99594591D01*
X107755481Y-99600921D01*
X107753483Y-99606936D01*
X107372618Y-102653855D01*
X106485409Y-109624782D01*
X106233660Y-111135277D01*
X106237631Y-111262488D01*
X106237498Y-111389786D01*
X106241940Y-111400542D01*
X106242303Y-111412170D01*
X106294653Y-111528179D01*
X106343244Y-111645837D01*
X106986000Y-112609971D01*
X106986000Y-112990680D01*
X106736343Y-115237594D01*
X106736683Y-115241553D01*
X106735524Y-115245353D01*
X106481911Y-117781482D01*
X106357481Y-118901349D01*
X106235539Y-119633003D01*
X106114963Y-120235884D01*
X105487272Y-122621109D01*
X104981318Y-124391948D01*
X104980961Y-124396289D01*
X104979018Y-124400186D01*
X104598018Y-125797187D01*
X104596821Y-125814289D01*
X104589907Y-125829980D01*
X104335907Y-126972979D01*
X104335477Y-126992249D01*
X104328660Y-127010277D01*
X104201660Y-127772277D01*
X104203499Y-127831191D01*
X104192000Y-127889000D01*
X104192000Y-129794000D01*
X104196977Y-129819023D01*
X104193787Y-129844331D01*
X104223844Y-129954087D01*
X104246046Y-130065705D01*
X104260219Y-130086916D01*
X104266957Y-130111522D01*
X104287835Y-130153278D01*
X104269753Y-130207524D01*
X102175636Y-132767000D01*
X100838000Y-132767000D01*
X100726397Y-132789199D01*
X100613478Y-132803434D01*
X100591312Y-132816070D01*
X100566295Y-132821046D01*
X100471677Y-132884267D01*
X100372807Y-132940628D01*
X100357167Y-132960780D01*
X100335954Y-132974954D01*
X100272729Y-133069578D01*
X100202957Y-133159478D01*
X100075957Y-133413478D01*
X100039921Y-133545068D01*
X100003091Y-133676546D01*
X99876091Y-135327545D01*
X99879383Y-135354940D01*
X99874000Y-135382000D01*
X99874000Y-136264759D01*
X99747604Y-143469304D01*
X97955297Y-145261611D01*
X94510580Y-145855528D01*
X93554799Y-145975000D01*
X92667475Y-145975000D01*
X89240275Y-145147745D01*
X87193139Y-143316098D01*
X87144100Y-139294890D01*
X90760524Y-139294890D01*
X90930355Y-139704924D01*
X91320642Y-140133183D01*
X91845108Y-140379486D01*
X92075000Y-140258819D01*
X92075000Y-139065000D01*
X90881845Y-139065000D01*
X90760524Y-139294890D01*
X87144100Y-139294890D01*
X87069947Y-133214342D01*
X87047685Y-133109146D01*
X87034860Y-133002405D01*
X87019205Y-132974567D01*
X87012592Y-132943316D01*
X86951769Y-132854648D01*
X86899072Y-132760938D01*
X86873956Y-132741210D01*
X86855887Y-132714869D01*
X86765763Y-132656228D01*
X86681214Y-132589817D01*
X86650457Y-132581201D01*
X86623686Y-132563782D01*
X86517993Y-132544095D01*
X86414454Y-132515091D01*
X85062455Y-132411091D01*
X82913963Y-129832901D01*
X83126772Y-128236836D01*
X83119110Y-128116902D01*
X83117770Y-127996733D01*
X82609770Y-125583733D01*
X82598678Y-125557776D01*
X82596149Y-125529662D01*
X80705614Y-119101838D01*
X79950864Y-113818591D01*
X79823864Y-112929591D01*
X79815949Y-112907090D01*
X79815666Y-112883240D01*
X79618649Y-111950690D01*
X81865479Y-114197521D01*
X82112041Y-114362268D01*
X82402880Y-114420120D01*
X84218060Y-114420120D01*
X84218060Y-114485620D01*
X84262338Y-114720937D01*
X84401410Y-114937061D01*
X84613610Y-115082051D01*
X84865500Y-115133060D01*
X85297300Y-115133060D01*
X85410405Y-115111778D01*
X85515500Y-115133060D01*
X85947300Y-115133060D01*
X86060405Y-115111778D01*
X86165500Y-115133060D01*
X86597300Y-115133060D01*
X86710405Y-115111778D01*
X86815500Y-115133060D01*
X87247300Y-115133060D01*
X87360405Y-115111778D01*
X87465500Y-115133060D01*
X87897300Y-115133060D01*
X88010405Y-115111778D01*
X88115500Y-115133060D01*
X88547300Y-115133060D01*
X88660405Y-115111778D01*
X88765500Y-115133060D01*
X89197300Y-115133060D01*
X89310405Y-115111778D01*
X89415500Y-115133060D01*
X89446400Y-115133060D01*
X89446400Y-116697400D01*
X89509961Y-117016941D01*
X89666006Y-117250478D01*
X89690966Y-117287834D01*
X90746400Y-118343268D01*
X90746400Y-119197180D01*
X90715500Y-119197180D01*
X90602395Y-119218462D01*
X90497300Y-119197180D01*
X90065500Y-119197180D01*
X89952395Y-119218462D01*
X89847300Y-119197180D01*
X89415500Y-119197180D01*
X89302395Y-119218462D01*
X89197300Y-119197180D01*
X88765500Y-119197180D01*
X88652395Y-119218462D01*
X88547300Y-119197180D01*
X88115500Y-119197180D01*
X88002395Y-119218462D01*
X87897300Y-119197180D01*
X87465500Y-119197180D01*
X87352395Y-119218462D01*
X87247300Y-119197180D01*
X86815500Y-119197180D01*
X86702395Y-119218462D01*
X86597300Y-119197180D01*
X86165500Y-119197180D01*
X86052395Y-119218462D01*
X85947300Y-119197180D01*
X85515500Y-119197180D01*
X85402395Y-119218462D01*
X85297300Y-119197180D01*
X84865500Y-119197180D01*
X84630183Y-119241458D01*
X84414059Y-119380530D01*
X84269069Y-119592730D01*
X84218060Y-119844620D01*
X84218060Y-121495620D01*
X84262338Y-121730937D01*
X84401410Y-121947061D01*
X84613610Y-122092051D01*
X84865500Y-122143060D01*
X85297300Y-122143060D01*
X85410405Y-122121778D01*
X85515500Y-122143060D01*
X85947300Y-122143060D01*
X86060405Y-122121778D01*
X86165500Y-122143060D01*
X86597300Y-122143060D01*
X86710405Y-122121778D01*
X86815500Y-122143060D01*
X87247300Y-122143060D01*
X87360405Y-122121778D01*
X87465500Y-122143060D01*
X87897300Y-122143060D01*
X88010405Y-122121778D01*
X88115500Y-122143060D01*
X88547300Y-122143060D01*
X88660405Y-122121778D01*
X88765500Y-122143060D01*
X89197300Y-122143060D01*
X89310405Y-122121778D01*
X89415500Y-122143060D01*
X89847300Y-122143060D01*
X89960405Y-122121778D01*
X90065500Y-122143060D01*
X90497300Y-122143060D01*
X90610405Y-122121778D01*
X90715500Y-122143060D01*
X90746400Y-122143060D01*
X90746400Y-123749212D01*
X89471866Y-125023746D01*
X89290861Y-125294639D01*
X89227300Y-125614180D01*
X89227300Y-129479400D01*
X89062300Y-129479400D01*
X88826983Y-129523678D01*
X88610859Y-129662750D01*
X88465869Y-129874950D01*
X88414860Y-130126840D01*
X88414860Y-131726840D01*
X88459138Y-131962157D01*
X88598210Y-132178281D01*
X88810410Y-132323271D01*
X89062300Y-132374280D01*
X89185009Y-132374280D01*
X89213019Y-132515091D01*
X89244667Y-132674195D01*
X89385387Y-132884798D01*
X89436510Y-132961310D01*
X91317000Y-134841799D01*
X91317000Y-135218221D01*
X91122853Y-135347946D01*
X90800946Y-135829715D01*
X90687907Y-136398000D01*
X90800946Y-136966285D01*
X91122853Y-137448054D01*
X91463553Y-137675702D01*
X91320642Y-137742817D01*
X90930355Y-138171076D01*
X90760524Y-138581110D01*
X90881845Y-138811000D01*
X92075000Y-138811000D01*
X92075000Y-138791000D01*
X92329000Y-138791000D01*
X92329000Y-138811000D01*
X92349000Y-138811000D01*
X92349000Y-139065000D01*
X92329000Y-139065000D01*
X92329000Y-140258819D01*
X92558892Y-140379486D01*
X93083358Y-140133183D01*
X93473645Y-139704924D01*
X93473655Y-139704899D01*
X93662853Y-139988054D01*
X94144622Y-140309961D01*
X94712907Y-140423000D01*
X94771093Y-140423000D01*
X95339378Y-140309961D01*
X95821147Y-139988054D01*
X96102528Y-139566937D01*
X96239521Y-139475401D01*
X98215641Y-137499281D01*
X98380388Y-137252719D01*
X98438240Y-136961880D01*
X98438240Y-121716800D01*
X98380388Y-121425961D01*
X98215641Y-121179399D01*
X95918560Y-118882318D01*
X95918560Y-111597440D01*
X95900371Y-111506000D01*
X95860708Y-111306600D01*
X95695961Y-111060039D01*
X94720601Y-110084679D01*
X94474039Y-109919932D01*
X94183200Y-109862080D01*
X93167200Y-109862080D01*
X92876361Y-109919932D01*
X92629799Y-110084679D01*
X91693999Y-111020479D01*
X91529252Y-111267041D01*
X91471400Y-111557880D01*
X91471400Y-112187180D01*
X91365500Y-112187180D01*
X91281662Y-112202955D01*
X91273610Y-112199620D01*
X91198100Y-112199620D01*
X91174624Y-112223096D01*
X91130183Y-112231458D01*
X91058402Y-112277648D01*
X91058402Y-112199620D01*
X91041400Y-112199620D01*
X91041400Y-111265482D01*
X90992665Y-111020479D01*
X90983548Y-110974642D01*
X90818801Y-110728081D01*
X88176640Y-108085920D01*
X88176640Y-107609482D01*
X88348662Y-107437460D01*
X89057480Y-107437460D01*
X89057480Y-108520600D01*
X89101758Y-108755917D01*
X89240830Y-108972041D01*
X89453030Y-109117031D01*
X89704920Y-109168040D01*
X91704920Y-109168040D01*
X91940237Y-109123762D01*
X92156361Y-108984690D01*
X92301351Y-108772490D01*
X92345824Y-108552878D01*
X92472401Y-108605438D01*
X92844367Y-108605762D01*
X93057480Y-108517706D01*
X93057480Y-108520600D01*
X93101758Y-108755917D01*
X93240830Y-108972041D01*
X93453030Y-109117031D01*
X93704920Y-109168040D01*
X95704920Y-109168040D01*
X95940237Y-109123762D01*
X96156361Y-108984690D01*
X96301351Y-108772490D01*
X96352360Y-108520600D01*
X96352360Y-106820600D01*
X96308082Y-106585283D01*
X96169010Y-106369159D01*
X95956810Y-106224169D01*
X95704920Y-106173160D01*
X93704920Y-106173160D01*
X93469603Y-106217438D01*
X93253479Y-106356510D01*
X93108489Y-106568710D01*
X93057480Y-106820600D01*
X93057480Y-106823577D01*
X92845999Y-106735762D01*
X92474033Y-106735438D01*
X92346269Y-106788229D01*
X92308082Y-106585283D01*
X92169010Y-106369159D01*
X91956810Y-106224169D01*
X91704920Y-106173160D01*
X90282282Y-106173160D01*
X90249181Y-106140059D01*
X90002619Y-105975312D01*
X89711780Y-105917460D01*
X88033860Y-105917460D01*
X87743021Y-105975312D01*
X87496459Y-106140059D01*
X86879239Y-106757279D01*
X86714492Y-107003841D01*
X86656640Y-107294680D01*
X86656640Y-107972320D01*
X84665662Y-107972320D01*
X84521580Y-107828238D01*
X84521580Y-107502802D01*
X92747942Y-99276440D01*
X100365560Y-99276440D01*
X100365560Y-99389300D01*
X100409838Y-99624617D01*
X100548910Y-99840741D01*
X100761110Y-99985731D01*
X101013000Y-100036740D01*
X103013000Y-100036740D01*
X103248317Y-99992462D01*
X103464441Y-99853390D01*
X103609431Y-99641190D01*
X103659689Y-99393007D01*
X103879541Y-99484298D01*
X104251507Y-99484622D01*
X104373975Y-99434020D01*
X104409838Y-99624617D01*
X104548910Y-99840741D01*
X104761110Y-99985731D01*
X105013000Y-100036740D01*
X107013000Y-100036740D01*
X107248317Y-99992462D01*
X107464441Y-99853390D01*
X107609431Y-99641190D01*
X107660440Y-99389300D01*
X107660440Y-97689300D01*
X107616162Y-97453983D01*
X107477090Y-97237859D01*
X107264890Y-97092869D01*
X107013000Y-97041860D01*
X105013000Y-97041860D01*
X104777683Y-97086138D01*
X104561559Y-97225210D01*
X104416569Y-97437410D01*
X104370790Y-97663475D01*
X104253139Y-97614622D01*
X103881173Y-97614298D01*
X103660440Y-97705503D01*
X103660440Y-97689300D01*
X103616162Y-97453983D01*
X103477090Y-97237859D01*
X103264890Y-97092869D01*
X103013000Y-97041860D01*
X101013000Y-97041860D01*
X100777683Y-97086138D01*
X100561559Y-97225210D01*
X100416569Y-97437410D01*
X100365560Y-97689300D01*
X100365560Y-97756440D01*
X93442442Y-97756440D01*
X95455582Y-95743300D01*
X100975160Y-95743300D01*
X100975160Y-95833300D01*
X101019438Y-96068617D01*
X101158510Y-96284741D01*
X101370710Y-96429731D01*
X101622600Y-96480740D01*
X103622600Y-96480740D01*
X103857917Y-96436462D01*
X104074041Y-96297390D01*
X104219031Y-96085190D01*
X104270040Y-95833300D01*
X104270040Y-94133300D01*
X104225762Y-93897983D01*
X104086690Y-93681859D01*
X103874490Y-93536869D01*
X103622600Y-93485860D01*
X101622600Y-93485860D01*
X101387283Y-93530138D01*
X101171159Y-93669210D01*
X101026169Y-93881410D01*
X100975160Y-94133300D01*
X100975160Y-94223300D01*
X95857982Y-94223300D01*
X100890784Y-89190498D01*
X100920378Y-89347777D01*
X101059450Y-89563901D01*
X101271650Y-89708891D01*
X101523540Y-89759900D01*
X103523540Y-89759900D01*
X103758857Y-89715622D01*
X103974981Y-89576550D01*
X104119971Y-89364350D01*
X104170980Y-89112460D01*
X104170980Y-89061073D01*
X104425641Y-89166818D01*
X104797607Y-89167142D01*
X104879985Y-89133104D01*
X104920378Y-89347777D01*
X105059450Y-89563901D01*
X105271650Y-89708891D01*
X105523540Y-89759900D01*
X107523540Y-89759900D01*
X107758857Y-89715622D01*
X107974981Y-89576550D01*
X108119971Y-89364350D01*
X108170980Y-89112460D01*
X108170980Y-87412460D01*
X108126702Y-87177143D01*
X107987630Y-86961019D01*
X107775430Y-86816029D01*
X107523540Y-86765020D01*
X105523540Y-86765020D01*
X105288223Y-86809298D01*
X105072099Y-86948370D01*
X104927109Y-87160570D01*
X104891679Y-87335527D01*
X104799239Y-87297142D01*
X104427273Y-87296818D01*
X104169279Y-87403419D01*
X104126702Y-87177143D01*
X103987630Y-86961019D01*
X103775430Y-86816029D01*
X103523540Y-86765020D01*
X101523540Y-86765020D01*
X101288223Y-86809298D01*
X101072099Y-86948370D01*
X100927109Y-87160570D01*
X100876100Y-87412460D01*
X100876100Y-87502460D01*
X100836000Y-87502460D01*
X100836000Y-79594802D01*
X104257362Y-76173440D01*
X105680000Y-76173440D01*
X105915317Y-76129162D01*
X106131441Y-75990090D01*
X106276431Y-75777890D01*
X106324450Y-75540766D01*
X106493201Y-75610838D01*
X106865167Y-75611162D01*
X107035353Y-75540843D01*
X107076838Y-75761317D01*
X107215910Y-75977441D01*
X107428110Y-76122431D01*
X107680000Y-76173440D01*
X109680000Y-76173440D01*
X109915317Y-76129162D01*
X110131441Y-75990090D01*
X110276431Y-75777890D01*
X110327440Y-75526000D01*
X110327440Y-73826000D01*
X110283162Y-73590683D01*
X110144090Y-73374559D01*
X109931890Y-73229569D01*
X109680000Y-73178560D01*
X107680000Y-73178560D01*
X107444683Y-73222838D01*
X107228559Y-73361910D01*
X107083569Y-73574110D01*
X107035550Y-73811234D01*
X106866799Y-73741162D01*
X106494833Y-73740838D01*
X106324647Y-73811157D01*
X106283162Y-73590683D01*
X106144090Y-73374559D01*
X105931890Y-73229569D01*
X105680000Y-73178560D01*
X103680000Y-73178560D01*
X103444683Y-73222838D01*
X103228559Y-73361910D01*
X103083569Y-73574110D01*
X103032560Y-73826000D01*
X103032560Y-75248638D01*
X99538599Y-78742599D01*
X99373852Y-78989161D01*
X99316000Y-79280000D01*
X99316000Y-87741918D01*
X90708000Y-96349918D01*
X90708000Y-84301440D01*
X90948000Y-84301440D01*
X91183317Y-84257162D01*
X91399441Y-84118090D01*
X91544431Y-83905890D01*
X91592450Y-83668766D01*
X91761201Y-83738838D01*
X92133167Y-83739162D01*
X92303353Y-83668843D01*
X92344838Y-83889317D01*
X92483910Y-84105441D01*
X92696110Y-84250431D01*
X92948000Y-84301440D01*
X94948000Y-84301440D01*
X95183317Y-84257162D01*
X95399441Y-84118090D01*
X95544431Y-83905890D01*
X95595440Y-83654000D01*
X95595440Y-81954000D01*
X95551162Y-81718683D01*
X95412090Y-81502559D01*
X95199890Y-81357569D01*
X94948000Y-81306560D01*
X92948000Y-81306560D01*
X92712683Y-81350838D01*
X92496559Y-81489910D01*
X92351569Y-81702110D01*
X92303550Y-81939234D01*
X92134799Y-81869162D01*
X91762833Y-81868838D01*
X91592647Y-81939157D01*
X91551162Y-81718683D01*
X91412090Y-81502559D01*
X91199890Y-81357569D01*
X90948000Y-81306560D01*
X88948000Y-81306560D01*
X88712683Y-81350838D01*
X88496559Y-81489910D01*
X88351569Y-81702110D01*
X88300560Y-81954000D01*
X88300560Y-83654000D01*
X88344838Y-83889317D01*
X88483910Y-84105441D01*
X88696110Y-84250431D01*
X88948000Y-84301440D01*
X89188000Y-84301440D01*
X89188000Y-97189198D01*
X86065900Y-100311298D01*
X86065900Y-96842580D01*
X86008048Y-96551741D01*
X85843301Y-96305179D01*
X84054719Y-94516597D01*
X83808157Y-94351850D01*
X83517318Y-94293998D01*
X79242762Y-94293998D01*
X77942980Y-92994216D01*
X77942980Y-92623482D01*
X78846522Y-91719940D01*
X83294220Y-91719940D01*
X83585059Y-91662088D01*
X83831621Y-91497341D01*
X84682521Y-90646441D01*
X84847268Y-90399880D01*
X84905120Y-90109040D01*
X84905120Y-86725760D01*
X84847268Y-86434921D01*
X84847268Y-86434920D01*
X84682521Y-86188359D01*
X82792761Y-84298599D01*
X82546199Y-84133852D01*
X82255360Y-84076000D01*
X78465522Y-84076000D01*
X76141100Y-81751578D01*
X76141100Y-79015700D01*
X76381100Y-79015700D01*
X76616417Y-78971422D01*
X76832541Y-78832350D01*
X76977531Y-78620150D01*
X77027323Y-78374270D01*
X77217161Y-78453098D01*
X77589127Y-78453422D01*
X77738102Y-78391867D01*
X77777938Y-78603577D01*
X77917010Y-78819701D01*
X78129210Y-78964691D01*
X78381100Y-79015700D01*
X80381100Y-79015700D01*
X80616417Y-78971422D01*
X80832541Y-78832350D01*
X80977531Y-78620150D01*
X81028540Y-78368260D01*
X81028540Y-76668260D01*
X80984262Y-76432943D01*
X80845190Y-76216819D01*
X80632990Y-76071829D01*
X80381100Y-76020820D01*
X78381100Y-76020820D01*
X78145783Y-76065098D01*
X77929659Y-76204170D01*
X77784669Y-76416370D01*
X77738423Y-76644738D01*
X77590759Y-76583422D01*
X77218793Y-76583098D01*
X77027396Y-76662181D01*
X76984262Y-76432943D01*
X76845190Y-76216819D01*
X76632990Y-76071829D01*
X76381100Y-76020820D01*
X74381100Y-76020820D01*
X74145783Y-76065098D01*
X73929659Y-76204170D01*
X73784669Y-76416370D01*
X73733660Y-76668260D01*
X73733660Y-78368260D01*
X73777938Y-78603577D01*
X73917010Y-78819701D01*
X74129210Y-78964691D01*
X74381100Y-79015700D01*
X74621100Y-79015700D01*
X74621100Y-82066380D01*
X74678952Y-82357219D01*
X74843699Y-82603781D01*
X77613319Y-85373401D01*
X77859880Y-85538148D01*
X78150720Y-85596000D01*
X81940558Y-85596000D01*
X83385120Y-87040562D01*
X83385120Y-89794238D01*
X82979418Y-90199940D01*
X78531720Y-90199940D01*
X78289134Y-90248194D01*
X78240880Y-90257792D01*
X77994319Y-90422539D01*
X77468000Y-90948858D01*
X77468000Y-89889440D01*
X78248000Y-89889440D01*
X78483317Y-89845162D01*
X78699441Y-89706090D01*
X78844431Y-89493890D01*
X78892450Y-89256766D01*
X79061201Y-89326838D01*
X79433167Y-89327162D01*
X79603353Y-89256843D01*
X79644838Y-89477317D01*
X79783910Y-89693441D01*
X79996110Y-89838431D01*
X80248000Y-89889440D01*
X82248000Y-89889440D01*
X82483317Y-89845162D01*
X82699441Y-89706090D01*
X82844431Y-89493890D01*
X82895440Y-89242000D01*
X82895440Y-87542000D01*
X82851162Y-87306683D01*
X82712090Y-87090559D01*
X82499890Y-86945569D01*
X82248000Y-86894560D01*
X80248000Y-86894560D01*
X80012683Y-86938838D01*
X79796559Y-87077910D01*
X79651569Y-87290110D01*
X79603550Y-87527234D01*
X79434799Y-87457162D01*
X79062833Y-87456838D01*
X78892647Y-87527157D01*
X78851162Y-87306683D01*
X78712090Y-87090559D01*
X78499890Y-86945569D01*
X78248000Y-86894560D01*
X76248000Y-86894560D01*
X76012683Y-86938838D01*
X75796559Y-87077910D01*
X75651569Y-87290110D01*
X75600560Y-87542000D01*
X75600560Y-89242000D01*
X75644838Y-89477317D01*
X75783910Y-89693441D01*
X75948000Y-89805559D01*
X75948000Y-93472000D01*
X76005852Y-93762839D01*
X76170599Y-94009401D01*
X78202599Y-96041401D01*
X78449161Y-96206148D01*
X78740000Y-96264000D01*
X82997198Y-96264000D01*
X84076000Y-97342802D01*
X84076000Y-97649174D01*
X84023890Y-97613569D01*
X83772000Y-97562560D01*
X81772000Y-97562560D01*
X81536683Y-97606838D01*
X81320559Y-97745910D01*
X81175569Y-97958110D01*
X81127550Y-98195234D01*
X80958799Y-98125162D01*
X80586833Y-98124838D01*
X80416647Y-98195157D01*
X80375162Y-97974683D01*
X80236090Y-97758559D01*
X80023890Y-97613569D01*
X79772000Y-97562560D01*
X77772000Y-97562560D01*
X77536683Y-97606838D01*
X77320559Y-97745910D01*
X77175569Y-97958110D01*
X77124560Y-98210000D01*
X77124560Y-99910000D01*
X77168838Y-100145317D01*
X77307910Y-100361441D01*
X77520110Y-100506431D01*
X77772000Y-100557440D01*
X78996000Y-100557440D01*
X78996000Y-109003488D01*
X77910666Y-103866240D01*
X77909725Y-103864043D01*
X77909681Y-103861652D01*
X76385681Y-96876651D01*
X76360329Y-96818506D01*
X76347954Y-96756295D01*
X76305501Y-96692759D01*
X76274959Y-96622712D01*
X76229287Y-96578696D01*
X76194046Y-96525954D01*
X76130510Y-96483501D01*
X76075487Y-96430473D01*
X76016443Y-96407284D01*
X75963705Y-96372046D01*
X75888759Y-96357138D01*
X75817632Y-96329204D01*
X75754213Y-96330375D01*
X75692000Y-96318000D01*
X75565000Y-96318000D01*
X75485931Y-96333728D01*
X75405350Y-96336182D01*
X75351363Y-96360495D01*
X75293295Y-96372046D01*
X75226263Y-96416835D01*
X75152755Y-96449940D01*
X75112185Y-96493059D01*
X75062954Y-96525954D01*
X75018165Y-96592987D01*
X74962921Y-96651701D01*
X68748248Y-106595178D01*
X68609478Y-106641435D01*
X68516943Y-106694184D01*
X68419962Y-106738223D01*
X68397447Y-106762302D01*
X68368807Y-106778628D01*
X68303500Y-106862775D01*
X68230755Y-106940573D01*
X65944755Y-110623572D01*
X65924329Y-110677979D01*
X65892046Y-110726295D01*
X65876106Y-110806431D01*
X65847388Y-110882926D01*
X65849337Y-110941004D01*
X65838000Y-110998000D01*
X65838000Y-111338392D01*
X65531957Y-111950478D01*
X65506824Y-112042255D01*
X65470498Y-112130214D01*
X65470544Y-112174735D01*
X65458787Y-112217669D01*
X65470688Y-112312074D01*
X65470787Y-112407243D01*
X65487868Y-112448357D01*
X65493435Y-112492522D01*
X65540561Y-112575193D01*
X65577070Y-112663072D01*
X65608581Y-112694518D01*
X65630628Y-112733193D01*
X65705803Y-112791536D01*
X65773163Y-112858756D01*
X66489347Y-113336212D01*
X66134747Y-114311362D01*
X66133266Y-114321003D01*
X66128435Y-114329478D01*
X65874435Y-115091478D01*
X65860202Y-115204383D01*
X65838000Y-115316000D01*
X65838000Y-115951000D01*
X65857243Y-116047742D01*
X65865318Y-116146052D01*
X66119318Y-117035052D01*
X66178246Y-117149736D01*
X66234000Y-117266000D01*
X66615000Y-117774000D01*
X66691382Y-117842486D01*
X66760315Y-117918471D01*
X66793740Y-117934261D01*
X66821260Y-117958936D01*
X66918034Y-117992978D01*
X67010800Y-118036801D01*
X67047721Y-118038598D01*
X67082591Y-118050864D01*
X67185030Y-118045280D01*
X67287500Y-118050267D01*
X67322299Y-118037798D01*
X67359208Y-118035786D01*
X67451710Y-117991427D01*
X67548292Y-117956820D01*
X68159912Y-117589848D01*
X68540467Y-117399570D01*
X69095851Y-117320230D01*
X69164036Y-117354322D01*
X69317782Y-117738687D01*
X69388587Y-117847503D01*
X69456696Y-117958098D01*
X69463974Y-117963361D01*
X69468871Y-117970887D01*
X69575943Y-118044335D01*
X69681175Y-118120436D01*
X72265678Y-119305000D01*
X71438022Y-119305000D01*
X70126753Y-119066587D01*
X69133200Y-118818199D01*
X69107719Y-118816959D01*
X69083938Y-118807725D01*
X68970163Y-118810265D01*
X68856500Y-118804733D01*
X68832486Y-118813338D01*
X68806979Y-118813907D01*
X67663979Y-119067907D01*
X67544009Y-119120768D01*
X67422928Y-119171070D01*
X67417501Y-119176509D01*
X67410469Y-119179607D01*
X67319850Y-119274364D01*
X67227244Y-119367163D01*
X66740281Y-120097607D01*
X66129563Y-120830469D01*
X66096971Y-120890358D01*
X66053063Y-120942519D01*
X66031403Y-121010841D01*
X65997141Y-121073798D01*
X65989948Y-121141600D01*
X65969343Y-121206594D01*
X65842343Y-122349594D01*
X65845737Y-122389104D01*
X65838000Y-122428000D01*
X65838000Y-123444000D01*
X65862038Y-123564848D01*
X65880747Y-123686638D01*
X66297174Y-124831811D01*
X65437517Y-127028712D01*
X64618038Y-126581723D01*
X64210000Y-126010470D01*
X64210000Y-123611608D01*
X64389043Y-123253522D01*
X64404202Y-123198166D01*
X64431681Y-123147775D01*
X65066681Y-121115775D01*
X65069589Y-121088586D01*
X65080818Y-121063651D01*
X65084228Y-120951693D01*
X65096138Y-120840318D01*
X65088419Y-120814083D01*
X65089251Y-120786751D01*
X65049561Y-120682019D01*
X65017941Y-120574555D01*
X65000769Y-120553271D01*
X64991079Y-120527701D01*
X64464000Y-119684375D01*
X64464000Y-118636733D01*
X64787593Y-117881683D01*
X64800686Y-117819811D01*
X64826697Y-117762170D01*
X64829087Y-117685604D01*
X64844947Y-117610657D01*
X64833367Y-117548487D01*
X64835340Y-117485277D01*
X64454340Y-115199277D01*
X64450491Y-115189097D01*
X64450502Y-115178214D01*
X64401632Y-115059881D01*
X64356361Y-114940154D01*
X64348911Y-114932224D01*
X64344756Y-114922163D01*
X64090756Y-114541163D01*
X64041101Y-114491404D01*
X64002046Y-114432954D01*
X63871574Y-114302482D01*
X63288681Y-112437225D01*
X63240318Y-112348536D01*
X63201756Y-112255163D01*
X63121093Y-112134169D01*
X63689534Y-111679417D01*
X63725923Y-111636188D01*
X63771357Y-111602598D01*
X65041358Y-110205597D01*
X65070783Y-110156670D01*
X65110704Y-110115850D01*
X67015704Y-107194850D01*
X67049551Y-107110488D01*
X67094565Y-107031522D01*
X67348565Y-106269521D01*
X67359700Y-106181194D01*
X67383213Y-106095331D01*
X67376868Y-106045000D01*
X67383213Y-105994668D01*
X67359699Y-105908804D01*
X67348565Y-105820478D01*
X67296406Y-105664000D01*
X67321314Y-105589274D01*
X68799297Y-103249135D01*
X68830077Y-103169056D01*
X68872565Y-103094522D01*
X69962563Y-99824530D01*
X70225046Y-99562046D01*
X70267352Y-99498730D01*
X70320237Y-99443938D01*
X71463237Y-97665938D01*
X71471702Y-97644431D01*
X71486652Y-97626806D01*
X72098101Y-96526198D01*
X72450000Y-96057000D01*
X72458640Y-96038982D01*
X72472756Y-96024837D01*
X72715826Y-95660232D01*
X73435724Y-94700368D01*
X74035046Y-94101046D01*
X74188954Y-93870705D01*
X74243001Y-93599000D01*
X74243000Y-93598995D01*
X74243000Y-93079217D01*
X74300897Y-92905527D01*
X75130655Y-91720158D01*
X75136373Y-91707158D01*
X75146237Y-91696938D01*
X75191949Y-91580804D01*
X75242191Y-91466575D01*
X75242499Y-91452376D01*
X75247701Y-91439160D01*
X75245491Y-91314393D01*
X75248197Y-91189612D01*
X75243046Y-91176373D01*
X75242795Y-91162175D01*
X74607795Y-88241175D01*
X74603343Y-88230944D01*
X74602801Y-88219799D01*
X74475801Y-87711800D01*
X74464017Y-87686856D01*
X74460566Y-87659478D01*
X74405210Y-87562370D01*
X74357471Y-87461315D01*
X74337036Y-87442776D01*
X74323372Y-87418807D01*
X74235076Y-87350280D01*
X74152292Y-87275180D01*
X74126318Y-87265873D01*
X74104522Y-87248957D01*
X73850522Y-87121957D01*
X73801597Y-87108559D01*
X73757522Y-87083434D01*
X73669188Y-87072299D01*
X73583331Y-87048787D01*
X73533001Y-87055132D01*
X73482669Y-87048787D01*
X73396808Y-87072300D01*
X73308478Y-87083435D01*
X73264405Y-87108559D01*
X73215479Y-87121957D01*
X72961478Y-87248957D01*
X72871578Y-87318729D01*
X72776954Y-87381954D01*
X72522954Y-87635954D01*
X72481789Y-87697562D01*
X72430021Y-87750572D01*
X69029329Y-92973063D01*
X67442727Y-93346381D01*
X73615756Y-84086837D01*
X73616535Y-84084950D01*
X73617972Y-84083494D01*
X73669414Y-83956909D01*
X73721501Y-83830786D01*
X73721499Y-83828743D01*
X73722269Y-83826848D01*
X73721354Y-83690178D01*
X73721212Y-83553758D01*
X73720429Y-83551873D01*
X73720415Y-83549827D01*
X72038884Y-75382391D01*
X73760786Y-74234457D01*
X82688258Y-73877358D01*
X82975244Y-74307837D01*
X83029000Y-74361705D01*
X83072320Y-74424275D01*
X83125902Y-74458810D01*
X83170928Y-74503930D01*
X83241207Y-74533127D01*
X83305173Y-74574355D01*
X83367886Y-74585755D01*
X83426757Y-74610213D01*
X83502863Y-74610292D01*
X83577734Y-74623903D01*
X98944734Y-74369903D01*
X99074499Y-74341854D01*
X99204705Y-74315954D01*
X99209671Y-74312636D01*
X99215509Y-74311374D01*
X99324664Y-74235801D01*
X99435046Y-74162046D01*
X99689046Y-73908046D01*
X99723533Y-73856432D01*
X99768393Y-73813531D01*
X99799750Y-73742365D01*
X99842954Y-73677705D01*
X99855064Y-73616827D01*
X99880093Y-73560021D01*
X100016898Y-72944399D01*
X109164104Y-72475312D01*
X110872551Y-73519363D01*
X110872551Y-73519363D01*
G37*
X110872551Y-73519363D02*
X110039294Y-80304457D01*
X110043425Y-80360062D01*
X110034409Y-80415085D01*
X110053592Y-80496912D01*
X110059819Y-80580724D01*
X110084913Y-80630513D01*
X110097640Y-80684800D01*
X115043481Y-91565650D01*
X114051084Y-91947341D01*
X113931962Y-91899692D01*
X111257515Y-86307667D01*
X111185672Y-86211667D01*
X111119046Y-86111954D01*
X110865046Y-85857954D01*
X110634705Y-85704046D01*
X110363000Y-85650000D01*
X110236000Y-85650000D01*
X110124397Y-85672199D01*
X110011478Y-85686434D01*
X109989312Y-85699070D01*
X109964295Y-85704046D01*
X109869677Y-85767267D01*
X109770807Y-85823628D01*
X109755167Y-85843780D01*
X109733954Y-85857954D01*
X109670729Y-85952578D01*
X109600957Y-86042478D01*
X109473957Y-86296478D01*
X109443155Y-86408956D01*
X109405347Y-86519277D01*
X108516347Y-93123277D01*
X108523619Y-93239410D01*
X108523498Y-93355786D01*
X108532231Y-93376933D01*
X108533661Y-93399764D01*
X108584823Y-93504276D01*
X108629244Y-93611837D01*
X108883244Y-93992837D01*
X108891274Y-94000883D01*
X108895940Y-94011245D01*
X108988833Y-94098646D01*
X109078928Y-94188930D01*
X109089423Y-94193290D01*
X109097701Y-94201079D01*
X110045130Y-94793222D01*
X110622954Y-95371046D01*
X110644167Y-95385220D01*
X110659807Y-95405372D01*
X110758673Y-95461730D01*
X110853295Y-95524954D01*
X110878314Y-95529931D01*
X110900478Y-95542565D01*
X111191275Y-95639497D01*
X111407485Y-95783637D01*
X112488311Y-97080629D01*
X112583660Y-97652723D01*
X112587509Y-97662903D01*
X112587498Y-97673786D01*
X112636368Y-97792119D01*
X112681639Y-97911846D01*
X112689089Y-97919776D01*
X112693244Y-97929837D01*
X112947244Y-98310837D01*
X112996899Y-98360596D01*
X113035954Y-98419046D01*
X113416954Y-98800046D01*
X113465964Y-98832793D01*
X113506321Y-98875751D01*
X114333636Y-99466690D01*
X116923865Y-102315943D01*
X113006061Y-98398139D01*
X112975442Y-98377680D01*
X109043661Y-94445899D01*
X108797099Y-94281152D01*
X108506260Y-94223300D01*
X108270040Y-94223300D01*
X108270040Y-94133300D01*
X108225762Y-93897983D01*
X108086690Y-93681859D01*
X107874490Y-93536869D01*
X107622600Y-93485860D01*
X105622600Y-93485860D01*
X105387283Y-93530138D01*
X105171159Y-93669210D01*
X105026169Y-93881410D01*
X104975160Y-94133300D01*
X104975160Y-95833300D01*
X105019438Y-96068617D01*
X105158510Y-96284741D01*
X105370710Y-96429731D01*
X105622600Y-96480740D01*
X107622600Y-96480740D01*
X107857917Y-96436462D01*
X108074041Y-96297390D01*
X108219031Y-96085190D01*
X108270040Y-95833300D01*
X108270040Y-95821882D01*
X111921099Y-99472941D01*
X111951718Y-99493400D01*
X118680960Y-106222642D01*
X118680960Y-107510580D01*
X118738812Y-107801419D01*
X118903559Y-108047981D01*
X121393680Y-110538102D01*
X121393680Y-110647480D01*
X121451532Y-110938319D01*
X121616279Y-111184881D01*
X128434560Y-118003162D01*
X128434560Y-120345560D01*
X128399422Y-120430181D01*
X128399098Y-120802147D01*
X128541143Y-121145923D01*
X128803933Y-121409172D01*
X129147461Y-121551818D01*
X129519427Y-121552142D01*
X129863203Y-121410097D01*
X130126452Y-121147307D01*
X130269098Y-120803779D01*
X130269422Y-120431813D01*
X130127377Y-120088037D01*
X129954560Y-119914918D01*
X129954560Y-117688360D01*
X129896708Y-117397521D01*
X129731961Y-117150959D01*
X128883746Y-116302744D01*
X131464040Y-117831807D01*
X131470142Y-117833956D01*
X131475032Y-117838188D01*
X131600576Y-117879890D01*
X131725338Y-117923827D01*
X131731795Y-117923477D01*
X131737935Y-117925517D01*
X132747744Y-118051743D01*
X133594333Y-118172684D01*
X134020056Y-118279115D01*
X134582888Y-118504248D01*
X134916699Y-118671153D01*
X136951734Y-121348831D01*
X135897655Y-122315071D01*
X135521242Y-122239788D01*
X135455235Y-122239719D01*
X135390657Y-122226053D01*
X135318060Y-122239575D01*
X135244214Y-122239498D01*
X135183205Y-122264694D01*
X135118313Y-122276781D01*
X133848313Y-122784782D01*
X133844618Y-122787186D01*
X133840295Y-122788046D01*
X133728619Y-122862665D01*
X133616113Y-122935871D01*
X133613621Y-122939504D01*
X133609954Y-122941954D01*
X133535354Y-123053601D01*
X133459407Y-123164317D01*
X133458494Y-123168631D01*
X133456046Y-123172295D01*
X133454174Y-123181705D01*
X131813758Y-123509788D01*
X130772169Y-123718106D01*
X129078249Y-122927610D01*
X128995004Y-122907214D01*
X128915786Y-122874498D01*
X128861705Y-122874554D01*
X128809179Y-122861685D01*
X128724467Y-122874698D01*
X128638757Y-122874787D01*
X128588815Y-122895535D01*
X128535362Y-122903746D01*
X128462074Y-122948189D01*
X128382928Y-122981070D01*
X128344728Y-123019350D01*
X128298486Y-123047392D01*
X128247787Y-123116493D01*
X128210641Y-123153717D01*
X128176087Y-123146844D01*
X128066331Y-123116787D01*
X128041023Y-123119977D01*
X128016000Y-123115000D01*
X126874748Y-123115000D01*
X126092034Y-122821482D01*
X125536625Y-122358641D01*
X125151673Y-121588738D01*
X125038657Y-120571594D01*
X125015961Y-120500004D01*
X125006566Y-120425478D01*
X124974501Y-120369227D01*
X124954937Y-120307519D01*
X124906569Y-120250060D01*
X124869372Y-120184807D01*
X124818228Y-120145114D01*
X124776534Y-120095583D01*
X124709856Y-120061006D01*
X124650522Y-120014957D01*
X124396522Y-119887957D01*
X124371916Y-119881219D01*
X124350705Y-119867046D01*
X124239087Y-119844844D01*
X124129331Y-119814787D01*
X124104023Y-119817977D01*
X124079000Y-119813000D01*
X123230608Y-119813000D01*
X123126520Y-119760956D01*
X122868575Y-119631984D01*
X123125534Y-119426417D01*
X123151073Y-119396078D01*
X123184046Y-119374046D01*
X123692046Y-118866046D01*
X123755271Y-118771422D01*
X123825043Y-118681522D01*
X123952043Y-118427521D01*
X123958781Y-118402917D01*
X123972954Y-118381705D01*
X123995157Y-118270086D01*
X124025213Y-118160331D01*
X124022023Y-118135022D01*
X124027000Y-118110000D01*
X124027000Y-117856000D01*
X124004798Y-117744383D01*
X123990565Y-117631478D01*
X123963406Y-117550000D01*
X124079000Y-117550000D01*
X124350705Y-117495954D01*
X124581046Y-117342046D01*
X124734954Y-117111705D01*
X124789000Y-116840000D01*
X124789000Y-116713000D01*
X124775429Y-116644777D01*
X124775502Y-116575214D01*
X124748668Y-116510238D01*
X124734954Y-116441295D01*
X124696310Y-116383459D01*
X124669756Y-116319163D01*
X124468497Y-116017275D01*
X124408000Y-115835783D01*
X124408000Y-115570000D01*
X124394429Y-115501777D01*
X124394502Y-115432214D01*
X124367668Y-115367238D01*
X124353954Y-115298295D01*
X124315310Y-115240459D01*
X124288756Y-115176163D01*
X124034756Y-114795163D01*
X124010499Y-114770855D01*
X123994417Y-114740512D01*
X121200417Y-111311512D01*
X121172307Y-111288277D01*
X121152046Y-111257954D01*
X120898046Y-111003954D01*
X120667705Y-110850046D01*
X120396000Y-110796000D01*
X120204670Y-110796000D01*
X116888009Y-106619464D01*
X116886086Y-106617833D01*
X116884916Y-106615596D01*
X113201915Y-102043596D01*
X113186806Y-102030964D01*
X113176739Y-102014035D01*
X110890739Y-99474035D01*
X110833601Y-99431348D01*
X110785684Y-99378529D01*
X110723715Y-99349255D01*
X110668806Y-99308233D01*
X110599684Y-99290662D01*
X110535200Y-99260199D01*
X110217988Y-99180896D01*
X109214046Y-98176954D01*
X108983705Y-98023046D01*
X108712000Y-97969000D01*
X108440295Y-98023046D01*
X108209954Y-98176954D01*
X108082954Y-98303954D01*
X108033494Y-98377976D01*
X107974064Y-98444259D01*
X107957230Y-98492114D01*
X107929046Y-98534295D01*
X107911678Y-98621608D01*
X107882136Y-98705590D01*
X107755136Y-99594591D01*
X107755481Y-99600921D01*
X107753483Y-99606936D01*
X107372618Y-102653855D01*
X106485409Y-109624782D01*
X106233660Y-111135277D01*
X106237631Y-111262488D01*
X106237498Y-111389786D01*
X106241940Y-111400542D01*
X106242303Y-111412170D01*
X106294653Y-111528179D01*
X106343244Y-111645837D01*
X106986000Y-112609971D01*
X106986000Y-112990680D01*
X106736343Y-115237594D01*
X106736683Y-115241553D01*
X106735524Y-115245353D01*
X106481911Y-117781482D01*
X106357481Y-118901349D01*
X106235539Y-119633003D01*
X106114963Y-120235884D01*
X105487272Y-122621109D01*
X104981318Y-124391948D01*
X104980961Y-124396289D01*
X104979018Y-124400186D01*
X104598018Y-125797187D01*
X104596821Y-125814289D01*
X104589907Y-125829980D01*
X104335907Y-126972979D01*
X104335477Y-126992249D01*
X104328660Y-127010277D01*
X104201660Y-127772277D01*
X104203499Y-127831191D01*
X104192000Y-127889000D01*
X104192000Y-129794000D01*
X104196977Y-129819023D01*
X104193787Y-129844331D01*
X104223844Y-129954087D01*
X104246046Y-130065705D01*
X104260219Y-130086916D01*
X104266957Y-130111522D01*
X104287835Y-130153278D01*
X104269753Y-130207524D01*
X102175636Y-132767000D01*
X100838000Y-132767000D01*
X100726397Y-132789199D01*
X100613478Y-132803434D01*
X100591312Y-132816070D01*
X100566295Y-132821046D01*
X100471677Y-132884267D01*
X100372807Y-132940628D01*
X100357167Y-132960780D01*
X100335954Y-132974954D01*
X100272729Y-133069578D01*
X100202957Y-133159478D01*
X100075957Y-133413478D01*
X100039921Y-133545068D01*
X100003091Y-133676546D01*
X99876091Y-135327545D01*
X99879383Y-135354940D01*
X99874000Y-135382000D01*
X99874000Y-136264759D01*
X99747604Y-143469304D01*
X97955297Y-145261611D01*
X94510580Y-145855528D01*
X93554799Y-145975000D01*
X92667475Y-145975000D01*
X89240275Y-145147745D01*
X87193139Y-143316098D01*
X87144100Y-139294890D01*
X90760524Y-139294890D01*
X90930355Y-139704924D01*
X91320642Y-140133183D01*
X91845108Y-140379486D01*
X92075000Y-140258819D01*
X92075000Y-139065000D01*
X90881845Y-139065000D01*
X90760524Y-139294890D01*
X87144100Y-139294890D01*
X87069947Y-133214342D01*
X87047685Y-133109146D01*
X87034860Y-133002405D01*
X87019205Y-132974567D01*
X87012592Y-132943316D01*
X86951769Y-132854648D01*
X86899072Y-132760938D01*
X86873956Y-132741210D01*
X86855887Y-132714869D01*
X86765763Y-132656228D01*
X86681214Y-132589817D01*
X86650457Y-132581201D01*
X86623686Y-132563782D01*
X86517993Y-132544095D01*
X86414454Y-132515091D01*
X85062455Y-132411091D01*
X82913963Y-129832901D01*
X83126772Y-128236836D01*
X83119110Y-128116902D01*
X83117770Y-127996733D01*
X82609770Y-125583733D01*
X82598678Y-125557776D01*
X82596149Y-125529662D01*
X80705614Y-119101838D01*
X79950864Y-113818591D01*
X79823864Y-112929591D01*
X79815949Y-112907090D01*
X79815666Y-112883240D01*
X79618649Y-111950690D01*
X81865479Y-114197521D01*
X82112041Y-114362268D01*
X82402880Y-114420120D01*
X84218060Y-114420120D01*
X84218060Y-114485620D01*
X84262338Y-114720937D01*
X84401410Y-114937061D01*
X84613610Y-115082051D01*
X84865500Y-115133060D01*
X85297300Y-115133060D01*
X85410405Y-115111778D01*
X85515500Y-115133060D01*
X85947300Y-115133060D01*
X86060405Y-115111778D01*
X86165500Y-115133060D01*
X86597300Y-115133060D01*
X86710405Y-115111778D01*
X86815500Y-115133060D01*
X87247300Y-115133060D01*
X87360405Y-115111778D01*
X87465500Y-115133060D01*
X87897300Y-115133060D01*
X88010405Y-115111778D01*
X88115500Y-115133060D01*
X88547300Y-115133060D01*
X88660405Y-115111778D01*
X88765500Y-115133060D01*
X89197300Y-115133060D01*
X89310405Y-115111778D01*
X89415500Y-115133060D01*
X89446400Y-115133060D01*
X89446400Y-116697400D01*
X89509961Y-117016941D01*
X89666006Y-117250478D01*
X89690966Y-117287834D01*
X90746400Y-118343268D01*
X90746400Y-119197180D01*
X90715500Y-119197180D01*
X90602395Y-119218462D01*
X90497300Y-119197180D01*
X90065500Y-119197180D01*
X89952395Y-119218462D01*
X89847300Y-119197180D01*
X89415500Y-119197180D01*
X89302395Y-119218462D01*
X89197300Y-119197180D01*
X88765500Y-119197180D01*
X88652395Y-119218462D01*
X88547300Y-119197180D01*
X88115500Y-119197180D01*
X88002395Y-119218462D01*
X87897300Y-119197180D01*
X87465500Y-119197180D01*
X87352395Y-119218462D01*
X87247300Y-119197180D01*
X86815500Y-119197180D01*
X86702395Y-119218462D01*
X86597300Y-119197180D01*
X86165500Y-119197180D01*
X86052395Y-119218462D01*
X85947300Y-119197180D01*
X85515500Y-119197180D01*
X85402395Y-119218462D01*
X85297300Y-119197180D01*
X84865500Y-119197180D01*
X84630183Y-119241458D01*
X84414059Y-119380530D01*
X84269069Y-119592730D01*
X84218060Y-119844620D01*
X84218060Y-121495620D01*
X84262338Y-121730937D01*
X84401410Y-121947061D01*
X84613610Y-122092051D01*
X84865500Y-122143060D01*
X85297300Y-122143060D01*
X85410405Y-122121778D01*
X85515500Y-122143060D01*
X85947300Y-122143060D01*
X86060405Y-122121778D01*
X86165500Y-122143060D01*
X86597300Y-122143060D01*
X86710405Y-122121778D01*
X86815500Y-122143060D01*
X87247300Y-122143060D01*
X87360405Y-122121778D01*
X87465500Y-122143060D01*
X87897300Y-122143060D01*
X88010405Y-122121778D01*
X88115500Y-122143060D01*
X88547300Y-122143060D01*
X88660405Y-122121778D01*
X88765500Y-122143060D01*
X89197300Y-122143060D01*
X89310405Y-122121778D01*
X89415500Y-122143060D01*
X89847300Y-122143060D01*
X89960405Y-122121778D01*
X90065500Y-122143060D01*
X90497300Y-122143060D01*
X90610405Y-122121778D01*
X90715500Y-122143060D01*
X90746400Y-122143060D01*
X90746400Y-123749212D01*
X89471866Y-125023746D01*
X89290861Y-125294639D01*
X89227300Y-125614180D01*
X89227300Y-129479400D01*
X89062300Y-129479400D01*
X88826983Y-129523678D01*
X88610859Y-129662750D01*
X88465869Y-129874950D01*
X88414860Y-130126840D01*
X88414860Y-131726840D01*
X88459138Y-131962157D01*
X88598210Y-132178281D01*
X88810410Y-132323271D01*
X89062300Y-132374280D01*
X89185009Y-132374280D01*
X89213019Y-132515091D01*
X89244667Y-132674195D01*
X89385387Y-132884798D01*
X89436510Y-132961310D01*
X91317000Y-134841799D01*
X91317000Y-135218221D01*
X91122853Y-135347946D01*
X90800946Y-135829715D01*
X90687907Y-136398000D01*
X90800946Y-136966285D01*
X91122853Y-137448054D01*
X91463553Y-137675702D01*
X91320642Y-137742817D01*
X90930355Y-138171076D01*
X90760524Y-138581110D01*
X90881845Y-138811000D01*
X92075000Y-138811000D01*
X92075000Y-138791000D01*
X92329000Y-138791000D01*
X92329000Y-138811000D01*
X92349000Y-138811000D01*
X92349000Y-139065000D01*
X92329000Y-139065000D01*
X92329000Y-140258819D01*
X92558892Y-140379486D01*
X93083358Y-140133183D01*
X93473645Y-139704924D01*
X93473655Y-139704899D01*
X93662853Y-139988054D01*
X94144622Y-140309961D01*
X94712907Y-140423000D01*
X94771093Y-140423000D01*
X95339378Y-140309961D01*
X95821147Y-139988054D01*
X96102528Y-139566937D01*
X96239521Y-139475401D01*
X98215641Y-137499281D01*
X98380388Y-137252719D01*
X98438240Y-136961880D01*
X98438240Y-121716800D01*
X98380388Y-121425961D01*
X98215641Y-121179399D01*
X95918560Y-118882318D01*
X95918560Y-111597440D01*
X95900371Y-111506000D01*
X95860708Y-111306600D01*
X95695961Y-111060039D01*
X94720601Y-110084679D01*
X94474039Y-109919932D01*
X94183200Y-109862080D01*
X93167200Y-109862080D01*
X92876361Y-109919932D01*
X92629799Y-110084679D01*
X91693999Y-111020479D01*
X91529252Y-111267041D01*
X91471400Y-111557880D01*
X91471400Y-112187180D01*
X91365500Y-112187180D01*
X91281662Y-112202955D01*
X91273610Y-112199620D01*
X91198100Y-112199620D01*
X91174624Y-112223096D01*
X91130183Y-112231458D01*
X91058402Y-112277648D01*
X91058402Y-112199620D01*
X91041400Y-112199620D01*
X91041400Y-111265482D01*
X90992665Y-111020479D01*
X90983548Y-110974642D01*
X90818801Y-110728081D01*
X88176640Y-108085920D01*
X88176640Y-107609482D01*
X88348662Y-107437460D01*
X89057480Y-107437460D01*
X89057480Y-108520600D01*
X89101758Y-108755917D01*
X89240830Y-108972041D01*
X89453030Y-109117031D01*
X89704920Y-109168040D01*
X91704920Y-109168040D01*
X91940237Y-109123762D01*
X92156361Y-108984690D01*
X92301351Y-108772490D01*
X92345824Y-108552878D01*
X92472401Y-108605438D01*
X92844367Y-108605762D01*
X93057480Y-108517706D01*
X93057480Y-108520600D01*
X93101758Y-108755917D01*
X93240830Y-108972041D01*
X93453030Y-109117031D01*
X93704920Y-109168040D01*
X95704920Y-109168040D01*
X95940237Y-109123762D01*
X96156361Y-108984690D01*
X96301351Y-108772490D01*
X96352360Y-108520600D01*
X96352360Y-106820600D01*
X96308082Y-106585283D01*
X96169010Y-106369159D01*
X95956810Y-106224169D01*
X95704920Y-106173160D01*
X93704920Y-106173160D01*
X93469603Y-106217438D01*
X93253479Y-106356510D01*
X93108489Y-106568710D01*
X93057480Y-106820600D01*
X93057480Y-106823577D01*
X92845999Y-106735762D01*
X92474033Y-106735438D01*
X92346269Y-106788229D01*
X92308082Y-106585283D01*
X92169010Y-106369159D01*
X91956810Y-106224169D01*
X91704920Y-106173160D01*
X90282282Y-106173160D01*
X90249181Y-106140059D01*
X90002619Y-105975312D01*
X89711780Y-105917460D01*
X88033860Y-105917460D01*
X87743021Y-105975312D01*
X87496459Y-106140059D01*
X86879239Y-106757279D01*
X86714492Y-107003841D01*
X86656640Y-107294680D01*
X86656640Y-107972320D01*
X84665662Y-107972320D01*
X84521580Y-107828238D01*
X84521580Y-107502802D01*
X92747942Y-99276440D01*
X100365560Y-99276440D01*
X100365560Y-99389300D01*
X100409838Y-99624617D01*
X100548910Y-99840741D01*
X100761110Y-99985731D01*
X101013000Y-100036740D01*
X103013000Y-100036740D01*
X103248317Y-99992462D01*
X103464441Y-99853390D01*
X103609431Y-99641190D01*
X103659689Y-99393007D01*
X103879541Y-99484298D01*
X104251507Y-99484622D01*
X104373975Y-99434020D01*
X104409838Y-99624617D01*
X104548910Y-99840741D01*
X104761110Y-99985731D01*
X105013000Y-100036740D01*
X107013000Y-100036740D01*
X107248317Y-99992462D01*
X107464441Y-99853390D01*
X107609431Y-99641190D01*
X107660440Y-99389300D01*
X107660440Y-97689300D01*
X107616162Y-97453983D01*
X107477090Y-97237859D01*
X107264890Y-97092869D01*
X107013000Y-97041860D01*
X105013000Y-97041860D01*
X104777683Y-97086138D01*
X104561559Y-97225210D01*
X104416569Y-97437410D01*
X104370790Y-97663475D01*
X104253139Y-97614622D01*
X103881173Y-97614298D01*
X103660440Y-97705503D01*
X103660440Y-97689300D01*
X103616162Y-97453983D01*
X103477090Y-97237859D01*
X103264890Y-97092869D01*
X103013000Y-97041860D01*
X101013000Y-97041860D01*
X100777683Y-97086138D01*
X100561559Y-97225210D01*
X100416569Y-97437410D01*
X100365560Y-97689300D01*
X100365560Y-97756440D01*
X93442442Y-97756440D01*
X95455582Y-95743300D01*
X100975160Y-95743300D01*
X100975160Y-95833300D01*
X101019438Y-96068617D01*
X101158510Y-96284741D01*
X101370710Y-96429731D01*
X101622600Y-96480740D01*
X103622600Y-96480740D01*
X103857917Y-96436462D01*
X104074041Y-96297390D01*
X104219031Y-96085190D01*
X104270040Y-95833300D01*
X104270040Y-94133300D01*
X104225762Y-93897983D01*
X104086690Y-93681859D01*
X103874490Y-93536869D01*
X103622600Y-93485860D01*
X101622600Y-93485860D01*
X101387283Y-93530138D01*
X101171159Y-93669210D01*
X101026169Y-93881410D01*
X100975160Y-94133300D01*
X100975160Y-94223300D01*
X95857982Y-94223300D01*
X100890784Y-89190498D01*
X100920378Y-89347777D01*
X101059450Y-89563901D01*
X101271650Y-89708891D01*
X101523540Y-89759900D01*
X103523540Y-89759900D01*
X103758857Y-89715622D01*
X103974981Y-89576550D01*
X104119971Y-89364350D01*
X104170980Y-89112460D01*
X104170980Y-89061073D01*
X104425641Y-89166818D01*
X104797607Y-89167142D01*
X104879985Y-89133104D01*
X104920378Y-89347777D01*
X105059450Y-89563901D01*
X105271650Y-89708891D01*
X105523540Y-89759900D01*
X107523540Y-89759900D01*
X107758857Y-89715622D01*
X107974981Y-89576550D01*
X108119971Y-89364350D01*
X108170980Y-89112460D01*
X108170980Y-87412460D01*
X108126702Y-87177143D01*
X107987630Y-86961019D01*
X107775430Y-86816029D01*
X107523540Y-86765020D01*
X105523540Y-86765020D01*
X105288223Y-86809298D01*
X105072099Y-86948370D01*
X104927109Y-87160570D01*
X104891679Y-87335527D01*
X104799239Y-87297142D01*
X104427273Y-87296818D01*
X104169279Y-87403419D01*
X104126702Y-87177143D01*
X103987630Y-86961019D01*
X103775430Y-86816029D01*
X103523540Y-86765020D01*
X101523540Y-86765020D01*
X101288223Y-86809298D01*
X101072099Y-86948370D01*
X100927109Y-87160570D01*
X100876100Y-87412460D01*
X100876100Y-87502460D01*
X100836000Y-87502460D01*
X100836000Y-79594802D01*
X104257362Y-76173440D01*
X105680000Y-76173440D01*
X105915317Y-76129162D01*
X106131441Y-75990090D01*
X106276431Y-75777890D01*
X106324450Y-75540766D01*
X106493201Y-75610838D01*
X106865167Y-75611162D01*
X107035353Y-75540843D01*
X107076838Y-75761317D01*
X107215910Y-75977441D01*
X107428110Y-76122431D01*
X107680000Y-76173440D01*
X109680000Y-76173440D01*
X109915317Y-76129162D01*
X110131441Y-75990090D01*
X110276431Y-75777890D01*
X110327440Y-75526000D01*
X110327440Y-73826000D01*
X110283162Y-73590683D01*
X110144090Y-73374559D01*
X109931890Y-73229569D01*
X109680000Y-73178560D01*
X107680000Y-73178560D01*
X107444683Y-73222838D01*
X107228559Y-73361910D01*
X107083569Y-73574110D01*
X107035550Y-73811234D01*
X106866799Y-73741162D01*
X106494833Y-73740838D01*
X106324647Y-73811157D01*
X106283162Y-73590683D01*
X106144090Y-73374559D01*
X105931890Y-73229569D01*
X105680000Y-73178560D01*
X103680000Y-73178560D01*
X103444683Y-73222838D01*
X103228559Y-73361910D01*
X103083569Y-73574110D01*
X103032560Y-73826000D01*
X103032560Y-75248638D01*
X99538599Y-78742599D01*
X99373852Y-78989161D01*
X99316000Y-79280000D01*
X99316000Y-87741918D01*
X90708000Y-96349918D01*
X90708000Y-84301440D01*
X90948000Y-84301440D01*
X91183317Y-84257162D01*
X91399441Y-84118090D01*
X91544431Y-83905890D01*
X91592450Y-83668766D01*
X91761201Y-83738838D01*
X92133167Y-83739162D01*
X92303353Y-83668843D01*
X92344838Y-83889317D01*
X92483910Y-84105441D01*
X92696110Y-84250431D01*
X92948000Y-84301440D01*
X94948000Y-84301440D01*
X95183317Y-84257162D01*
X95399441Y-84118090D01*
X95544431Y-83905890D01*
X95595440Y-83654000D01*
X95595440Y-81954000D01*
X95551162Y-81718683D01*
X95412090Y-81502559D01*
X95199890Y-81357569D01*
X94948000Y-81306560D01*
X92948000Y-81306560D01*
X92712683Y-81350838D01*
X92496559Y-81489910D01*
X92351569Y-81702110D01*
X92303550Y-81939234D01*
X92134799Y-81869162D01*
X91762833Y-81868838D01*
X91592647Y-81939157D01*
X91551162Y-81718683D01*
X91412090Y-81502559D01*
X91199890Y-81357569D01*
X90948000Y-81306560D01*
X88948000Y-81306560D01*
X88712683Y-81350838D01*
X88496559Y-81489910D01*
X88351569Y-81702110D01*
X88300560Y-81954000D01*
X88300560Y-83654000D01*
X88344838Y-83889317D01*
X88483910Y-84105441D01*
X88696110Y-84250431D01*
X88948000Y-84301440D01*
X89188000Y-84301440D01*
X89188000Y-97189198D01*
X86065900Y-100311298D01*
X86065900Y-96842580D01*
X86008048Y-96551741D01*
X85843301Y-96305179D01*
X84054719Y-94516597D01*
X83808157Y-94351850D01*
X83517318Y-94293998D01*
X79242762Y-94293998D01*
X77942980Y-92994216D01*
X77942980Y-92623482D01*
X78846522Y-91719940D01*
X83294220Y-91719940D01*
X83585059Y-91662088D01*
X83831621Y-91497341D01*
X84682521Y-90646441D01*
X84847268Y-90399880D01*
X84905120Y-90109040D01*
X84905120Y-86725760D01*
X84847268Y-86434921D01*
X84847268Y-86434920D01*
X84682521Y-86188359D01*
X82792761Y-84298599D01*
X82546199Y-84133852D01*
X82255360Y-84076000D01*
X78465522Y-84076000D01*
X76141100Y-81751578D01*
X76141100Y-79015700D01*
X76381100Y-79015700D01*
X76616417Y-78971422D01*
X76832541Y-78832350D01*
X76977531Y-78620150D01*
X77027323Y-78374270D01*
X77217161Y-78453098D01*
X77589127Y-78453422D01*
X77738102Y-78391867D01*
X77777938Y-78603577D01*
X77917010Y-78819701D01*
X78129210Y-78964691D01*
X78381100Y-79015700D01*
X80381100Y-79015700D01*
X80616417Y-78971422D01*
X80832541Y-78832350D01*
X80977531Y-78620150D01*
X81028540Y-78368260D01*
X81028540Y-76668260D01*
X80984262Y-76432943D01*
X80845190Y-76216819D01*
X80632990Y-76071829D01*
X80381100Y-76020820D01*
X78381100Y-76020820D01*
X78145783Y-76065098D01*
X77929659Y-76204170D01*
X77784669Y-76416370D01*
X77738423Y-76644738D01*
X77590759Y-76583422D01*
X77218793Y-76583098D01*
X77027396Y-76662181D01*
X76984262Y-76432943D01*
X76845190Y-76216819D01*
X76632990Y-76071829D01*
X76381100Y-76020820D01*
X74381100Y-76020820D01*
X74145783Y-76065098D01*
X73929659Y-76204170D01*
X73784669Y-76416370D01*
X73733660Y-76668260D01*
X73733660Y-78368260D01*
X73777938Y-78603577D01*
X73917010Y-78819701D01*
X74129210Y-78964691D01*
X74381100Y-79015700D01*
X74621100Y-79015700D01*
X74621100Y-82066380D01*
X74678952Y-82357219D01*
X74843699Y-82603781D01*
X77613319Y-85373401D01*
X77859880Y-85538148D01*
X78150720Y-85596000D01*
X81940558Y-85596000D01*
X83385120Y-87040562D01*
X83385120Y-89794238D01*
X82979418Y-90199940D01*
X78531720Y-90199940D01*
X78289134Y-90248194D01*
X78240880Y-90257792D01*
X77994319Y-90422539D01*
X77468000Y-90948858D01*
X77468000Y-89889440D01*
X78248000Y-89889440D01*
X78483317Y-89845162D01*
X78699441Y-89706090D01*
X78844431Y-89493890D01*
X78892450Y-89256766D01*
X79061201Y-89326838D01*
X79433167Y-89327162D01*
X79603353Y-89256843D01*
X79644838Y-89477317D01*
X79783910Y-89693441D01*
X79996110Y-89838431D01*
X80248000Y-89889440D01*
X82248000Y-89889440D01*
X82483317Y-89845162D01*
X82699441Y-89706090D01*
X82844431Y-89493890D01*
X82895440Y-89242000D01*
X82895440Y-87542000D01*
X82851162Y-87306683D01*
X82712090Y-87090559D01*
X82499890Y-86945569D01*
X82248000Y-86894560D01*
X80248000Y-86894560D01*
X80012683Y-86938838D01*
X79796559Y-87077910D01*
X79651569Y-87290110D01*
X79603550Y-87527234D01*
X79434799Y-87457162D01*
X79062833Y-87456838D01*
X78892647Y-87527157D01*
X78851162Y-87306683D01*
X78712090Y-87090559D01*
X78499890Y-86945569D01*
X78248000Y-86894560D01*
X76248000Y-86894560D01*
X76012683Y-86938838D01*
X75796559Y-87077910D01*
X75651569Y-87290110D01*
X75600560Y-87542000D01*
X75600560Y-89242000D01*
X75644838Y-89477317D01*
X75783910Y-89693441D01*
X75948000Y-89805559D01*
X75948000Y-93472000D01*
X76005852Y-93762839D01*
X76170599Y-94009401D01*
X78202599Y-96041401D01*
X78449161Y-96206148D01*
X78740000Y-96264000D01*
X82997198Y-96264000D01*
X84076000Y-97342802D01*
X84076000Y-97649174D01*
X84023890Y-97613569D01*
X83772000Y-97562560D01*
X81772000Y-97562560D01*
X81536683Y-97606838D01*
X81320559Y-97745910D01*
X81175569Y-97958110D01*
X81127550Y-98195234D01*
X80958799Y-98125162D01*
X80586833Y-98124838D01*
X80416647Y-98195157D01*
X80375162Y-97974683D01*
X80236090Y-97758559D01*
X80023890Y-97613569D01*
X79772000Y-97562560D01*
X77772000Y-97562560D01*
X77536683Y-97606838D01*
X77320559Y-97745910D01*
X77175569Y-97958110D01*
X77124560Y-98210000D01*
X77124560Y-99910000D01*
X77168838Y-100145317D01*
X77307910Y-100361441D01*
X77520110Y-100506431D01*
X77772000Y-100557440D01*
X78996000Y-100557440D01*
X78996000Y-109003488D01*
X77910666Y-103866240D01*
X77909725Y-103864043D01*
X77909681Y-103861652D01*
X76385681Y-96876651D01*
X76360329Y-96818506D01*
X76347954Y-96756295D01*
X76305501Y-96692759D01*
X76274959Y-96622712D01*
X76229287Y-96578696D01*
X76194046Y-96525954D01*
X76130510Y-96483501D01*
X76075487Y-96430473D01*
X76016443Y-96407284D01*
X75963705Y-96372046D01*
X75888759Y-96357138D01*
X75817632Y-96329204D01*
X75754213Y-96330375D01*
X75692000Y-96318000D01*
X75565000Y-96318000D01*
X75485931Y-96333728D01*
X75405350Y-96336182D01*
X75351363Y-96360495D01*
X75293295Y-96372046D01*
X75226263Y-96416835D01*
X75152755Y-96449940D01*
X75112185Y-96493059D01*
X75062954Y-96525954D01*
X75018165Y-96592987D01*
X74962921Y-96651701D01*
X68748248Y-106595178D01*
X68609478Y-106641435D01*
X68516943Y-106694184D01*
X68419962Y-106738223D01*
X68397447Y-106762302D01*
X68368807Y-106778628D01*
X68303500Y-106862775D01*
X68230755Y-106940573D01*
X65944755Y-110623572D01*
X65924329Y-110677979D01*
X65892046Y-110726295D01*
X65876106Y-110806431D01*
X65847388Y-110882926D01*
X65849337Y-110941004D01*
X65838000Y-110998000D01*
X65838000Y-111338392D01*
X65531957Y-111950478D01*
X65506824Y-112042255D01*
X65470498Y-112130214D01*
X65470544Y-112174735D01*
X65458787Y-112217669D01*
X65470688Y-112312074D01*
X65470787Y-112407243D01*
X65487868Y-112448357D01*
X65493435Y-112492522D01*
X65540561Y-112575193D01*
X65577070Y-112663072D01*
X65608581Y-112694518D01*
X65630628Y-112733193D01*
X65705803Y-112791536D01*
X65773163Y-112858756D01*
X66489347Y-113336212D01*
X66134747Y-114311362D01*
X66133266Y-114321003D01*
X66128435Y-114329478D01*
X65874435Y-115091478D01*
X65860202Y-115204383D01*
X65838000Y-115316000D01*
X65838000Y-115951000D01*
X65857243Y-116047742D01*
X65865318Y-116146052D01*
X66119318Y-117035052D01*
X66178246Y-117149736D01*
X66234000Y-117266000D01*
X66615000Y-117774000D01*
X66691382Y-117842486D01*
X66760315Y-117918471D01*
X66793740Y-117934261D01*
X66821260Y-117958936D01*
X66918034Y-117992978D01*
X67010800Y-118036801D01*
X67047721Y-118038598D01*
X67082591Y-118050864D01*
X67185030Y-118045280D01*
X67287500Y-118050267D01*
X67322299Y-118037798D01*
X67359208Y-118035786D01*
X67451710Y-117991427D01*
X67548292Y-117956820D01*
X68159912Y-117589848D01*
X68540467Y-117399570D01*
X69095851Y-117320230D01*
X69164036Y-117354322D01*
X69317782Y-117738687D01*
X69388587Y-117847503D01*
X69456696Y-117958098D01*
X69463974Y-117963361D01*
X69468871Y-117970887D01*
X69575943Y-118044335D01*
X69681175Y-118120436D01*
X72265678Y-119305000D01*
X71438022Y-119305000D01*
X70126753Y-119066587D01*
X69133200Y-118818199D01*
X69107719Y-118816959D01*
X69083938Y-118807725D01*
X68970163Y-118810265D01*
X68856500Y-118804733D01*
X68832486Y-118813338D01*
X68806979Y-118813907D01*
X67663979Y-119067907D01*
X67544009Y-119120768D01*
X67422928Y-119171070D01*
X67417501Y-119176509D01*
X67410469Y-119179607D01*
X67319850Y-119274364D01*
X67227244Y-119367163D01*
X66740281Y-120097607D01*
X66129563Y-120830469D01*
X66096971Y-120890358D01*
X66053063Y-120942519D01*
X66031403Y-121010841D01*
X65997141Y-121073798D01*
X65989948Y-121141600D01*
X65969343Y-121206594D01*
X65842343Y-122349594D01*
X65845737Y-122389104D01*
X65838000Y-122428000D01*
X65838000Y-123444000D01*
X65862038Y-123564848D01*
X65880747Y-123686638D01*
X66297174Y-124831811D01*
X65437517Y-127028712D01*
X64618038Y-126581723D01*
X64210000Y-126010470D01*
X64210000Y-123611608D01*
X64389043Y-123253522D01*
X64404202Y-123198166D01*
X64431681Y-123147775D01*
X65066681Y-121115775D01*
X65069589Y-121088586D01*
X65080818Y-121063651D01*
X65084228Y-120951693D01*
X65096138Y-120840318D01*
X65088419Y-120814083D01*
X65089251Y-120786751D01*
X65049561Y-120682019D01*
X65017941Y-120574555D01*
X65000769Y-120553271D01*
X64991079Y-120527701D01*
X64464000Y-119684375D01*
X64464000Y-118636733D01*
X64787593Y-117881683D01*
X64800686Y-117819811D01*
X64826697Y-117762170D01*
X64829087Y-117685604D01*
X64844947Y-117610657D01*
X64833367Y-117548487D01*
X64835340Y-117485277D01*
X64454340Y-115199277D01*
X64450491Y-115189097D01*
X64450502Y-115178214D01*
X64401632Y-115059881D01*
X64356361Y-114940154D01*
X64348911Y-114932224D01*
X64344756Y-114922163D01*
X64090756Y-114541163D01*
X64041101Y-114491404D01*
X64002046Y-114432954D01*
X63871574Y-114302482D01*
X63288681Y-112437225D01*
X63240318Y-112348536D01*
X63201756Y-112255163D01*
X63121093Y-112134169D01*
X63689534Y-111679417D01*
X63725923Y-111636188D01*
X63771357Y-111602598D01*
X65041358Y-110205597D01*
X65070783Y-110156670D01*
X65110704Y-110115850D01*
X67015704Y-107194850D01*
X67049551Y-107110488D01*
X67094565Y-107031522D01*
X67348565Y-106269521D01*
X67359700Y-106181194D01*
X67383213Y-106095331D01*
X67376868Y-106045000D01*
X67383213Y-105994668D01*
X67359699Y-105908804D01*
X67348565Y-105820478D01*
X67296406Y-105664000D01*
X67321314Y-105589274D01*
X68799297Y-103249135D01*
X68830077Y-103169056D01*
X68872565Y-103094522D01*
X69962563Y-99824530D01*
X70225046Y-99562046D01*
X70267352Y-99498730D01*
X70320237Y-99443938D01*
X71463237Y-97665938D01*
X71471702Y-97644431D01*
X71486652Y-97626806D01*
X72098101Y-96526198D01*
X72450000Y-96057000D01*
X72458640Y-96038982D01*
X72472756Y-96024837D01*
X72715826Y-95660232D01*
X73435724Y-94700368D01*
X74035046Y-94101046D01*
X74188954Y-93870705D01*
X74243001Y-93599000D01*
X74243000Y-93598995D01*
X74243000Y-93079217D01*
X74300897Y-92905527D01*
X75130655Y-91720158D01*
X75136373Y-91707158D01*
X75146237Y-91696938D01*
X75191949Y-91580804D01*
X75242191Y-91466575D01*
X75242499Y-91452376D01*
X75247701Y-91439160D01*
X75245491Y-91314393D01*
X75248197Y-91189612D01*
X75243046Y-91176373D01*
X75242795Y-91162175D01*
X74607795Y-88241175D01*
X74603343Y-88230944D01*
X74602801Y-88219799D01*
X74475801Y-87711800D01*
X74464017Y-87686856D01*
X74460566Y-87659478D01*
X74405210Y-87562370D01*
X74357471Y-87461315D01*
X74337036Y-87442776D01*
X74323372Y-87418807D01*
X74235076Y-87350280D01*
X74152292Y-87275180D01*
X74126318Y-87265873D01*
X74104522Y-87248957D01*
X73850522Y-87121957D01*
X73801597Y-87108559D01*
X73757522Y-87083434D01*
X73669188Y-87072299D01*
X73583331Y-87048787D01*
X73533001Y-87055132D01*
X73482669Y-87048787D01*
X73396808Y-87072300D01*
X73308478Y-87083435D01*
X73264405Y-87108559D01*
X73215479Y-87121957D01*
X72961478Y-87248957D01*
X72871578Y-87318729D01*
X72776954Y-87381954D01*
X72522954Y-87635954D01*
X72481789Y-87697562D01*
X72430021Y-87750572D01*
X69029329Y-92973063D01*
X67442727Y-93346381D01*
X73615756Y-84086837D01*
X73616535Y-84084950D01*
X73617972Y-84083494D01*
X73669414Y-83956909D01*
X73721501Y-83830786D01*
X73721499Y-83828743D01*
X73722269Y-83826848D01*
X73721354Y-83690178D01*
X73721212Y-83553758D01*
X73720429Y-83551873D01*
X73720415Y-83549827D01*
X72038884Y-75382391D01*
X73760786Y-74234457D01*
X82688258Y-73877358D01*
X82975244Y-74307837D01*
X83029000Y-74361705D01*
X83072320Y-74424275D01*
X83125902Y-74458810D01*
X83170928Y-74503930D01*
X83241207Y-74533127D01*
X83305173Y-74574355D01*
X83367886Y-74585755D01*
X83426757Y-74610213D01*
X83502863Y-74610292D01*
X83577734Y-74623903D01*
X98944734Y-74369903D01*
X99074499Y-74341854D01*
X99204705Y-74315954D01*
X99209671Y-74312636D01*
X99215509Y-74311374D01*
X99324664Y-74235801D01*
X99435046Y-74162046D01*
X99689046Y-73908046D01*
X99723533Y-73856432D01*
X99768393Y-73813531D01*
X99799750Y-73742365D01*
X99842954Y-73677705D01*
X99855064Y-73616827D01*
X99880093Y-73560021D01*
X100016898Y-72944399D01*
X109164104Y-72475312D01*
X110872551Y-73519363D01*
G36*
X96387380Y-122272902D02*
X96387380Y-134495698D01*
X95663705Y-135219373D01*
X95584283Y-135139812D01*
X95038681Y-134913258D01*
X94447911Y-134912743D01*
X93901914Y-135138344D01*
X93483812Y-135555717D01*
X93459345Y-135614639D01*
X93281147Y-135347946D01*
X93087000Y-135218221D01*
X93087000Y-134475225D01*
X93087001Y-134475220D01*
X93019633Y-134136546D01*
X93019633Y-134136545D01*
X92827790Y-133849430D01*
X92827787Y-133849428D01*
X91304155Y-132325795D01*
X91513741Y-132190930D01*
X91658731Y-131978730D01*
X91709740Y-131726840D01*
X91709740Y-131212590D01*
X92427300Y-131212590D01*
X92427300Y-131853150D01*
X92523973Y-132086539D01*
X92702602Y-132265167D01*
X92935991Y-132361840D01*
X93776550Y-132361840D01*
X93935300Y-132203090D01*
X93935300Y-131053840D01*
X94189300Y-131053840D01*
X94189300Y-132203090D01*
X94348050Y-132361840D01*
X95188609Y-132361840D01*
X95421998Y-132265167D01*
X95600627Y-132086539D01*
X95697300Y-131853150D01*
X95697300Y-131212590D01*
X95538550Y-131053840D01*
X94189300Y-131053840D01*
X93935300Y-131053840D01*
X92586050Y-131053840D01*
X92427300Y-131212590D01*
X91709740Y-131212590D01*
X91709740Y-130126840D01*
X91685974Y-130000530D01*
X92427300Y-130000530D01*
X92427300Y-130641090D01*
X92586050Y-130799840D01*
X93935300Y-130799840D01*
X93935300Y-129650590D01*
X94189300Y-129650590D01*
X94189300Y-130799840D01*
X95538550Y-130799840D01*
X95697300Y-130641090D01*
X95697300Y-130000530D01*
X95600627Y-129767141D01*
X95421998Y-129588513D01*
X95188609Y-129491840D01*
X94348050Y-129491840D01*
X94189300Y-129650590D01*
X93935300Y-129650590D01*
X93776550Y-129491840D01*
X92935991Y-129491840D01*
X92702602Y-129588513D01*
X92523973Y-129767141D01*
X92427300Y-130000530D01*
X91685974Y-130000530D01*
X91665462Y-129891523D01*
X91526390Y-129675399D01*
X91314190Y-129530409D01*
X91062300Y-129479400D01*
X90897300Y-129479400D01*
X90897300Y-125960048D01*
X92171834Y-124685514D01*
X92228256Y-124601072D01*
X92352839Y-124414621D01*
X92416400Y-124095080D01*
X92416400Y-122079759D01*
X92469045Y-122101565D01*
X92498100Y-122130620D01*
X92614700Y-122130620D01*
X92643755Y-122101565D01*
X92806999Y-122033947D01*
X92881400Y-121959546D01*
X92955801Y-122033947D01*
X93119045Y-122101565D01*
X93148100Y-122130620D01*
X93264700Y-122130620D01*
X93293755Y-122101565D01*
X93456999Y-122033947D01*
X93635627Y-121855318D01*
X93639350Y-121846330D01*
X93639350Y-121971870D01*
X93798100Y-122130620D01*
X93873610Y-122130620D01*
X94106999Y-122033947D01*
X94285627Y-121855318D01*
X94382300Y-121621929D01*
X94382300Y-120955870D01*
X94223550Y-120797120D01*
X93639350Y-120797120D01*
X93639350Y-120862920D01*
X93573550Y-120797120D01*
X92734400Y-120797120D01*
X92734400Y-120543120D01*
X93573550Y-120543120D01*
X93593550Y-120523120D01*
X93639350Y-120523120D01*
X93639350Y-120543120D01*
X94223550Y-120543120D01*
X94382300Y-120384370D01*
X94382300Y-120267822D01*
X96387380Y-122272902D01*
X96387380Y-122272902D01*
G37*
X96387380Y-122272902D02*
X96387380Y-134495698D01*
X95663705Y-135219373D01*
X95584283Y-135139812D01*
X95038681Y-134913258D01*
X94447911Y-134912743D01*
X93901914Y-135138344D01*
X93483812Y-135555717D01*
X93459345Y-135614639D01*
X93281147Y-135347946D01*
X93087000Y-135218221D01*
X93087000Y-134475225D01*
X93087001Y-134475220D01*
X93019633Y-134136546D01*
X93019633Y-134136545D01*
X92827790Y-133849430D01*
X92827787Y-133849428D01*
X91304155Y-132325795D01*
X91513741Y-132190930D01*
X91658731Y-131978730D01*
X91709740Y-131726840D01*
X91709740Y-131212590D01*
X92427300Y-131212590D01*
X92427300Y-131853150D01*
X92523973Y-132086539D01*
X92702602Y-132265167D01*
X92935991Y-132361840D01*
X93776550Y-132361840D01*
X93935300Y-132203090D01*
X93935300Y-131053840D01*
X94189300Y-131053840D01*
X94189300Y-132203090D01*
X94348050Y-132361840D01*
X95188609Y-132361840D01*
X95421998Y-132265167D01*
X95600627Y-132086539D01*
X95697300Y-131853150D01*
X95697300Y-131212590D01*
X95538550Y-131053840D01*
X94189300Y-131053840D01*
X93935300Y-131053840D01*
X92586050Y-131053840D01*
X92427300Y-131212590D01*
X91709740Y-131212590D01*
X91709740Y-130126840D01*
X91685974Y-130000530D01*
X92427300Y-130000530D01*
X92427300Y-130641090D01*
X92586050Y-130799840D01*
X93935300Y-130799840D01*
X93935300Y-129650590D01*
X94189300Y-129650590D01*
X94189300Y-130799840D01*
X95538550Y-130799840D01*
X95697300Y-130641090D01*
X95697300Y-130000530D01*
X95600627Y-129767141D01*
X95421998Y-129588513D01*
X95188609Y-129491840D01*
X94348050Y-129491840D01*
X94189300Y-129650590D01*
X93935300Y-129650590D01*
X93776550Y-129491840D01*
X92935991Y-129491840D01*
X92702602Y-129588513D01*
X92523973Y-129767141D01*
X92427300Y-130000530D01*
X91685974Y-130000530D01*
X91665462Y-129891523D01*
X91526390Y-129675399D01*
X91314190Y-129530409D01*
X91062300Y-129479400D01*
X90897300Y-129479400D01*
X90897300Y-125960048D01*
X92171834Y-124685514D01*
X92228256Y-124601072D01*
X92352839Y-124414621D01*
X92416400Y-124095080D01*
X92416400Y-122079759D01*
X92469045Y-122101565D01*
X92498100Y-122130620D01*
X92614700Y-122130620D01*
X92643755Y-122101565D01*
X92806999Y-122033947D01*
X92881400Y-121959546D01*
X92955801Y-122033947D01*
X93119045Y-122101565D01*
X93148100Y-122130620D01*
X93264700Y-122130620D01*
X93293755Y-122101565D01*
X93456999Y-122033947D01*
X93635627Y-121855318D01*
X93639350Y-121846330D01*
X93639350Y-121971870D01*
X93798100Y-122130620D01*
X93873610Y-122130620D01*
X94106999Y-122033947D01*
X94285627Y-121855318D01*
X94382300Y-121621929D01*
X94382300Y-120955870D01*
X94223550Y-120797120D01*
X93639350Y-120797120D01*
X93639350Y-120862920D01*
X93573550Y-120797120D01*
X92734400Y-120797120D01*
X92734400Y-120543120D01*
X93573550Y-120543120D01*
X93593550Y-120523120D01*
X93639350Y-120523120D01*
X93639350Y-120543120D01*
X94223550Y-120543120D01*
X94382300Y-120384370D01*
X94382300Y-120267822D01*
X96387380Y-122272902D01*
M02*
