G04 #@! TF.FileFunction,Profile,NP*
%FSLAX46Y46*%
G04 Gerber Fmt 4.6, Leading zero omitted, Abs format (unit mm)*
G04 Created by KiCad (PCBNEW 4.0.6) date 06/20/18 20:32:45*
%MOMM*%
%LPD*%
G01*
G04 APERTURE LIST*
%ADD10C,0.100000*%
%ADD11C,0.150000*%
G04 APERTURE END LIST*
D10*
D11*
X102489000Y-133477000D02*
X100838000Y-133477000D01*
X102616000Y-133350000D02*
X102489000Y-133477000D01*
X100711000Y-133731000D02*
X100838000Y-133477000D01*
X100584000Y-135382000D02*
X100711000Y-133731000D01*
X100584000Y-136271000D02*
X100584000Y-135382000D01*
X100457000Y-143510000D02*
X100584000Y-136271000D01*
X100457000Y-143764000D02*
X100457000Y-143510000D01*
X98298000Y-145923000D02*
X100457000Y-143764000D01*
X94615000Y-146558000D02*
X98298000Y-145923000D01*
X93599000Y-146685000D02*
X94615000Y-146558000D01*
X93218000Y-146685000D02*
X93599000Y-146685000D01*
X92837000Y-146685000D02*
X93218000Y-146685000D01*
X92583000Y-146685000D02*
X92837000Y-146685000D01*
X88900000Y-145796000D02*
X92583000Y-146685000D01*
X86487000Y-143637000D02*
X88900000Y-145796000D01*
X86360000Y-133223000D02*
X86487000Y-143637000D01*
X84709000Y-133096000D02*
X86360000Y-133223000D01*
X82169000Y-130048000D02*
X84709000Y-133096000D01*
X82423000Y-128143000D02*
X82169000Y-130048000D01*
X81915000Y-125730000D02*
X82423000Y-128143000D01*
X80010000Y-119253000D02*
X81915000Y-125730000D01*
X79248000Y-113919000D02*
X80010000Y-119253000D01*
X79121000Y-113030000D02*
X79248000Y-113919000D01*
X77216000Y-104013000D02*
X79121000Y-113030000D01*
X75692000Y-97028000D02*
X77216000Y-104013000D01*
X75565000Y-97028000D02*
X75692000Y-97028000D01*
X69215000Y-107188000D02*
X75565000Y-97028000D01*
X68834000Y-107315000D02*
X69215000Y-107188000D01*
X66548000Y-110998000D02*
X68834000Y-107315000D01*
X66548000Y-111506000D02*
X66548000Y-110998000D01*
X66167000Y-112268000D02*
X66548000Y-111506000D01*
X67310000Y-113030000D02*
X66167000Y-112268000D01*
X67310000Y-113157000D02*
X67310000Y-113030000D01*
X66802000Y-114554000D02*
X67310000Y-113157000D01*
X66548000Y-115316000D02*
X66802000Y-114554000D01*
X66548000Y-115951000D02*
X66548000Y-115316000D01*
X66802000Y-116840000D02*
X66548000Y-115951000D01*
X67183000Y-117348000D02*
X66802000Y-116840000D01*
X67818000Y-116967000D02*
X67183000Y-117348000D01*
X68326000Y-116713000D02*
X67818000Y-116967000D01*
X69215000Y-116586000D02*
X68326000Y-116713000D01*
X69723000Y-116840000D02*
X69215000Y-116586000D01*
X69977000Y-117475000D02*
X69723000Y-116840000D01*
X73025000Y-118872000D02*
X69977000Y-117475000D01*
X73279000Y-119380000D02*
X73025000Y-118872000D01*
X72898000Y-119888000D02*
X73279000Y-119380000D01*
X72390000Y-120015000D02*
X72898000Y-119888000D01*
X71374000Y-120015000D02*
X72390000Y-120015000D01*
X69977000Y-119761000D02*
X71374000Y-120015000D01*
X68961000Y-119507000D02*
X69977000Y-119761000D01*
X67818000Y-119761000D02*
X68961000Y-119507000D01*
X67310000Y-120523000D02*
X67818000Y-119761000D01*
X66675000Y-121285000D02*
X67310000Y-120523000D01*
X66548000Y-122428000D02*
X66675000Y-121285000D01*
X66548000Y-123444000D02*
X66548000Y-122428000D01*
X67056000Y-124841000D02*
X66548000Y-123444000D01*
X65913000Y-127762000D02*
X67056000Y-124841000D01*
X65786000Y-127889000D02*
X65913000Y-127762000D01*
X65532000Y-127889000D02*
X65786000Y-127889000D01*
X64135000Y-127127000D02*
X65532000Y-127889000D01*
X63500000Y-126238000D02*
X64135000Y-127127000D01*
X63500000Y-123444000D02*
X63500000Y-126238000D01*
X63754000Y-122936000D02*
X63500000Y-123444000D01*
X64389000Y-120904000D02*
X63754000Y-122936000D01*
X63754000Y-119888000D02*
X64389000Y-120904000D01*
X63754000Y-118491000D02*
X63754000Y-119888000D01*
X64135000Y-117602000D02*
X63754000Y-118491000D01*
X63754000Y-115316000D02*
X64135000Y-117602000D01*
X63500000Y-114935000D02*
X63754000Y-115316000D01*
X63246000Y-114681000D02*
X63500000Y-114935000D01*
X62611000Y-112649000D02*
X63246000Y-114681000D01*
X62357000Y-112268000D02*
X62611000Y-112649000D01*
X62357000Y-111887000D02*
X62357000Y-112268000D01*
X62611000Y-111633000D02*
X62357000Y-111887000D01*
X63246000Y-111125000D02*
X62611000Y-111633000D01*
X64516000Y-109728000D02*
X63246000Y-111125000D01*
X66421000Y-106807000D02*
X64516000Y-109728000D01*
X66675000Y-106045000D02*
X66421000Y-106807000D01*
X66548000Y-105664000D02*
X66675000Y-106045000D01*
X66675000Y-105283000D02*
X66548000Y-105664000D01*
X68199000Y-102870000D02*
X66675000Y-105283000D01*
X69342000Y-99441000D02*
X68199000Y-102870000D01*
X69723000Y-99060000D02*
X69342000Y-99441000D01*
X70866000Y-97282000D02*
X69723000Y-99060000D01*
X71501000Y-96139000D02*
X70866000Y-97282000D01*
X71882000Y-95631000D02*
X71501000Y-96139000D01*
X72136000Y-95250000D02*
X71882000Y-95631000D01*
X72517000Y-94742000D02*
X72136000Y-95250000D01*
X72898000Y-94234000D02*
X72517000Y-94742000D01*
X73533000Y-93599000D02*
X72898000Y-94234000D01*
X73533000Y-93345000D02*
X73533000Y-93599000D01*
X73533000Y-92964000D02*
X73533000Y-93345000D01*
X73660000Y-92583000D02*
X73533000Y-92964000D01*
X74549000Y-91313000D02*
X73660000Y-92583000D01*
X73914000Y-88392000D02*
X74549000Y-91313000D01*
X73787000Y-87884000D02*
X73914000Y-88392000D01*
X73533000Y-87757000D02*
X73787000Y-87884000D01*
X73279000Y-87884000D02*
X73533000Y-87757000D01*
X73025000Y-88138000D02*
X73279000Y-87884000D01*
X69469000Y-93599000D02*
X73025000Y-88138000D01*
X67310000Y-94107000D02*
X69469000Y-93599000D01*
X66675000Y-93726000D02*
X67310000Y-94107000D01*
X66675000Y-93218000D02*
X66675000Y-93726000D01*
X73025000Y-83693000D02*
X66675000Y-93218000D01*
X71247000Y-75057000D02*
X73025000Y-83693000D01*
X73533000Y-73533000D02*
X71247000Y-75057000D01*
X83058000Y-73152000D02*
X73533000Y-73533000D01*
X83566000Y-73914000D02*
X83058000Y-73152000D01*
X98933000Y-73660000D02*
X83566000Y-73914000D01*
X99187000Y-73406000D02*
X98933000Y-73660000D01*
X99441000Y-72263000D02*
X99187000Y-73406000D01*
X109347000Y-71755000D02*
X99441000Y-72263000D01*
X111633000Y-73152000D02*
X109347000Y-71755000D01*
X110744000Y-80391000D02*
X111633000Y-73152000D01*
X115824000Y-91567000D02*
X110744000Y-80391000D01*
X115697000Y-92075000D02*
X115824000Y-91567000D01*
X114046000Y-92710000D02*
X115697000Y-92075000D01*
X113411000Y-92456000D02*
X114046000Y-92710000D01*
X110617000Y-86614000D02*
X113411000Y-92456000D01*
X110490000Y-86487000D02*
X110617000Y-86614000D01*
X110363000Y-86360000D02*
X110490000Y-86487000D01*
X110236000Y-86360000D02*
X110363000Y-86360000D01*
X110109000Y-86614000D02*
X110236000Y-86360000D01*
X109220000Y-93218000D02*
X110109000Y-86614000D01*
X109474000Y-93599000D02*
X109220000Y-93218000D01*
X110490000Y-94234000D02*
X109474000Y-93599000D01*
X111125000Y-94869000D02*
X110490000Y-94234000D01*
X111506000Y-94996000D02*
X111125000Y-94869000D01*
X111887000Y-95250000D02*
X111506000Y-94996000D01*
X113157000Y-96774000D02*
X111887000Y-95250000D01*
X113284000Y-97536000D02*
X113157000Y-96774000D01*
X113538000Y-97917000D02*
X113284000Y-97536000D01*
X113919000Y-98298000D02*
X113538000Y-97917000D01*
X114808000Y-98933000D02*
X113919000Y-98298000D01*
X118618000Y-103124000D02*
X114808000Y-98933000D01*
X120142000Y-106045000D02*
X118618000Y-103124000D01*
X122682000Y-109347000D02*
X120142000Y-106045000D01*
X122682000Y-110109000D02*
X122682000Y-109347000D01*
X123571000Y-111252000D02*
X122682000Y-110109000D01*
X125603000Y-113538000D02*
X123571000Y-111252000D01*
X126111000Y-113919000D02*
X125603000Y-113538000D01*
X128397000Y-115189000D02*
X126111000Y-113919000D01*
X131826000Y-117221000D02*
X128397000Y-115189000D01*
X132842000Y-117348000D02*
X131826000Y-117221000D01*
X133731000Y-117475000D02*
X132842000Y-117348000D01*
X134239000Y-117602000D02*
X133731000Y-117475000D01*
X134874000Y-117856000D02*
X134239000Y-117602000D01*
X135382000Y-118110000D02*
X134874000Y-117856000D01*
X137795000Y-121285000D02*
X135382000Y-118110000D01*
X137795000Y-121539000D02*
X137795000Y-121285000D01*
X136271000Y-122936000D02*
X137795000Y-121539000D01*
X136017000Y-123063000D02*
X136271000Y-122936000D01*
X135382000Y-122936000D02*
X136017000Y-123063000D01*
X134112000Y-123444000D02*
X135382000Y-122936000D01*
X134112000Y-123571000D02*
X134112000Y-123444000D01*
X133985000Y-123698000D02*
X134112000Y-123571000D01*
X133858000Y-123825000D02*
X133985000Y-123698000D01*
X131953000Y-124206000D02*
X133858000Y-123825000D01*
X130683000Y-124460000D02*
X131953000Y-124206000D01*
X128778000Y-123571000D02*
X130683000Y-124460000D01*
X128524000Y-123952000D02*
X128778000Y-123571000D01*
X128270000Y-123952000D02*
X128524000Y-123952000D01*
X128016000Y-123825000D02*
X128270000Y-123952000D01*
X126746000Y-123825000D02*
X128016000Y-123825000D01*
X125730000Y-123444000D02*
X126746000Y-123825000D01*
X124968000Y-122809000D02*
X125730000Y-123444000D01*
X124460000Y-121793000D02*
X124968000Y-122809000D01*
X124333000Y-120650000D02*
X124460000Y-121793000D01*
X124079000Y-120523000D02*
X124333000Y-120650000D01*
X123063000Y-120523000D02*
X124079000Y-120523000D01*
X122809000Y-120396000D02*
X123063000Y-120523000D01*
X122301000Y-120142000D02*
X122809000Y-120396000D01*
X122047000Y-119761000D02*
X122301000Y-120142000D01*
X121920000Y-119634000D02*
X122047000Y-119761000D01*
X121920000Y-119507000D02*
X121920000Y-119634000D01*
X122047000Y-119380000D02*
X121920000Y-119507000D01*
X122682000Y-118872000D02*
X122047000Y-119380000D01*
X122809000Y-118745000D02*
X122682000Y-118872000D01*
X123190000Y-118364000D02*
X122809000Y-118745000D01*
X123317000Y-118110000D02*
X123190000Y-118364000D01*
X123317000Y-117856000D02*
X123317000Y-118110000D01*
X123190000Y-117475000D02*
X123317000Y-117856000D01*
X123190000Y-117348000D02*
X123190000Y-117475000D01*
X123190000Y-117221000D02*
X123190000Y-117348000D01*
X123444000Y-116967000D02*
X123190000Y-117221000D01*
X123825000Y-116840000D02*
X123444000Y-116967000D01*
X124079000Y-116840000D02*
X123825000Y-116840000D01*
X124079000Y-116713000D02*
X124079000Y-116840000D01*
X123825000Y-116332000D02*
X124079000Y-116713000D01*
X123698000Y-115951000D02*
X123825000Y-116332000D01*
X123698000Y-115570000D02*
X123698000Y-115951000D01*
X123444000Y-115189000D02*
X123698000Y-115570000D01*
X120650000Y-111760000D02*
X123444000Y-115189000D01*
X120396000Y-111506000D02*
X120650000Y-111760000D01*
X120269000Y-111506000D02*
X120396000Y-111506000D01*
X120015000Y-111506000D02*
X120269000Y-111506000D01*
X119761000Y-111379000D02*
X120015000Y-111506000D01*
X116332000Y-107061000D02*
X119761000Y-111379000D01*
X112649000Y-102489000D02*
X116332000Y-107061000D01*
X110363000Y-99949000D02*
X112649000Y-102489000D01*
X109855000Y-99822000D02*
X110363000Y-99949000D01*
X109220000Y-99187000D02*
X109855000Y-99822000D01*
X108839000Y-98806000D02*
X109220000Y-99187000D01*
X108712000Y-98679000D02*
X108839000Y-98806000D01*
X108585000Y-98806000D02*
X108712000Y-98679000D01*
X108458000Y-99695000D02*
X108585000Y-98806000D01*
X108077000Y-102743000D02*
X108458000Y-99695000D01*
X107188000Y-109728000D02*
X108077000Y-102743000D01*
X106934000Y-111252000D02*
X107188000Y-109728000D01*
X107696000Y-112395000D02*
X106934000Y-111252000D01*
X107696000Y-113030000D02*
X107696000Y-112395000D01*
X107442000Y-115316000D02*
X107696000Y-113030000D01*
X107188000Y-117856000D02*
X107442000Y-115316000D01*
X107061000Y-118999000D02*
X107188000Y-117856000D01*
X106934000Y-119761000D02*
X107061000Y-118999000D01*
X106807000Y-120396000D02*
X106934000Y-119761000D01*
X106172000Y-122809000D02*
X106807000Y-120396000D01*
X105664000Y-124587000D02*
X106172000Y-122809000D01*
X105283000Y-125984000D02*
X105664000Y-124587000D01*
X105029000Y-127127000D02*
X105283000Y-125984000D01*
X104902000Y-127889000D02*
X105029000Y-127127000D01*
X104902000Y-128270000D02*
X104902000Y-127889000D01*
X104902000Y-129540000D02*
X104902000Y-128270000D01*
X104902000Y-129794000D02*
X104902000Y-129540000D01*
X105029000Y-130048000D02*
X104902000Y-129794000D01*
X105029000Y-130175000D02*
X105029000Y-130048000D01*
X104902000Y-130556000D02*
X105029000Y-130175000D01*
X102616000Y-133350000D02*
X104902000Y-130556000D01*
M02*
