G04 #@! TF.FileFunction,Soldermask,Bot*
%FSLAX46Y46*%
G04 Gerber Fmt 4.6, Leading zero omitted, Abs format (unit mm)*
G04 Created by KiCad (PCBNEW 4.0.6) date 06/26/18 20:30:44*
%MOMM*%
%LPD*%
G01*
G04 APERTURE LIST*
%ADD10C,0.100000*%
%ADD11C,0.010000*%
%ADD12R,0.831800X2.051000*%
%ADD13C,2.100000*%
%ADD14O,2.100000X2.100000*%
%ADD15R,2.400000X2.000000*%
%ADD16R,2.400000X2.100000*%
G04 APERTURE END LIST*
D10*
D11*
G36*
X104018325Y-120185661D02*
X104006138Y-120234224D01*
X104005455Y-120314609D01*
X104009560Y-120357485D01*
X104014381Y-120489117D01*
X103992946Y-120583741D01*
X103949689Y-120636971D01*
X103889042Y-120644425D01*
X103815440Y-120601714D01*
X103788941Y-120575731D01*
X103707581Y-120487965D01*
X103747290Y-120640976D01*
X103769917Y-120795844D01*
X103752657Y-120942736D01*
X103733731Y-121043214D01*
X103734731Y-121092617D01*
X103755209Y-121090236D01*
X103794715Y-121035356D01*
X103802520Y-121022091D01*
X103835022Y-120935024D01*
X103827926Y-120838765D01*
X103823578Y-120821465D01*
X103807450Y-120750582D01*
X103813379Y-120718778D01*
X103846220Y-120711378D01*
X103859892Y-120711645D01*
X103977227Y-120720291D01*
X104068735Y-120735837D01*
X104121904Y-120755788D01*
X104129968Y-120765463D01*
X104118850Y-120801056D01*
X104082787Y-120866934D01*
X104038390Y-120935707D01*
X103974179Y-121021058D01*
X103922370Y-121066785D01*
X103870093Y-121083737D01*
X103862047Y-121084429D01*
X103803973Y-121097970D01*
X103783473Y-121138952D01*
X103781995Y-121158885D01*
X103767796Y-121240202D01*
X103750488Y-121287262D01*
X103735781Y-121325278D01*
X103752620Y-121334096D01*
X103811818Y-121319099D01*
X103813473Y-121318604D01*
X103895273Y-121288956D01*
X103960548Y-121257281D01*
X104005279Y-121208419D01*
X104056708Y-121120391D01*
X104108267Y-121008897D01*
X104153392Y-120889638D01*
X104185518Y-120778312D01*
X104198079Y-120690618D01*
X104198086Y-120689265D01*
X104190219Y-120608596D01*
X104169303Y-120510853D01*
X104139611Y-120408015D01*
X104105420Y-120312060D01*
X104071005Y-120234965D01*
X104040642Y-120188711D01*
X104018606Y-120185274D01*
X104018325Y-120185661D01*
X104018325Y-120185661D01*
G37*
X104018325Y-120185661D02*
X104006138Y-120234224D01*
X104005455Y-120314609D01*
X104009560Y-120357485D01*
X104014381Y-120489117D01*
X103992946Y-120583741D01*
X103949689Y-120636971D01*
X103889042Y-120644425D01*
X103815440Y-120601714D01*
X103788941Y-120575731D01*
X103707581Y-120487965D01*
X103747290Y-120640976D01*
X103769917Y-120795844D01*
X103752657Y-120942736D01*
X103733731Y-121043214D01*
X103734731Y-121092617D01*
X103755209Y-121090236D01*
X103794715Y-121035356D01*
X103802520Y-121022091D01*
X103835022Y-120935024D01*
X103827926Y-120838765D01*
X103823578Y-120821465D01*
X103807450Y-120750582D01*
X103813379Y-120718778D01*
X103846220Y-120711378D01*
X103859892Y-120711645D01*
X103977227Y-120720291D01*
X104068735Y-120735837D01*
X104121904Y-120755788D01*
X104129968Y-120765463D01*
X104118850Y-120801056D01*
X104082787Y-120866934D01*
X104038390Y-120935707D01*
X103974179Y-121021058D01*
X103922370Y-121066785D01*
X103870093Y-121083737D01*
X103862047Y-121084429D01*
X103803973Y-121097970D01*
X103783473Y-121138952D01*
X103781995Y-121158885D01*
X103767796Y-121240202D01*
X103750488Y-121287262D01*
X103735781Y-121325278D01*
X103752620Y-121334096D01*
X103811818Y-121319099D01*
X103813473Y-121318604D01*
X103895273Y-121288956D01*
X103960548Y-121257281D01*
X104005279Y-121208419D01*
X104056708Y-121120391D01*
X104108267Y-121008897D01*
X104153392Y-120889638D01*
X104185518Y-120778312D01*
X104198079Y-120690618D01*
X104198086Y-120689265D01*
X104190219Y-120608596D01*
X104169303Y-120510853D01*
X104139611Y-120408015D01*
X104105420Y-120312060D01*
X104071005Y-120234965D01*
X104040642Y-120188711D01*
X104018606Y-120185274D01*
X104018325Y-120185661D01*
G36*
X99863833Y-118398424D02*
X99854914Y-118464690D01*
X99826369Y-118491219D01*
X99796266Y-118494739D01*
X99766067Y-118498540D01*
X99749352Y-118515928D01*
X99744810Y-118557655D01*
X99751127Y-118634480D01*
X99765546Y-118746466D01*
X99787771Y-118900437D01*
X99805773Y-119003693D01*
X99819061Y-119055195D01*
X99827145Y-119053898D01*
X99829536Y-118998764D01*
X99825743Y-118888748D01*
X99824892Y-118872597D01*
X99820806Y-118717978D01*
X99827334Y-118617544D01*
X99843053Y-118570335D01*
X99866541Y-118575391D01*
X99896376Y-118631751D01*
X99931137Y-118738454D01*
X99969402Y-118894537D01*
X99987790Y-118982660D01*
X100033924Y-119204227D01*
X100074941Y-119376606D01*
X100113169Y-119506560D01*
X100150930Y-119600854D01*
X100190553Y-119666249D01*
X100234360Y-119709511D01*
X100238806Y-119712703D01*
X100306408Y-119772178D01*
X100379000Y-119853812D01*
X100405339Y-119888841D01*
X100441128Y-119932090D01*
X100492591Y-119979521D01*
X100565661Y-120035204D01*
X100666268Y-120103208D01*
X100800342Y-120187602D01*
X100973815Y-120292459D01*
X101118487Y-120378222D01*
X101308520Y-120491574D01*
X101499872Y-120608046D01*
X101681627Y-120720823D01*
X101842868Y-120823092D01*
X101972680Y-120908035D01*
X102030864Y-120947797D01*
X102154419Y-121031005D01*
X102275251Y-121106341D01*
X102378534Y-121164900D01*
X102443123Y-121195475D01*
X102547634Y-121243265D01*
X102659076Y-121305632D01*
X102699473Y-121331757D01*
X102840646Y-121408407D01*
X102964350Y-121432223D01*
X103072206Y-121403491D01*
X103081189Y-121398340D01*
X103143322Y-121373094D01*
X103221432Y-121369563D01*
X103315897Y-121382743D01*
X103423155Y-121394759D01*
X103521585Y-121392969D01*
X103597782Y-121379160D01*
X103638343Y-121355123D01*
X103640947Y-121339342D01*
X103611308Y-121324830D01*
X103541557Y-121314032D01*
X103465044Y-121309855D01*
X103373679Y-121307455D01*
X103308192Y-121304266D01*
X103285561Y-121301600D01*
X103285064Y-121273623D01*
X103294847Y-121206736D01*
X103307860Y-121139475D01*
X103323922Y-121057520D01*
X103329852Y-120993207D01*
X103322350Y-120933047D01*
X103298118Y-120863548D01*
X103253859Y-120771220D01*
X103186473Y-120642949D01*
X103124724Y-120528304D01*
X103085383Y-120461774D01*
X103065201Y-120441200D01*
X103060926Y-120464419D01*
X103069309Y-120529273D01*
X103076015Y-120569539D01*
X103084367Y-120642073D01*
X103071741Y-120676824D01*
X103031341Y-120690640D01*
X103026896Y-120691318D01*
X102925980Y-120685067D01*
X102806848Y-120647007D01*
X102690933Y-120585511D01*
X102624498Y-120534218D01*
X102553483Y-120482897D01*
X102448826Y-120424135D01*
X102330292Y-120368763D01*
X102300398Y-120356558D01*
X102048795Y-120241782D01*
X101841066Y-120114404D01*
X101682092Y-119977683D01*
X101618110Y-119900941D01*
X101572035Y-119830288D01*
X101529599Y-119748058D01*
X101486195Y-119643221D01*
X101437211Y-119504752D01*
X101384499Y-119342114D01*
X101336764Y-119195655D01*
X101292227Y-119067403D01*
X101254621Y-118967493D01*
X101227676Y-118906058D01*
X101218954Y-118892525D01*
X101202494Y-118901888D01*
X101189727Y-118965149D01*
X101180525Y-119083217D01*
X101176197Y-119196801D01*
X101174997Y-119396722D01*
X101187183Y-119555162D01*
X101217629Y-119686437D01*
X101271207Y-119804864D01*
X101352792Y-119924762D01*
X101467257Y-120060445D01*
X101471964Y-120065707D01*
X101570312Y-120170063D01*
X101696608Y-120296213D01*
X101835750Y-120429447D01*
X101972629Y-120555062D01*
X101995128Y-120575078D01*
X102090731Y-120659910D01*
X102162617Y-120725003D01*
X102208175Y-120769222D01*
X102224794Y-120791426D01*
X102209862Y-120790479D01*
X102160769Y-120765244D01*
X102074903Y-120714581D01*
X101949651Y-120637355D01*
X101782405Y-120532425D01*
X101570551Y-120398655D01*
X101526888Y-120371052D01*
X101353929Y-120262861D01*
X101182463Y-120157682D01*
X101023058Y-120061845D01*
X100886282Y-119981680D01*
X100782704Y-119923516D01*
X100756252Y-119909529D01*
X100628876Y-119839662D01*
X100496500Y-119760214D01*
X100385642Y-119687173D01*
X100375748Y-119680106D01*
X100214077Y-119563360D01*
X100126674Y-119237168D01*
X100088923Y-119085070D01*
X100055408Y-118929691D01*
X100030385Y-118791910D01*
X100019744Y-118712622D01*
X100003367Y-118588340D01*
X99979439Y-118498748D01*
X99941790Y-118422109D01*
X99933518Y-118408703D01*
X99866818Y-118303136D01*
X99863833Y-118398424D01*
X99863833Y-118398424D01*
G37*
X99863833Y-118398424D02*
X99854914Y-118464690D01*
X99826369Y-118491219D01*
X99796266Y-118494739D01*
X99766067Y-118498540D01*
X99749352Y-118515928D01*
X99744810Y-118557655D01*
X99751127Y-118634480D01*
X99765546Y-118746466D01*
X99787771Y-118900437D01*
X99805773Y-119003693D01*
X99819061Y-119055195D01*
X99827145Y-119053898D01*
X99829536Y-118998764D01*
X99825743Y-118888748D01*
X99824892Y-118872597D01*
X99820806Y-118717978D01*
X99827334Y-118617544D01*
X99843053Y-118570335D01*
X99866541Y-118575391D01*
X99896376Y-118631751D01*
X99931137Y-118738454D01*
X99969402Y-118894537D01*
X99987790Y-118982660D01*
X100033924Y-119204227D01*
X100074941Y-119376606D01*
X100113169Y-119506560D01*
X100150930Y-119600854D01*
X100190553Y-119666249D01*
X100234360Y-119709511D01*
X100238806Y-119712703D01*
X100306408Y-119772178D01*
X100379000Y-119853812D01*
X100405339Y-119888841D01*
X100441128Y-119932090D01*
X100492591Y-119979521D01*
X100565661Y-120035204D01*
X100666268Y-120103208D01*
X100800342Y-120187602D01*
X100973815Y-120292459D01*
X101118487Y-120378222D01*
X101308520Y-120491574D01*
X101499872Y-120608046D01*
X101681627Y-120720823D01*
X101842868Y-120823092D01*
X101972680Y-120908035D01*
X102030864Y-120947797D01*
X102154419Y-121031005D01*
X102275251Y-121106341D01*
X102378534Y-121164900D01*
X102443123Y-121195475D01*
X102547634Y-121243265D01*
X102659076Y-121305632D01*
X102699473Y-121331757D01*
X102840646Y-121408407D01*
X102964350Y-121432223D01*
X103072206Y-121403491D01*
X103081189Y-121398340D01*
X103143322Y-121373094D01*
X103221432Y-121369563D01*
X103315897Y-121382743D01*
X103423155Y-121394759D01*
X103521585Y-121392969D01*
X103597782Y-121379160D01*
X103638343Y-121355123D01*
X103640947Y-121339342D01*
X103611308Y-121324830D01*
X103541557Y-121314032D01*
X103465044Y-121309855D01*
X103373679Y-121307455D01*
X103308192Y-121304266D01*
X103285561Y-121301600D01*
X103285064Y-121273623D01*
X103294847Y-121206736D01*
X103307860Y-121139475D01*
X103323922Y-121057520D01*
X103329852Y-120993207D01*
X103322350Y-120933047D01*
X103298118Y-120863548D01*
X103253859Y-120771220D01*
X103186473Y-120642949D01*
X103124724Y-120528304D01*
X103085383Y-120461774D01*
X103065201Y-120441200D01*
X103060926Y-120464419D01*
X103069309Y-120529273D01*
X103076015Y-120569539D01*
X103084367Y-120642073D01*
X103071741Y-120676824D01*
X103031341Y-120690640D01*
X103026896Y-120691318D01*
X102925980Y-120685067D01*
X102806848Y-120647007D01*
X102690933Y-120585511D01*
X102624498Y-120534218D01*
X102553483Y-120482897D01*
X102448826Y-120424135D01*
X102330292Y-120368763D01*
X102300398Y-120356558D01*
X102048795Y-120241782D01*
X101841066Y-120114404D01*
X101682092Y-119977683D01*
X101618110Y-119900941D01*
X101572035Y-119830288D01*
X101529599Y-119748058D01*
X101486195Y-119643221D01*
X101437211Y-119504752D01*
X101384499Y-119342114D01*
X101336764Y-119195655D01*
X101292227Y-119067403D01*
X101254621Y-118967493D01*
X101227676Y-118906058D01*
X101218954Y-118892525D01*
X101202494Y-118901888D01*
X101189727Y-118965149D01*
X101180525Y-119083217D01*
X101176197Y-119196801D01*
X101174997Y-119396722D01*
X101187183Y-119555162D01*
X101217629Y-119686437D01*
X101271207Y-119804864D01*
X101352792Y-119924762D01*
X101467257Y-120060445D01*
X101471964Y-120065707D01*
X101570312Y-120170063D01*
X101696608Y-120296213D01*
X101835750Y-120429447D01*
X101972629Y-120555062D01*
X101995128Y-120575078D01*
X102090731Y-120659910D01*
X102162617Y-120725003D01*
X102208175Y-120769222D01*
X102224794Y-120791426D01*
X102209862Y-120790479D01*
X102160769Y-120765244D01*
X102074903Y-120714581D01*
X101949651Y-120637355D01*
X101782405Y-120532425D01*
X101570551Y-120398655D01*
X101526888Y-120371052D01*
X101353929Y-120262861D01*
X101182463Y-120157682D01*
X101023058Y-120061845D01*
X100886282Y-119981680D01*
X100782704Y-119923516D01*
X100756252Y-119909529D01*
X100628876Y-119839662D01*
X100496500Y-119760214D01*
X100385642Y-119687173D01*
X100375748Y-119680106D01*
X100214077Y-119563360D01*
X100126674Y-119237168D01*
X100088923Y-119085070D01*
X100055408Y-118929691D01*
X100030385Y-118791910D01*
X100019744Y-118712622D01*
X100003367Y-118588340D01*
X99979439Y-118498748D01*
X99941790Y-118422109D01*
X99933518Y-118408703D01*
X99866818Y-118303136D01*
X99863833Y-118398424D01*
G36*
X103462417Y-120842825D02*
X103495632Y-120851543D01*
X103564448Y-120853987D01*
X103597322Y-120849406D01*
X103610630Y-120838348D01*
X103577414Y-120829630D01*
X103508599Y-120827186D01*
X103475725Y-120831767D01*
X103462417Y-120842825D01*
X103462417Y-120842825D01*
G37*
X103462417Y-120842825D02*
X103495632Y-120851543D01*
X103564448Y-120853987D01*
X103597322Y-120849406D01*
X103610630Y-120838348D01*
X103577414Y-120829630D01*
X103508599Y-120827186D01*
X103475725Y-120831767D01*
X103462417Y-120842825D01*
G36*
X103237455Y-120262105D02*
X103265593Y-120265628D01*
X103348021Y-120267405D01*
X103423788Y-120263935D01*
X103479501Y-120256742D01*
X103501760Y-120247351D01*
X103489693Y-120240125D01*
X103431160Y-120235168D01*
X103345628Y-120239853D01*
X103315307Y-120243564D01*
X103249041Y-120254758D01*
X103237455Y-120262105D01*
X103237455Y-120262105D01*
G37*
X103237455Y-120262105D02*
X103265593Y-120265628D01*
X103348021Y-120267405D01*
X103423788Y-120263935D01*
X103479501Y-120256742D01*
X103501760Y-120247351D01*
X103489693Y-120240125D01*
X103431160Y-120235168D01*
X103345628Y-120239853D01*
X103315307Y-120243564D01*
X103249041Y-120254758D01*
X103237455Y-120262105D01*
G36*
X102545827Y-119448214D02*
X102515093Y-119471026D01*
X102500382Y-119469434D01*
X102472567Y-119474893D01*
X102472140Y-119485269D01*
X102500407Y-119512661D01*
X102560200Y-119548218D01*
X102629866Y-119581189D01*
X102687753Y-119600819D01*
X102707098Y-119601941D01*
X102741643Y-119608720D01*
X102815934Y-119631853D01*
X102917130Y-119667180D01*
X102978553Y-119689902D01*
X103090225Y-119729726D01*
X103183393Y-119758734D01*
X103244644Y-119772954D01*
X103259580Y-119773134D01*
X103296316Y-119750608D01*
X103361593Y-119702012D01*
X103438913Y-119639805D01*
X103540097Y-119542293D01*
X103599764Y-119454619D01*
X103613378Y-119383636D01*
X103612163Y-119378199D01*
X103591472Y-119385450D01*
X103545536Y-119420766D01*
X103538176Y-119427192D01*
X103470596Y-119470813D01*
X103381804Y-119496389D01*
X103263741Y-119504416D01*
X103108346Y-119495384D01*
X103056665Y-119488796D01*
X102884739Y-119534863D01*
X102885339Y-119552072D01*
X102871435Y-119557907D01*
X102846324Y-119553945D01*
X102848391Y-119544603D01*
X102879870Y-119532671D01*
X102884739Y-119534863D01*
X103056665Y-119488796D01*
X102995092Y-119480947D01*
X102805957Y-119531625D01*
X102795979Y-119548907D01*
X102778697Y-119538929D01*
X102788675Y-119521647D01*
X102805957Y-119531625D01*
X102995092Y-119480947D01*
X102921202Y-119471527D01*
X102744131Y-119518973D01*
X102734153Y-119536256D01*
X102716871Y-119526277D01*
X102726849Y-119508995D01*
X102744131Y-119518973D01*
X102921202Y-119471527D01*
X102907561Y-119469788D01*
X102888589Y-119466932D01*
X102860990Y-119463253D01*
X102680377Y-119511648D01*
X102670079Y-119515318D01*
X102628874Y-119507075D01*
X102579719Y-119488884D01*
X102568616Y-119470416D01*
X102598377Y-119467127D01*
X102641037Y-119486009D01*
X102680377Y-119511648D01*
X102860990Y-119463253D01*
X102744444Y-119447719D01*
X102634168Y-119438534D01*
X102565499Y-119439800D01*
X102545827Y-119448214D01*
X102545827Y-119448214D01*
G37*
X102545827Y-119448214D02*
X102515093Y-119471026D01*
X102500382Y-119469434D01*
X102472567Y-119474893D01*
X102472140Y-119485269D01*
X102500407Y-119512661D01*
X102560200Y-119548218D01*
X102629866Y-119581189D01*
X102687753Y-119600819D01*
X102707098Y-119601941D01*
X102741643Y-119608720D01*
X102815934Y-119631853D01*
X102917130Y-119667180D01*
X102978553Y-119689902D01*
X103090225Y-119729726D01*
X103183393Y-119758734D01*
X103244644Y-119772954D01*
X103259580Y-119773134D01*
X103296316Y-119750608D01*
X103361593Y-119702012D01*
X103438913Y-119639805D01*
X103540097Y-119542293D01*
X103599764Y-119454619D01*
X103613378Y-119383636D01*
X103612163Y-119378199D01*
X103591472Y-119385450D01*
X103545536Y-119420766D01*
X103538176Y-119427192D01*
X103470596Y-119470813D01*
X103381804Y-119496389D01*
X103263741Y-119504416D01*
X103108346Y-119495384D01*
X103056665Y-119488796D01*
X102884739Y-119534863D01*
X102885339Y-119552072D01*
X102871435Y-119557907D01*
X102846324Y-119553945D01*
X102848391Y-119544603D01*
X102879870Y-119532671D01*
X102884739Y-119534863D01*
X103056665Y-119488796D01*
X102995092Y-119480947D01*
X102805957Y-119531625D01*
X102795979Y-119548907D01*
X102778697Y-119538929D01*
X102788675Y-119521647D01*
X102805957Y-119531625D01*
X102995092Y-119480947D01*
X102921202Y-119471527D01*
X102744131Y-119518973D01*
X102734153Y-119536256D01*
X102716871Y-119526277D01*
X102726849Y-119508995D01*
X102744131Y-119518973D01*
X102921202Y-119471527D01*
X102907561Y-119469788D01*
X102888589Y-119466932D01*
X102860990Y-119463253D01*
X102680377Y-119511648D01*
X102670079Y-119515318D01*
X102628874Y-119507075D01*
X102579719Y-119488884D01*
X102568616Y-119470416D01*
X102598377Y-119467127D01*
X102641037Y-119486009D01*
X102680377Y-119511648D01*
X102860990Y-119463253D01*
X102744444Y-119447719D01*
X102634168Y-119438534D01*
X102565499Y-119439800D01*
X102545827Y-119448214D01*
G36*
X103877485Y-116276286D02*
X103852629Y-116351304D01*
X103839042Y-116427117D01*
X103843887Y-116511740D01*
X103869644Y-116615381D01*
X103918791Y-116748244D01*
X103987584Y-116906803D01*
X104050456Y-117049547D01*
X104094164Y-117164442D01*
X104120348Y-117265814D01*
X104130649Y-117367993D01*
X104126707Y-117485306D01*
X104110161Y-117632086D01*
X104088174Y-117785602D01*
X104054471Y-118013657D01*
X104028430Y-118194066D01*
X104009211Y-118334980D01*
X103995974Y-118444554D01*
X103987881Y-118530941D01*
X103984095Y-118602295D01*
X103983775Y-118666770D01*
X103986083Y-118732519D01*
X103987649Y-118762744D01*
X103989682Y-118892872D01*
X103984770Y-119047111D01*
X103973974Y-119193704D01*
X103972911Y-119203935D01*
X103963559Y-119319331D01*
X103961056Y-119416597D01*
X103965638Y-119479535D01*
X103968799Y-119490129D01*
X103979057Y-119482135D01*
X103991160Y-119426890D01*
X104003614Y-119333492D01*
X104014927Y-119211032D01*
X104015187Y-119207613D01*
X104025853Y-119044223D01*
X104034453Y-118870156D01*
X104039838Y-118710945D01*
X104041062Y-118630932D01*
X104046684Y-118520142D01*
X104061609Y-118368789D01*
X104084005Y-118191646D01*
X104112042Y-118003487D01*
X104137085Y-117856153D01*
X104166060Y-117685654D01*
X104189205Y-117529659D01*
X104205262Y-117398440D01*
X104212968Y-117302273D01*
X104211205Y-117251937D01*
X104191990Y-117197365D01*
X104154347Y-117103905D01*
X104103438Y-116983941D01*
X104044422Y-116849868D01*
X104034837Y-116828521D01*
X103971630Y-116686610D01*
X103928883Y-116584629D01*
X103903184Y-116511363D01*
X103891116Y-116455594D01*
X103889265Y-116406109D01*
X103892955Y-116362531D01*
X103899372Y-116278703D01*
X103893971Y-116249887D01*
X103877485Y-116276286D01*
X103877485Y-116276286D01*
G37*
X103877485Y-116276286D02*
X103852629Y-116351304D01*
X103839042Y-116427117D01*
X103843887Y-116511740D01*
X103869644Y-116615381D01*
X103918791Y-116748244D01*
X103987584Y-116906803D01*
X104050456Y-117049547D01*
X104094164Y-117164442D01*
X104120348Y-117265814D01*
X104130649Y-117367993D01*
X104126707Y-117485306D01*
X104110161Y-117632086D01*
X104088174Y-117785602D01*
X104054471Y-118013657D01*
X104028430Y-118194066D01*
X104009211Y-118334980D01*
X103995974Y-118444554D01*
X103987881Y-118530941D01*
X103984095Y-118602295D01*
X103983775Y-118666770D01*
X103986083Y-118732519D01*
X103987649Y-118762744D01*
X103989682Y-118892872D01*
X103984770Y-119047111D01*
X103973974Y-119193704D01*
X103972911Y-119203935D01*
X103963559Y-119319331D01*
X103961056Y-119416597D01*
X103965638Y-119479535D01*
X103968799Y-119490129D01*
X103979057Y-119482135D01*
X103991160Y-119426890D01*
X104003614Y-119333492D01*
X104014927Y-119211032D01*
X104015187Y-119207613D01*
X104025853Y-119044223D01*
X104034453Y-118870156D01*
X104039838Y-118710945D01*
X104041062Y-118630932D01*
X104046684Y-118520142D01*
X104061609Y-118368789D01*
X104084005Y-118191646D01*
X104112042Y-118003487D01*
X104137085Y-117856153D01*
X104166060Y-117685654D01*
X104189205Y-117529659D01*
X104205262Y-117398440D01*
X104212968Y-117302273D01*
X104211205Y-117251937D01*
X104191990Y-117197365D01*
X104154347Y-117103905D01*
X104103438Y-116983941D01*
X104044422Y-116849868D01*
X104034837Y-116828521D01*
X103971630Y-116686610D01*
X103928883Y-116584629D01*
X103903184Y-116511363D01*
X103891116Y-116455594D01*
X103889265Y-116406109D01*
X103892955Y-116362531D01*
X103899372Y-116278703D01*
X103893971Y-116249887D01*
X103877485Y-116276286D01*
G36*
X101751715Y-118803907D02*
X101749516Y-118806970D01*
X101729867Y-118880422D01*
X101763254Y-118967474D01*
X101806180Y-119022481D01*
X101889676Y-119076318D01*
X102018295Y-119108952D01*
X102184425Y-119119301D01*
X102380453Y-119106282D01*
X102388435Y-119105305D01*
X102537011Y-119090656D01*
X102701293Y-119080645D01*
X102867095Y-119075488D01*
X103020236Y-119075407D01*
X103146534Y-119080618D01*
X103231805Y-119091340D01*
X103235669Y-119092253D01*
X103392407Y-119124168D01*
X103532787Y-119139904D01*
X103646600Y-119139286D01*
X103723642Y-119122137D01*
X103749739Y-119101084D01*
X103754938Y-119059951D01*
X103745425Y-119004870D01*
X103727573Y-118961712D01*
X103713157Y-118952536D01*
X103690125Y-118979400D01*
X103674026Y-119013206D01*
X103656529Y-119044020D01*
X103633039Y-119037903D01*
X103591511Y-118990371D01*
X103582923Y-118979316D01*
X103535505Y-118923763D01*
X103500917Y-118908721D01*
X103460263Y-118928015D01*
X103449411Y-118935689D01*
X103345687Y-118993241D01*
X103246815Y-119005286D01*
X103137192Y-118971984D01*
X103075427Y-118939507D01*
X102991628Y-118893227D01*
X102938682Y-118874049D01*
X102899292Y-118879615D01*
X102856164Y-118907566D01*
X102853860Y-118909311D01*
X102813280Y-118933995D01*
X102758156Y-118953612D01*
X102677838Y-118970435D01*
X102561677Y-118986736D01*
X102413618Y-119003267D01*
X102270916Y-119015738D01*
X102145074Y-119022148D01*
X102048601Y-119022177D01*
X101994004Y-119015505D01*
X101990653Y-119014136D01*
X101940751Y-118978961D01*
X101885145Y-118915736D01*
X101814219Y-118813459D01*
X101811176Y-118808784D01*
X101781574Y-118780045D01*
X101751715Y-118803907D01*
X101751715Y-118803907D01*
G37*
X101751715Y-118803907D02*
X101749516Y-118806970D01*
X101729867Y-118880422D01*
X101763254Y-118967474D01*
X101806180Y-119022481D01*
X101889676Y-119076318D01*
X102018295Y-119108952D01*
X102184425Y-119119301D01*
X102380453Y-119106282D01*
X102388435Y-119105305D01*
X102537011Y-119090656D01*
X102701293Y-119080645D01*
X102867095Y-119075488D01*
X103020236Y-119075407D01*
X103146534Y-119080618D01*
X103231805Y-119091340D01*
X103235669Y-119092253D01*
X103392407Y-119124168D01*
X103532787Y-119139904D01*
X103646600Y-119139286D01*
X103723642Y-119122137D01*
X103749739Y-119101084D01*
X103754938Y-119059951D01*
X103745425Y-119004870D01*
X103727573Y-118961712D01*
X103713157Y-118952536D01*
X103690125Y-118979400D01*
X103674026Y-119013206D01*
X103656529Y-119044020D01*
X103633039Y-119037903D01*
X103591511Y-118990371D01*
X103582923Y-118979316D01*
X103535505Y-118923763D01*
X103500917Y-118908721D01*
X103460263Y-118928015D01*
X103449411Y-118935689D01*
X103345687Y-118993241D01*
X103246815Y-119005286D01*
X103137192Y-118971984D01*
X103075427Y-118939507D01*
X102991628Y-118893227D01*
X102938682Y-118874049D01*
X102899292Y-118879615D01*
X102856164Y-118907566D01*
X102853860Y-118909311D01*
X102813280Y-118933995D01*
X102758156Y-118953612D01*
X102677838Y-118970435D01*
X102561677Y-118986736D01*
X102413618Y-119003267D01*
X102270916Y-119015738D01*
X102145074Y-119022148D01*
X102048601Y-119022177D01*
X101994004Y-119015505D01*
X101990653Y-119014136D01*
X101940751Y-118978961D01*
X101885145Y-118915736D01*
X101814219Y-118813459D01*
X101811176Y-118808784D01*
X101781574Y-118780045D01*
X101751715Y-118803907D01*
G36*
X103755420Y-118010188D02*
X103731938Y-118046300D01*
X103681237Y-118106268D01*
X103598481Y-118181609D01*
X103499652Y-118258059D01*
X103476957Y-118273872D01*
X103332504Y-118383824D01*
X103238982Y-118483936D01*
X103192917Y-118579394D01*
X103190833Y-118675390D01*
X103195256Y-118694620D01*
X103218469Y-118766910D01*
X103234217Y-118785004D01*
X103241412Y-118748343D01*
X103241652Y-118718401D01*
X103266636Y-118589687D01*
X103344983Y-118476852D01*
X103447387Y-118398110D01*
X103539971Y-118329661D01*
X103631866Y-118241351D01*
X103711108Y-118147077D01*
X103765736Y-118060737D01*
X103783595Y-118007531D01*
X103779420Y-117985098D01*
X103755420Y-118010188D01*
X103755420Y-118010188D01*
G37*
X103755420Y-118010188D02*
X103731938Y-118046300D01*
X103681237Y-118106268D01*
X103598481Y-118181609D01*
X103499652Y-118258059D01*
X103476957Y-118273872D01*
X103332504Y-118383824D01*
X103238982Y-118483936D01*
X103192917Y-118579394D01*
X103190833Y-118675390D01*
X103195256Y-118694620D01*
X103218469Y-118766910D01*
X103234217Y-118785004D01*
X103241412Y-118748343D01*
X103241652Y-118718401D01*
X103266636Y-118589687D01*
X103344983Y-118476852D01*
X103447387Y-118398110D01*
X103539971Y-118329661D01*
X103631866Y-118241351D01*
X103711108Y-118147077D01*
X103765736Y-118060737D01*
X103783595Y-118007531D01*
X103779420Y-117985098D01*
X103755420Y-118010188D01*
G36*
X103664594Y-118483455D02*
X103681878Y-118493434D01*
X103691856Y-118476150D01*
X103674573Y-118466172D01*
X103664594Y-118483455D01*
X103664594Y-118483455D01*
G37*
X103664594Y-118483455D02*
X103681878Y-118493434D01*
X103691856Y-118476150D01*
X103674573Y-118466172D01*
X103664594Y-118483455D01*
G36*
X102002796Y-118152993D02*
X101882645Y-118227186D01*
X101763319Y-118318064D01*
X101654505Y-118419341D01*
X101565887Y-118524737D01*
X101536092Y-118570283D01*
X101484188Y-118689707D01*
X101482788Y-118793417D01*
X101531955Y-118891034D01*
X101538256Y-118899095D01*
X101601391Y-118977853D01*
X101551661Y-118853123D01*
X101523628Y-118771750D01*
X101521959Y-118714585D01*
X101547975Y-118655250D01*
X101562798Y-118630799D01*
X101618389Y-118555969D01*
X101696020Y-118468252D01*
X101749755Y-118414484D01*
X101816394Y-118353461D01*
X101848834Y-118329586D01*
X101852602Y-118339911D01*
X101841254Y-118365680D01*
X101806664Y-118435596D01*
X101904161Y-118349870D01*
X101995848Y-118284026D01*
X102101648Y-118227669D01*
X102126544Y-118217514D01*
X102228998Y-118177501D01*
X102284819Y-118149124D01*
X102300996Y-118126389D01*
X102284518Y-118103306D01*
X102271352Y-118093340D01*
X102206834Y-118079787D01*
X102114088Y-118101766D01*
X102002796Y-118152993D01*
X102002796Y-118152993D01*
G37*
X102002796Y-118152993D02*
X101882645Y-118227186D01*
X101763319Y-118318064D01*
X101654505Y-118419341D01*
X101565887Y-118524737D01*
X101536092Y-118570283D01*
X101484188Y-118689707D01*
X101482788Y-118793417D01*
X101531955Y-118891034D01*
X101538256Y-118899095D01*
X101601391Y-118977853D01*
X101551661Y-118853123D01*
X101523628Y-118771750D01*
X101521959Y-118714585D01*
X101547975Y-118655250D01*
X101562798Y-118630799D01*
X101618389Y-118555969D01*
X101696020Y-118468252D01*
X101749755Y-118414484D01*
X101816394Y-118353461D01*
X101848834Y-118329586D01*
X101852602Y-118339911D01*
X101841254Y-118365680D01*
X101806664Y-118435596D01*
X101904161Y-118349870D01*
X101995848Y-118284026D01*
X102101648Y-118227669D01*
X102126544Y-118217514D01*
X102228998Y-118177501D01*
X102284819Y-118149124D01*
X102300996Y-118126389D01*
X102284518Y-118103306D01*
X102271352Y-118093340D01*
X102206834Y-118079787D01*
X102114088Y-118101766D01*
X102002796Y-118152993D01*
G36*
X103608116Y-118381718D02*
X103625399Y-118391696D01*
X103635377Y-118374414D01*
X103618094Y-118364435D01*
X103608116Y-118381718D01*
X103608116Y-118381718D01*
G37*
X103608116Y-118381718D02*
X103625399Y-118391696D01*
X103635377Y-118374414D01*
X103618094Y-118364435D01*
X103608116Y-118381718D01*
G36*
X102945633Y-118035621D02*
X103082793Y-118043453D01*
X103188049Y-118077274D01*
X103221458Y-118096301D01*
X103283678Y-118138555D01*
X103305371Y-118166775D01*
X103294521Y-118195787D01*
X103283048Y-118210696D01*
X103209743Y-118266805D01*
X103127514Y-118267576D01*
X103069282Y-118236471D01*
X102998387Y-118199151D01*
X102903017Y-118167284D01*
X102867134Y-118159157D01*
X102778129Y-118150507D01*
X102685395Y-118154260D01*
X102604623Y-118167951D01*
X102551498Y-118189115D01*
X102539645Y-118210609D01*
X102575040Y-118248498D01*
X102642654Y-118272718D01*
X102718619Y-118275939D01*
X102739012Y-118271841D01*
X102816517Y-118268734D01*
X102915427Y-118287491D01*
X103013088Y-118321284D01*
X103086845Y-118363282D01*
X103105742Y-118382400D01*
X103123257Y-118398169D01*
X103148025Y-118396797D01*
X103187845Y-118373276D01*
X103250516Y-118322602D01*
X103343836Y-118239769D01*
X103382266Y-118204907D01*
X103626385Y-117982857D01*
X103523701Y-117969458D01*
X103392152Y-117963225D01*
X103223504Y-117971749D01*
X103034815Y-117993865D01*
X102938657Y-118009585D01*
X102771401Y-118039628D01*
X102945633Y-118035621D01*
X102945633Y-118035621D01*
G37*
X102945633Y-118035621D02*
X103082793Y-118043453D01*
X103188049Y-118077274D01*
X103221458Y-118096301D01*
X103283678Y-118138555D01*
X103305371Y-118166775D01*
X103294521Y-118195787D01*
X103283048Y-118210696D01*
X103209743Y-118266805D01*
X103127514Y-118267576D01*
X103069282Y-118236471D01*
X102998387Y-118199151D01*
X102903017Y-118167284D01*
X102867134Y-118159157D01*
X102778129Y-118150507D01*
X102685395Y-118154260D01*
X102604623Y-118167951D01*
X102551498Y-118189115D01*
X102539645Y-118210609D01*
X102575040Y-118248498D01*
X102642654Y-118272718D01*
X102718619Y-118275939D01*
X102739012Y-118271841D01*
X102816517Y-118268734D01*
X102915427Y-118287491D01*
X103013088Y-118321284D01*
X103086845Y-118363282D01*
X103105742Y-118382400D01*
X103123257Y-118398169D01*
X103148025Y-118396797D01*
X103187845Y-118373276D01*
X103250516Y-118322602D01*
X103343836Y-118239769D01*
X103382266Y-118204907D01*
X103626385Y-117982857D01*
X103523701Y-117969458D01*
X103392152Y-117963225D01*
X103223504Y-117971749D01*
X103034815Y-117993865D01*
X102938657Y-118009585D01*
X102771401Y-118039628D01*
X102945633Y-118035621D01*
G36*
X99063184Y-118453243D02*
X98976870Y-118496553D01*
X98909445Y-118534565D01*
X98762001Y-118622018D01*
X98865815Y-118651497D01*
X99062642Y-118731984D01*
X99220357Y-118849413D01*
X99247659Y-118878089D01*
X99348887Y-118978368D01*
X99429038Y-119030180D01*
X99476949Y-119035784D01*
X99479628Y-119017907D01*
X99439803Y-118984885D01*
X99423672Y-118975079D01*
X99366010Y-118931093D01*
X99335241Y-118873348D01*
X99326927Y-118787433D01*
X99333959Y-118683821D01*
X99347217Y-118624227D01*
X99382908Y-118595824D01*
X99440713Y-118583610D01*
X99503863Y-118570518D01*
X99532971Y-118556816D01*
X99533139Y-118554681D01*
X99501035Y-118530602D01*
X99431042Y-118500720D01*
X99340605Y-118470380D01*
X99247170Y-118444927D01*
X99168181Y-118429704D01*
X99123650Y-118429224D01*
X99063184Y-118453243D01*
X99063184Y-118453243D01*
G37*
X99063184Y-118453243D02*
X98976870Y-118496553D01*
X98909445Y-118534565D01*
X98762001Y-118622018D01*
X98865815Y-118651497D01*
X99062642Y-118731984D01*
X99220357Y-118849413D01*
X99247659Y-118878089D01*
X99348887Y-118978368D01*
X99429038Y-119030180D01*
X99476949Y-119035784D01*
X99479628Y-119017907D01*
X99439803Y-118984885D01*
X99423672Y-118975079D01*
X99366010Y-118931093D01*
X99335241Y-118873348D01*
X99326927Y-118787433D01*
X99333959Y-118683821D01*
X99347217Y-118624227D01*
X99382908Y-118595824D01*
X99440713Y-118583610D01*
X99503863Y-118570518D01*
X99532971Y-118556816D01*
X99533139Y-118554681D01*
X99501035Y-118530602D01*
X99431042Y-118500720D01*
X99340605Y-118470380D01*
X99247170Y-118444927D01*
X99168181Y-118429704D01*
X99123650Y-118429224D01*
X99063184Y-118453243D01*
G36*
X97569001Y-112492217D02*
X97559174Y-112678656D01*
X97596941Y-112840660D01*
X97680716Y-112973949D01*
X97777905Y-113055823D01*
X97831782Y-113093596D01*
X97841171Y-113108071D01*
X97812033Y-113101259D01*
X97750333Y-113075169D01*
X97662035Y-113031812D01*
X97584745Y-112990709D01*
X97360767Y-112868112D01*
X97449532Y-112967339D01*
X97504703Y-113034168D01*
X97541378Y-113088195D01*
X97548117Y-113103217D01*
X97583480Y-113146357D01*
X97671451Y-113208861D01*
X97811699Y-113290518D01*
X98002523Y-113390426D01*
X98102246Y-113445103D01*
X98170175Y-113490627D01*
X98202823Y-113522532D01*
X98196710Y-113536353D01*
X98148355Y-113527624D01*
X98094630Y-113508536D01*
X98034289Y-113490569D01*
X98005021Y-113493414D01*
X98004572Y-113498220D01*
X97995720Y-113530353D01*
X97950866Y-113532434D01*
X97880856Y-113505894D01*
X97828425Y-113474934D01*
X97713281Y-113384012D01*
X97583811Y-113258910D01*
X97453999Y-113114281D01*
X97337829Y-112964774D01*
X97327472Y-112950078D01*
X97267699Y-112868995D01*
X97233636Y-112834768D01*
X97222973Y-112845254D01*
X97223594Y-112853834D01*
X97250707Y-112936141D01*
X97311743Y-113046626D01*
X97399778Y-113174516D01*
X97507883Y-113309037D01*
X97539135Y-113344564D01*
X97609413Y-113424716D01*
X97662962Y-113489185D01*
X97690099Y-113526227D01*
X97691535Y-113529416D01*
X97676722Y-113560987D01*
X97632989Y-113609214D01*
X97627961Y-113613866D01*
X97540994Y-113668487D01*
X97420495Y-113712456D01*
X97282276Y-113743452D01*
X97142146Y-113759158D01*
X97015915Y-113757257D01*
X96919393Y-113735426D01*
X96893924Y-113721517D01*
X96843800Y-113699292D01*
X96823066Y-113698807D01*
X96817526Y-113715055D01*
X96852065Y-113742903D01*
X96913560Y-113775080D01*
X96988892Y-113804315D01*
X97038425Y-113818150D01*
X97098300Y-113835612D01*
X97119048Y-113849827D01*
X97114195Y-113853251D01*
X97088491Y-113884824D01*
X97063176Y-113952141D01*
X97055305Y-113984003D01*
X97024186Y-114081441D01*
X96979792Y-114169595D01*
X96969599Y-114184309D01*
X96909584Y-114264051D01*
X97055726Y-114209729D01*
X97158297Y-114160461D01*
X97272099Y-114082380D01*
X97407982Y-113967920D01*
X97426558Y-113951135D01*
X97527584Y-113860388D01*
X97599848Y-113800714D01*
X97655929Y-113764756D01*
X97708407Y-113745160D01*
X97769863Y-113734569D01*
X97803339Y-113730830D01*
X97914234Y-113724357D01*
X97983199Y-113734212D01*
X98009314Y-113762701D01*
X97991664Y-113812134D01*
X97929331Y-113884817D01*
X97821397Y-113983059D01*
X97666947Y-114109167D01*
X97646645Y-114125180D01*
X97523982Y-114220939D01*
X97432626Y-114288543D01*
X97359723Y-114334986D01*
X97292416Y-114367265D01*
X97217849Y-114392372D01*
X97123163Y-114417302D01*
X97098384Y-114423451D01*
X97008088Y-114442466D01*
X96907046Y-114458631D01*
X96805022Y-114471232D01*
X96711775Y-114479554D01*
X96637066Y-114482887D01*
X96590654Y-114480514D01*
X96582304Y-114471724D01*
X96611222Y-114459058D01*
X96627857Y-114444601D01*
X96594864Y-114425910D01*
X96523613Y-114404704D01*
X96424176Y-114374583D01*
X96335119Y-114340878D01*
X96305549Y-114326912D01*
X96250491Y-114302919D01*
X96234125Y-114307176D01*
X96251236Y-114332460D01*
X96296610Y-114371547D01*
X96365037Y-114417212D01*
X96374877Y-114422980D01*
X96438765Y-114461631D01*
X96469269Y-114483804D01*
X96464753Y-114485800D01*
X96433996Y-114485767D01*
X96440516Y-114511410D01*
X96476478Y-114554486D01*
X96534046Y-114606751D01*
X96605384Y-114659960D01*
X96665060Y-114696546D01*
X96826930Y-114759824D01*
X96991399Y-114777825D01*
X97145559Y-114750611D01*
X97256536Y-114693658D01*
X97309608Y-114660623D01*
X97327254Y-114661044D01*
X97313531Y-114688034D01*
X97272493Y-114734711D01*
X97208199Y-114794189D01*
X97186825Y-114812001D01*
X97042359Y-114909829D01*
X96856643Y-115004127D01*
X96787007Y-115033808D01*
X96531955Y-115137675D01*
X96637041Y-115151681D01*
X96796525Y-115146218D01*
X96978545Y-115091320D01*
X97180635Y-114988160D01*
X97400333Y-114837911D01*
X97549029Y-114717592D01*
X97629614Y-114650002D01*
X97691946Y-114600203D01*
X97725335Y-114576653D01*
X97728028Y-114575907D01*
X97728598Y-114603738D01*
X97721238Y-114669625D01*
X97714214Y-114717096D01*
X97669388Y-114877340D01*
X97592789Y-115028950D01*
X97496964Y-115147677D01*
X97404563Y-115206063D01*
X97274383Y-115252317D01*
X97124541Y-115282139D01*
X96973156Y-115291230D01*
X96908609Y-115287332D01*
X96818100Y-115280215D01*
X96781252Y-115283139D01*
X96796419Y-115294858D01*
X96861958Y-115314125D01*
X96976224Y-115339698D01*
X96978249Y-115340112D01*
X97096744Y-115355761D01*
X97217372Y-115358418D01*
X97279712Y-115352651D01*
X97362720Y-115330644D01*
X97438372Y-115290161D01*
X97512048Y-115225033D01*
X97589131Y-115129091D01*
X97675000Y-114996162D01*
X97775038Y-114820082D01*
X97824632Y-114727904D01*
X97915654Y-114560730D01*
X97989889Y-114434995D01*
X98054073Y-114340828D01*
X98114940Y-114268356D01*
X98179225Y-114207710D01*
X98179913Y-114207125D01*
X98277812Y-114131553D01*
X98361477Y-114080994D01*
X98421952Y-114059868D01*
X98450279Y-114072596D01*
X98450533Y-114073523D01*
X98438437Y-114105370D01*
X98401774Y-114170286D01*
X98348133Y-114254953D01*
X98341140Y-114265472D01*
X98280045Y-114367113D01*
X98235357Y-114470457D01*
X98200012Y-114594871D01*
X98173010Y-114726400D01*
X98144466Y-114867320D01*
X98116821Y-114966681D01*
X98084547Y-115038999D01*
X98042117Y-115098792D01*
X98023034Y-115120326D01*
X97941225Y-115201415D01*
X97830949Y-115300798D01*
X97709431Y-115403625D01*
X97593894Y-115495047D01*
X97555270Y-115523615D01*
X97517750Y-115549175D01*
X97508759Y-115545690D01*
X97527796Y-115505248D01*
X97551376Y-115461939D01*
X97609875Y-115355287D01*
X97469048Y-115481812D01*
X97367128Y-115563763D01*
X97252785Y-115641706D01*
X97180282Y-115683220D01*
X97088023Y-115733720D01*
X97044564Y-115768229D01*
X97051302Y-115787702D01*
X97109638Y-115793093D01*
X97220969Y-115785358D01*
X97314373Y-115774743D01*
X97448725Y-115765745D01*
X97550102Y-115779441D01*
X97638333Y-115818577D01*
X97640569Y-115819922D01*
X97694098Y-115867008D01*
X97713982Y-115930240D01*
X97701320Y-116020884D01*
X97669672Y-116117561D01*
X97637920Y-116205731D01*
X97626618Y-116254738D01*
X97636312Y-116278234D01*
X97667552Y-116289876D01*
X97676685Y-116292043D01*
X97770410Y-116337654D01*
X97837315Y-116415211D01*
X97867875Y-116508696D01*
X97856173Y-116593838D01*
X97835580Y-116659265D01*
X97846997Y-116680969D01*
X97888883Y-116664863D01*
X97936312Y-116654854D01*
X97952585Y-116672443D01*
X97980556Y-116828529D01*
X97963516Y-116952161D01*
X97946952Y-117030716D01*
X97950814Y-117092898D01*
X97981419Y-117152176D01*
X98045083Y-117222016D01*
X98124117Y-117294593D01*
X98330188Y-117481590D01*
X98494660Y-117639396D01*
X98621163Y-117772588D01*
X98713329Y-117885739D01*
X98774790Y-117983425D01*
X98809179Y-118070221D01*
X98820126Y-118150702D01*
X98819608Y-118170701D01*
X98785142Y-118307363D01*
X98704644Y-118424736D01*
X98662464Y-118461538D01*
X98636260Y-118484735D01*
X98647013Y-118491092D01*
X98701262Y-118480930D01*
X98760172Y-118466329D01*
X98908838Y-118414046D01*
X99006398Y-118345383D01*
X99053005Y-118258641D01*
X99048814Y-118152118D01*
X98993980Y-118024115D01*
X98888656Y-117872933D01*
X98821276Y-117792840D01*
X98593853Y-117498677D01*
X98420494Y-117193680D01*
X98339971Y-116999525D01*
X98302566Y-116889256D01*
X98284601Y-116812911D01*
X98283753Y-116752338D01*
X98297702Y-116689378D01*
X98299517Y-116683263D01*
X98345953Y-116567926D01*
X98411817Y-116452607D01*
X98485903Y-116353886D01*
X98556997Y-116288335D01*
X98572782Y-116279176D01*
X98619235Y-116253061D01*
X98627886Y-116227138D01*
X98600093Y-116182430D01*
X98581425Y-116158082D01*
X98524267Y-116073929D01*
X98510348Y-116025903D01*
X98539362Y-116014220D01*
X98611000Y-116039092D01*
X98691397Y-116081228D01*
X98860691Y-116155230D01*
X99028711Y-116179341D01*
X99211533Y-116155531D01*
X99239647Y-116148373D01*
X99339790Y-116135398D01*
X99406761Y-116154636D01*
X99433782Y-116201302D01*
X99414077Y-116270618D01*
X99413750Y-116271184D01*
X99368787Y-116306603D01*
X99289249Y-116338129D01*
X99196967Y-116359681D01*
X99113773Y-116365176D01*
X99088819Y-116361726D01*
X99035805Y-116356787D01*
X99015837Y-116364369D01*
X99027856Y-116394009D01*
X99071418Y-116451429D01*
X99136513Y-116526201D01*
X99213135Y-116607899D01*
X99291279Y-116686097D01*
X99360935Y-116750368D01*
X99412098Y-116790284D01*
X99432060Y-116798042D01*
X99466676Y-116764021D01*
X99507351Y-116685361D01*
X99549827Y-116572916D01*
X99589845Y-116437542D01*
X99614575Y-116332784D01*
X99638596Y-116229821D01*
X99657561Y-116168580D01*
X99669481Y-116152790D01*
X99672371Y-116186181D01*
X99669028Y-116230540D01*
X99674939Y-116249982D01*
X99701849Y-116218677D01*
X99750082Y-116136158D01*
X99799522Y-116042181D01*
X99876591Y-115895802D01*
X99957965Y-115748207D01*
X100038479Y-115608016D01*
X100112969Y-115483854D01*
X100176269Y-115384342D01*
X100223218Y-115318102D01*
X100247702Y-115293909D01*
X100267217Y-115313793D01*
X100278725Y-115378589D01*
X100281659Y-115477251D01*
X100275452Y-115598740D01*
X100267342Y-115676094D01*
X100245565Y-115850590D01*
X100369293Y-115685472D01*
X100431949Y-115604405D01*
X100482281Y-115543958D01*
X100510400Y-115515941D01*
X100511769Y-115515330D01*
X100534691Y-115529199D01*
X100531029Y-115587555D01*
X100502387Y-115685985D01*
X100450371Y-115820072D01*
X100376583Y-115985402D01*
X100282630Y-116177559D01*
X100243335Y-116254079D01*
X100096087Y-116537360D01*
X100176168Y-116769140D01*
X100227955Y-116906029D01*
X100294383Y-117063765D01*
X100363193Y-117213575D01*
X100380729Y-117249213D01*
X100509963Y-117526031D01*
X100617706Y-117795892D01*
X100701244Y-118050103D01*
X100757860Y-118279977D01*
X100784842Y-118476823D01*
X100786667Y-118548568D01*
X100785127Y-118636510D01*
X100847086Y-118534717D01*
X100909044Y-118432922D01*
X100910464Y-118512891D01*
X100916634Y-118575042D01*
X100931827Y-118581530D01*
X100955859Y-118532377D01*
X100965179Y-118505535D01*
X101003236Y-118434734D01*
X101050688Y-118417335D01*
X101103319Y-118454843D01*
X101104174Y-118455891D01*
X101129881Y-118481521D01*
X101147689Y-118472979D01*
X101165710Y-118421797D01*
X101176657Y-118380224D01*
X101190386Y-118292984D01*
X101187799Y-118189786D01*
X101168073Y-118054726D01*
X101156810Y-117996196D01*
X101102678Y-117775754D01*
X101032414Y-117592283D01*
X100936445Y-117426687D01*
X100805200Y-117259875D01*
X100765173Y-117215107D01*
X100608415Y-117034911D01*
X100492161Y-116881222D01*
X100411614Y-116746881D01*
X100361975Y-116624726D01*
X100356420Y-116605239D01*
X100338705Y-116508192D01*
X100349506Y-116425849D01*
X100381246Y-116347505D01*
X100444266Y-116217300D01*
X100502618Y-116102024D01*
X100551905Y-116009779D01*
X100587734Y-115948661D01*
X100605707Y-115926771D01*
X100606795Y-115931895D01*
X100599922Y-115984802D01*
X100589233Y-116066452D01*
X100585545Y-116094527D01*
X100569619Y-116215666D01*
X100663683Y-116041658D01*
X100754445Y-115903266D01*
X100878933Y-115767078D01*
X100965756Y-115688310D01*
X101061896Y-115606209D01*
X101126305Y-115555553D01*
X101169850Y-115530748D01*
X101203393Y-115526202D01*
X101237799Y-115536321D01*
X101250579Y-115541663D01*
X101307043Y-115565102D01*
X101402069Y-115603940D01*
X101521841Y-115652550D01*
X101638147Y-115699510D01*
X101852723Y-115792684D01*
X102017885Y-115880365D01*
X102139882Y-115966414D01*
X102224962Y-116054699D01*
X102235253Y-116068843D01*
X102291111Y-116148833D01*
X102503719Y-116091865D01*
X102617209Y-116065195D01*
X102693211Y-116055323D01*
X102723920Y-116063255D01*
X102723995Y-116063511D01*
X102723423Y-116120427D01*
X102706809Y-116206285D01*
X102679706Y-116297880D01*
X102652172Y-116363681D01*
X102627830Y-116416355D01*
X102636412Y-116439499D01*
X102681996Y-116452999D01*
X102762443Y-116499317D01*
X102840333Y-116597159D01*
X102913313Y-116741601D01*
X102979028Y-116927721D01*
X103035121Y-117150599D01*
X103048970Y-117219910D01*
X103071638Y-117358098D01*
X103076638Y-117446799D01*
X103062781Y-117490512D01*
X103028882Y-117493737D01*
X102983464Y-117468034D01*
X102935176Y-117454672D01*
X102851934Y-117462954D01*
X102746864Y-117487604D01*
X102645412Y-117516374D01*
X102582175Y-117542792D01*
X102540649Y-117578348D01*
X102504329Y-117634534D01*
X102485175Y-117669820D01*
X102437739Y-117770066D01*
X102399214Y-117871268D01*
X102388608Y-117907524D01*
X102362023Y-118014380D01*
X102451940Y-117865741D01*
X102558165Y-117726788D01*
X102684623Y-117634470D01*
X102806233Y-117588568D01*
X102881284Y-117581271D01*
X102957296Y-117607318D01*
X103009936Y-117639302D01*
X103078282Y-117679101D01*
X103164601Y-117721656D01*
X103254584Y-117760999D01*
X103333922Y-117791164D01*
X103388302Y-117806183D01*
X103404159Y-117803697D01*
X103397263Y-117774827D01*
X103376616Y-117698947D01*
X103344244Y-117583246D01*
X103302174Y-117434908D01*
X103252431Y-117261120D01*
X103198578Y-117074390D01*
X103127754Y-116832866D01*
X103069466Y-116641576D01*
X103022216Y-116496080D01*
X102984503Y-116391944D01*
X102954826Y-116324728D01*
X102934297Y-116292738D01*
X102881495Y-116202472D01*
X102885085Y-116113358D01*
X102945020Y-116025682D01*
X102982607Y-115992765D01*
X103058231Y-115919385D01*
X103087512Y-115851068D01*
X103088474Y-115832765D01*
X103077193Y-115755663D01*
X103050126Y-115661533D01*
X103014471Y-115569508D01*
X102977425Y-115498720D01*
X102952220Y-115470571D01*
X102938400Y-115478172D01*
X102948289Y-115532076D01*
X102977249Y-115620648D01*
X103009966Y-115722512D01*
X103020566Y-115789227D01*
X103010909Y-115836744D01*
X103004030Y-115850179D01*
X102961183Y-115894747D01*
X102921368Y-115889467D01*
X102901111Y-115852179D01*
X102883979Y-115820390D01*
X102852196Y-115830774D01*
X102819216Y-115859157D01*
X102755205Y-115881842D01*
X102643372Y-115874811D01*
X102483874Y-115838087D01*
X102322835Y-115787608D01*
X102174516Y-115732740D01*
X102019199Y-115667858D01*
X101871460Y-115599730D01*
X101745874Y-115535128D01*
X101657018Y-115480824D01*
X101647830Y-115474040D01*
X101587680Y-115432800D01*
X101497420Y-115376333D01*
X101396353Y-115316702D01*
X101394121Y-115315427D01*
X101269583Y-115252621D01*
X101180078Y-115227974D01*
X101119862Y-115240620D01*
X101092822Y-115269894D01*
X101063405Y-115301049D01*
X101008142Y-115347786D01*
X100941320Y-115399411D01*
X100877225Y-115445224D01*
X100830141Y-115474528D01*
X100814188Y-115478552D01*
X100821259Y-115447329D01*
X100842993Y-115380382D01*
X100863113Y-115323920D01*
X100915372Y-115181723D01*
X100829394Y-115086333D01*
X100669623Y-114891736D01*
X100522153Y-114679691D01*
X100401563Y-114471723D01*
X100370935Y-114409343D01*
X100307712Y-114280209D01*
X100249945Y-114174339D01*
X100202422Y-114099539D01*
X100169934Y-114063615D01*
X100159330Y-114064482D01*
X100165300Y-114096193D01*
X100189071Y-114168241D01*
X100226080Y-114269144D01*
X100271761Y-114387414D01*
X100321549Y-114511566D01*
X100370880Y-114630117D01*
X100415190Y-114731579D01*
X100449912Y-114804469D01*
X100462203Y-114826530D01*
X100496436Y-114911956D01*
X100483153Y-114974715D01*
X100424957Y-115008221D01*
X100388980Y-115011969D01*
X100343520Y-115004956D01*
X100309422Y-114973577D01*
X100274832Y-114904946D01*
X100262180Y-114874155D01*
X100219590Y-114760071D01*
X100178903Y-114638852D01*
X100166992Y-114599699D01*
X100128915Y-114480118D01*
X100101367Y-114414134D01*
X100085826Y-114399631D01*
X100083777Y-114434491D01*
X100096696Y-114516595D01*
X100126066Y-114643828D01*
X100128774Y-114654357D01*
X100210205Y-114969134D01*
X100069776Y-115064606D01*
X99980948Y-115132368D01*
X99935923Y-115183470D01*
X99936340Y-115214364D01*
X99983838Y-115221498D01*
X99998040Y-115219914D01*
X100022775Y-115218959D01*
X100036380Y-115228877D01*
X100037028Y-115256608D01*
X100022887Y-115309092D01*
X99992130Y-115393268D01*
X99942927Y-115516076D01*
X99879372Y-115670171D01*
X99810992Y-115834497D01*
X99760607Y-115952356D01*
X99724741Y-116029487D01*
X99699921Y-116071626D01*
X99682672Y-116084510D01*
X99669520Y-116073877D01*
X99656990Y-116045463D01*
X99655117Y-116040471D01*
X99639826Y-115974961D01*
X99651174Y-115909912D01*
X99693162Y-115823187D01*
X99694927Y-115820037D01*
X99735730Y-115726411D01*
X99742140Y-115658260D01*
X99715094Y-115623174D01*
X99670709Y-115623821D01*
X99630011Y-115619231D01*
X99621658Y-115607745D01*
X99636858Y-115577156D01*
X99651906Y-115570423D01*
X99695278Y-115538215D01*
X99710872Y-115513787D01*
X99713723Y-115480043D01*
X99692870Y-115429700D01*
X99643455Y-115353699D01*
X99577312Y-115264700D01*
X99452556Y-115097142D01*
X99361434Y-114962742D01*
X99299458Y-114853032D01*
X99262144Y-114759543D01*
X99245003Y-114673805D01*
X99242624Y-114632981D01*
X99248706Y-114523667D01*
X99266911Y-114398913D01*
X99279532Y-114340791D01*
X99299137Y-114222877D01*
X99304641Y-114099630D01*
X99300958Y-114045886D01*
X99289864Y-113936442D01*
X99283657Y-113828831D01*
X99283172Y-113798931D01*
X99283306Y-113690249D01*
X99405104Y-113681624D01*
X99493264Y-113669923D01*
X99611337Y-113647188D01*
X99735038Y-113618145D01*
X99745234Y-113615484D01*
X99912722Y-113558787D01*
X100053843Y-113479692D01*
X100181473Y-113368514D01*
X100308487Y-113215571D01*
X100345783Y-113163817D01*
X100414108Y-113064447D01*
X100448363Y-113008466D01*
X100448861Y-112994499D01*
X100415916Y-113021173D01*
X100367455Y-113069054D01*
X100261436Y-113163843D01*
X100132050Y-113259493D01*
X99990878Y-113349493D01*
X99849506Y-113427334D01*
X99719514Y-113486505D01*
X99612485Y-113520497D01*
X99555127Y-113525636D01*
X99533044Y-113508173D01*
X99551546Y-113468619D01*
X99602676Y-113413690D01*
X99678482Y-113350106D01*
X99771008Y-113284585D01*
X99872301Y-113223846D01*
X99967117Y-113177658D01*
X100104225Y-113112479D01*
X100220288Y-113038737D01*
X100323872Y-112947685D01*
X100352779Y-112913721D01*
X99624121Y-113108964D01*
X99614143Y-113126246D01*
X99596860Y-113116269D01*
X99606839Y-113098986D01*
X99624121Y-113108964D01*
X100352779Y-112913721D01*
X100423546Y-112830573D01*
X100453846Y-112786449D01*
X99776267Y-112968006D01*
X99778864Y-112979163D01*
X99747540Y-113016201D01*
X99745815Y-113017921D01*
X99694767Y-113062197D01*
X99660842Y-113082445D01*
X99658245Y-113071288D01*
X99689568Y-113034250D01*
X99691293Y-113032530D01*
X99742341Y-112988254D01*
X99776267Y-112968006D01*
X100453846Y-112786449D01*
X100527871Y-112678654D01*
X100643010Y-112487348D01*
X100729500Y-112331859D01*
X100813733Y-112170256D01*
X100887474Y-112019011D01*
X100942490Y-111894593D01*
X100953989Y-111865291D01*
X100996043Y-111749768D01*
X101014953Y-111684773D01*
X101009168Y-111668685D01*
X100977136Y-111699882D01*
X100917309Y-111776741D01*
X100896301Y-111804959D01*
X100810174Y-111914065D01*
X100694699Y-112050235D01*
X100560937Y-112201121D01*
X100419953Y-112354383D01*
X100282807Y-112497672D01*
X100210275Y-112570467D01*
X100105078Y-112673753D01*
X100035411Y-112740818D01*
X99996811Y-112775271D01*
X99984815Y-112780723D01*
X99994958Y-112760783D01*
X100018160Y-112725821D01*
X100082505Y-112629719D01*
X100157169Y-112515544D01*
X100236417Y-112392403D01*
X100314514Y-112269400D01*
X100385729Y-112155639D01*
X100444325Y-112060223D01*
X100484569Y-111992257D01*
X100500726Y-111960847D01*
X100500641Y-111959781D01*
X100480108Y-111977844D01*
X100433395Y-112031161D01*
X100368673Y-112110196D01*
X100330171Y-112158853D01*
X100257546Y-112249367D01*
X100196824Y-112320833D01*
X100156942Y-112362926D01*
X100147603Y-112369733D01*
X100138095Y-112371925D01*
X100133512Y-112367081D01*
X100135959Y-112347130D01*
X100147547Y-112304001D01*
X100170385Y-112229622D01*
X100206579Y-112115922D01*
X100246086Y-111992731D01*
X100286652Y-111864318D01*
X100319682Y-111756134D01*
X100343461Y-111674437D01*
X100356270Y-111625488D01*
X100356395Y-111615545D01*
X100342116Y-111650866D01*
X100332587Y-111677375D01*
X100298012Y-111754463D01*
X100239290Y-111864693D01*
X100164430Y-111994822D01*
X100081446Y-112131606D01*
X99998348Y-112261801D01*
X99923147Y-112372161D01*
X99869788Y-112442450D01*
X99761904Y-112571896D01*
X99812472Y-112428590D01*
X99843921Y-112329719D01*
X99873656Y-112219726D01*
X99898617Y-112112535D01*
X99915748Y-112022075D01*
X99921989Y-111962272D01*
X99918405Y-111946196D01*
X99902183Y-111965878D01*
X99874197Y-112025044D01*
X99847570Y-112092257D01*
X99780217Y-112249473D01*
X99688719Y-112429462D01*
X99583913Y-112613213D01*
X99476636Y-112781719D01*
X99378471Y-112915063D01*
X99237736Y-113069406D01*
X99089673Y-113201660D01*
X98947405Y-113300776D01*
X98878033Y-113336446D01*
X98776559Y-113380651D01*
X98881230Y-113311793D01*
X99062588Y-113165512D01*
X99233473Y-112971270D01*
X99395854Y-112726421D01*
X99551698Y-112428320D01*
X99573957Y-112380325D01*
X99652056Y-112208814D01*
X99707723Y-112083944D01*
X99742298Y-112001157D01*
X99757119Y-111955900D01*
X99753525Y-111943616D01*
X99732854Y-111959749D01*
X99696447Y-111999745D01*
X99680320Y-112018438D01*
X99561898Y-112147565D01*
X99464945Y-112234408D01*
X99392683Y-112276184D01*
X99378324Y-112279323D01*
X99337144Y-112299237D01*
X99265741Y-112348367D01*
X99175909Y-112418234D01*
X99119486Y-112465367D01*
X99028757Y-112541125D01*
X98954419Y-112599412D01*
X98906329Y-112632709D01*
X98893908Y-112637449D01*
X98876313Y-112597801D01*
X98883608Y-112525932D01*
X98912194Y-112438351D01*
X98955069Y-112356753D01*
X99034500Y-112261372D01*
X99154158Y-112162398D01*
X99254367Y-112094625D01*
X99377495Y-112014161D01*
X99456062Y-111958563D01*
X99489146Y-111928746D01*
X99475829Y-111925624D01*
X99415193Y-111950115D01*
X99385603Y-111963952D01*
X99193425Y-112066263D01*
X99050177Y-112168987D01*
X98948765Y-112279448D01*
X98882100Y-112404969D01*
X98849813Y-112517305D01*
X98825805Y-112616592D01*
X98804779Y-112676822D01*
X98789729Y-112693906D01*
X98783644Y-112663763D01*
X98787255Y-112602757D01*
X98787846Y-112540257D01*
X98777505Y-112508794D01*
X98765600Y-112518432D01*
X98767216Y-112527970D01*
X98760466Y-112583302D01*
X98727982Y-112657360D01*
X98682411Y-112727918D01*
X98636400Y-112772753D01*
X98625117Y-112777682D01*
X98567295Y-112781950D01*
X98478339Y-112777073D01*
X98419722Y-112770070D01*
X98302445Y-112740958D01*
X98217119Y-112686726D01*
X98154145Y-112597476D01*
X98103921Y-112463308D01*
X98096320Y-112436626D01*
X98062662Y-112329468D01*
X98035505Y-112277304D01*
X98013750Y-112279200D01*
X97996295Y-112334220D01*
X97993590Y-112349309D01*
X97989101Y-112435247D01*
X98010999Y-112515109D01*
X98065430Y-112602358D01*
X98158469Y-112710377D01*
X98236616Y-112797603D01*
X98274311Y-112849159D01*
X98272409Y-112867842D01*
X98231765Y-112856449D01*
X98198320Y-112840911D01*
X98151685Y-112819713D01*
X98147548Y-112828128D01*
X98167778Y-112856398D01*
X98207518Y-112919252D01*
X98239180Y-112980518D01*
X98258471Y-113029488D01*
X98248246Y-113052906D01*
X98197342Y-113063637D01*
X98163994Y-113067168D01*
X98019834Y-113058330D01*
X97883123Y-112998976D01*
X97800505Y-112937514D01*
X97757427Y-112896842D01*
X97726402Y-112852907D01*
X97701365Y-112791822D01*
X97676250Y-112699699D01*
X97653527Y-112601048D01*
X97595293Y-112340380D01*
X97569001Y-112492217D01*
X97569001Y-112492217D01*
G37*
X97569001Y-112492217D02*
X97559174Y-112678656D01*
X97596941Y-112840660D01*
X97680716Y-112973949D01*
X97777905Y-113055823D01*
X97831782Y-113093596D01*
X97841171Y-113108071D01*
X97812033Y-113101259D01*
X97750333Y-113075169D01*
X97662035Y-113031812D01*
X97584745Y-112990709D01*
X97360767Y-112868112D01*
X97449532Y-112967339D01*
X97504703Y-113034168D01*
X97541378Y-113088195D01*
X97548117Y-113103217D01*
X97583480Y-113146357D01*
X97671451Y-113208861D01*
X97811699Y-113290518D01*
X98002523Y-113390426D01*
X98102246Y-113445103D01*
X98170175Y-113490627D01*
X98202823Y-113522532D01*
X98196710Y-113536353D01*
X98148355Y-113527624D01*
X98094630Y-113508536D01*
X98034289Y-113490569D01*
X98005021Y-113493414D01*
X98004572Y-113498220D01*
X97995720Y-113530353D01*
X97950866Y-113532434D01*
X97880856Y-113505894D01*
X97828425Y-113474934D01*
X97713281Y-113384012D01*
X97583811Y-113258910D01*
X97453999Y-113114281D01*
X97337829Y-112964774D01*
X97327472Y-112950078D01*
X97267699Y-112868995D01*
X97233636Y-112834768D01*
X97222973Y-112845254D01*
X97223594Y-112853834D01*
X97250707Y-112936141D01*
X97311743Y-113046626D01*
X97399778Y-113174516D01*
X97507883Y-113309037D01*
X97539135Y-113344564D01*
X97609413Y-113424716D01*
X97662962Y-113489185D01*
X97690099Y-113526227D01*
X97691535Y-113529416D01*
X97676722Y-113560987D01*
X97632989Y-113609214D01*
X97627961Y-113613866D01*
X97540994Y-113668487D01*
X97420495Y-113712456D01*
X97282276Y-113743452D01*
X97142146Y-113759158D01*
X97015915Y-113757257D01*
X96919393Y-113735426D01*
X96893924Y-113721517D01*
X96843800Y-113699292D01*
X96823066Y-113698807D01*
X96817526Y-113715055D01*
X96852065Y-113742903D01*
X96913560Y-113775080D01*
X96988892Y-113804315D01*
X97038425Y-113818150D01*
X97098300Y-113835612D01*
X97119048Y-113849827D01*
X97114195Y-113853251D01*
X97088491Y-113884824D01*
X97063176Y-113952141D01*
X97055305Y-113984003D01*
X97024186Y-114081441D01*
X96979792Y-114169595D01*
X96969599Y-114184309D01*
X96909584Y-114264051D01*
X97055726Y-114209729D01*
X97158297Y-114160461D01*
X97272099Y-114082380D01*
X97407982Y-113967920D01*
X97426558Y-113951135D01*
X97527584Y-113860388D01*
X97599848Y-113800714D01*
X97655929Y-113764756D01*
X97708407Y-113745160D01*
X97769863Y-113734569D01*
X97803339Y-113730830D01*
X97914234Y-113724357D01*
X97983199Y-113734212D01*
X98009314Y-113762701D01*
X97991664Y-113812134D01*
X97929331Y-113884817D01*
X97821397Y-113983059D01*
X97666947Y-114109167D01*
X97646645Y-114125180D01*
X97523982Y-114220939D01*
X97432626Y-114288543D01*
X97359723Y-114334986D01*
X97292416Y-114367265D01*
X97217849Y-114392372D01*
X97123163Y-114417302D01*
X97098384Y-114423451D01*
X97008088Y-114442466D01*
X96907046Y-114458631D01*
X96805022Y-114471232D01*
X96711775Y-114479554D01*
X96637066Y-114482887D01*
X96590654Y-114480514D01*
X96582304Y-114471724D01*
X96611222Y-114459058D01*
X96627857Y-114444601D01*
X96594864Y-114425910D01*
X96523613Y-114404704D01*
X96424176Y-114374583D01*
X96335119Y-114340878D01*
X96305549Y-114326912D01*
X96250491Y-114302919D01*
X96234125Y-114307176D01*
X96251236Y-114332460D01*
X96296610Y-114371547D01*
X96365037Y-114417212D01*
X96374877Y-114422980D01*
X96438765Y-114461631D01*
X96469269Y-114483804D01*
X96464753Y-114485800D01*
X96433996Y-114485767D01*
X96440516Y-114511410D01*
X96476478Y-114554486D01*
X96534046Y-114606751D01*
X96605384Y-114659960D01*
X96665060Y-114696546D01*
X96826930Y-114759824D01*
X96991399Y-114777825D01*
X97145559Y-114750611D01*
X97256536Y-114693658D01*
X97309608Y-114660623D01*
X97327254Y-114661044D01*
X97313531Y-114688034D01*
X97272493Y-114734711D01*
X97208199Y-114794189D01*
X97186825Y-114812001D01*
X97042359Y-114909829D01*
X96856643Y-115004127D01*
X96787007Y-115033808D01*
X96531955Y-115137675D01*
X96637041Y-115151681D01*
X96796525Y-115146218D01*
X96978545Y-115091320D01*
X97180635Y-114988160D01*
X97400333Y-114837911D01*
X97549029Y-114717592D01*
X97629614Y-114650002D01*
X97691946Y-114600203D01*
X97725335Y-114576653D01*
X97728028Y-114575907D01*
X97728598Y-114603738D01*
X97721238Y-114669625D01*
X97714214Y-114717096D01*
X97669388Y-114877340D01*
X97592789Y-115028950D01*
X97496964Y-115147677D01*
X97404563Y-115206063D01*
X97274383Y-115252317D01*
X97124541Y-115282139D01*
X96973156Y-115291230D01*
X96908609Y-115287332D01*
X96818100Y-115280215D01*
X96781252Y-115283139D01*
X96796419Y-115294858D01*
X96861958Y-115314125D01*
X96976224Y-115339698D01*
X96978249Y-115340112D01*
X97096744Y-115355761D01*
X97217372Y-115358418D01*
X97279712Y-115352651D01*
X97362720Y-115330644D01*
X97438372Y-115290161D01*
X97512048Y-115225033D01*
X97589131Y-115129091D01*
X97675000Y-114996162D01*
X97775038Y-114820082D01*
X97824632Y-114727904D01*
X97915654Y-114560730D01*
X97989889Y-114434995D01*
X98054073Y-114340828D01*
X98114940Y-114268356D01*
X98179225Y-114207710D01*
X98179913Y-114207125D01*
X98277812Y-114131553D01*
X98361477Y-114080994D01*
X98421952Y-114059868D01*
X98450279Y-114072596D01*
X98450533Y-114073523D01*
X98438437Y-114105370D01*
X98401774Y-114170286D01*
X98348133Y-114254953D01*
X98341140Y-114265472D01*
X98280045Y-114367113D01*
X98235357Y-114470457D01*
X98200012Y-114594871D01*
X98173010Y-114726400D01*
X98144466Y-114867320D01*
X98116821Y-114966681D01*
X98084547Y-115038999D01*
X98042117Y-115098792D01*
X98023034Y-115120326D01*
X97941225Y-115201415D01*
X97830949Y-115300798D01*
X97709431Y-115403625D01*
X97593894Y-115495047D01*
X97555270Y-115523615D01*
X97517750Y-115549175D01*
X97508759Y-115545690D01*
X97527796Y-115505248D01*
X97551376Y-115461939D01*
X97609875Y-115355287D01*
X97469048Y-115481812D01*
X97367128Y-115563763D01*
X97252785Y-115641706D01*
X97180282Y-115683220D01*
X97088023Y-115733720D01*
X97044564Y-115768229D01*
X97051302Y-115787702D01*
X97109638Y-115793093D01*
X97220969Y-115785358D01*
X97314373Y-115774743D01*
X97448725Y-115765745D01*
X97550102Y-115779441D01*
X97638333Y-115818577D01*
X97640569Y-115819922D01*
X97694098Y-115867008D01*
X97713982Y-115930240D01*
X97701320Y-116020884D01*
X97669672Y-116117561D01*
X97637920Y-116205731D01*
X97626618Y-116254738D01*
X97636312Y-116278234D01*
X97667552Y-116289876D01*
X97676685Y-116292043D01*
X97770410Y-116337654D01*
X97837315Y-116415211D01*
X97867875Y-116508696D01*
X97856173Y-116593838D01*
X97835580Y-116659265D01*
X97846997Y-116680969D01*
X97888883Y-116664863D01*
X97936312Y-116654854D01*
X97952585Y-116672443D01*
X97980556Y-116828529D01*
X97963516Y-116952161D01*
X97946952Y-117030716D01*
X97950814Y-117092898D01*
X97981419Y-117152176D01*
X98045083Y-117222016D01*
X98124117Y-117294593D01*
X98330188Y-117481590D01*
X98494660Y-117639396D01*
X98621163Y-117772588D01*
X98713329Y-117885739D01*
X98774790Y-117983425D01*
X98809179Y-118070221D01*
X98820126Y-118150702D01*
X98819608Y-118170701D01*
X98785142Y-118307363D01*
X98704644Y-118424736D01*
X98662464Y-118461538D01*
X98636260Y-118484735D01*
X98647013Y-118491092D01*
X98701262Y-118480930D01*
X98760172Y-118466329D01*
X98908838Y-118414046D01*
X99006398Y-118345383D01*
X99053005Y-118258641D01*
X99048814Y-118152118D01*
X98993980Y-118024115D01*
X98888656Y-117872933D01*
X98821276Y-117792840D01*
X98593853Y-117498677D01*
X98420494Y-117193680D01*
X98339971Y-116999525D01*
X98302566Y-116889256D01*
X98284601Y-116812911D01*
X98283753Y-116752338D01*
X98297702Y-116689378D01*
X98299517Y-116683263D01*
X98345953Y-116567926D01*
X98411817Y-116452607D01*
X98485903Y-116353886D01*
X98556997Y-116288335D01*
X98572782Y-116279176D01*
X98619235Y-116253061D01*
X98627886Y-116227138D01*
X98600093Y-116182430D01*
X98581425Y-116158082D01*
X98524267Y-116073929D01*
X98510348Y-116025903D01*
X98539362Y-116014220D01*
X98611000Y-116039092D01*
X98691397Y-116081228D01*
X98860691Y-116155230D01*
X99028711Y-116179341D01*
X99211533Y-116155531D01*
X99239647Y-116148373D01*
X99339790Y-116135398D01*
X99406761Y-116154636D01*
X99433782Y-116201302D01*
X99414077Y-116270618D01*
X99413750Y-116271184D01*
X99368787Y-116306603D01*
X99289249Y-116338129D01*
X99196967Y-116359681D01*
X99113773Y-116365176D01*
X99088819Y-116361726D01*
X99035805Y-116356787D01*
X99015837Y-116364369D01*
X99027856Y-116394009D01*
X99071418Y-116451429D01*
X99136513Y-116526201D01*
X99213135Y-116607899D01*
X99291279Y-116686097D01*
X99360935Y-116750368D01*
X99412098Y-116790284D01*
X99432060Y-116798042D01*
X99466676Y-116764021D01*
X99507351Y-116685361D01*
X99549827Y-116572916D01*
X99589845Y-116437542D01*
X99614575Y-116332784D01*
X99638596Y-116229821D01*
X99657561Y-116168580D01*
X99669481Y-116152790D01*
X99672371Y-116186181D01*
X99669028Y-116230540D01*
X99674939Y-116249982D01*
X99701849Y-116218677D01*
X99750082Y-116136158D01*
X99799522Y-116042181D01*
X99876591Y-115895802D01*
X99957965Y-115748207D01*
X100038479Y-115608016D01*
X100112969Y-115483854D01*
X100176269Y-115384342D01*
X100223218Y-115318102D01*
X100247702Y-115293909D01*
X100267217Y-115313793D01*
X100278725Y-115378589D01*
X100281659Y-115477251D01*
X100275452Y-115598740D01*
X100267342Y-115676094D01*
X100245565Y-115850590D01*
X100369293Y-115685472D01*
X100431949Y-115604405D01*
X100482281Y-115543958D01*
X100510400Y-115515941D01*
X100511769Y-115515330D01*
X100534691Y-115529199D01*
X100531029Y-115587555D01*
X100502387Y-115685985D01*
X100450371Y-115820072D01*
X100376583Y-115985402D01*
X100282630Y-116177559D01*
X100243335Y-116254079D01*
X100096087Y-116537360D01*
X100176168Y-116769140D01*
X100227955Y-116906029D01*
X100294383Y-117063765D01*
X100363193Y-117213575D01*
X100380729Y-117249213D01*
X100509963Y-117526031D01*
X100617706Y-117795892D01*
X100701244Y-118050103D01*
X100757860Y-118279977D01*
X100784842Y-118476823D01*
X100786667Y-118548568D01*
X100785127Y-118636510D01*
X100847086Y-118534717D01*
X100909044Y-118432922D01*
X100910464Y-118512891D01*
X100916634Y-118575042D01*
X100931827Y-118581530D01*
X100955859Y-118532377D01*
X100965179Y-118505535D01*
X101003236Y-118434734D01*
X101050688Y-118417335D01*
X101103319Y-118454843D01*
X101104174Y-118455891D01*
X101129881Y-118481521D01*
X101147689Y-118472979D01*
X101165710Y-118421797D01*
X101176657Y-118380224D01*
X101190386Y-118292984D01*
X101187799Y-118189786D01*
X101168073Y-118054726D01*
X101156810Y-117996196D01*
X101102678Y-117775754D01*
X101032414Y-117592283D01*
X100936445Y-117426687D01*
X100805200Y-117259875D01*
X100765173Y-117215107D01*
X100608415Y-117034911D01*
X100492161Y-116881222D01*
X100411614Y-116746881D01*
X100361975Y-116624726D01*
X100356420Y-116605239D01*
X100338705Y-116508192D01*
X100349506Y-116425849D01*
X100381246Y-116347505D01*
X100444266Y-116217300D01*
X100502618Y-116102024D01*
X100551905Y-116009779D01*
X100587734Y-115948661D01*
X100605707Y-115926771D01*
X100606795Y-115931895D01*
X100599922Y-115984802D01*
X100589233Y-116066452D01*
X100585545Y-116094527D01*
X100569619Y-116215666D01*
X100663683Y-116041658D01*
X100754445Y-115903266D01*
X100878933Y-115767078D01*
X100965756Y-115688310D01*
X101061896Y-115606209D01*
X101126305Y-115555553D01*
X101169850Y-115530748D01*
X101203393Y-115526202D01*
X101237799Y-115536321D01*
X101250579Y-115541663D01*
X101307043Y-115565102D01*
X101402069Y-115603940D01*
X101521841Y-115652550D01*
X101638147Y-115699510D01*
X101852723Y-115792684D01*
X102017885Y-115880365D01*
X102139882Y-115966414D01*
X102224962Y-116054699D01*
X102235253Y-116068843D01*
X102291111Y-116148833D01*
X102503719Y-116091865D01*
X102617209Y-116065195D01*
X102693211Y-116055323D01*
X102723920Y-116063255D01*
X102723995Y-116063511D01*
X102723423Y-116120427D01*
X102706809Y-116206285D01*
X102679706Y-116297880D01*
X102652172Y-116363681D01*
X102627830Y-116416355D01*
X102636412Y-116439499D01*
X102681996Y-116452999D01*
X102762443Y-116499317D01*
X102840333Y-116597159D01*
X102913313Y-116741601D01*
X102979028Y-116927721D01*
X103035121Y-117150599D01*
X103048970Y-117219910D01*
X103071638Y-117358098D01*
X103076638Y-117446799D01*
X103062781Y-117490512D01*
X103028882Y-117493737D01*
X102983464Y-117468034D01*
X102935176Y-117454672D01*
X102851934Y-117462954D01*
X102746864Y-117487604D01*
X102645412Y-117516374D01*
X102582175Y-117542792D01*
X102540649Y-117578348D01*
X102504329Y-117634534D01*
X102485175Y-117669820D01*
X102437739Y-117770066D01*
X102399214Y-117871268D01*
X102388608Y-117907524D01*
X102362023Y-118014380D01*
X102451940Y-117865741D01*
X102558165Y-117726788D01*
X102684623Y-117634470D01*
X102806233Y-117588568D01*
X102881284Y-117581271D01*
X102957296Y-117607318D01*
X103009936Y-117639302D01*
X103078282Y-117679101D01*
X103164601Y-117721656D01*
X103254584Y-117760999D01*
X103333922Y-117791164D01*
X103388302Y-117806183D01*
X103404159Y-117803697D01*
X103397263Y-117774827D01*
X103376616Y-117698947D01*
X103344244Y-117583246D01*
X103302174Y-117434908D01*
X103252431Y-117261120D01*
X103198578Y-117074390D01*
X103127754Y-116832866D01*
X103069466Y-116641576D01*
X103022216Y-116496080D01*
X102984503Y-116391944D01*
X102954826Y-116324728D01*
X102934297Y-116292738D01*
X102881495Y-116202472D01*
X102885085Y-116113358D01*
X102945020Y-116025682D01*
X102982607Y-115992765D01*
X103058231Y-115919385D01*
X103087512Y-115851068D01*
X103088474Y-115832765D01*
X103077193Y-115755663D01*
X103050126Y-115661533D01*
X103014471Y-115569508D01*
X102977425Y-115498720D01*
X102952220Y-115470571D01*
X102938400Y-115478172D01*
X102948289Y-115532076D01*
X102977249Y-115620648D01*
X103009966Y-115722512D01*
X103020566Y-115789227D01*
X103010909Y-115836744D01*
X103004030Y-115850179D01*
X102961183Y-115894747D01*
X102921368Y-115889467D01*
X102901111Y-115852179D01*
X102883979Y-115820390D01*
X102852196Y-115830774D01*
X102819216Y-115859157D01*
X102755205Y-115881842D01*
X102643372Y-115874811D01*
X102483874Y-115838087D01*
X102322835Y-115787608D01*
X102174516Y-115732740D01*
X102019199Y-115667858D01*
X101871460Y-115599730D01*
X101745874Y-115535128D01*
X101657018Y-115480824D01*
X101647830Y-115474040D01*
X101587680Y-115432800D01*
X101497420Y-115376333D01*
X101396353Y-115316702D01*
X101394121Y-115315427D01*
X101269583Y-115252621D01*
X101180078Y-115227974D01*
X101119862Y-115240620D01*
X101092822Y-115269894D01*
X101063405Y-115301049D01*
X101008142Y-115347786D01*
X100941320Y-115399411D01*
X100877225Y-115445224D01*
X100830141Y-115474528D01*
X100814188Y-115478552D01*
X100821259Y-115447329D01*
X100842993Y-115380382D01*
X100863113Y-115323920D01*
X100915372Y-115181723D01*
X100829394Y-115086333D01*
X100669623Y-114891736D01*
X100522153Y-114679691D01*
X100401563Y-114471723D01*
X100370935Y-114409343D01*
X100307712Y-114280209D01*
X100249945Y-114174339D01*
X100202422Y-114099539D01*
X100169934Y-114063615D01*
X100159330Y-114064482D01*
X100165300Y-114096193D01*
X100189071Y-114168241D01*
X100226080Y-114269144D01*
X100271761Y-114387414D01*
X100321549Y-114511566D01*
X100370880Y-114630117D01*
X100415190Y-114731579D01*
X100449912Y-114804469D01*
X100462203Y-114826530D01*
X100496436Y-114911956D01*
X100483153Y-114974715D01*
X100424957Y-115008221D01*
X100388980Y-115011969D01*
X100343520Y-115004956D01*
X100309422Y-114973577D01*
X100274832Y-114904946D01*
X100262180Y-114874155D01*
X100219590Y-114760071D01*
X100178903Y-114638852D01*
X100166992Y-114599699D01*
X100128915Y-114480118D01*
X100101367Y-114414134D01*
X100085826Y-114399631D01*
X100083777Y-114434491D01*
X100096696Y-114516595D01*
X100126066Y-114643828D01*
X100128774Y-114654357D01*
X100210205Y-114969134D01*
X100069776Y-115064606D01*
X99980948Y-115132368D01*
X99935923Y-115183470D01*
X99936340Y-115214364D01*
X99983838Y-115221498D01*
X99998040Y-115219914D01*
X100022775Y-115218959D01*
X100036380Y-115228877D01*
X100037028Y-115256608D01*
X100022887Y-115309092D01*
X99992130Y-115393268D01*
X99942927Y-115516076D01*
X99879372Y-115670171D01*
X99810992Y-115834497D01*
X99760607Y-115952356D01*
X99724741Y-116029487D01*
X99699921Y-116071626D01*
X99682672Y-116084510D01*
X99669520Y-116073877D01*
X99656990Y-116045463D01*
X99655117Y-116040471D01*
X99639826Y-115974961D01*
X99651174Y-115909912D01*
X99693162Y-115823187D01*
X99694927Y-115820037D01*
X99735730Y-115726411D01*
X99742140Y-115658260D01*
X99715094Y-115623174D01*
X99670709Y-115623821D01*
X99630011Y-115619231D01*
X99621658Y-115607745D01*
X99636858Y-115577156D01*
X99651906Y-115570423D01*
X99695278Y-115538215D01*
X99710872Y-115513787D01*
X99713723Y-115480043D01*
X99692870Y-115429700D01*
X99643455Y-115353699D01*
X99577312Y-115264700D01*
X99452556Y-115097142D01*
X99361434Y-114962742D01*
X99299458Y-114853032D01*
X99262144Y-114759543D01*
X99245003Y-114673805D01*
X99242624Y-114632981D01*
X99248706Y-114523667D01*
X99266911Y-114398913D01*
X99279532Y-114340791D01*
X99299137Y-114222877D01*
X99304641Y-114099630D01*
X99300958Y-114045886D01*
X99289864Y-113936442D01*
X99283657Y-113828831D01*
X99283172Y-113798931D01*
X99283306Y-113690249D01*
X99405104Y-113681624D01*
X99493264Y-113669923D01*
X99611337Y-113647188D01*
X99735038Y-113618145D01*
X99745234Y-113615484D01*
X99912722Y-113558787D01*
X100053843Y-113479692D01*
X100181473Y-113368514D01*
X100308487Y-113215571D01*
X100345783Y-113163817D01*
X100414108Y-113064447D01*
X100448363Y-113008466D01*
X100448861Y-112994499D01*
X100415916Y-113021173D01*
X100367455Y-113069054D01*
X100261436Y-113163843D01*
X100132050Y-113259493D01*
X99990878Y-113349493D01*
X99849506Y-113427334D01*
X99719514Y-113486505D01*
X99612485Y-113520497D01*
X99555127Y-113525636D01*
X99533044Y-113508173D01*
X99551546Y-113468619D01*
X99602676Y-113413690D01*
X99678482Y-113350106D01*
X99771008Y-113284585D01*
X99872301Y-113223846D01*
X99967117Y-113177658D01*
X100104225Y-113112479D01*
X100220288Y-113038737D01*
X100323872Y-112947685D01*
X100352779Y-112913721D01*
X99624121Y-113108964D01*
X99614143Y-113126246D01*
X99596860Y-113116269D01*
X99606839Y-113098986D01*
X99624121Y-113108964D01*
X100352779Y-112913721D01*
X100423546Y-112830573D01*
X100453846Y-112786449D01*
X99776267Y-112968006D01*
X99778864Y-112979163D01*
X99747540Y-113016201D01*
X99745815Y-113017921D01*
X99694767Y-113062197D01*
X99660842Y-113082445D01*
X99658245Y-113071288D01*
X99689568Y-113034250D01*
X99691293Y-113032530D01*
X99742341Y-112988254D01*
X99776267Y-112968006D01*
X100453846Y-112786449D01*
X100527871Y-112678654D01*
X100643010Y-112487348D01*
X100729500Y-112331859D01*
X100813733Y-112170256D01*
X100887474Y-112019011D01*
X100942490Y-111894593D01*
X100953989Y-111865291D01*
X100996043Y-111749768D01*
X101014953Y-111684773D01*
X101009168Y-111668685D01*
X100977136Y-111699882D01*
X100917309Y-111776741D01*
X100896301Y-111804959D01*
X100810174Y-111914065D01*
X100694699Y-112050235D01*
X100560937Y-112201121D01*
X100419953Y-112354383D01*
X100282807Y-112497672D01*
X100210275Y-112570467D01*
X100105078Y-112673753D01*
X100035411Y-112740818D01*
X99996811Y-112775271D01*
X99984815Y-112780723D01*
X99994958Y-112760783D01*
X100018160Y-112725821D01*
X100082505Y-112629719D01*
X100157169Y-112515544D01*
X100236417Y-112392403D01*
X100314514Y-112269400D01*
X100385729Y-112155639D01*
X100444325Y-112060223D01*
X100484569Y-111992257D01*
X100500726Y-111960847D01*
X100500641Y-111959781D01*
X100480108Y-111977844D01*
X100433395Y-112031161D01*
X100368673Y-112110196D01*
X100330171Y-112158853D01*
X100257546Y-112249367D01*
X100196824Y-112320833D01*
X100156942Y-112362926D01*
X100147603Y-112369733D01*
X100138095Y-112371925D01*
X100133512Y-112367081D01*
X100135959Y-112347130D01*
X100147547Y-112304001D01*
X100170385Y-112229622D01*
X100206579Y-112115922D01*
X100246086Y-111992731D01*
X100286652Y-111864318D01*
X100319682Y-111756134D01*
X100343461Y-111674437D01*
X100356270Y-111625488D01*
X100356395Y-111615545D01*
X100342116Y-111650866D01*
X100332587Y-111677375D01*
X100298012Y-111754463D01*
X100239290Y-111864693D01*
X100164430Y-111994822D01*
X100081446Y-112131606D01*
X99998348Y-112261801D01*
X99923147Y-112372161D01*
X99869788Y-112442450D01*
X99761904Y-112571896D01*
X99812472Y-112428590D01*
X99843921Y-112329719D01*
X99873656Y-112219726D01*
X99898617Y-112112535D01*
X99915748Y-112022075D01*
X99921989Y-111962272D01*
X99918405Y-111946196D01*
X99902183Y-111965878D01*
X99874197Y-112025044D01*
X99847570Y-112092257D01*
X99780217Y-112249473D01*
X99688719Y-112429462D01*
X99583913Y-112613213D01*
X99476636Y-112781719D01*
X99378471Y-112915063D01*
X99237736Y-113069406D01*
X99089673Y-113201660D01*
X98947405Y-113300776D01*
X98878033Y-113336446D01*
X98776559Y-113380651D01*
X98881230Y-113311793D01*
X99062588Y-113165512D01*
X99233473Y-112971270D01*
X99395854Y-112726421D01*
X99551698Y-112428320D01*
X99573957Y-112380325D01*
X99652056Y-112208814D01*
X99707723Y-112083944D01*
X99742298Y-112001157D01*
X99757119Y-111955900D01*
X99753525Y-111943616D01*
X99732854Y-111959749D01*
X99696447Y-111999745D01*
X99680320Y-112018438D01*
X99561898Y-112147565D01*
X99464945Y-112234408D01*
X99392683Y-112276184D01*
X99378324Y-112279323D01*
X99337144Y-112299237D01*
X99265741Y-112348367D01*
X99175909Y-112418234D01*
X99119486Y-112465367D01*
X99028757Y-112541125D01*
X98954419Y-112599412D01*
X98906329Y-112632709D01*
X98893908Y-112637449D01*
X98876313Y-112597801D01*
X98883608Y-112525932D01*
X98912194Y-112438351D01*
X98955069Y-112356753D01*
X99034500Y-112261372D01*
X99154158Y-112162398D01*
X99254367Y-112094625D01*
X99377495Y-112014161D01*
X99456062Y-111958563D01*
X99489146Y-111928746D01*
X99475829Y-111925624D01*
X99415193Y-111950115D01*
X99385603Y-111963952D01*
X99193425Y-112066263D01*
X99050177Y-112168987D01*
X98948765Y-112279448D01*
X98882100Y-112404969D01*
X98849813Y-112517305D01*
X98825805Y-112616592D01*
X98804779Y-112676822D01*
X98789729Y-112693906D01*
X98783644Y-112663763D01*
X98787255Y-112602757D01*
X98787846Y-112540257D01*
X98777505Y-112508794D01*
X98765600Y-112518432D01*
X98767216Y-112527970D01*
X98760466Y-112583302D01*
X98727982Y-112657360D01*
X98682411Y-112727918D01*
X98636400Y-112772753D01*
X98625117Y-112777682D01*
X98567295Y-112781950D01*
X98478339Y-112777073D01*
X98419722Y-112770070D01*
X98302445Y-112740958D01*
X98217119Y-112686726D01*
X98154145Y-112597476D01*
X98103921Y-112463308D01*
X98096320Y-112436626D01*
X98062662Y-112329468D01*
X98035505Y-112277304D01*
X98013750Y-112279200D01*
X97996295Y-112334220D01*
X97993590Y-112349309D01*
X97989101Y-112435247D01*
X98010999Y-112515109D01*
X98065430Y-112602358D01*
X98158469Y-112710377D01*
X98236616Y-112797603D01*
X98274311Y-112849159D01*
X98272409Y-112867842D01*
X98231765Y-112856449D01*
X98198320Y-112840911D01*
X98151685Y-112819713D01*
X98147548Y-112828128D01*
X98167778Y-112856398D01*
X98207518Y-112919252D01*
X98239180Y-112980518D01*
X98258471Y-113029488D01*
X98248246Y-113052906D01*
X98197342Y-113063637D01*
X98163994Y-113067168D01*
X98019834Y-113058330D01*
X97883123Y-112998976D01*
X97800505Y-112937514D01*
X97757427Y-112896842D01*
X97726402Y-112852907D01*
X97701365Y-112791822D01*
X97676250Y-112699699D01*
X97653527Y-112601048D01*
X97595293Y-112340380D01*
X97569001Y-112492217D01*
G36*
X100225738Y-117929717D02*
X100123971Y-117962389D01*
X100024669Y-118001596D01*
X100022325Y-118002654D01*
X99964530Y-118031669D01*
X99940377Y-118061763D01*
X99943128Y-118112031D01*
X99960052Y-118179158D01*
X99978670Y-118245110D01*
X99999546Y-118285293D01*
X100034734Y-118304014D01*
X100096291Y-118305580D01*
X100196275Y-118294298D01*
X100258923Y-118285921D01*
X100338997Y-118273529D01*
X100375570Y-118257749D01*
X100381148Y-118228179D01*
X100372676Y-118191296D01*
X100355899Y-118109298D01*
X100342593Y-118014181D01*
X100341946Y-118007825D01*
X100331452Y-117901069D01*
X100225738Y-117929717D01*
X100225738Y-117929717D01*
G37*
X100225738Y-117929717D02*
X100123971Y-117962389D01*
X100024669Y-118001596D01*
X100022325Y-118002654D01*
X99964530Y-118031669D01*
X99940377Y-118061763D01*
X99943128Y-118112031D01*
X99960052Y-118179158D01*
X99978670Y-118245110D01*
X99999546Y-118285293D01*
X100034734Y-118304014D01*
X100096291Y-118305580D01*
X100196275Y-118294298D01*
X100258923Y-118285921D01*
X100338997Y-118273529D01*
X100375570Y-118257749D01*
X100381148Y-118228179D01*
X100372676Y-118191296D01*
X100355899Y-118109298D01*
X100342593Y-118014181D01*
X100341946Y-118007825D01*
X100331452Y-117901069D01*
X100225738Y-117929717D01*
G36*
X103748313Y-115663471D02*
X103745739Y-115668397D01*
X103686165Y-115738663D01*
X103592179Y-115802406D01*
X103481755Y-115851900D01*
X103372864Y-115879422D01*
X103283479Y-115877247D01*
X103270144Y-115872822D01*
X103186062Y-115851442D01*
X103139999Y-115871734D01*
X103131137Y-115934414D01*
X103141307Y-115985303D01*
X103156658Y-116055711D01*
X103150931Y-116081621D01*
X103130507Y-116075850D01*
X103073158Y-116060000D01*
X103051643Y-116061921D01*
X103031216Y-116074740D01*
X103058510Y-116097428D01*
X103065188Y-116101343D01*
X103144146Y-116157570D01*
X103215667Y-116233890D01*
X103283589Y-116337172D01*
X103351747Y-116474289D01*
X103423979Y-116652111D01*
X103504122Y-116877511D01*
X103512604Y-116902593D01*
X103553236Y-117023186D01*
X103534527Y-116903225D01*
X103515817Y-116783265D01*
X103640689Y-116840384D01*
X103710685Y-116868312D01*
X103752703Y-116877073D01*
X103758619Y-116871597D01*
X103729937Y-116839622D01*
X103699495Y-116821699D01*
X103649719Y-116787991D01*
X103590842Y-116735085D01*
X103542459Y-116681941D01*
X103524600Y-116652479D01*
X103543899Y-116633785D01*
X103569654Y-116624347D01*
X103620317Y-116593733D01*
X103656774Y-116545622D01*
X103662407Y-116512529D01*
X103636354Y-116511449D01*
X103576329Y-116527797D01*
X103551941Y-116536432D01*
X103479031Y-116557883D01*
X103443087Y-116551069D01*
X103434874Y-116535702D01*
X103415061Y-116482408D01*
X103384199Y-116414732D01*
X103361832Y-116356005D01*
X103373413Y-116328225D01*
X103388633Y-116322237D01*
X103431692Y-116335462D01*
X103450273Y-116371461D01*
X103467615Y-116432554D01*
X103502349Y-116357507D01*
X103532153Y-116302384D01*
X103553158Y-116278153D01*
X103572302Y-116297875D01*
X103586635Y-116334923D01*
X103604036Y-116396000D01*
X103621782Y-116329790D01*
X103651286Y-116279099D01*
X103683469Y-116264008D01*
X103692448Y-116254342D01*
X103657148Y-116230064D01*
X103647976Y-116225407D01*
X103575747Y-116201482D01*
X103518649Y-116199747D01*
X103464180Y-116200151D01*
X103444604Y-116190370D01*
X103450307Y-116168319D01*
X103501716Y-116145886D01*
X103506536Y-116144556D01*
X103594136Y-116141319D01*
X103690219Y-116182415D01*
X103696581Y-116186328D01*
X103800542Y-116251165D01*
X103762736Y-116183210D01*
X103742362Y-116127408D01*
X103759371Y-116106028D01*
X103769033Y-116087888D01*
X103731503Y-116056558D01*
X103694026Y-116027993D01*
X103691435Y-116000545D01*
X103725794Y-115956513D01*
X103745614Y-115935300D01*
X103822483Y-115863713D01*
X103893519Y-115814463D01*
X103945474Y-115796111D01*
X103956964Y-115798720D01*
X103965080Y-115830722D01*
X103958566Y-115882149D01*
X103949175Y-115930580D01*
X103958576Y-115929880D01*
X103977023Y-115905345D01*
X103998463Y-115829593D01*
X103973052Y-115738494D01*
X103913751Y-115654162D01*
X103849080Y-115602547D01*
X103795504Y-115605517D01*
X103748313Y-115663471D01*
X103748313Y-115663471D01*
G37*
X103748313Y-115663471D02*
X103745739Y-115668397D01*
X103686165Y-115738663D01*
X103592179Y-115802406D01*
X103481755Y-115851900D01*
X103372864Y-115879422D01*
X103283479Y-115877247D01*
X103270144Y-115872822D01*
X103186062Y-115851442D01*
X103139999Y-115871734D01*
X103131137Y-115934414D01*
X103141307Y-115985303D01*
X103156658Y-116055711D01*
X103150931Y-116081621D01*
X103130507Y-116075850D01*
X103073158Y-116060000D01*
X103051643Y-116061921D01*
X103031216Y-116074740D01*
X103058510Y-116097428D01*
X103065188Y-116101343D01*
X103144146Y-116157570D01*
X103215667Y-116233890D01*
X103283589Y-116337172D01*
X103351747Y-116474289D01*
X103423979Y-116652111D01*
X103504122Y-116877511D01*
X103512604Y-116902593D01*
X103553236Y-117023186D01*
X103534527Y-116903225D01*
X103515817Y-116783265D01*
X103640689Y-116840384D01*
X103710685Y-116868312D01*
X103752703Y-116877073D01*
X103758619Y-116871597D01*
X103729937Y-116839622D01*
X103699495Y-116821699D01*
X103649719Y-116787991D01*
X103590842Y-116735085D01*
X103542459Y-116681941D01*
X103524600Y-116652479D01*
X103543899Y-116633785D01*
X103569654Y-116624347D01*
X103620317Y-116593733D01*
X103656774Y-116545622D01*
X103662407Y-116512529D01*
X103636354Y-116511449D01*
X103576329Y-116527797D01*
X103551941Y-116536432D01*
X103479031Y-116557883D01*
X103443087Y-116551069D01*
X103434874Y-116535702D01*
X103415061Y-116482408D01*
X103384199Y-116414732D01*
X103361832Y-116356005D01*
X103373413Y-116328225D01*
X103388633Y-116322237D01*
X103431692Y-116335462D01*
X103450273Y-116371461D01*
X103467615Y-116432554D01*
X103502349Y-116357507D01*
X103532153Y-116302384D01*
X103553158Y-116278153D01*
X103572302Y-116297875D01*
X103586635Y-116334923D01*
X103604036Y-116396000D01*
X103621782Y-116329790D01*
X103651286Y-116279099D01*
X103683469Y-116264008D01*
X103692448Y-116254342D01*
X103657148Y-116230064D01*
X103647976Y-116225407D01*
X103575747Y-116201482D01*
X103518649Y-116199747D01*
X103464180Y-116200151D01*
X103444604Y-116190370D01*
X103450307Y-116168319D01*
X103501716Y-116145886D01*
X103506536Y-116144556D01*
X103594136Y-116141319D01*
X103690219Y-116182415D01*
X103696581Y-116186328D01*
X103800542Y-116251165D01*
X103762736Y-116183210D01*
X103742362Y-116127408D01*
X103759371Y-116106028D01*
X103769033Y-116087888D01*
X103731503Y-116056558D01*
X103694026Y-116027993D01*
X103691435Y-116000545D01*
X103725794Y-115956513D01*
X103745614Y-115935300D01*
X103822483Y-115863713D01*
X103893519Y-115814463D01*
X103945474Y-115796111D01*
X103956964Y-115798720D01*
X103965080Y-115830722D01*
X103958566Y-115882149D01*
X103949175Y-115930580D01*
X103958576Y-115929880D01*
X103977023Y-115905345D01*
X103998463Y-115829593D01*
X103973052Y-115738494D01*
X103913751Y-115654162D01*
X103849080Y-115602547D01*
X103795504Y-115605517D01*
X103748313Y-115663471D01*
G36*
X98163584Y-117645993D02*
X98194581Y-117711841D01*
X98241567Y-117801593D01*
X98257974Y-117831477D01*
X98321553Y-117950117D01*
X98383304Y-118072067D01*
X98430382Y-118171920D01*
X98432267Y-118176212D01*
X98495103Y-118320074D01*
X98471521Y-118164117D01*
X98425275Y-117978795D01*
X98349189Y-117813806D01*
X98251101Y-117685925D01*
X98245623Y-117680678D01*
X98192249Y-117635141D01*
X98158812Y-117615486D01*
X98154606Y-117616590D01*
X98163584Y-117645993D01*
X98163584Y-117645993D01*
G37*
X98163584Y-117645993D02*
X98194581Y-117711841D01*
X98241567Y-117801593D01*
X98257974Y-117831477D01*
X98321553Y-117950117D01*
X98383304Y-118072067D01*
X98430382Y-118171920D01*
X98432267Y-118176212D01*
X98495103Y-118320074D01*
X98471521Y-118164117D01*
X98425275Y-117978795D01*
X98349189Y-117813806D01*
X98251101Y-117685925D01*
X98245623Y-117680678D01*
X98192249Y-117635141D01*
X98158812Y-117615486D01*
X98154606Y-117616590D01*
X98163584Y-117645993D01*
G36*
X98578593Y-116568045D02*
X98537984Y-116649125D01*
X98501952Y-116750473D01*
X98476269Y-116854215D01*
X98466708Y-116942481D01*
X98471005Y-116980197D01*
X98494361Y-117063907D01*
X98530206Y-116973954D01*
X98584542Y-116893375D01*
X98643948Y-116863127D01*
X98707242Y-116853263D01*
X98745220Y-116872115D01*
X98765753Y-116929189D01*
X98775924Y-117022543D01*
X98785493Y-117133978D01*
X98797517Y-117244469D01*
X98801335Y-117273831D01*
X98812347Y-117340287D01*
X98821992Y-117356318D01*
X98834060Y-117327707D01*
X98834855Y-117325003D01*
X98867491Y-117240345D01*
X98910427Y-117162122D01*
X98952609Y-117108792D01*
X98971525Y-117096749D01*
X98992186Y-117117241D01*
X99014490Y-117178274D01*
X99034898Y-117264180D01*
X99049873Y-117359296D01*
X99055878Y-117447955D01*
X99055505Y-117468687D01*
X99057517Y-117484441D01*
X99065588Y-117455861D01*
X99077412Y-117394435D01*
X99090682Y-117311649D01*
X99098900Y-117252535D01*
X99111635Y-117194657D01*
X99125871Y-117185939D01*
X99138808Y-117219261D01*
X99147648Y-117287503D01*
X99149636Y-117381642D01*
X99153531Y-117530829D01*
X99173369Y-117629728D01*
X99210247Y-117682505D01*
X99231429Y-117692011D01*
X99261297Y-117706134D01*
X99271131Y-117739067D01*
X99265353Y-117808125D01*
X99263895Y-117819111D01*
X99257814Y-117905211D01*
X99263983Y-117960003D01*
X99278832Y-117976350D01*
X99298791Y-117947113D01*
X99310042Y-117911378D01*
X99345315Y-117832194D01*
X99396017Y-117772754D01*
X99396901Y-117772110D01*
X99423057Y-117752320D01*
X99439158Y-117731517D01*
X99443518Y-117701251D01*
X99434449Y-117653078D01*
X99410266Y-117578548D01*
X99369280Y-117469215D01*
X99309806Y-117316631D01*
X99301930Y-117296503D01*
X99234596Y-117131194D01*
X99174451Y-117005574D01*
X99111445Y-116905588D01*
X99035526Y-116817180D01*
X98936645Y-116726290D01*
X98834158Y-116642272D01*
X98726915Y-116564049D01*
X98651923Y-116526097D01*
X98618005Y-116525104D01*
X98578593Y-116568045D01*
X98578593Y-116568045D01*
G37*
X98578593Y-116568045D02*
X98537984Y-116649125D01*
X98501952Y-116750473D01*
X98476269Y-116854215D01*
X98466708Y-116942481D01*
X98471005Y-116980197D01*
X98494361Y-117063907D01*
X98530206Y-116973954D01*
X98584542Y-116893375D01*
X98643948Y-116863127D01*
X98707242Y-116853263D01*
X98745220Y-116872115D01*
X98765753Y-116929189D01*
X98775924Y-117022543D01*
X98785493Y-117133978D01*
X98797517Y-117244469D01*
X98801335Y-117273831D01*
X98812347Y-117340287D01*
X98821992Y-117356318D01*
X98834060Y-117327707D01*
X98834855Y-117325003D01*
X98867491Y-117240345D01*
X98910427Y-117162122D01*
X98952609Y-117108792D01*
X98971525Y-117096749D01*
X98992186Y-117117241D01*
X99014490Y-117178274D01*
X99034898Y-117264180D01*
X99049873Y-117359296D01*
X99055878Y-117447955D01*
X99055505Y-117468687D01*
X99057517Y-117484441D01*
X99065588Y-117455861D01*
X99077412Y-117394435D01*
X99090682Y-117311649D01*
X99098900Y-117252535D01*
X99111635Y-117194657D01*
X99125871Y-117185939D01*
X99138808Y-117219261D01*
X99147648Y-117287503D01*
X99149636Y-117381642D01*
X99153531Y-117530829D01*
X99173369Y-117629728D01*
X99210247Y-117682505D01*
X99231429Y-117692011D01*
X99261297Y-117706134D01*
X99271131Y-117739067D01*
X99265353Y-117808125D01*
X99263895Y-117819111D01*
X99257814Y-117905211D01*
X99263983Y-117960003D01*
X99278832Y-117976350D01*
X99298791Y-117947113D01*
X99310042Y-117911378D01*
X99345315Y-117832194D01*
X99396017Y-117772754D01*
X99396901Y-117772110D01*
X99423057Y-117752320D01*
X99439158Y-117731517D01*
X99443518Y-117701251D01*
X99434449Y-117653078D01*
X99410266Y-117578548D01*
X99369280Y-117469215D01*
X99309806Y-117316631D01*
X99301930Y-117296503D01*
X99234596Y-117131194D01*
X99174451Y-117005574D01*
X99111445Y-116905588D01*
X99035526Y-116817180D01*
X98936645Y-116726290D01*
X98834158Y-116642272D01*
X98726915Y-116564049D01*
X98651923Y-116526097D01*
X98618005Y-116525104D01*
X98578593Y-116568045D01*
G36*
X99884696Y-116338964D02*
X99854782Y-116369769D01*
X99800217Y-116433604D01*
X99730842Y-116518822D01*
X99701694Y-116555593D01*
X99548114Y-116750824D01*
X99837018Y-117829029D01*
X99924298Y-117800376D01*
X100006839Y-117772544D01*
X100106942Y-117737848D01*
X100137433Y-117727095D01*
X100263288Y-117682469D01*
X100088702Y-117000018D01*
X100031614Y-116779393D01*
X99985937Y-116609078D01*
X99950235Y-116484417D01*
X99923071Y-116400759D01*
X99903011Y-116353450D01*
X99888617Y-116337835D01*
X99884696Y-116338964D01*
X99884696Y-116338964D01*
G37*
X99884696Y-116338964D02*
X99854782Y-116369769D01*
X99800217Y-116433604D01*
X99730842Y-116518822D01*
X99701694Y-116555593D01*
X99548114Y-116750824D01*
X99837018Y-117829029D01*
X99924298Y-117800376D01*
X100006839Y-117772544D01*
X100106942Y-117737848D01*
X100137433Y-117727095D01*
X100263288Y-117682469D01*
X100088702Y-117000018D01*
X100031614Y-116779393D01*
X99985937Y-116609078D01*
X99950235Y-116484417D01*
X99923071Y-116400759D01*
X99903011Y-116353450D01*
X99888617Y-116337835D01*
X99884696Y-116338964D01*
G36*
X101335899Y-115975133D02*
X101328363Y-115979929D01*
X101216153Y-116051845D01*
X101379100Y-116005720D01*
X101539578Y-115961160D01*
X101656768Y-115932162D01*
X101741437Y-115918034D01*
X101804350Y-115918085D01*
X101856275Y-115931625D01*
X101907979Y-115957963D01*
X101928647Y-115970466D01*
X102013549Y-116027873D01*
X102046429Y-116063586D01*
X102027175Y-116078083D01*
X101955667Y-116071850D01*
X101906582Y-116062444D01*
X101818280Y-116045772D01*
X101753387Y-116037007D01*
X101731772Y-116037039D01*
X101742841Y-116046622D01*
X101795270Y-116062735D01*
X101827431Y-116070541D01*
X101900201Y-116091027D01*
X101942992Y-116110105D01*
X101948304Y-116122464D01*
X101908636Y-116122789D01*
X101899558Y-116121639D01*
X101846708Y-116117367D01*
X101755581Y-116112727D01*
X101644335Y-116108620D01*
X101625177Y-116108052D01*
X101498923Y-116107542D01*
X101404048Y-116117379D01*
X101315823Y-116141752D01*
X101233887Y-116174329D01*
X101141444Y-116214844D01*
X101068411Y-116248737D01*
X101033283Y-116267129D01*
X101016707Y-116300016D01*
X101046604Y-116337382D01*
X101114261Y-116371863D01*
X101178949Y-116390239D01*
X101253880Y-116411675D01*
X101300288Y-116435315D01*
X101306488Y-116443502D01*
X101290502Y-116460805D01*
X101248891Y-116455973D01*
X101189650Y-116448764D01*
X101178008Y-116461588D01*
X101212023Y-116487443D01*
X101263993Y-116510307D01*
X101362415Y-116533153D01*
X101462668Y-116537099D01*
X101464817Y-116536892D01*
X101566695Y-116526575D01*
X101485534Y-116449200D01*
X101418427Y-116372451D01*
X101390495Y-116310871D01*
X101404503Y-116272151D01*
X101419493Y-116265511D01*
X101458714Y-116280450D01*
X101478874Y-116323561D01*
X101516290Y-116382714D01*
X101574332Y-116395503D01*
X101636945Y-116358471D01*
X101637603Y-116357769D01*
X101683519Y-116317916D01*
X101707317Y-116305261D01*
X101737705Y-116315908D01*
X101743826Y-116354090D01*
X101723739Y-116395500D01*
X101715111Y-116402995D01*
X101691493Y-116433120D01*
X101696941Y-116444899D01*
X101727496Y-116435677D01*
X101760429Y-116391862D01*
X101784604Y-116333662D01*
X101788887Y-116281288D01*
X101788336Y-116279023D01*
X101789316Y-116235122D01*
X101827503Y-116220630D01*
X101908326Y-116234336D01*
X101943594Y-116244333D01*
X102020688Y-116272557D01*
X102054310Y-116307941D01*
X102054921Y-116368745D01*
X102044717Y-116420830D01*
X102022105Y-116482330D01*
X101979171Y-116519826D01*
X101903659Y-116539517D01*
X101794671Y-116547241D01*
X101728754Y-116554080D01*
X101705378Y-116566982D01*
X101707857Y-116571199D01*
X101748180Y-116585978D01*
X101753304Y-116585116D01*
X101796523Y-116583114D01*
X101859859Y-116587140D01*
X101942536Y-116595563D01*
X101876779Y-116655652D01*
X101799660Y-116707969D01*
X101727145Y-116738214D01*
X101672423Y-116755084D01*
X101668501Y-116768529D01*
X101706910Y-116786534D01*
X101779674Y-116800645D01*
X101866208Y-116784369D01*
X101978031Y-116734729D01*
X102040053Y-116700495D01*
X102113923Y-116662075D01*
X102164635Y-116643398D01*
X102178685Y-116645403D01*
X102163348Y-116674081D01*
X102117435Y-116733989D01*
X102048911Y-116815121D01*
X101998339Y-116871940D01*
X101916588Y-116962769D01*
X101848680Y-117039479D01*
X101803976Y-117091431D01*
X101792289Y-117106142D01*
X101781415Y-117131428D01*
X101807964Y-117119768D01*
X101868746Y-117073414D01*
X101960573Y-116994619D01*
X101999867Y-116959423D01*
X102150350Y-116822546D01*
X102262754Y-116718018D01*
X102341625Y-116641188D01*
X102391509Y-116587405D01*
X102416955Y-116552019D01*
X102422505Y-116530377D01*
X102421814Y-116527775D01*
X102403371Y-116475927D01*
X102391749Y-116442833D01*
X102353895Y-116399992D01*
X102284796Y-116363607D01*
X102269874Y-116358728D01*
X102166802Y-116328449D01*
X102241742Y-116308259D01*
X102297861Y-116285680D01*
X102302413Y-116256113D01*
X102256108Y-116210421D01*
X102249788Y-116205453D01*
X102201666Y-116146425D01*
X102174346Y-116083996D01*
X102125188Y-116005472D01*
X102026313Y-115938257D01*
X101883925Y-115885958D01*
X101801735Y-115867172D01*
X101647420Y-115857612D01*
X101496644Y-115892526D01*
X101335899Y-115975133D01*
X101335899Y-115975133D01*
G37*
X101335899Y-115975133D02*
X101328363Y-115979929D01*
X101216153Y-116051845D01*
X101379100Y-116005720D01*
X101539578Y-115961160D01*
X101656768Y-115932162D01*
X101741437Y-115918034D01*
X101804350Y-115918085D01*
X101856275Y-115931625D01*
X101907979Y-115957963D01*
X101928647Y-115970466D01*
X102013549Y-116027873D01*
X102046429Y-116063586D01*
X102027175Y-116078083D01*
X101955667Y-116071850D01*
X101906582Y-116062444D01*
X101818280Y-116045772D01*
X101753387Y-116037007D01*
X101731772Y-116037039D01*
X101742841Y-116046622D01*
X101795270Y-116062735D01*
X101827431Y-116070541D01*
X101900201Y-116091027D01*
X101942992Y-116110105D01*
X101948304Y-116122464D01*
X101908636Y-116122789D01*
X101899558Y-116121639D01*
X101846708Y-116117367D01*
X101755581Y-116112727D01*
X101644335Y-116108620D01*
X101625177Y-116108052D01*
X101498923Y-116107542D01*
X101404048Y-116117379D01*
X101315823Y-116141752D01*
X101233887Y-116174329D01*
X101141444Y-116214844D01*
X101068411Y-116248737D01*
X101033283Y-116267129D01*
X101016707Y-116300016D01*
X101046604Y-116337382D01*
X101114261Y-116371863D01*
X101178949Y-116390239D01*
X101253880Y-116411675D01*
X101300288Y-116435315D01*
X101306488Y-116443502D01*
X101290502Y-116460805D01*
X101248891Y-116455973D01*
X101189650Y-116448764D01*
X101178008Y-116461588D01*
X101212023Y-116487443D01*
X101263993Y-116510307D01*
X101362415Y-116533153D01*
X101462668Y-116537099D01*
X101464817Y-116536892D01*
X101566695Y-116526575D01*
X101485534Y-116449200D01*
X101418427Y-116372451D01*
X101390495Y-116310871D01*
X101404503Y-116272151D01*
X101419493Y-116265511D01*
X101458714Y-116280450D01*
X101478874Y-116323561D01*
X101516290Y-116382714D01*
X101574332Y-116395503D01*
X101636945Y-116358471D01*
X101637603Y-116357769D01*
X101683519Y-116317916D01*
X101707317Y-116305261D01*
X101737705Y-116315908D01*
X101743826Y-116354090D01*
X101723739Y-116395500D01*
X101715111Y-116402995D01*
X101691493Y-116433120D01*
X101696941Y-116444899D01*
X101727496Y-116435677D01*
X101760429Y-116391862D01*
X101784604Y-116333662D01*
X101788887Y-116281288D01*
X101788336Y-116279023D01*
X101789316Y-116235122D01*
X101827503Y-116220630D01*
X101908326Y-116234336D01*
X101943594Y-116244333D01*
X102020688Y-116272557D01*
X102054310Y-116307941D01*
X102054921Y-116368745D01*
X102044717Y-116420830D01*
X102022105Y-116482330D01*
X101979171Y-116519826D01*
X101903659Y-116539517D01*
X101794671Y-116547241D01*
X101728754Y-116554080D01*
X101705378Y-116566982D01*
X101707857Y-116571199D01*
X101748180Y-116585978D01*
X101753304Y-116585116D01*
X101796523Y-116583114D01*
X101859859Y-116587140D01*
X101942536Y-116595563D01*
X101876779Y-116655652D01*
X101799660Y-116707969D01*
X101727145Y-116738214D01*
X101672423Y-116755084D01*
X101668501Y-116768529D01*
X101706910Y-116786534D01*
X101779674Y-116800645D01*
X101866208Y-116784369D01*
X101978031Y-116734729D01*
X102040053Y-116700495D01*
X102113923Y-116662075D01*
X102164635Y-116643398D01*
X102178685Y-116645403D01*
X102163348Y-116674081D01*
X102117435Y-116733989D01*
X102048911Y-116815121D01*
X101998339Y-116871940D01*
X101916588Y-116962769D01*
X101848680Y-117039479D01*
X101803976Y-117091431D01*
X101792289Y-117106142D01*
X101781415Y-117131428D01*
X101807964Y-117119768D01*
X101868746Y-117073414D01*
X101960573Y-116994619D01*
X101999867Y-116959423D01*
X102150350Y-116822546D01*
X102262754Y-116718018D01*
X102341625Y-116641188D01*
X102391509Y-116587405D01*
X102416955Y-116552019D01*
X102422505Y-116530377D01*
X102421814Y-116527775D01*
X102403371Y-116475927D01*
X102391749Y-116442833D01*
X102353895Y-116399992D01*
X102284796Y-116363607D01*
X102269874Y-116358728D01*
X102166802Y-116328449D01*
X102241742Y-116308259D01*
X102297861Y-116285680D01*
X102302413Y-116256113D01*
X102256108Y-116210421D01*
X102249788Y-116205453D01*
X102201666Y-116146425D01*
X102174346Y-116083996D01*
X102125188Y-116005472D01*
X102026313Y-115938257D01*
X101883925Y-115885958D01*
X101801735Y-115867172D01*
X101647420Y-115857612D01*
X101496644Y-115892526D01*
X101335899Y-115975133D01*
G36*
X100556544Y-114080501D02*
X100597795Y-114099215D01*
X100683945Y-114133214D01*
X100808093Y-114180058D01*
X100963339Y-114237310D01*
X101142782Y-114302532D01*
X101339522Y-114373284D01*
X101546660Y-114447127D01*
X101757293Y-114521624D01*
X101964524Y-114594335D01*
X102161450Y-114662822D01*
X102341174Y-114724646D01*
X102496792Y-114777369D01*
X102621406Y-114818551D01*
X102708115Y-114845754D01*
X102750019Y-114856541D01*
X102752363Y-114856529D01*
X102806161Y-114829014D01*
X102866737Y-114782236D01*
X102927442Y-114734912D01*
X102977526Y-114708724D01*
X103018207Y-114678649D01*
X103068331Y-114617304D01*
X103086127Y-114589973D01*
X103134142Y-114518971D01*
X103177191Y-114480239D01*
X103220786Y-114476953D01*
X103270440Y-114512288D01*
X103331667Y-114589420D01*
X103409978Y-114711522D01*
X103469149Y-114810556D01*
X103556225Y-114954761D01*
X103648986Y-115102269D01*
X103742994Y-115246724D01*
X103833812Y-115381767D01*
X103917002Y-115501041D01*
X103988125Y-115598188D01*
X104042746Y-115666853D01*
X104076425Y-115700675D01*
X104084723Y-115693298D01*
X104084461Y-115692040D01*
X104068404Y-115662989D01*
X104026842Y-115595241D01*
X103965143Y-115497350D01*
X103888677Y-115377871D01*
X103840651Y-115303556D01*
X103601036Y-114934039D01*
X103614922Y-114767877D01*
X103620317Y-114668260D01*
X103613159Y-114603430D01*
X103589531Y-114552393D01*
X103569483Y-114524398D01*
X103522259Y-114470555D01*
X103503443Y-114463497D01*
X103516540Y-114499355D01*
X103547255Y-114548913D01*
X103579615Y-114612129D01*
X103587196Y-114683635D01*
X103579374Y-114756339D01*
X103559630Y-114887503D01*
X103425672Y-114650318D01*
X103364273Y-114547889D01*
X103308932Y-114466796D01*
X103267564Y-114418107D01*
X103253146Y-114409082D01*
X103211374Y-114382089D01*
X103204401Y-114367058D01*
X103189829Y-114350761D01*
X103162980Y-114383383D01*
X103157953Y-114391909D01*
X103121584Y-114437870D01*
X103054147Y-114508994D01*
X102967177Y-114593415D01*
X102917800Y-114638869D01*
X102810996Y-114731372D01*
X102736121Y-114786182D01*
X102687121Y-114807359D01*
X102668500Y-114805955D01*
X102629451Y-114790465D01*
X102546763Y-114757104D01*
X102429046Y-114709363D01*
X102284908Y-114650735D01*
X102122955Y-114584713D01*
X102086112Y-114569674D01*
X101747597Y-114434505D01*
X101453656Y-114323847D01*
X101198942Y-114235871D01*
X100978108Y-114168748D01*
X100785810Y-114120645D01*
X100755395Y-114114192D01*
X100656804Y-114094700D01*
X100586475Y-114082439D01*
X100556204Y-114079405D01*
X100556544Y-114080501D01*
X100556544Y-114080501D01*
G37*
X100556544Y-114080501D02*
X100597795Y-114099215D01*
X100683945Y-114133214D01*
X100808093Y-114180058D01*
X100963339Y-114237310D01*
X101142782Y-114302532D01*
X101339522Y-114373284D01*
X101546660Y-114447127D01*
X101757293Y-114521624D01*
X101964524Y-114594335D01*
X102161450Y-114662822D01*
X102341174Y-114724646D01*
X102496792Y-114777369D01*
X102621406Y-114818551D01*
X102708115Y-114845754D01*
X102750019Y-114856541D01*
X102752363Y-114856529D01*
X102806161Y-114829014D01*
X102866737Y-114782236D01*
X102927442Y-114734912D01*
X102977526Y-114708724D01*
X103018207Y-114678649D01*
X103068331Y-114617304D01*
X103086127Y-114589973D01*
X103134142Y-114518971D01*
X103177191Y-114480239D01*
X103220786Y-114476953D01*
X103270440Y-114512288D01*
X103331667Y-114589420D01*
X103409978Y-114711522D01*
X103469149Y-114810556D01*
X103556225Y-114954761D01*
X103648986Y-115102269D01*
X103742994Y-115246724D01*
X103833812Y-115381767D01*
X103917002Y-115501041D01*
X103988125Y-115598188D01*
X104042746Y-115666853D01*
X104076425Y-115700675D01*
X104084723Y-115693298D01*
X104084461Y-115692040D01*
X104068404Y-115662989D01*
X104026842Y-115595241D01*
X103965143Y-115497350D01*
X103888677Y-115377871D01*
X103840651Y-115303556D01*
X103601036Y-114934039D01*
X103614922Y-114767877D01*
X103620317Y-114668260D01*
X103613159Y-114603430D01*
X103589531Y-114552393D01*
X103569483Y-114524398D01*
X103522259Y-114470555D01*
X103503443Y-114463497D01*
X103516540Y-114499355D01*
X103547255Y-114548913D01*
X103579615Y-114612129D01*
X103587196Y-114683635D01*
X103579374Y-114756339D01*
X103559630Y-114887503D01*
X103425672Y-114650318D01*
X103364273Y-114547889D01*
X103308932Y-114466796D01*
X103267564Y-114418107D01*
X103253146Y-114409082D01*
X103211374Y-114382089D01*
X103204401Y-114367058D01*
X103189829Y-114350761D01*
X103162980Y-114383383D01*
X103157953Y-114391909D01*
X103121584Y-114437870D01*
X103054147Y-114508994D01*
X102967177Y-114593415D01*
X102917800Y-114638869D01*
X102810996Y-114731372D01*
X102736121Y-114786182D01*
X102687121Y-114807359D01*
X102668500Y-114805955D01*
X102629451Y-114790465D01*
X102546763Y-114757104D01*
X102429046Y-114709363D01*
X102284908Y-114650735D01*
X102122955Y-114584713D01*
X102086112Y-114569674D01*
X101747597Y-114434505D01*
X101453656Y-114323847D01*
X101198942Y-114235871D01*
X100978108Y-114168748D01*
X100785810Y-114120645D01*
X100755395Y-114114192D01*
X100656804Y-114094700D01*
X100586475Y-114082439D01*
X100556204Y-114079405D01*
X100556544Y-114080501D01*
G36*
X97440173Y-116607598D02*
X97475569Y-116744948D01*
X97502103Y-116837079D01*
X97523991Y-116893681D01*
X97545448Y-116924445D01*
X97570690Y-116939060D01*
X97586247Y-116943385D01*
X97639610Y-116974227D01*
X97651348Y-117021927D01*
X97651101Y-117104929D01*
X97650785Y-117151158D01*
X97663786Y-117200020D01*
X97699276Y-117201973D01*
X97750031Y-117158096D01*
X97769145Y-117133402D01*
X97804699Y-117067767D01*
X97817640Y-117010528D01*
X97806151Y-116977522D01*
X97787215Y-116975817D01*
X97743530Y-117006516D01*
X97728684Y-117026562D01*
X97708000Y-117046233D01*
X97690933Y-117015513D01*
X97686640Y-117000502D01*
X97651411Y-116932278D01*
X97602777Y-116878345D01*
X97560507Y-116827582D01*
X97516340Y-116740623D01*
X97466333Y-116609233D01*
X97448093Y-116555373D01*
X97359174Y-116287021D01*
X97440173Y-116607598D01*
X97440173Y-116607598D01*
G37*
X97440173Y-116607598D02*
X97475569Y-116744948D01*
X97502103Y-116837079D01*
X97523991Y-116893681D01*
X97545448Y-116924445D01*
X97570690Y-116939060D01*
X97586247Y-116943385D01*
X97639610Y-116974227D01*
X97651348Y-117021927D01*
X97651101Y-117104929D01*
X97650785Y-117151158D01*
X97663786Y-117200020D01*
X97699276Y-117201973D01*
X97750031Y-117158096D01*
X97769145Y-117133402D01*
X97804699Y-117067767D01*
X97817640Y-117010528D01*
X97806151Y-116977522D01*
X97787215Y-116975817D01*
X97743530Y-117006516D01*
X97728684Y-117026562D01*
X97708000Y-117046233D01*
X97690933Y-117015513D01*
X97686640Y-117000502D01*
X97651411Y-116932278D01*
X97602777Y-116878345D01*
X97560507Y-116827582D01*
X97516340Y-116740623D01*
X97466333Y-116609233D01*
X97448093Y-116555373D01*
X97359174Y-116287021D01*
X97440173Y-116607598D01*
G36*
X101160821Y-116081601D02*
X101168905Y-116096805D01*
X101183863Y-116094906D01*
X101203630Y-116078919D01*
X101197168Y-116071862D01*
X101163942Y-116077269D01*
X101160821Y-116081601D01*
X101160821Y-116081601D01*
G37*
X101160821Y-116081601D02*
X101168905Y-116096805D01*
X101183863Y-116094906D01*
X101203630Y-116078919D01*
X101197168Y-116071862D01*
X101163942Y-116077269D01*
X101160821Y-116081601D01*
G36*
X97354849Y-116159537D02*
X97354756Y-116164586D01*
X97366676Y-116225036D01*
X97377679Y-116246096D01*
X97386871Y-116244604D01*
X97379091Y-116200950D01*
X97377325Y-116194504D01*
X97362065Y-116153278D01*
X97354849Y-116159537D01*
X97354849Y-116159537D01*
G37*
X97354849Y-116159537D02*
X97354756Y-116164586D01*
X97366676Y-116225036D01*
X97377679Y-116246096D01*
X97386871Y-116244604D01*
X97379091Y-116200950D01*
X97377325Y-116194504D01*
X97362065Y-116153278D01*
X97354849Y-116159537D01*
G36*
X99722423Y-114662912D02*
X99670444Y-114709830D01*
X99638054Y-114748138D01*
X99622609Y-114788194D01*
X99625353Y-114841477D01*
X99647529Y-114919471D01*
X99690381Y-115033655D01*
X99711199Y-115086057D01*
X99744277Y-115166409D01*
X99763093Y-115199507D01*
X99773875Y-115190695D01*
X99782539Y-115147223D01*
X99811593Y-115070211D01*
X99864287Y-114992975D01*
X99870791Y-114985895D01*
X99914974Y-114936751D01*
X99920299Y-114918486D01*
X99888538Y-114922796D01*
X99884015Y-114923983D01*
X99843544Y-114927636D01*
X99817705Y-114902722D01*
X99794930Y-114836661D01*
X99791242Y-114823096D01*
X99776913Y-114740838D01*
X99779116Y-114677092D01*
X99783781Y-114664397D01*
X99792688Y-114632517D01*
X99768872Y-114633371D01*
X99722423Y-114662912D01*
X99722423Y-114662912D01*
G37*
X99722423Y-114662912D02*
X99670444Y-114709830D01*
X99638054Y-114748138D01*
X99622609Y-114788194D01*
X99625353Y-114841477D01*
X99647529Y-114919471D01*
X99690381Y-115033655D01*
X99711199Y-115086057D01*
X99744277Y-115166409D01*
X99763093Y-115199507D01*
X99773875Y-115190695D01*
X99782539Y-115147223D01*
X99811593Y-115070211D01*
X99864287Y-114992975D01*
X99870791Y-114985895D01*
X99914974Y-114936751D01*
X99920299Y-114918486D01*
X99888538Y-114922796D01*
X99884015Y-114923983D01*
X99843544Y-114927636D01*
X99817705Y-114902722D01*
X99794930Y-114836661D01*
X99791242Y-114823096D01*
X99776913Y-114740838D01*
X99779116Y-114677092D01*
X99783781Y-114664397D01*
X99792688Y-114632517D01*
X99768872Y-114633371D01*
X99722423Y-114662912D01*
G36*
X101554931Y-114074480D02*
X101625785Y-114115408D01*
X101664692Y-114136794D01*
X101753976Y-114182911D01*
X101860458Y-114234331D01*
X101975116Y-114287190D01*
X102088932Y-114337616D01*
X102192884Y-114381744D01*
X102277954Y-114415707D01*
X102335121Y-114435636D01*
X102355365Y-114437664D01*
X102346881Y-114429295D01*
X102303957Y-114404837D01*
X102221112Y-114363099D01*
X102110089Y-114309528D01*
X101982633Y-114249574D01*
X101850488Y-114188684D01*
X101725397Y-114132304D01*
X101619106Y-114085886D01*
X101543359Y-114054876D01*
X101526767Y-114048850D01*
X101519518Y-114050759D01*
X101554931Y-114074480D01*
X101554931Y-114074480D01*
G37*
X101554931Y-114074480D02*
X101625785Y-114115408D01*
X101664692Y-114136794D01*
X101753976Y-114182911D01*
X101860458Y-114234331D01*
X101975116Y-114287190D01*
X102088932Y-114337616D01*
X102192884Y-114381744D01*
X102277954Y-114415707D01*
X102335121Y-114435636D01*
X102355365Y-114437664D01*
X102346881Y-114429295D01*
X102303957Y-114404837D01*
X102221112Y-114363099D01*
X102110089Y-114309528D01*
X101982633Y-114249574D01*
X101850488Y-114188684D01*
X101725397Y-114132304D01*
X101619106Y-114085886D01*
X101543359Y-114054876D01*
X101526767Y-114048850D01*
X101519518Y-114050759D01*
X101554931Y-114074480D01*
G36*
X101741671Y-111890719D02*
X101711118Y-111914715D01*
X101691721Y-111956510D01*
X101668551Y-112034039D01*
X101653691Y-112097658D01*
X101638044Y-112165540D01*
X101617524Y-112238300D01*
X101588708Y-112325933D01*
X101548175Y-112438435D01*
X101492500Y-112585798D01*
X101438839Y-112724974D01*
X101438430Y-112739953D01*
X101462522Y-112711806D01*
X101466967Y-112705443D01*
X101504651Y-112659429D01*
X101528615Y-112645418D01*
X101545192Y-112673382D01*
X101576996Y-112740568D01*
X101618705Y-112834368D01*
X101664998Y-112942173D01*
X101710554Y-113051374D01*
X101750051Y-113149365D01*
X101778169Y-113223535D01*
X101789584Y-113261279D01*
X101789406Y-113263329D01*
X101766481Y-113251682D01*
X101710684Y-113210674D01*
X101631911Y-113147781D01*
X101586577Y-113110107D01*
X101496615Y-113036042D01*
X101421394Y-112977108D01*
X101372325Y-112942115D01*
X101361695Y-112936490D01*
X101332332Y-112953268D01*
X101279328Y-113005503D01*
X101212490Y-113083183D01*
X101188891Y-113112921D01*
X101117962Y-113199722D01*
X101056236Y-113267422D01*
X101014329Y-113304611D01*
X101007213Y-113308113D01*
X100958848Y-113331655D01*
X100887277Y-113378486D01*
X100804260Y-113439310D01*
X100721557Y-113504832D01*
X100650931Y-113565759D01*
X100604142Y-113612796D01*
X100592360Y-113635975D01*
X100628433Y-113648556D01*
X100700253Y-113650367D01*
X100746134Y-113646479D01*
X100854019Y-113645837D01*
X100977352Y-113662432D01*
X101038864Y-113677623D01*
X101154168Y-113709019D01*
X101220597Y-113717337D01*
X101241142Y-113701773D01*
X101218788Y-113661524D01*
X101195844Y-113635480D01*
X101168958Y-113598567D01*
X101169877Y-113585923D01*
X101219948Y-113589694D01*
X101304999Y-113612495D01*
X101408749Y-113649725D01*
X101437599Y-113661547D01*
X101540108Y-113694620D01*
X101657222Y-113718672D01*
X101692988Y-113723011D01*
X101794093Y-113740901D01*
X101884839Y-113770870D01*
X101912140Y-113784903D01*
X101983476Y-113813333D01*
X102033059Y-113807090D01*
X102076905Y-113807350D01*
X102147466Y-113833526D01*
X102227331Y-113876341D01*
X102299086Y-113926512D01*
X102344098Y-113972862D01*
X102368300Y-113985514D01*
X102407076Y-113957300D01*
X102426681Y-113936305D01*
X102474681Y-113892890D01*
X102508800Y-113879830D01*
X102510488Y-113880559D01*
X102537668Y-113867357D01*
X102577747Y-113818523D01*
X102590063Y-113799293D01*
X102631811Y-113740766D01*
X102652249Y-113730959D01*
X102647861Y-113765026D01*
X102616436Y-113835640D01*
X102572935Y-113918637D01*
X102721069Y-113785517D01*
X102822353Y-113919483D01*
X102923637Y-114053449D01*
X102865844Y-114184568D01*
X102836417Y-114265616D01*
X102837522Y-114301994D01*
X102866203Y-114294470D01*
X102919502Y-114243807D01*
X102994019Y-114151370D01*
X103053481Y-114074206D01*
X103092419Y-114035309D01*
X103122718Y-114026731D01*
X103156263Y-114040527D01*
X103158168Y-114041621D01*
X103193359Y-114059562D01*
X103195557Y-114048356D01*
X103164896Y-114000056D01*
X103158991Y-113991357D01*
X103106227Y-113935246D01*
X103052344Y-113908522D01*
X103046602Y-113908151D01*
X102997533Y-113888360D01*
X102931401Y-113837202D01*
X102887588Y-113793093D01*
X102784150Y-113677700D01*
X102856501Y-113453677D01*
X102889202Y-113349233D01*
X102913121Y-113266667D01*
X102924397Y-113219555D01*
X102924676Y-113214068D01*
X102908466Y-113228754D01*
X102868515Y-113281132D01*
X102811933Y-113361628D01*
X102779753Y-113409240D01*
X102676186Y-113560304D01*
X102597334Y-113665825D01*
X102540257Y-113729468D01*
X102502454Y-113754780D01*
X102498212Y-113737535D01*
X102517989Y-113685803D01*
X102533427Y-113655286D01*
X102590694Y-113548745D01*
X102515294Y-113616317D01*
X102453172Y-113668852D01*
X102425275Y-113681125D01*
X102429334Y-113650194D01*
X102463084Y-113573117D01*
X102470312Y-113557925D01*
X102522299Y-113408275D01*
X102554138Y-113230637D01*
X102561817Y-113051107D01*
X102557719Y-112989301D01*
X102546648Y-112881014D01*
X102521969Y-113004497D01*
X102504858Y-113068958D01*
X102489047Y-113094249D01*
X102482897Y-113088011D01*
X102469362Y-113084424D01*
X102454325Y-113126592D01*
X102451562Y-113140234D01*
X102441103Y-113192004D01*
X102433017Y-113201930D01*
X102423051Y-113165200D01*
X102409797Y-113092990D01*
X102395821Y-113024708D01*
X102386067Y-112996247D01*
X102383254Y-113005144D01*
X102369980Y-113051936D01*
X102356270Y-113063506D01*
X102349615Y-113091837D01*
X102357724Y-113158701D01*
X102375069Y-113234713D01*
X102397172Y-113345434D01*
X102404899Y-113448840D01*
X102399781Y-113535443D01*
X102383351Y-113595759D01*
X102357139Y-113620300D01*
X102322676Y-113599583D01*
X102317303Y-113592562D01*
X102303388Y-113553350D01*
X102283189Y-113471621D01*
X102259749Y-113360525D01*
X102242493Y-113269299D01*
X102198534Y-113053537D01*
X102151594Y-112884924D01*
X102097873Y-112754172D01*
X102033578Y-112651990D01*
X101957127Y-112571039D01*
X101895281Y-112511336D01*
X101858119Y-112465530D01*
X101852757Y-112448485D01*
X101891511Y-112431558D01*
X101960327Y-112460640D01*
X102057622Y-112535002D01*
X102076540Y-112551785D01*
X102144138Y-112609920D01*
X102192863Y-112646453D01*
X102210550Y-112653624D01*
X102196627Y-112628223D01*
X102153334Y-112569063D01*
X102087751Y-112485480D01*
X102021860Y-112404731D01*
X101942937Y-112306208D01*
X101900985Y-112246684D01*
X101893554Y-112224756D01*
X101918200Y-112239021D01*
X101972473Y-112288080D01*
X102053927Y-112370527D01*
X102158205Y-112482856D01*
X102242552Y-112574594D01*
X102295370Y-112627578D01*
X102322090Y-112645719D01*
X102328143Y-112632922D01*
X102320905Y-112599958D01*
X102304309Y-112551756D01*
X102277410Y-112497097D01*
X102234158Y-112425925D01*
X102168507Y-112328185D01*
X102089169Y-112214715D01*
X102073868Y-112184672D01*
X102090656Y-112186941D01*
X102130940Y-112214702D01*
X102186131Y-112261138D01*
X102247635Y-112319430D01*
X102306861Y-112382759D01*
X102319248Y-112397308D01*
X102386628Y-112470160D01*
X102426862Y-112494630D01*
X102437981Y-112485212D01*
X102461295Y-112477151D01*
X102512869Y-112516328D01*
X102555353Y-112560132D01*
X102614363Y-112620875D01*
X102643315Y-112639825D01*
X102646866Y-112619698D01*
X102645282Y-112612600D01*
X102617625Y-112547936D01*
X102570672Y-112473533D01*
X102565050Y-112466095D01*
X102524604Y-112403866D01*
X102522951Y-112378650D01*
X102554366Y-112392757D01*
X102611914Y-112447172D01*
X102653172Y-112489762D01*
X102661852Y-112490188D01*
X102646970Y-112459693D01*
X102604758Y-112399610D01*
X102540116Y-112326284D01*
X102464106Y-112250033D01*
X102387795Y-112181179D01*
X102322243Y-112130042D01*
X102278516Y-112106939D01*
X102269714Y-112107791D01*
X102232245Y-112104859D01*
X102159483Y-112079118D01*
X102065175Y-112035704D01*
X102035020Y-112020151D01*
X101937524Y-111966766D01*
X101886341Y-111933189D01*
X101876641Y-111915360D01*
X101903039Y-111909239D01*
X101951774Y-111905501D01*
X101946373Y-111895538D01*
X101911790Y-111880958D01*
X101823760Y-111867902D01*
X101741671Y-111890719D01*
X101741671Y-111890719D01*
G37*
X101741671Y-111890719D02*
X101711118Y-111914715D01*
X101691721Y-111956510D01*
X101668551Y-112034039D01*
X101653691Y-112097658D01*
X101638044Y-112165540D01*
X101617524Y-112238300D01*
X101588708Y-112325933D01*
X101548175Y-112438435D01*
X101492500Y-112585798D01*
X101438839Y-112724974D01*
X101438430Y-112739953D01*
X101462522Y-112711806D01*
X101466967Y-112705443D01*
X101504651Y-112659429D01*
X101528615Y-112645418D01*
X101545192Y-112673382D01*
X101576996Y-112740568D01*
X101618705Y-112834368D01*
X101664998Y-112942173D01*
X101710554Y-113051374D01*
X101750051Y-113149365D01*
X101778169Y-113223535D01*
X101789584Y-113261279D01*
X101789406Y-113263329D01*
X101766481Y-113251682D01*
X101710684Y-113210674D01*
X101631911Y-113147781D01*
X101586577Y-113110107D01*
X101496615Y-113036042D01*
X101421394Y-112977108D01*
X101372325Y-112942115D01*
X101361695Y-112936490D01*
X101332332Y-112953268D01*
X101279328Y-113005503D01*
X101212490Y-113083183D01*
X101188891Y-113112921D01*
X101117962Y-113199722D01*
X101056236Y-113267422D01*
X101014329Y-113304611D01*
X101007213Y-113308113D01*
X100958848Y-113331655D01*
X100887277Y-113378486D01*
X100804260Y-113439310D01*
X100721557Y-113504832D01*
X100650931Y-113565759D01*
X100604142Y-113612796D01*
X100592360Y-113635975D01*
X100628433Y-113648556D01*
X100700253Y-113650367D01*
X100746134Y-113646479D01*
X100854019Y-113645837D01*
X100977352Y-113662432D01*
X101038864Y-113677623D01*
X101154168Y-113709019D01*
X101220597Y-113717337D01*
X101241142Y-113701773D01*
X101218788Y-113661524D01*
X101195844Y-113635480D01*
X101168958Y-113598567D01*
X101169877Y-113585923D01*
X101219948Y-113589694D01*
X101304999Y-113612495D01*
X101408749Y-113649725D01*
X101437599Y-113661547D01*
X101540108Y-113694620D01*
X101657222Y-113718672D01*
X101692988Y-113723011D01*
X101794093Y-113740901D01*
X101884839Y-113770870D01*
X101912140Y-113784903D01*
X101983476Y-113813333D01*
X102033059Y-113807090D01*
X102076905Y-113807350D01*
X102147466Y-113833526D01*
X102227331Y-113876341D01*
X102299086Y-113926512D01*
X102344098Y-113972862D01*
X102368300Y-113985514D01*
X102407076Y-113957300D01*
X102426681Y-113936305D01*
X102474681Y-113892890D01*
X102508800Y-113879830D01*
X102510488Y-113880559D01*
X102537668Y-113867357D01*
X102577747Y-113818523D01*
X102590063Y-113799293D01*
X102631811Y-113740766D01*
X102652249Y-113730959D01*
X102647861Y-113765026D01*
X102616436Y-113835640D01*
X102572935Y-113918637D01*
X102721069Y-113785517D01*
X102822353Y-113919483D01*
X102923637Y-114053449D01*
X102865844Y-114184568D01*
X102836417Y-114265616D01*
X102837522Y-114301994D01*
X102866203Y-114294470D01*
X102919502Y-114243807D01*
X102994019Y-114151370D01*
X103053481Y-114074206D01*
X103092419Y-114035309D01*
X103122718Y-114026731D01*
X103156263Y-114040527D01*
X103158168Y-114041621D01*
X103193359Y-114059562D01*
X103195557Y-114048356D01*
X103164896Y-114000056D01*
X103158991Y-113991357D01*
X103106227Y-113935246D01*
X103052344Y-113908522D01*
X103046602Y-113908151D01*
X102997533Y-113888360D01*
X102931401Y-113837202D01*
X102887588Y-113793093D01*
X102784150Y-113677700D01*
X102856501Y-113453677D01*
X102889202Y-113349233D01*
X102913121Y-113266667D01*
X102924397Y-113219555D01*
X102924676Y-113214068D01*
X102908466Y-113228754D01*
X102868515Y-113281132D01*
X102811933Y-113361628D01*
X102779753Y-113409240D01*
X102676186Y-113560304D01*
X102597334Y-113665825D01*
X102540257Y-113729468D01*
X102502454Y-113754780D01*
X102498212Y-113737535D01*
X102517989Y-113685803D01*
X102533427Y-113655286D01*
X102590694Y-113548745D01*
X102515294Y-113616317D01*
X102453172Y-113668852D01*
X102425275Y-113681125D01*
X102429334Y-113650194D01*
X102463084Y-113573117D01*
X102470312Y-113557925D01*
X102522299Y-113408275D01*
X102554138Y-113230637D01*
X102561817Y-113051107D01*
X102557719Y-112989301D01*
X102546648Y-112881014D01*
X102521969Y-113004497D01*
X102504858Y-113068958D01*
X102489047Y-113094249D01*
X102482897Y-113088011D01*
X102469362Y-113084424D01*
X102454325Y-113126592D01*
X102451562Y-113140234D01*
X102441103Y-113192004D01*
X102433017Y-113201930D01*
X102423051Y-113165200D01*
X102409797Y-113092990D01*
X102395821Y-113024708D01*
X102386067Y-112996247D01*
X102383254Y-113005144D01*
X102369980Y-113051936D01*
X102356270Y-113063506D01*
X102349615Y-113091837D01*
X102357724Y-113158701D01*
X102375069Y-113234713D01*
X102397172Y-113345434D01*
X102404899Y-113448840D01*
X102399781Y-113535443D01*
X102383351Y-113595759D01*
X102357139Y-113620300D01*
X102322676Y-113599583D01*
X102317303Y-113592562D01*
X102303388Y-113553350D01*
X102283189Y-113471621D01*
X102259749Y-113360525D01*
X102242493Y-113269299D01*
X102198534Y-113053537D01*
X102151594Y-112884924D01*
X102097873Y-112754172D01*
X102033578Y-112651990D01*
X101957127Y-112571039D01*
X101895281Y-112511336D01*
X101858119Y-112465530D01*
X101852757Y-112448485D01*
X101891511Y-112431558D01*
X101960327Y-112460640D01*
X102057622Y-112535002D01*
X102076540Y-112551785D01*
X102144138Y-112609920D01*
X102192863Y-112646453D01*
X102210550Y-112653624D01*
X102196627Y-112628223D01*
X102153334Y-112569063D01*
X102087751Y-112485480D01*
X102021860Y-112404731D01*
X101942937Y-112306208D01*
X101900985Y-112246684D01*
X101893554Y-112224756D01*
X101918200Y-112239021D01*
X101972473Y-112288080D01*
X102053927Y-112370527D01*
X102158205Y-112482856D01*
X102242552Y-112574594D01*
X102295370Y-112627578D01*
X102322090Y-112645719D01*
X102328143Y-112632922D01*
X102320905Y-112599958D01*
X102304309Y-112551756D01*
X102277410Y-112497097D01*
X102234158Y-112425925D01*
X102168507Y-112328185D01*
X102089169Y-112214715D01*
X102073868Y-112184672D01*
X102090656Y-112186941D01*
X102130940Y-112214702D01*
X102186131Y-112261138D01*
X102247635Y-112319430D01*
X102306861Y-112382759D01*
X102319248Y-112397308D01*
X102386628Y-112470160D01*
X102426862Y-112494630D01*
X102437981Y-112485212D01*
X102461295Y-112477151D01*
X102512869Y-112516328D01*
X102555353Y-112560132D01*
X102614363Y-112620875D01*
X102643315Y-112639825D01*
X102646866Y-112619698D01*
X102645282Y-112612600D01*
X102617625Y-112547936D01*
X102570672Y-112473533D01*
X102565050Y-112466095D01*
X102524604Y-112403866D01*
X102522951Y-112378650D01*
X102554366Y-112392757D01*
X102611914Y-112447172D01*
X102653172Y-112489762D01*
X102661852Y-112490188D01*
X102646970Y-112459693D01*
X102604758Y-112399610D01*
X102540116Y-112326284D01*
X102464106Y-112250033D01*
X102387795Y-112181179D01*
X102322243Y-112130042D01*
X102278516Y-112106939D01*
X102269714Y-112107791D01*
X102232245Y-112104859D01*
X102159483Y-112079118D01*
X102065175Y-112035704D01*
X102035020Y-112020151D01*
X101937524Y-111966766D01*
X101886341Y-111933189D01*
X101876641Y-111915360D01*
X101903039Y-111909239D01*
X101951774Y-111905501D01*
X101946373Y-111895538D01*
X101911790Y-111880958D01*
X101823760Y-111867902D01*
X101741671Y-111890719D01*
G36*
X99930169Y-113821324D02*
X99890819Y-113878645D01*
X99872271Y-113941222D01*
X99867332Y-113974461D01*
X99881226Y-113969280D01*
X99921016Y-113922361D01*
X99926153Y-113915923D01*
X99994056Y-113830627D01*
X100201161Y-113869866D01*
X100297220Y-113886063D01*
X100343091Y-113888960D01*
X100336733Y-113878503D01*
X100325628Y-113873309D01*
X100247752Y-113846874D01*
X100145671Y-113821133D01*
X100098390Y-113811723D01*
X99994969Y-113801531D01*
X99930169Y-113821324D01*
X99930169Y-113821324D01*
G37*
X99930169Y-113821324D02*
X99890819Y-113878645D01*
X99872271Y-113941222D01*
X99867332Y-113974461D01*
X99881226Y-113969280D01*
X99921016Y-113922361D01*
X99926153Y-113915923D01*
X99994056Y-113830627D01*
X100201161Y-113869866D01*
X100297220Y-113886063D01*
X100343091Y-113888960D01*
X100336733Y-113878503D01*
X100325628Y-113873309D01*
X100247752Y-113846874D01*
X100145671Y-113821133D01*
X100098390Y-113811723D01*
X99994969Y-113801531D01*
X99930169Y-113821324D01*
G36*
X102463659Y-113020121D02*
X102480942Y-113030100D01*
X102490920Y-113012817D01*
X102473638Y-113002839D01*
X102463659Y-113020121D01*
X102463659Y-113020121D01*
G37*
X102463659Y-113020121D02*
X102480942Y-113030100D01*
X102490920Y-113012817D01*
X102473638Y-113002839D01*
X102463659Y-113020121D01*
G36*
X102093542Y-111471330D02*
X102352597Y-111631647D01*
X102563524Y-111773619D01*
X102730432Y-111900292D01*
X102857426Y-112014713D01*
X102922375Y-112086217D01*
X103013124Y-112233721D01*
X103069588Y-112404296D01*
X103086327Y-112577421D01*
X103076427Y-112667318D01*
X103060980Y-112761656D01*
X103061415Y-112802809D01*
X103075208Y-112790952D01*
X103099837Y-112726258D01*
X103118137Y-112664437D01*
X103138144Y-112578089D01*
X103142967Y-112502486D01*
X103131650Y-112416596D01*
X103103242Y-112299389D01*
X103101238Y-112291893D01*
X103069941Y-112182919D01*
X103038321Y-112101762D01*
X102996080Y-112030062D01*
X102932927Y-111949462D01*
X102866215Y-111872773D01*
X102638410Y-111648760D01*
X102395114Y-111476441D01*
X102129656Y-111351755D01*
X101898293Y-111283904D01*
X101709401Y-111241096D01*
X102093542Y-111471330D01*
X102093542Y-111471330D01*
G37*
X102093542Y-111471330D02*
X102352597Y-111631647D01*
X102563524Y-111773619D01*
X102730432Y-111900292D01*
X102857426Y-112014713D01*
X102922375Y-112086217D01*
X103013124Y-112233721D01*
X103069588Y-112404296D01*
X103086327Y-112577421D01*
X103076427Y-112667318D01*
X103060980Y-112761656D01*
X103061415Y-112802809D01*
X103075208Y-112790952D01*
X103099837Y-112726258D01*
X103118137Y-112664437D01*
X103138144Y-112578089D01*
X103142967Y-112502486D01*
X103131650Y-112416596D01*
X103103242Y-112299389D01*
X103101238Y-112291893D01*
X103069941Y-112182919D01*
X103038321Y-112101762D01*
X102996080Y-112030062D01*
X102932927Y-111949462D01*
X102866215Y-111872773D01*
X102638410Y-111648760D01*
X102395114Y-111476441D01*
X102129656Y-111351755D01*
X101898293Y-111283904D01*
X101709401Y-111241096D01*
X102093542Y-111471330D01*
G36*
X101141998Y-112712805D02*
X101097384Y-112760047D01*
X101020062Y-112851305D01*
X101016969Y-112855030D01*
X100867875Y-113013795D01*
X100672948Y-113187571D01*
X100438811Y-113370529D01*
X100393606Y-113403559D01*
X100297722Y-113473814D01*
X100220690Y-113531910D01*
X100172944Y-113569890D01*
X100162710Y-113579682D01*
X100174377Y-113589150D01*
X100224746Y-113579546D01*
X100301289Y-113555482D01*
X100391476Y-113521577D01*
X100482777Y-113482449D01*
X100562663Y-113442710D01*
X100606006Y-113416362D01*
X100728351Y-113313418D01*
X100858267Y-113173712D01*
X100982574Y-113012973D01*
X101088092Y-112846931D01*
X101097762Y-112829430D01*
X101140372Y-112748072D01*
X101155723Y-112709005D01*
X101141998Y-112712805D01*
X101141998Y-112712805D01*
G37*
X101141998Y-112712805D02*
X101097384Y-112760047D01*
X101020062Y-112851305D01*
X101016969Y-112855030D01*
X100867875Y-113013795D01*
X100672948Y-113187571D01*
X100438811Y-113370529D01*
X100393606Y-113403559D01*
X100297722Y-113473814D01*
X100220690Y-113531910D01*
X100172944Y-113569890D01*
X100162710Y-113579682D01*
X100174377Y-113589150D01*
X100224746Y-113579546D01*
X100301289Y-113555482D01*
X100391476Y-113521577D01*
X100482777Y-113482449D01*
X100562663Y-113442710D01*
X100606006Y-113416362D01*
X100728351Y-113313418D01*
X100858267Y-113173712D01*
X100982574Y-113012973D01*
X101088092Y-112846931D01*
X101097762Y-112829430D01*
X101140372Y-112748072D01*
X101155723Y-112709005D01*
X101141998Y-112712805D01*
G36*
X97336818Y-113571112D02*
X97245325Y-113610402D01*
X97232792Y-113616563D01*
X97129794Y-113668335D01*
X97252578Y-113635883D01*
X97343925Y-113606430D01*
X97421430Y-113572703D01*
X97437665Y-113563343D01*
X97477627Y-113536221D01*
X97471305Y-113531457D01*
X97417880Y-113544024D01*
X97336818Y-113571112D01*
X97336818Y-113571112D01*
G37*
X97336818Y-113571112D02*
X97245325Y-113610402D01*
X97232792Y-113616563D01*
X97129794Y-113668335D01*
X97252578Y-113635883D01*
X97343925Y-113606430D01*
X97421430Y-113572703D01*
X97437665Y-113563343D01*
X97477627Y-113536221D01*
X97471305Y-113531457D01*
X97417880Y-113544024D01*
X97336818Y-113571112D01*
D12*
X85081400Y-113660120D03*
X85731400Y-113660120D03*
X86381400Y-113660120D03*
X87031400Y-113660120D03*
X87681400Y-113660120D03*
X88331400Y-113660120D03*
X88981400Y-113660120D03*
X89631400Y-113660120D03*
X90281400Y-113660120D03*
X90931400Y-113660120D03*
X91581400Y-113660120D03*
X92231400Y-113660120D03*
X92881400Y-113660120D03*
X93531400Y-113660120D03*
X93531400Y-120670120D03*
X92881400Y-120670120D03*
X92231400Y-120670120D03*
X91581400Y-120670120D03*
X90931400Y-120670120D03*
X90281400Y-120670120D03*
X89631400Y-120670120D03*
X88981400Y-120670120D03*
X88331400Y-120670120D03*
X87681400Y-120670120D03*
X87031400Y-120670120D03*
X86381400Y-120670120D03*
X85731400Y-120670120D03*
X85081400Y-120670120D03*
D13*
X94742000Y-136398000D03*
D14*
X94742000Y-138938000D03*
X92202000Y-136398000D03*
X92202000Y-138938000D03*
D15*
X90062300Y-130926840D03*
X94062300Y-130926840D03*
D16*
X102013000Y-98539300D03*
X106013000Y-98539300D03*
X94704920Y-107670600D03*
X90704920Y-107670600D03*
X102622600Y-94983300D03*
X106622600Y-94983300D03*
X102523540Y-88262460D03*
X106523540Y-88262460D03*
X104680000Y-74676000D03*
X108680000Y-74676000D03*
X89948000Y-82804000D03*
X93948000Y-82804000D03*
X75381100Y-77518260D03*
X79381100Y-77518260D03*
X77248000Y-88392000D03*
X81248000Y-88392000D03*
X78772000Y-99060000D03*
X82772000Y-99060000D03*
M02*
