G04 #@! TF.FileFunction,Soldermask,Bot*
%FSLAX46Y46*%
G04 Gerber Fmt 4.6, Leading zero omitted, Abs format (unit mm)*
G04 Created by KiCad (PCBNEW 4.0.6) date 07/02/18 18:42:29*
%MOMM*%
%LPD*%
G01*
G04 APERTURE LIST*
%ADD10C,0.100000*%
%ADD11C,0.010000*%
%ADD12C,2.100000*%
%ADD13O,2.100000X2.100000*%
%ADD14R,2.400000X2.000000*%
%ADD15R,2.400000X2.100000*%
%ADD16R,1.162000X1.543000*%
G04 APERTURE END LIST*
D10*
D11*
G36*
X104838745Y-110099321D02*
X104826558Y-110147884D01*
X104825875Y-110228269D01*
X104829980Y-110271145D01*
X104834801Y-110402777D01*
X104813366Y-110497401D01*
X104770109Y-110550631D01*
X104709462Y-110558085D01*
X104635860Y-110515374D01*
X104609361Y-110489391D01*
X104528001Y-110401625D01*
X104567710Y-110554636D01*
X104590337Y-110709504D01*
X104573077Y-110856396D01*
X104554151Y-110956874D01*
X104555151Y-111006277D01*
X104575629Y-111003896D01*
X104615135Y-110949016D01*
X104622940Y-110935751D01*
X104655442Y-110848684D01*
X104648346Y-110752425D01*
X104643998Y-110735125D01*
X104627870Y-110664242D01*
X104633799Y-110632438D01*
X104666640Y-110625038D01*
X104680312Y-110625305D01*
X104797647Y-110633951D01*
X104889155Y-110649497D01*
X104942324Y-110669448D01*
X104950388Y-110679123D01*
X104939270Y-110714716D01*
X104903207Y-110780594D01*
X104858810Y-110849367D01*
X104794599Y-110934718D01*
X104742790Y-110980445D01*
X104690513Y-110997397D01*
X104682467Y-110998089D01*
X104624393Y-111011630D01*
X104603893Y-111052612D01*
X104602415Y-111072545D01*
X104588216Y-111153862D01*
X104570908Y-111200922D01*
X104556201Y-111238938D01*
X104573040Y-111247756D01*
X104632238Y-111232759D01*
X104633893Y-111232264D01*
X104715693Y-111202616D01*
X104780968Y-111170941D01*
X104825699Y-111122079D01*
X104877128Y-111034051D01*
X104928687Y-110922557D01*
X104973812Y-110803298D01*
X105005938Y-110691972D01*
X105018499Y-110604278D01*
X105018506Y-110602925D01*
X105010639Y-110522256D01*
X104989723Y-110424513D01*
X104960031Y-110321675D01*
X104925840Y-110225720D01*
X104891425Y-110148625D01*
X104861062Y-110102371D01*
X104839026Y-110098934D01*
X104838745Y-110099321D01*
X104838745Y-110099321D01*
G37*
X104838745Y-110099321D02*
X104826558Y-110147884D01*
X104825875Y-110228269D01*
X104829980Y-110271145D01*
X104834801Y-110402777D01*
X104813366Y-110497401D01*
X104770109Y-110550631D01*
X104709462Y-110558085D01*
X104635860Y-110515374D01*
X104609361Y-110489391D01*
X104528001Y-110401625D01*
X104567710Y-110554636D01*
X104590337Y-110709504D01*
X104573077Y-110856396D01*
X104554151Y-110956874D01*
X104555151Y-111006277D01*
X104575629Y-111003896D01*
X104615135Y-110949016D01*
X104622940Y-110935751D01*
X104655442Y-110848684D01*
X104648346Y-110752425D01*
X104643998Y-110735125D01*
X104627870Y-110664242D01*
X104633799Y-110632438D01*
X104666640Y-110625038D01*
X104680312Y-110625305D01*
X104797647Y-110633951D01*
X104889155Y-110649497D01*
X104942324Y-110669448D01*
X104950388Y-110679123D01*
X104939270Y-110714716D01*
X104903207Y-110780594D01*
X104858810Y-110849367D01*
X104794599Y-110934718D01*
X104742790Y-110980445D01*
X104690513Y-110997397D01*
X104682467Y-110998089D01*
X104624393Y-111011630D01*
X104603893Y-111052612D01*
X104602415Y-111072545D01*
X104588216Y-111153862D01*
X104570908Y-111200922D01*
X104556201Y-111238938D01*
X104573040Y-111247756D01*
X104632238Y-111232759D01*
X104633893Y-111232264D01*
X104715693Y-111202616D01*
X104780968Y-111170941D01*
X104825699Y-111122079D01*
X104877128Y-111034051D01*
X104928687Y-110922557D01*
X104973812Y-110803298D01*
X105005938Y-110691972D01*
X105018499Y-110604278D01*
X105018506Y-110602925D01*
X105010639Y-110522256D01*
X104989723Y-110424513D01*
X104960031Y-110321675D01*
X104925840Y-110225720D01*
X104891425Y-110148625D01*
X104861062Y-110102371D01*
X104839026Y-110098934D01*
X104838745Y-110099321D01*
G36*
X100684253Y-108312084D02*
X100675334Y-108378350D01*
X100646789Y-108404879D01*
X100616686Y-108408399D01*
X100586487Y-108412200D01*
X100569772Y-108429588D01*
X100565230Y-108471315D01*
X100571547Y-108548140D01*
X100585966Y-108660126D01*
X100608191Y-108814097D01*
X100626193Y-108917353D01*
X100639481Y-108968855D01*
X100647565Y-108967558D01*
X100649956Y-108912424D01*
X100646163Y-108802408D01*
X100645312Y-108786257D01*
X100641226Y-108631638D01*
X100647754Y-108531204D01*
X100663473Y-108483995D01*
X100686961Y-108489051D01*
X100716796Y-108545411D01*
X100751557Y-108652114D01*
X100789822Y-108808197D01*
X100808210Y-108896320D01*
X100854344Y-109117887D01*
X100895361Y-109290266D01*
X100933589Y-109420220D01*
X100971350Y-109514514D01*
X101010973Y-109579909D01*
X101054780Y-109623171D01*
X101059226Y-109626363D01*
X101126828Y-109685838D01*
X101199420Y-109767472D01*
X101225759Y-109802501D01*
X101261548Y-109845750D01*
X101313011Y-109893181D01*
X101386081Y-109948864D01*
X101486688Y-110016868D01*
X101620762Y-110101262D01*
X101794235Y-110206119D01*
X101938907Y-110291882D01*
X102128940Y-110405234D01*
X102320292Y-110521706D01*
X102502047Y-110634483D01*
X102663288Y-110736752D01*
X102793100Y-110821695D01*
X102851284Y-110861457D01*
X102974839Y-110944665D01*
X103095671Y-111020001D01*
X103198954Y-111078560D01*
X103263543Y-111109135D01*
X103368054Y-111156925D01*
X103479496Y-111219292D01*
X103519893Y-111245417D01*
X103661066Y-111322067D01*
X103784770Y-111345883D01*
X103892626Y-111317151D01*
X103901609Y-111312000D01*
X103963742Y-111286754D01*
X104041852Y-111283223D01*
X104136317Y-111296403D01*
X104243575Y-111308419D01*
X104342005Y-111306629D01*
X104418202Y-111292820D01*
X104458763Y-111268783D01*
X104461367Y-111253002D01*
X104431728Y-111238490D01*
X104361977Y-111227692D01*
X104285464Y-111223515D01*
X104194099Y-111221115D01*
X104128612Y-111217926D01*
X104105981Y-111215260D01*
X104105484Y-111187283D01*
X104115267Y-111120396D01*
X104128280Y-111053135D01*
X104144342Y-110971180D01*
X104150272Y-110906867D01*
X104142770Y-110846707D01*
X104118538Y-110777208D01*
X104074279Y-110684880D01*
X104006893Y-110556609D01*
X103945144Y-110441964D01*
X103905803Y-110375434D01*
X103885621Y-110354860D01*
X103881346Y-110378079D01*
X103889729Y-110442933D01*
X103896435Y-110483199D01*
X103904787Y-110555733D01*
X103892161Y-110590484D01*
X103851761Y-110604300D01*
X103847316Y-110604978D01*
X103746400Y-110598727D01*
X103627268Y-110560667D01*
X103511353Y-110499171D01*
X103444918Y-110447878D01*
X103373903Y-110396557D01*
X103269246Y-110337795D01*
X103150712Y-110282423D01*
X103120818Y-110270218D01*
X102869215Y-110155442D01*
X102661486Y-110028064D01*
X102502512Y-109891343D01*
X102438530Y-109814601D01*
X102392455Y-109743948D01*
X102350019Y-109661718D01*
X102306615Y-109556881D01*
X102257631Y-109418412D01*
X102204919Y-109255774D01*
X102157184Y-109109315D01*
X102112647Y-108981063D01*
X102075041Y-108881153D01*
X102048096Y-108819718D01*
X102039374Y-108806185D01*
X102022914Y-108815548D01*
X102010147Y-108878809D01*
X102000945Y-108996877D01*
X101996617Y-109110461D01*
X101995417Y-109310382D01*
X102007603Y-109468822D01*
X102038049Y-109600097D01*
X102091627Y-109718524D01*
X102173212Y-109838422D01*
X102287677Y-109974105D01*
X102292384Y-109979367D01*
X102390732Y-110083723D01*
X102517028Y-110209873D01*
X102656170Y-110343107D01*
X102793049Y-110468722D01*
X102815548Y-110488738D01*
X102911151Y-110573570D01*
X102983037Y-110638663D01*
X103028595Y-110682882D01*
X103045214Y-110705086D01*
X103030282Y-110704139D01*
X102981189Y-110678904D01*
X102895323Y-110628241D01*
X102770071Y-110551015D01*
X102602825Y-110446085D01*
X102390971Y-110312315D01*
X102347308Y-110284712D01*
X102174349Y-110176521D01*
X102002883Y-110071342D01*
X101843478Y-109975505D01*
X101706702Y-109895340D01*
X101603124Y-109837176D01*
X101576672Y-109823189D01*
X101449296Y-109753322D01*
X101316920Y-109673874D01*
X101206062Y-109600833D01*
X101196168Y-109593766D01*
X101034497Y-109477020D01*
X100947094Y-109150828D01*
X100909343Y-108998730D01*
X100875828Y-108843351D01*
X100850805Y-108705570D01*
X100840164Y-108626282D01*
X100823787Y-108502000D01*
X100799859Y-108412408D01*
X100762210Y-108335769D01*
X100753938Y-108322363D01*
X100687238Y-108216796D01*
X100684253Y-108312084D01*
X100684253Y-108312084D01*
G37*
X100684253Y-108312084D02*
X100675334Y-108378350D01*
X100646789Y-108404879D01*
X100616686Y-108408399D01*
X100586487Y-108412200D01*
X100569772Y-108429588D01*
X100565230Y-108471315D01*
X100571547Y-108548140D01*
X100585966Y-108660126D01*
X100608191Y-108814097D01*
X100626193Y-108917353D01*
X100639481Y-108968855D01*
X100647565Y-108967558D01*
X100649956Y-108912424D01*
X100646163Y-108802408D01*
X100645312Y-108786257D01*
X100641226Y-108631638D01*
X100647754Y-108531204D01*
X100663473Y-108483995D01*
X100686961Y-108489051D01*
X100716796Y-108545411D01*
X100751557Y-108652114D01*
X100789822Y-108808197D01*
X100808210Y-108896320D01*
X100854344Y-109117887D01*
X100895361Y-109290266D01*
X100933589Y-109420220D01*
X100971350Y-109514514D01*
X101010973Y-109579909D01*
X101054780Y-109623171D01*
X101059226Y-109626363D01*
X101126828Y-109685838D01*
X101199420Y-109767472D01*
X101225759Y-109802501D01*
X101261548Y-109845750D01*
X101313011Y-109893181D01*
X101386081Y-109948864D01*
X101486688Y-110016868D01*
X101620762Y-110101262D01*
X101794235Y-110206119D01*
X101938907Y-110291882D01*
X102128940Y-110405234D01*
X102320292Y-110521706D01*
X102502047Y-110634483D01*
X102663288Y-110736752D01*
X102793100Y-110821695D01*
X102851284Y-110861457D01*
X102974839Y-110944665D01*
X103095671Y-111020001D01*
X103198954Y-111078560D01*
X103263543Y-111109135D01*
X103368054Y-111156925D01*
X103479496Y-111219292D01*
X103519893Y-111245417D01*
X103661066Y-111322067D01*
X103784770Y-111345883D01*
X103892626Y-111317151D01*
X103901609Y-111312000D01*
X103963742Y-111286754D01*
X104041852Y-111283223D01*
X104136317Y-111296403D01*
X104243575Y-111308419D01*
X104342005Y-111306629D01*
X104418202Y-111292820D01*
X104458763Y-111268783D01*
X104461367Y-111253002D01*
X104431728Y-111238490D01*
X104361977Y-111227692D01*
X104285464Y-111223515D01*
X104194099Y-111221115D01*
X104128612Y-111217926D01*
X104105981Y-111215260D01*
X104105484Y-111187283D01*
X104115267Y-111120396D01*
X104128280Y-111053135D01*
X104144342Y-110971180D01*
X104150272Y-110906867D01*
X104142770Y-110846707D01*
X104118538Y-110777208D01*
X104074279Y-110684880D01*
X104006893Y-110556609D01*
X103945144Y-110441964D01*
X103905803Y-110375434D01*
X103885621Y-110354860D01*
X103881346Y-110378079D01*
X103889729Y-110442933D01*
X103896435Y-110483199D01*
X103904787Y-110555733D01*
X103892161Y-110590484D01*
X103851761Y-110604300D01*
X103847316Y-110604978D01*
X103746400Y-110598727D01*
X103627268Y-110560667D01*
X103511353Y-110499171D01*
X103444918Y-110447878D01*
X103373903Y-110396557D01*
X103269246Y-110337795D01*
X103150712Y-110282423D01*
X103120818Y-110270218D01*
X102869215Y-110155442D01*
X102661486Y-110028064D01*
X102502512Y-109891343D01*
X102438530Y-109814601D01*
X102392455Y-109743948D01*
X102350019Y-109661718D01*
X102306615Y-109556881D01*
X102257631Y-109418412D01*
X102204919Y-109255774D01*
X102157184Y-109109315D01*
X102112647Y-108981063D01*
X102075041Y-108881153D01*
X102048096Y-108819718D01*
X102039374Y-108806185D01*
X102022914Y-108815548D01*
X102010147Y-108878809D01*
X102000945Y-108996877D01*
X101996617Y-109110461D01*
X101995417Y-109310382D01*
X102007603Y-109468822D01*
X102038049Y-109600097D01*
X102091627Y-109718524D01*
X102173212Y-109838422D01*
X102287677Y-109974105D01*
X102292384Y-109979367D01*
X102390732Y-110083723D01*
X102517028Y-110209873D01*
X102656170Y-110343107D01*
X102793049Y-110468722D01*
X102815548Y-110488738D01*
X102911151Y-110573570D01*
X102983037Y-110638663D01*
X103028595Y-110682882D01*
X103045214Y-110705086D01*
X103030282Y-110704139D01*
X102981189Y-110678904D01*
X102895323Y-110628241D01*
X102770071Y-110551015D01*
X102602825Y-110446085D01*
X102390971Y-110312315D01*
X102347308Y-110284712D01*
X102174349Y-110176521D01*
X102002883Y-110071342D01*
X101843478Y-109975505D01*
X101706702Y-109895340D01*
X101603124Y-109837176D01*
X101576672Y-109823189D01*
X101449296Y-109753322D01*
X101316920Y-109673874D01*
X101206062Y-109600833D01*
X101196168Y-109593766D01*
X101034497Y-109477020D01*
X100947094Y-109150828D01*
X100909343Y-108998730D01*
X100875828Y-108843351D01*
X100850805Y-108705570D01*
X100840164Y-108626282D01*
X100823787Y-108502000D01*
X100799859Y-108412408D01*
X100762210Y-108335769D01*
X100753938Y-108322363D01*
X100687238Y-108216796D01*
X100684253Y-108312084D01*
G36*
X104282837Y-110756485D02*
X104316052Y-110765203D01*
X104384868Y-110767647D01*
X104417742Y-110763066D01*
X104431050Y-110752008D01*
X104397834Y-110743290D01*
X104329019Y-110740846D01*
X104296145Y-110745427D01*
X104282837Y-110756485D01*
X104282837Y-110756485D01*
G37*
X104282837Y-110756485D02*
X104316052Y-110765203D01*
X104384868Y-110767647D01*
X104417742Y-110763066D01*
X104431050Y-110752008D01*
X104397834Y-110743290D01*
X104329019Y-110740846D01*
X104296145Y-110745427D01*
X104282837Y-110756485D01*
G36*
X104057875Y-110175765D02*
X104086013Y-110179288D01*
X104168441Y-110181065D01*
X104244208Y-110177595D01*
X104299921Y-110170402D01*
X104322180Y-110161011D01*
X104310113Y-110153785D01*
X104251580Y-110148828D01*
X104166048Y-110153513D01*
X104135727Y-110157224D01*
X104069461Y-110168418D01*
X104057875Y-110175765D01*
X104057875Y-110175765D01*
G37*
X104057875Y-110175765D02*
X104086013Y-110179288D01*
X104168441Y-110181065D01*
X104244208Y-110177595D01*
X104299921Y-110170402D01*
X104322180Y-110161011D01*
X104310113Y-110153785D01*
X104251580Y-110148828D01*
X104166048Y-110153513D01*
X104135727Y-110157224D01*
X104069461Y-110168418D01*
X104057875Y-110175765D01*
G36*
X103366247Y-109361874D02*
X103335513Y-109384686D01*
X103320802Y-109383094D01*
X103292987Y-109388553D01*
X103292560Y-109398929D01*
X103320827Y-109426321D01*
X103380620Y-109461878D01*
X103450286Y-109494849D01*
X103508173Y-109514479D01*
X103527518Y-109515601D01*
X103562063Y-109522380D01*
X103636354Y-109545513D01*
X103737550Y-109580840D01*
X103798973Y-109603562D01*
X103910645Y-109643386D01*
X104003813Y-109672394D01*
X104065064Y-109686614D01*
X104080000Y-109686794D01*
X104116736Y-109664268D01*
X104182013Y-109615672D01*
X104259333Y-109553465D01*
X104360517Y-109455953D01*
X104420184Y-109368279D01*
X104433798Y-109297296D01*
X104432583Y-109291859D01*
X104411892Y-109299110D01*
X104365956Y-109334426D01*
X104358596Y-109340852D01*
X104291016Y-109384473D01*
X104202224Y-109410049D01*
X104084161Y-109418076D01*
X103928766Y-109409044D01*
X103877085Y-109402456D01*
X103705159Y-109448523D01*
X103705759Y-109465732D01*
X103691855Y-109471567D01*
X103666744Y-109467605D01*
X103668811Y-109458263D01*
X103700290Y-109446331D01*
X103705159Y-109448523D01*
X103877085Y-109402456D01*
X103815512Y-109394607D01*
X103626377Y-109445285D01*
X103616399Y-109462567D01*
X103599117Y-109452589D01*
X103609095Y-109435307D01*
X103626377Y-109445285D01*
X103815512Y-109394607D01*
X103741622Y-109385187D01*
X103564551Y-109432633D01*
X103554573Y-109449916D01*
X103537291Y-109439937D01*
X103547269Y-109422655D01*
X103564551Y-109432633D01*
X103741622Y-109385187D01*
X103727981Y-109383448D01*
X103709009Y-109380592D01*
X103681410Y-109376913D01*
X103500797Y-109425308D01*
X103490499Y-109428978D01*
X103449294Y-109420735D01*
X103400139Y-109402544D01*
X103389036Y-109384076D01*
X103418797Y-109380787D01*
X103461457Y-109399669D01*
X103500797Y-109425308D01*
X103681410Y-109376913D01*
X103564864Y-109361379D01*
X103454588Y-109352194D01*
X103385919Y-109353460D01*
X103366247Y-109361874D01*
X103366247Y-109361874D01*
G37*
X103366247Y-109361874D02*
X103335513Y-109384686D01*
X103320802Y-109383094D01*
X103292987Y-109388553D01*
X103292560Y-109398929D01*
X103320827Y-109426321D01*
X103380620Y-109461878D01*
X103450286Y-109494849D01*
X103508173Y-109514479D01*
X103527518Y-109515601D01*
X103562063Y-109522380D01*
X103636354Y-109545513D01*
X103737550Y-109580840D01*
X103798973Y-109603562D01*
X103910645Y-109643386D01*
X104003813Y-109672394D01*
X104065064Y-109686614D01*
X104080000Y-109686794D01*
X104116736Y-109664268D01*
X104182013Y-109615672D01*
X104259333Y-109553465D01*
X104360517Y-109455953D01*
X104420184Y-109368279D01*
X104433798Y-109297296D01*
X104432583Y-109291859D01*
X104411892Y-109299110D01*
X104365956Y-109334426D01*
X104358596Y-109340852D01*
X104291016Y-109384473D01*
X104202224Y-109410049D01*
X104084161Y-109418076D01*
X103928766Y-109409044D01*
X103877085Y-109402456D01*
X103705159Y-109448523D01*
X103705759Y-109465732D01*
X103691855Y-109471567D01*
X103666744Y-109467605D01*
X103668811Y-109458263D01*
X103700290Y-109446331D01*
X103705159Y-109448523D01*
X103877085Y-109402456D01*
X103815512Y-109394607D01*
X103626377Y-109445285D01*
X103616399Y-109462567D01*
X103599117Y-109452589D01*
X103609095Y-109435307D01*
X103626377Y-109445285D01*
X103815512Y-109394607D01*
X103741622Y-109385187D01*
X103564551Y-109432633D01*
X103554573Y-109449916D01*
X103537291Y-109439937D01*
X103547269Y-109422655D01*
X103564551Y-109432633D01*
X103741622Y-109385187D01*
X103727981Y-109383448D01*
X103709009Y-109380592D01*
X103681410Y-109376913D01*
X103500797Y-109425308D01*
X103490499Y-109428978D01*
X103449294Y-109420735D01*
X103400139Y-109402544D01*
X103389036Y-109384076D01*
X103418797Y-109380787D01*
X103461457Y-109399669D01*
X103500797Y-109425308D01*
X103681410Y-109376913D01*
X103564864Y-109361379D01*
X103454588Y-109352194D01*
X103385919Y-109353460D01*
X103366247Y-109361874D01*
G36*
X104697905Y-106189946D02*
X104673049Y-106264964D01*
X104659462Y-106340777D01*
X104664307Y-106425400D01*
X104690064Y-106529041D01*
X104739211Y-106661904D01*
X104808004Y-106820463D01*
X104870876Y-106963207D01*
X104914584Y-107078102D01*
X104940768Y-107179474D01*
X104951069Y-107281653D01*
X104947127Y-107398966D01*
X104930581Y-107545746D01*
X104908594Y-107699262D01*
X104874891Y-107927317D01*
X104848850Y-108107726D01*
X104829631Y-108248640D01*
X104816394Y-108358214D01*
X104808301Y-108444601D01*
X104804515Y-108515955D01*
X104804195Y-108580430D01*
X104806503Y-108646179D01*
X104808069Y-108676404D01*
X104810102Y-108806532D01*
X104805190Y-108960771D01*
X104794394Y-109107364D01*
X104793331Y-109117595D01*
X104783979Y-109232991D01*
X104781476Y-109330257D01*
X104786058Y-109393195D01*
X104789219Y-109403789D01*
X104799477Y-109395795D01*
X104811580Y-109340550D01*
X104824034Y-109247152D01*
X104835347Y-109124692D01*
X104835607Y-109121273D01*
X104846273Y-108957883D01*
X104854873Y-108783816D01*
X104860258Y-108624605D01*
X104861482Y-108544592D01*
X104867104Y-108433802D01*
X104882029Y-108282449D01*
X104904425Y-108105306D01*
X104932462Y-107917147D01*
X104957505Y-107769813D01*
X104986480Y-107599314D01*
X105009625Y-107443319D01*
X105025682Y-107312100D01*
X105033388Y-107215933D01*
X105031625Y-107165597D01*
X105012410Y-107111025D01*
X104974767Y-107017565D01*
X104923858Y-106897601D01*
X104864842Y-106763528D01*
X104855257Y-106742181D01*
X104792050Y-106600270D01*
X104749303Y-106498289D01*
X104723604Y-106425023D01*
X104711536Y-106369254D01*
X104709685Y-106319769D01*
X104713375Y-106276191D01*
X104719792Y-106192363D01*
X104714391Y-106163547D01*
X104697905Y-106189946D01*
X104697905Y-106189946D01*
G37*
X104697905Y-106189946D02*
X104673049Y-106264964D01*
X104659462Y-106340777D01*
X104664307Y-106425400D01*
X104690064Y-106529041D01*
X104739211Y-106661904D01*
X104808004Y-106820463D01*
X104870876Y-106963207D01*
X104914584Y-107078102D01*
X104940768Y-107179474D01*
X104951069Y-107281653D01*
X104947127Y-107398966D01*
X104930581Y-107545746D01*
X104908594Y-107699262D01*
X104874891Y-107927317D01*
X104848850Y-108107726D01*
X104829631Y-108248640D01*
X104816394Y-108358214D01*
X104808301Y-108444601D01*
X104804515Y-108515955D01*
X104804195Y-108580430D01*
X104806503Y-108646179D01*
X104808069Y-108676404D01*
X104810102Y-108806532D01*
X104805190Y-108960771D01*
X104794394Y-109107364D01*
X104793331Y-109117595D01*
X104783979Y-109232991D01*
X104781476Y-109330257D01*
X104786058Y-109393195D01*
X104789219Y-109403789D01*
X104799477Y-109395795D01*
X104811580Y-109340550D01*
X104824034Y-109247152D01*
X104835347Y-109124692D01*
X104835607Y-109121273D01*
X104846273Y-108957883D01*
X104854873Y-108783816D01*
X104860258Y-108624605D01*
X104861482Y-108544592D01*
X104867104Y-108433802D01*
X104882029Y-108282449D01*
X104904425Y-108105306D01*
X104932462Y-107917147D01*
X104957505Y-107769813D01*
X104986480Y-107599314D01*
X105009625Y-107443319D01*
X105025682Y-107312100D01*
X105033388Y-107215933D01*
X105031625Y-107165597D01*
X105012410Y-107111025D01*
X104974767Y-107017565D01*
X104923858Y-106897601D01*
X104864842Y-106763528D01*
X104855257Y-106742181D01*
X104792050Y-106600270D01*
X104749303Y-106498289D01*
X104723604Y-106425023D01*
X104711536Y-106369254D01*
X104709685Y-106319769D01*
X104713375Y-106276191D01*
X104719792Y-106192363D01*
X104714391Y-106163547D01*
X104697905Y-106189946D01*
G36*
X102572135Y-108717567D02*
X102569936Y-108720630D01*
X102550287Y-108794082D01*
X102583674Y-108881134D01*
X102626600Y-108936141D01*
X102710096Y-108989978D01*
X102838715Y-109022612D01*
X103004845Y-109032961D01*
X103200873Y-109019942D01*
X103208855Y-109018965D01*
X103357431Y-109004316D01*
X103521713Y-108994305D01*
X103687515Y-108989148D01*
X103840656Y-108989067D01*
X103966954Y-108994278D01*
X104052225Y-109005000D01*
X104056089Y-109005913D01*
X104212827Y-109037828D01*
X104353207Y-109053564D01*
X104467020Y-109052946D01*
X104544062Y-109035797D01*
X104570159Y-109014744D01*
X104575358Y-108973611D01*
X104565845Y-108918530D01*
X104547993Y-108875372D01*
X104533577Y-108866196D01*
X104510545Y-108893060D01*
X104494446Y-108926866D01*
X104476949Y-108957680D01*
X104453459Y-108951563D01*
X104411931Y-108904031D01*
X104403343Y-108892976D01*
X104355925Y-108837423D01*
X104321337Y-108822381D01*
X104280683Y-108841675D01*
X104269831Y-108849349D01*
X104166107Y-108906901D01*
X104067235Y-108918946D01*
X103957612Y-108885644D01*
X103895847Y-108853167D01*
X103812048Y-108806887D01*
X103759102Y-108787709D01*
X103719712Y-108793275D01*
X103676584Y-108821226D01*
X103674280Y-108822971D01*
X103633700Y-108847655D01*
X103578576Y-108867272D01*
X103498258Y-108884095D01*
X103382097Y-108900396D01*
X103234038Y-108916927D01*
X103091336Y-108929398D01*
X102965494Y-108935808D01*
X102869021Y-108935837D01*
X102814424Y-108929165D01*
X102811073Y-108927796D01*
X102761171Y-108892621D01*
X102705565Y-108829396D01*
X102634639Y-108727119D01*
X102631596Y-108722444D01*
X102601994Y-108693705D01*
X102572135Y-108717567D01*
X102572135Y-108717567D01*
G37*
X102572135Y-108717567D02*
X102569936Y-108720630D01*
X102550287Y-108794082D01*
X102583674Y-108881134D01*
X102626600Y-108936141D01*
X102710096Y-108989978D01*
X102838715Y-109022612D01*
X103004845Y-109032961D01*
X103200873Y-109019942D01*
X103208855Y-109018965D01*
X103357431Y-109004316D01*
X103521713Y-108994305D01*
X103687515Y-108989148D01*
X103840656Y-108989067D01*
X103966954Y-108994278D01*
X104052225Y-109005000D01*
X104056089Y-109005913D01*
X104212827Y-109037828D01*
X104353207Y-109053564D01*
X104467020Y-109052946D01*
X104544062Y-109035797D01*
X104570159Y-109014744D01*
X104575358Y-108973611D01*
X104565845Y-108918530D01*
X104547993Y-108875372D01*
X104533577Y-108866196D01*
X104510545Y-108893060D01*
X104494446Y-108926866D01*
X104476949Y-108957680D01*
X104453459Y-108951563D01*
X104411931Y-108904031D01*
X104403343Y-108892976D01*
X104355925Y-108837423D01*
X104321337Y-108822381D01*
X104280683Y-108841675D01*
X104269831Y-108849349D01*
X104166107Y-108906901D01*
X104067235Y-108918946D01*
X103957612Y-108885644D01*
X103895847Y-108853167D01*
X103812048Y-108806887D01*
X103759102Y-108787709D01*
X103719712Y-108793275D01*
X103676584Y-108821226D01*
X103674280Y-108822971D01*
X103633700Y-108847655D01*
X103578576Y-108867272D01*
X103498258Y-108884095D01*
X103382097Y-108900396D01*
X103234038Y-108916927D01*
X103091336Y-108929398D01*
X102965494Y-108935808D01*
X102869021Y-108935837D01*
X102814424Y-108929165D01*
X102811073Y-108927796D01*
X102761171Y-108892621D01*
X102705565Y-108829396D01*
X102634639Y-108727119D01*
X102631596Y-108722444D01*
X102601994Y-108693705D01*
X102572135Y-108717567D01*
G36*
X104575840Y-107923848D02*
X104552358Y-107959960D01*
X104501657Y-108019928D01*
X104418901Y-108095269D01*
X104320072Y-108171719D01*
X104297377Y-108187532D01*
X104152924Y-108297484D01*
X104059402Y-108397596D01*
X104013337Y-108493054D01*
X104011253Y-108589050D01*
X104015676Y-108608280D01*
X104038889Y-108680570D01*
X104054637Y-108698664D01*
X104061832Y-108662003D01*
X104062072Y-108632061D01*
X104087056Y-108503347D01*
X104165403Y-108390512D01*
X104267807Y-108311770D01*
X104360391Y-108243321D01*
X104452286Y-108155011D01*
X104531528Y-108060737D01*
X104586156Y-107974397D01*
X104604015Y-107921191D01*
X104599840Y-107898758D01*
X104575840Y-107923848D01*
X104575840Y-107923848D01*
G37*
X104575840Y-107923848D02*
X104552358Y-107959960D01*
X104501657Y-108019928D01*
X104418901Y-108095269D01*
X104320072Y-108171719D01*
X104297377Y-108187532D01*
X104152924Y-108297484D01*
X104059402Y-108397596D01*
X104013337Y-108493054D01*
X104011253Y-108589050D01*
X104015676Y-108608280D01*
X104038889Y-108680570D01*
X104054637Y-108698664D01*
X104061832Y-108662003D01*
X104062072Y-108632061D01*
X104087056Y-108503347D01*
X104165403Y-108390512D01*
X104267807Y-108311770D01*
X104360391Y-108243321D01*
X104452286Y-108155011D01*
X104531528Y-108060737D01*
X104586156Y-107974397D01*
X104604015Y-107921191D01*
X104599840Y-107898758D01*
X104575840Y-107923848D01*
G36*
X104485014Y-108397115D02*
X104502298Y-108407094D01*
X104512276Y-108389810D01*
X104494993Y-108379832D01*
X104485014Y-108397115D01*
X104485014Y-108397115D01*
G37*
X104485014Y-108397115D02*
X104502298Y-108407094D01*
X104512276Y-108389810D01*
X104494993Y-108379832D01*
X104485014Y-108397115D01*
G36*
X102823216Y-108066653D02*
X102703065Y-108140846D01*
X102583739Y-108231724D01*
X102474925Y-108333001D01*
X102386307Y-108438397D01*
X102356512Y-108483943D01*
X102304608Y-108603367D01*
X102303208Y-108707077D01*
X102352375Y-108804694D01*
X102358676Y-108812755D01*
X102421811Y-108891513D01*
X102372081Y-108766783D01*
X102344048Y-108685410D01*
X102342379Y-108628245D01*
X102368395Y-108568910D01*
X102383218Y-108544459D01*
X102438809Y-108469629D01*
X102516440Y-108381912D01*
X102570175Y-108328144D01*
X102636814Y-108267121D01*
X102669254Y-108243246D01*
X102673022Y-108253571D01*
X102661674Y-108279340D01*
X102627084Y-108349256D01*
X102724581Y-108263530D01*
X102816268Y-108197686D01*
X102922068Y-108141329D01*
X102946964Y-108131174D01*
X103049418Y-108091161D01*
X103105239Y-108062784D01*
X103121416Y-108040049D01*
X103104938Y-108016966D01*
X103091772Y-108007000D01*
X103027254Y-107993447D01*
X102934508Y-108015426D01*
X102823216Y-108066653D01*
X102823216Y-108066653D01*
G37*
X102823216Y-108066653D02*
X102703065Y-108140846D01*
X102583739Y-108231724D01*
X102474925Y-108333001D01*
X102386307Y-108438397D01*
X102356512Y-108483943D01*
X102304608Y-108603367D01*
X102303208Y-108707077D01*
X102352375Y-108804694D01*
X102358676Y-108812755D01*
X102421811Y-108891513D01*
X102372081Y-108766783D01*
X102344048Y-108685410D01*
X102342379Y-108628245D01*
X102368395Y-108568910D01*
X102383218Y-108544459D01*
X102438809Y-108469629D01*
X102516440Y-108381912D01*
X102570175Y-108328144D01*
X102636814Y-108267121D01*
X102669254Y-108243246D01*
X102673022Y-108253571D01*
X102661674Y-108279340D01*
X102627084Y-108349256D01*
X102724581Y-108263530D01*
X102816268Y-108197686D01*
X102922068Y-108141329D01*
X102946964Y-108131174D01*
X103049418Y-108091161D01*
X103105239Y-108062784D01*
X103121416Y-108040049D01*
X103104938Y-108016966D01*
X103091772Y-108007000D01*
X103027254Y-107993447D01*
X102934508Y-108015426D01*
X102823216Y-108066653D01*
G36*
X104428536Y-108295378D02*
X104445819Y-108305356D01*
X104455797Y-108288074D01*
X104438514Y-108278095D01*
X104428536Y-108295378D01*
X104428536Y-108295378D01*
G37*
X104428536Y-108295378D02*
X104445819Y-108305356D01*
X104455797Y-108288074D01*
X104438514Y-108278095D01*
X104428536Y-108295378D01*
G36*
X103766053Y-107949281D02*
X103903213Y-107957113D01*
X104008469Y-107990934D01*
X104041878Y-108009961D01*
X104104098Y-108052215D01*
X104125791Y-108080435D01*
X104114941Y-108109447D01*
X104103468Y-108124356D01*
X104030163Y-108180465D01*
X103947934Y-108181236D01*
X103889702Y-108150131D01*
X103818807Y-108112811D01*
X103723437Y-108080944D01*
X103687554Y-108072817D01*
X103598549Y-108064167D01*
X103505815Y-108067920D01*
X103425043Y-108081611D01*
X103371918Y-108102775D01*
X103360065Y-108124269D01*
X103395460Y-108162158D01*
X103463074Y-108186378D01*
X103539039Y-108189599D01*
X103559432Y-108185501D01*
X103636937Y-108182394D01*
X103735847Y-108201151D01*
X103833508Y-108234944D01*
X103907265Y-108276942D01*
X103926162Y-108296060D01*
X103943677Y-108311829D01*
X103968445Y-108310457D01*
X104008265Y-108286936D01*
X104070936Y-108236262D01*
X104164256Y-108153429D01*
X104202686Y-108118567D01*
X104446805Y-107896517D01*
X104344121Y-107883118D01*
X104212572Y-107876885D01*
X104043924Y-107885409D01*
X103855235Y-107907525D01*
X103759077Y-107923245D01*
X103591821Y-107953288D01*
X103766053Y-107949281D01*
X103766053Y-107949281D01*
G37*
X103766053Y-107949281D02*
X103903213Y-107957113D01*
X104008469Y-107990934D01*
X104041878Y-108009961D01*
X104104098Y-108052215D01*
X104125791Y-108080435D01*
X104114941Y-108109447D01*
X104103468Y-108124356D01*
X104030163Y-108180465D01*
X103947934Y-108181236D01*
X103889702Y-108150131D01*
X103818807Y-108112811D01*
X103723437Y-108080944D01*
X103687554Y-108072817D01*
X103598549Y-108064167D01*
X103505815Y-108067920D01*
X103425043Y-108081611D01*
X103371918Y-108102775D01*
X103360065Y-108124269D01*
X103395460Y-108162158D01*
X103463074Y-108186378D01*
X103539039Y-108189599D01*
X103559432Y-108185501D01*
X103636937Y-108182394D01*
X103735847Y-108201151D01*
X103833508Y-108234944D01*
X103907265Y-108276942D01*
X103926162Y-108296060D01*
X103943677Y-108311829D01*
X103968445Y-108310457D01*
X104008265Y-108286936D01*
X104070936Y-108236262D01*
X104164256Y-108153429D01*
X104202686Y-108118567D01*
X104446805Y-107896517D01*
X104344121Y-107883118D01*
X104212572Y-107876885D01*
X104043924Y-107885409D01*
X103855235Y-107907525D01*
X103759077Y-107923245D01*
X103591821Y-107953288D01*
X103766053Y-107949281D01*
G36*
X99883604Y-108366903D02*
X99797290Y-108410213D01*
X99729865Y-108448225D01*
X99582421Y-108535678D01*
X99686235Y-108565157D01*
X99883062Y-108645644D01*
X100040777Y-108763073D01*
X100068079Y-108791749D01*
X100169307Y-108892028D01*
X100249458Y-108943840D01*
X100297369Y-108949444D01*
X100300048Y-108931567D01*
X100260223Y-108898545D01*
X100244092Y-108888739D01*
X100186430Y-108844753D01*
X100155661Y-108787008D01*
X100147347Y-108701093D01*
X100154379Y-108597481D01*
X100167637Y-108537887D01*
X100203328Y-108509484D01*
X100261133Y-108497270D01*
X100324283Y-108484178D01*
X100353391Y-108470476D01*
X100353559Y-108468341D01*
X100321455Y-108444262D01*
X100251462Y-108414380D01*
X100161025Y-108384040D01*
X100067590Y-108358587D01*
X99988601Y-108343364D01*
X99944070Y-108342884D01*
X99883604Y-108366903D01*
X99883604Y-108366903D01*
G37*
X99883604Y-108366903D02*
X99797290Y-108410213D01*
X99729865Y-108448225D01*
X99582421Y-108535678D01*
X99686235Y-108565157D01*
X99883062Y-108645644D01*
X100040777Y-108763073D01*
X100068079Y-108791749D01*
X100169307Y-108892028D01*
X100249458Y-108943840D01*
X100297369Y-108949444D01*
X100300048Y-108931567D01*
X100260223Y-108898545D01*
X100244092Y-108888739D01*
X100186430Y-108844753D01*
X100155661Y-108787008D01*
X100147347Y-108701093D01*
X100154379Y-108597481D01*
X100167637Y-108537887D01*
X100203328Y-108509484D01*
X100261133Y-108497270D01*
X100324283Y-108484178D01*
X100353391Y-108470476D01*
X100353559Y-108468341D01*
X100321455Y-108444262D01*
X100251462Y-108414380D01*
X100161025Y-108384040D01*
X100067590Y-108358587D01*
X99988601Y-108343364D01*
X99944070Y-108342884D01*
X99883604Y-108366903D01*
G36*
X98389421Y-102405877D02*
X98379594Y-102592316D01*
X98417361Y-102754320D01*
X98501136Y-102887609D01*
X98598325Y-102969483D01*
X98652202Y-103007256D01*
X98661591Y-103021731D01*
X98632453Y-103014919D01*
X98570753Y-102988829D01*
X98482455Y-102945472D01*
X98405165Y-102904369D01*
X98181187Y-102781772D01*
X98269952Y-102880999D01*
X98325123Y-102947828D01*
X98361798Y-103001855D01*
X98368537Y-103016877D01*
X98403900Y-103060017D01*
X98491871Y-103122521D01*
X98632119Y-103204178D01*
X98822943Y-103304086D01*
X98922666Y-103358763D01*
X98990595Y-103404287D01*
X99023243Y-103436192D01*
X99017130Y-103450013D01*
X98968775Y-103441284D01*
X98915050Y-103422196D01*
X98854709Y-103404229D01*
X98825441Y-103407074D01*
X98824992Y-103411880D01*
X98816140Y-103444013D01*
X98771286Y-103446094D01*
X98701276Y-103419554D01*
X98648845Y-103388594D01*
X98533701Y-103297672D01*
X98404231Y-103172570D01*
X98274419Y-103027941D01*
X98158249Y-102878434D01*
X98147892Y-102863738D01*
X98088119Y-102782655D01*
X98054056Y-102748428D01*
X98043393Y-102758914D01*
X98044014Y-102767494D01*
X98071127Y-102849801D01*
X98132163Y-102960286D01*
X98220198Y-103088176D01*
X98328303Y-103222697D01*
X98359555Y-103258224D01*
X98429833Y-103338376D01*
X98483382Y-103402845D01*
X98510519Y-103439887D01*
X98511955Y-103443076D01*
X98497142Y-103474647D01*
X98453409Y-103522874D01*
X98448381Y-103527526D01*
X98361414Y-103582147D01*
X98240915Y-103626116D01*
X98102696Y-103657112D01*
X97962566Y-103672818D01*
X97836335Y-103670917D01*
X97739813Y-103649086D01*
X97714344Y-103635177D01*
X97664220Y-103612952D01*
X97643486Y-103612467D01*
X97637946Y-103628715D01*
X97672485Y-103656563D01*
X97733980Y-103688740D01*
X97809312Y-103717975D01*
X97858845Y-103731810D01*
X97918720Y-103749272D01*
X97939468Y-103763487D01*
X97934615Y-103766911D01*
X97908911Y-103798484D01*
X97883596Y-103865801D01*
X97875725Y-103897663D01*
X97844606Y-103995101D01*
X97800212Y-104083255D01*
X97790019Y-104097969D01*
X97730004Y-104177711D01*
X97876146Y-104123389D01*
X97978717Y-104074121D01*
X98092519Y-103996040D01*
X98228402Y-103881580D01*
X98246978Y-103864795D01*
X98348004Y-103774048D01*
X98420268Y-103714374D01*
X98476349Y-103678416D01*
X98528827Y-103658820D01*
X98590283Y-103648229D01*
X98623759Y-103644490D01*
X98734654Y-103638017D01*
X98803619Y-103647872D01*
X98829734Y-103676361D01*
X98812084Y-103725794D01*
X98749751Y-103798477D01*
X98641817Y-103896719D01*
X98487367Y-104022827D01*
X98467065Y-104038840D01*
X98344402Y-104134599D01*
X98253046Y-104202203D01*
X98180143Y-104248646D01*
X98112836Y-104280925D01*
X98038269Y-104306032D01*
X97943583Y-104330962D01*
X97918804Y-104337111D01*
X97828508Y-104356126D01*
X97727466Y-104372291D01*
X97625442Y-104384892D01*
X97532195Y-104393214D01*
X97457486Y-104396547D01*
X97411074Y-104394174D01*
X97402724Y-104385384D01*
X97431642Y-104372718D01*
X97448277Y-104358261D01*
X97415284Y-104339570D01*
X97344033Y-104318364D01*
X97244596Y-104288243D01*
X97155539Y-104254538D01*
X97125969Y-104240572D01*
X97070911Y-104216579D01*
X97054545Y-104220836D01*
X97071656Y-104246120D01*
X97117030Y-104285207D01*
X97185457Y-104330872D01*
X97195297Y-104336640D01*
X97259185Y-104375291D01*
X97289689Y-104397464D01*
X97285173Y-104399460D01*
X97254416Y-104399427D01*
X97260936Y-104425070D01*
X97296898Y-104468146D01*
X97354466Y-104520411D01*
X97425804Y-104573620D01*
X97485480Y-104610206D01*
X97647350Y-104673484D01*
X97811819Y-104691485D01*
X97965979Y-104664271D01*
X98076956Y-104607318D01*
X98130028Y-104574283D01*
X98147674Y-104574704D01*
X98133951Y-104601694D01*
X98092913Y-104648371D01*
X98028619Y-104707849D01*
X98007245Y-104725661D01*
X97862779Y-104823489D01*
X97677063Y-104917787D01*
X97607427Y-104947468D01*
X97352375Y-105051335D01*
X97457461Y-105065341D01*
X97616945Y-105059878D01*
X97798965Y-105004980D01*
X98001055Y-104901820D01*
X98220753Y-104751571D01*
X98369449Y-104631252D01*
X98450034Y-104563662D01*
X98512366Y-104513863D01*
X98545755Y-104490313D01*
X98548448Y-104489567D01*
X98549018Y-104517398D01*
X98541658Y-104583285D01*
X98534634Y-104630756D01*
X98489808Y-104791000D01*
X98413209Y-104942610D01*
X98317384Y-105061337D01*
X98224983Y-105119723D01*
X98094803Y-105165977D01*
X97944961Y-105195799D01*
X97793576Y-105204890D01*
X97729029Y-105200992D01*
X97638520Y-105193875D01*
X97601672Y-105196799D01*
X97616839Y-105208518D01*
X97682378Y-105227785D01*
X97796644Y-105253358D01*
X97798669Y-105253772D01*
X97917164Y-105269421D01*
X98037792Y-105272078D01*
X98100132Y-105266311D01*
X98183140Y-105244304D01*
X98258792Y-105203821D01*
X98332468Y-105138693D01*
X98409551Y-105042751D01*
X98495420Y-104909822D01*
X98595458Y-104733742D01*
X98645052Y-104641564D01*
X98736074Y-104474390D01*
X98810309Y-104348655D01*
X98874493Y-104254488D01*
X98935360Y-104182016D01*
X98999645Y-104121370D01*
X99000333Y-104120785D01*
X99098232Y-104045213D01*
X99181897Y-103994654D01*
X99242372Y-103973528D01*
X99270699Y-103986256D01*
X99270953Y-103987183D01*
X99258857Y-104019030D01*
X99222194Y-104083946D01*
X99168553Y-104168613D01*
X99161560Y-104179132D01*
X99100465Y-104280773D01*
X99055777Y-104384117D01*
X99020432Y-104508531D01*
X98993430Y-104640060D01*
X98964886Y-104780980D01*
X98937241Y-104880341D01*
X98904967Y-104952659D01*
X98862537Y-105012452D01*
X98843454Y-105033986D01*
X98761645Y-105115075D01*
X98651369Y-105214458D01*
X98529851Y-105317285D01*
X98414314Y-105408707D01*
X98375690Y-105437275D01*
X98338170Y-105462835D01*
X98329179Y-105459350D01*
X98348216Y-105418908D01*
X98371796Y-105375599D01*
X98430295Y-105268947D01*
X98289468Y-105395472D01*
X98187548Y-105477423D01*
X98073205Y-105555366D01*
X98000702Y-105596880D01*
X97908443Y-105647380D01*
X97864984Y-105681889D01*
X97871722Y-105701362D01*
X97930058Y-105706753D01*
X98041389Y-105699018D01*
X98134793Y-105688403D01*
X98269145Y-105679405D01*
X98370522Y-105693101D01*
X98458753Y-105732237D01*
X98460989Y-105733582D01*
X98514518Y-105780668D01*
X98534402Y-105843900D01*
X98521740Y-105934544D01*
X98490092Y-106031221D01*
X98458340Y-106119391D01*
X98447038Y-106168398D01*
X98456732Y-106191894D01*
X98487972Y-106203536D01*
X98497105Y-106205703D01*
X98590830Y-106251314D01*
X98657735Y-106328871D01*
X98688295Y-106422356D01*
X98676593Y-106507498D01*
X98656000Y-106572925D01*
X98667417Y-106594629D01*
X98709303Y-106578523D01*
X98756732Y-106568514D01*
X98773005Y-106586103D01*
X98800976Y-106742189D01*
X98783936Y-106865821D01*
X98767372Y-106944376D01*
X98771234Y-107006558D01*
X98801839Y-107065836D01*
X98865503Y-107135676D01*
X98944537Y-107208253D01*
X99150608Y-107395250D01*
X99315080Y-107553056D01*
X99441583Y-107686248D01*
X99533749Y-107799399D01*
X99595210Y-107897085D01*
X99629599Y-107983881D01*
X99640546Y-108064362D01*
X99640028Y-108084361D01*
X99605562Y-108221023D01*
X99525064Y-108338396D01*
X99482884Y-108375198D01*
X99456680Y-108398395D01*
X99467433Y-108404752D01*
X99521682Y-108394590D01*
X99580592Y-108379989D01*
X99729258Y-108327706D01*
X99826818Y-108259043D01*
X99873425Y-108172301D01*
X99869234Y-108065778D01*
X99814400Y-107937775D01*
X99709076Y-107786593D01*
X99641696Y-107706500D01*
X99414273Y-107412337D01*
X99240914Y-107107340D01*
X99160391Y-106913185D01*
X99122986Y-106802916D01*
X99105021Y-106726571D01*
X99104173Y-106665998D01*
X99118122Y-106603038D01*
X99119937Y-106596923D01*
X99166373Y-106481586D01*
X99232237Y-106366267D01*
X99306323Y-106267546D01*
X99377417Y-106201995D01*
X99393202Y-106192836D01*
X99439655Y-106166721D01*
X99448306Y-106140798D01*
X99420513Y-106096090D01*
X99401845Y-106071742D01*
X99344687Y-105987589D01*
X99330768Y-105939563D01*
X99359782Y-105927880D01*
X99431420Y-105952752D01*
X99511817Y-105994888D01*
X99681111Y-106068890D01*
X99849131Y-106093001D01*
X100031953Y-106069191D01*
X100060067Y-106062033D01*
X100160210Y-106049058D01*
X100227181Y-106068296D01*
X100254202Y-106114962D01*
X100234497Y-106184278D01*
X100234170Y-106184844D01*
X100189207Y-106220263D01*
X100109669Y-106251789D01*
X100017387Y-106273341D01*
X99934193Y-106278836D01*
X99909239Y-106275386D01*
X99856225Y-106270447D01*
X99836257Y-106278029D01*
X99848276Y-106307669D01*
X99891838Y-106365089D01*
X99956933Y-106439861D01*
X100033555Y-106521559D01*
X100111699Y-106599757D01*
X100181355Y-106664028D01*
X100232518Y-106703944D01*
X100252480Y-106711702D01*
X100287096Y-106677681D01*
X100327771Y-106599021D01*
X100370247Y-106486576D01*
X100410265Y-106351202D01*
X100434995Y-106246444D01*
X100459016Y-106143481D01*
X100477981Y-106082240D01*
X100489901Y-106066450D01*
X100492791Y-106099841D01*
X100489448Y-106144200D01*
X100495359Y-106163642D01*
X100522269Y-106132337D01*
X100570502Y-106049818D01*
X100619942Y-105955841D01*
X100697011Y-105809462D01*
X100778385Y-105661867D01*
X100858899Y-105521676D01*
X100933389Y-105397514D01*
X100996689Y-105298002D01*
X101043638Y-105231762D01*
X101068122Y-105207569D01*
X101087637Y-105227453D01*
X101099145Y-105292249D01*
X101102079Y-105390911D01*
X101095872Y-105512400D01*
X101087762Y-105589754D01*
X101065985Y-105764250D01*
X101189713Y-105599132D01*
X101252369Y-105518065D01*
X101302701Y-105457618D01*
X101330820Y-105429601D01*
X101332189Y-105428990D01*
X101355111Y-105442859D01*
X101351449Y-105501215D01*
X101322807Y-105599645D01*
X101270791Y-105733732D01*
X101197003Y-105899062D01*
X101103050Y-106091219D01*
X101063755Y-106167739D01*
X100916507Y-106451020D01*
X100996588Y-106682800D01*
X101048375Y-106819689D01*
X101114803Y-106977425D01*
X101183613Y-107127235D01*
X101201149Y-107162873D01*
X101330383Y-107439691D01*
X101438126Y-107709552D01*
X101521664Y-107963763D01*
X101578280Y-108193637D01*
X101605262Y-108390483D01*
X101607087Y-108462228D01*
X101605547Y-108550170D01*
X101667506Y-108448377D01*
X101729464Y-108346582D01*
X101730884Y-108426551D01*
X101737054Y-108488702D01*
X101752247Y-108495190D01*
X101776279Y-108446037D01*
X101785599Y-108419195D01*
X101823656Y-108348394D01*
X101871108Y-108330995D01*
X101923739Y-108368503D01*
X101924594Y-108369551D01*
X101950301Y-108395181D01*
X101968109Y-108386639D01*
X101986130Y-108335457D01*
X101997077Y-108293884D01*
X102010806Y-108206644D01*
X102008219Y-108103446D01*
X101988493Y-107968386D01*
X101977230Y-107909856D01*
X101923098Y-107689414D01*
X101852834Y-107505943D01*
X101756865Y-107340347D01*
X101625620Y-107173535D01*
X101585593Y-107128767D01*
X101428835Y-106948571D01*
X101312581Y-106794882D01*
X101232034Y-106660541D01*
X101182395Y-106538386D01*
X101176840Y-106518899D01*
X101159125Y-106421852D01*
X101169926Y-106339509D01*
X101201666Y-106261165D01*
X101264686Y-106130960D01*
X101323038Y-106015684D01*
X101372325Y-105923439D01*
X101408154Y-105862321D01*
X101426127Y-105840431D01*
X101427215Y-105845555D01*
X101420342Y-105898462D01*
X101409653Y-105980112D01*
X101405965Y-106008187D01*
X101390039Y-106129326D01*
X101484103Y-105955318D01*
X101574865Y-105816926D01*
X101699353Y-105680738D01*
X101786176Y-105601970D01*
X101882316Y-105519869D01*
X101946725Y-105469213D01*
X101990270Y-105444408D01*
X102023813Y-105439862D01*
X102058219Y-105449981D01*
X102070999Y-105455323D01*
X102127463Y-105478762D01*
X102222489Y-105517600D01*
X102342261Y-105566210D01*
X102458567Y-105613170D01*
X102673143Y-105706344D01*
X102838305Y-105794025D01*
X102960302Y-105880074D01*
X103045382Y-105968359D01*
X103055673Y-105982503D01*
X103111531Y-106062493D01*
X103324139Y-106005525D01*
X103437629Y-105978855D01*
X103513631Y-105968983D01*
X103544340Y-105976915D01*
X103544415Y-105977171D01*
X103543843Y-106034087D01*
X103527229Y-106119945D01*
X103500126Y-106211540D01*
X103472592Y-106277341D01*
X103448250Y-106330015D01*
X103456832Y-106353159D01*
X103502416Y-106366659D01*
X103582863Y-106412977D01*
X103660753Y-106510819D01*
X103733733Y-106655261D01*
X103799448Y-106841381D01*
X103855541Y-107064259D01*
X103869390Y-107133570D01*
X103892058Y-107271758D01*
X103897058Y-107360459D01*
X103883201Y-107404172D01*
X103849302Y-107407397D01*
X103803884Y-107381694D01*
X103755596Y-107368332D01*
X103672354Y-107376614D01*
X103567284Y-107401264D01*
X103465832Y-107430034D01*
X103402595Y-107456452D01*
X103361069Y-107492008D01*
X103324749Y-107548194D01*
X103305595Y-107583480D01*
X103258159Y-107683726D01*
X103219634Y-107784928D01*
X103209028Y-107821184D01*
X103182443Y-107928040D01*
X103272360Y-107779401D01*
X103378585Y-107640448D01*
X103505043Y-107548130D01*
X103626653Y-107502228D01*
X103701704Y-107494931D01*
X103777716Y-107520978D01*
X103830356Y-107552962D01*
X103898702Y-107592761D01*
X103985021Y-107635316D01*
X104075004Y-107674659D01*
X104154342Y-107704824D01*
X104208722Y-107719843D01*
X104224579Y-107717357D01*
X104217683Y-107688487D01*
X104197036Y-107612607D01*
X104164664Y-107496906D01*
X104122594Y-107348568D01*
X104072851Y-107174780D01*
X104018998Y-106988050D01*
X103948174Y-106746526D01*
X103889886Y-106555236D01*
X103842636Y-106409740D01*
X103804923Y-106305604D01*
X103775246Y-106238388D01*
X103754717Y-106206398D01*
X103701915Y-106116132D01*
X103705505Y-106027018D01*
X103765440Y-105939342D01*
X103803027Y-105906425D01*
X103878651Y-105833045D01*
X103907932Y-105764728D01*
X103908894Y-105746425D01*
X103897613Y-105669323D01*
X103870546Y-105575193D01*
X103834891Y-105483168D01*
X103797845Y-105412380D01*
X103772640Y-105384231D01*
X103758820Y-105391832D01*
X103768709Y-105445736D01*
X103797669Y-105534308D01*
X103830386Y-105636172D01*
X103840986Y-105702887D01*
X103831329Y-105750404D01*
X103824450Y-105763839D01*
X103781603Y-105808407D01*
X103741788Y-105803127D01*
X103721531Y-105765839D01*
X103704399Y-105734050D01*
X103672616Y-105744434D01*
X103639636Y-105772817D01*
X103575625Y-105795502D01*
X103463792Y-105788471D01*
X103304294Y-105751747D01*
X103143255Y-105701268D01*
X102994936Y-105646400D01*
X102839619Y-105581518D01*
X102691880Y-105513390D01*
X102566294Y-105448788D01*
X102477438Y-105394484D01*
X102468250Y-105387700D01*
X102408100Y-105346460D01*
X102317840Y-105289993D01*
X102216773Y-105230362D01*
X102214541Y-105229087D01*
X102090003Y-105166281D01*
X102000498Y-105141634D01*
X101940282Y-105154280D01*
X101913242Y-105183554D01*
X101883825Y-105214709D01*
X101828562Y-105261446D01*
X101761740Y-105313071D01*
X101697645Y-105358884D01*
X101650561Y-105388188D01*
X101634608Y-105392212D01*
X101641679Y-105360989D01*
X101663413Y-105294042D01*
X101683533Y-105237580D01*
X101735792Y-105095383D01*
X101649814Y-104999993D01*
X101490043Y-104805396D01*
X101342573Y-104593351D01*
X101221983Y-104385383D01*
X101191355Y-104323003D01*
X101128132Y-104193869D01*
X101070365Y-104087999D01*
X101022842Y-104013199D01*
X100990354Y-103977275D01*
X100979750Y-103978142D01*
X100985720Y-104009853D01*
X101009491Y-104081901D01*
X101046500Y-104182804D01*
X101092181Y-104301074D01*
X101141969Y-104425226D01*
X101191300Y-104543777D01*
X101235610Y-104645239D01*
X101270332Y-104718129D01*
X101282623Y-104740190D01*
X101316856Y-104825616D01*
X101303573Y-104888375D01*
X101245377Y-104921881D01*
X101209400Y-104925629D01*
X101163940Y-104918616D01*
X101129842Y-104887237D01*
X101095252Y-104818606D01*
X101082600Y-104787815D01*
X101040010Y-104673731D01*
X100999323Y-104552512D01*
X100987412Y-104513359D01*
X100949335Y-104393778D01*
X100921787Y-104327794D01*
X100906246Y-104313291D01*
X100904197Y-104348151D01*
X100917116Y-104430255D01*
X100946486Y-104557488D01*
X100949194Y-104568017D01*
X101030625Y-104882794D01*
X100890196Y-104978266D01*
X100801368Y-105046028D01*
X100756343Y-105097130D01*
X100756760Y-105128024D01*
X100804258Y-105135158D01*
X100818460Y-105133574D01*
X100843195Y-105132619D01*
X100856800Y-105142537D01*
X100857448Y-105170268D01*
X100843307Y-105222752D01*
X100812550Y-105306928D01*
X100763347Y-105429736D01*
X100699792Y-105583831D01*
X100631412Y-105748157D01*
X100581027Y-105866016D01*
X100545161Y-105943147D01*
X100520341Y-105985286D01*
X100503092Y-105998170D01*
X100489940Y-105987537D01*
X100477410Y-105959123D01*
X100475537Y-105954131D01*
X100460246Y-105888621D01*
X100471594Y-105823572D01*
X100513582Y-105736847D01*
X100515347Y-105733697D01*
X100556150Y-105640071D01*
X100562560Y-105571920D01*
X100535514Y-105536834D01*
X100491129Y-105537481D01*
X100450431Y-105532891D01*
X100442078Y-105521405D01*
X100457278Y-105490816D01*
X100472326Y-105484083D01*
X100515698Y-105451875D01*
X100531292Y-105427447D01*
X100534143Y-105393703D01*
X100513290Y-105343360D01*
X100463875Y-105267359D01*
X100397732Y-105178360D01*
X100272976Y-105010802D01*
X100181854Y-104876402D01*
X100119878Y-104766692D01*
X100082564Y-104673203D01*
X100065423Y-104587465D01*
X100063044Y-104546641D01*
X100069126Y-104437327D01*
X100087331Y-104312573D01*
X100099952Y-104254451D01*
X100119557Y-104136537D01*
X100125061Y-104013290D01*
X100121378Y-103959546D01*
X100110284Y-103850102D01*
X100104077Y-103742491D01*
X100103592Y-103712591D01*
X100103726Y-103603909D01*
X100225524Y-103595284D01*
X100313684Y-103583583D01*
X100431757Y-103560848D01*
X100555458Y-103531805D01*
X100565654Y-103529144D01*
X100733142Y-103472447D01*
X100874263Y-103393352D01*
X101001893Y-103282174D01*
X101128907Y-103129231D01*
X101166203Y-103077477D01*
X101234528Y-102978107D01*
X101268783Y-102922126D01*
X101269281Y-102908159D01*
X101236336Y-102934833D01*
X101187875Y-102982714D01*
X101081856Y-103077503D01*
X100952470Y-103173153D01*
X100811298Y-103263153D01*
X100669926Y-103340994D01*
X100539934Y-103400165D01*
X100432905Y-103434157D01*
X100375547Y-103439296D01*
X100353464Y-103421833D01*
X100371966Y-103382279D01*
X100423096Y-103327350D01*
X100498902Y-103263766D01*
X100591428Y-103198245D01*
X100692721Y-103137506D01*
X100787537Y-103091318D01*
X100924645Y-103026139D01*
X101040708Y-102952397D01*
X101144292Y-102861345D01*
X101173199Y-102827381D01*
X100444541Y-103022624D01*
X100434563Y-103039906D01*
X100417280Y-103029929D01*
X100427259Y-103012646D01*
X100444541Y-103022624D01*
X101173199Y-102827381D01*
X101243966Y-102744233D01*
X101274266Y-102700109D01*
X100596687Y-102881666D01*
X100599284Y-102892823D01*
X100567960Y-102929861D01*
X100566235Y-102931581D01*
X100515187Y-102975857D01*
X100481262Y-102996105D01*
X100478665Y-102984948D01*
X100509988Y-102947910D01*
X100511713Y-102946190D01*
X100562761Y-102901914D01*
X100596687Y-102881666D01*
X101274266Y-102700109D01*
X101348291Y-102592314D01*
X101463430Y-102401008D01*
X101549920Y-102245519D01*
X101634153Y-102083916D01*
X101707894Y-101932671D01*
X101762910Y-101808253D01*
X101774409Y-101778951D01*
X101816463Y-101663428D01*
X101835373Y-101598433D01*
X101829588Y-101582345D01*
X101797556Y-101613542D01*
X101737729Y-101690401D01*
X101716721Y-101718619D01*
X101630594Y-101827725D01*
X101515119Y-101963895D01*
X101381357Y-102114781D01*
X101240373Y-102268043D01*
X101103227Y-102411332D01*
X101030695Y-102484127D01*
X100925498Y-102587413D01*
X100855831Y-102654478D01*
X100817231Y-102688931D01*
X100805235Y-102694383D01*
X100815378Y-102674443D01*
X100838580Y-102639481D01*
X100902925Y-102543379D01*
X100977589Y-102429204D01*
X101056837Y-102306063D01*
X101134934Y-102183060D01*
X101206149Y-102069299D01*
X101264745Y-101973883D01*
X101304989Y-101905917D01*
X101321146Y-101874507D01*
X101321061Y-101873441D01*
X101300528Y-101891504D01*
X101253815Y-101944821D01*
X101189093Y-102023856D01*
X101150591Y-102072513D01*
X101077966Y-102163027D01*
X101017244Y-102234493D01*
X100977362Y-102276586D01*
X100968023Y-102283393D01*
X100958515Y-102285585D01*
X100953932Y-102280741D01*
X100956379Y-102260790D01*
X100967967Y-102217661D01*
X100990805Y-102143282D01*
X101026999Y-102029582D01*
X101066506Y-101906391D01*
X101107072Y-101777978D01*
X101140102Y-101669794D01*
X101163881Y-101588097D01*
X101176690Y-101539148D01*
X101176815Y-101529205D01*
X101162536Y-101564526D01*
X101153007Y-101591035D01*
X101118432Y-101668123D01*
X101059710Y-101778353D01*
X100984850Y-101908482D01*
X100901866Y-102045266D01*
X100818768Y-102175461D01*
X100743567Y-102285821D01*
X100690208Y-102356110D01*
X100582324Y-102485556D01*
X100632892Y-102342250D01*
X100664341Y-102243379D01*
X100694076Y-102133386D01*
X100719037Y-102026195D01*
X100736168Y-101935735D01*
X100742409Y-101875932D01*
X100738825Y-101859856D01*
X100722603Y-101879538D01*
X100694617Y-101938704D01*
X100667990Y-102005917D01*
X100600637Y-102163133D01*
X100509139Y-102343122D01*
X100404333Y-102526873D01*
X100297056Y-102695379D01*
X100198891Y-102828723D01*
X100058156Y-102983066D01*
X99910093Y-103115320D01*
X99767825Y-103214436D01*
X99698453Y-103250106D01*
X99596979Y-103294311D01*
X99701650Y-103225453D01*
X99883008Y-103079172D01*
X100053893Y-102884930D01*
X100216274Y-102640081D01*
X100372118Y-102341980D01*
X100394377Y-102293985D01*
X100472476Y-102122474D01*
X100528143Y-101997604D01*
X100562718Y-101914817D01*
X100577539Y-101869560D01*
X100573945Y-101857276D01*
X100553274Y-101873409D01*
X100516867Y-101913405D01*
X100500740Y-101932098D01*
X100382318Y-102061225D01*
X100285365Y-102148068D01*
X100213103Y-102189844D01*
X100198744Y-102192983D01*
X100157564Y-102212897D01*
X100086161Y-102262027D01*
X99996329Y-102331894D01*
X99939906Y-102379027D01*
X99849177Y-102454785D01*
X99774839Y-102513072D01*
X99726749Y-102546369D01*
X99714328Y-102551109D01*
X99696733Y-102511461D01*
X99704028Y-102439592D01*
X99732614Y-102352011D01*
X99775489Y-102270413D01*
X99854920Y-102175032D01*
X99974578Y-102076058D01*
X100074787Y-102008285D01*
X100197915Y-101927821D01*
X100276482Y-101872223D01*
X100309566Y-101842406D01*
X100296249Y-101839284D01*
X100235613Y-101863775D01*
X100206023Y-101877612D01*
X100013845Y-101979923D01*
X99870597Y-102082647D01*
X99769185Y-102193108D01*
X99702520Y-102318629D01*
X99670233Y-102430965D01*
X99646225Y-102530252D01*
X99625199Y-102590482D01*
X99610149Y-102607566D01*
X99604064Y-102577423D01*
X99607675Y-102516417D01*
X99608266Y-102453917D01*
X99597925Y-102422454D01*
X99586020Y-102432092D01*
X99587636Y-102441630D01*
X99580886Y-102496962D01*
X99548402Y-102571020D01*
X99502831Y-102641578D01*
X99456820Y-102686413D01*
X99445537Y-102691342D01*
X99387715Y-102695610D01*
X99298759Y-102690733D01*
X99240142Y-102683730D01*
X99122865Y-102654618D01*
X99037539Y-102600386D01*
X98974565Y-102511136D01*
X98924341Y-102376968D01*
X98916740Y-102350286D01*
X98883082Y-102243128D01*
X98855925Y-102190964D01*
X98834170Y-102192860D01*
X98816715Y-102247880D01*
X98814010Y-102262969D01*
X98809521Y-102348907D01*
X98831419Y-102428769D01*
X98885850Y-102516018D01*
X98978889Y-102624037D01*
X99057036Y-102711263D01*
X99094731Y-102762819D01*
X99092829Y-102781502D01*
X99052185Y-102770109D01*
X99018740Y-102754571D01*
X98972105Y-102733373D01*
X98967968Y-102741788D01*
X98988198Y-102770058D01*
X99027938Y-102832912D01*
X99059600Y-102894178D01*
X99078891Y-102943148D01*
X99068666Y-102966566D01*
X99017762Y-102977297D01*
X98984414Y-102980828D01*
X98840254Y-102971990D01*
X98703543Y-102912636D01*
X98620925Y-102851174D01*
X98577847Y-102810502D01*
X98546822Y-102766567D01*
X98521785Y-102705482D01*
X98496670Y-102613359D01*
X98473947Y-102514708D01*
X98415713Y-102254040D01*
X98389421Y-102405877D01*
X98389421Y-102405877D01*
G37*
X98389421Y-102405877D02*
X98379594Y-102592316D01*
X98417361Y-102754320D01*
X98501136Y-102887609D01*
X98598325Y-102969483D01*
X98652202Y-103007256D01*
X98661591Y-103021731D01*
X98632453Y-103014919D01*
X98570753Y-102988829D01*
X98482455Y-102945472D01*
X98405165Y-102904369D01*
X98181187Y-102781772D01*
X98269952Y-102880999D01*
X98325123Y-102947828D01*
X98361798Y-103001855D01*
X98368537Y-103016877D01*
X98403900Y-103060017D01*
X98491871Y-103122521D01*
X98632119Y-103204178D01*
X98822943Y-103304086D01*
X98922666Y-103358763D01*
X98990595Y-103404287D01*
X99023243Y-103436192D01*
X99017130Y-103450013D01*
X98968775Y-103441284D01*
X98915050Y-103422196D01*
X98854709Y-103404229D01*
X98825441Y-103407074D01*
X98824992Y-103411880D01*
X98816140Y-103444013D01*
X98771286Y-103446094D01*
X98701276Y-103419554D01*
X98648845Y-103388594D01*
X98533701Y-103297672D01*
X98404231Y-103172570D01*
X98274419Y-103027941D01*
X98158249Y-102878434D01*
X98147892Y-102863738D01*
X98088119Y-102782655D01*
X98054056Y-102748428D01*
X98043393Y-102758914D01*
X98044014Y-102767494D01*
X98071127Y-102849801D01*
X98132163Y-102960286D01*
X98220198Y-103088176D01*
X98328303Y-103222697D01*
X98359555Y-103258224D01*
X98429833Y-103338376D01*
X98483382Y-103402845D01*
X98510519Y-103439887D01*
X98511955Y-103443076D01*
X98497142Y-103474647D01*
X98453409Y-103522874D01*
X98448381Y-103527526D01*
X98361414Y-103582147D01*
X98240915Y-103626116D01*
X98102696Y-103657112D01*
X97962566Y-103672818D01*
X97836335Y-103670917D01*
X97739813Y-103649086D01*
X97714344Y-103635177D01*
X97664220Y-103612952D01*
X97643486Y-103612467D01*
X97637946Y-103628715D01*
X97672485Y-103656563D01*
X97733980Y-103688740D01*
X97809312Y-103717975D01*
X97858845Y-103731810D01*
X97918720Y-103749272D01*
X97939468Y-103763487D01*
X97934615Y-103766911D01*
X97908911Y-103798484D01*
X97883596Y-103865801D01*
X97875725Y-103897663D01*
X97844606Y-103995101D01*
X97800212Y-104083255D01*
X97790019Y-104097969D01*
X97730004Y-104177711D01*
X97876146Y-104123389D01*
X97978717Y-104074121D01*
X98092519Y-103996040D01*
X98228402Y-103881580D01*
X98246978Y-103864795D01*
X98348004Y-103774048D01*
X98420268Y-103714374D01*
X98476349Y-103678416D01*
X98528827Y-103658820D01*
X98590283Y-103648229D01*
X98623759Y-103644490D01*
X98734654Y-103638017D01*
X98803619Y-103647872D01*
X98829734Y-103676361D01*
X98812084Y-103725794D01*
X98749751Y-103798477D01*
X98641817Y-103896719D01*
X98487367Y-104022827D01*
X98467065Y-104038840D01*
X98344402Y-104134599D01*
X98253046Y-104202203D01*
X98180143Y-104248646D01*
X98112836Y-104280925D01*
X98038269Y-104306032D01*
X97943583Y-104330962D01*
X97918804Y-104337111D01*
X97828508Y-104356126D01*
X97727466Y-104372291D01*
X97625442Y-104384892D01*
X97532195Y-104393214D01*
X97457486Y-104396547D01*
X97411074Y-104394174D01*
X97402724Y-104385384D01*
X97431642Y-104372718D01*
X97448277Y-104358261D01*
X97415284Y-104339570D01*
X97344033Y-104318364D01*
X97244596Y-104288243D01*
X97155539Y-104254538D01*
X97125969Y-104240572D01*
X97070911Y-104216579D01*
X97054545Y-104220836D01*
X97071656Y-104246120D01*
X97117030Y-104285207D01*
X97185457Y-104330872D01*
X97195297Y-104336640D01*
X97259185Y-104375291D01*
X97289689Y-104397464D01*
X97285173Y-104399460D01*
X97254416Y-104399427D01*
X97260936Y-104425070D01*
X97296898Y-104468146D01*
X97354466Y-104520411D01*
X97425804Y-104573620D01*
X97485480Y-104610206D01*
X97647350Y-104673484D01*
X97811819Y-104691485D01*
X97965979Y-104664271D01*
X98076956Y-104607318D01*
X98130028Y-104574283D01*
X98147674Y-104574704D01*
X98133951Y-104601694D01*
X98092913Y-104648371D01*
X98028619Y-104707849D01*
X98007245Y-104725661D01*
X97862779Y-104823489D01*
X97677063Y-104917787D01*
X97607427Y-104947468D01*
X97352375Y-105051335D01*
X97457461Y-105065341D01*
X97616945Y-105059878D01*
X97798965Y-105004980D01*
X98001055Y-104901820D01*
X98220753Y-104751571D01*
X98369449Y-104631252D01*
X98450034Y-104563662D01*
X98512366Y-104513863D01*
X98545755Y-104490313D01*
X98548448Y-104489567D01*
X98549018Y-104517398D01*
X98541658Y-104583285D01*
X98534634Y-104630756D01*
X98489808Y-104791000D01*
X98413209Y-104942610D01*
X98317384Y-105061337D01*
X98224983Y-105119723D01*
X98094803Y-105165977D01*
X97944961Y-105195799D01*
X97793576Y-105204890D01*
X97729029Y-105200992D01*
X97638520Y-105193875D01*
X97601672Y-105196799D01*
X97616839Y-105208518D01*
X97682378Y-105227785D01*
X97796644Y-105253358D01*
X97798669Y-105253772D01*
X97917164Y-105269421D01*
X98037792Y-105272078D01*
X98100132Y-105266311D01*
X98183140Y-105244304D01*
X98258792Y-105203821D01*
X98332468Y-105138693D01*
X98409551Y-105042751D01*
X98495420Y-104909822D01*
X98595458Y-104733742D01*
X98645052Y-104641564D01*
X98736074Y-104474390D01*
X98810309Y-104348655D01*
X98874493Y-104254488D01*
X98935360Y-104182016D01*
X98999645Y-104121370D01*
X99000333Y-104120785D01*
X99098232Y-104045213D01*
X99181897Y-103994654D01*
X99242372Y-103973528D01*
X99270699Y-103986256D01*
X99270953Y-103987183D01*
X99258857Y-104019030D01*
X99222194Y-104083946D01*
X99168553Y-104168613D01*
X99161560Y-104179132D01*
X99100465Y-104280773D01*
X99055777Y-104384117D01*
X99020432Y-104508531D01*
X98993430Y-104640060D01*
X98964886Y-104780980D01*
X98937241Y-104880341D01*
X98904967Y-104952659D01*
X98862537Y-105012452D01*
X98843454Y-105033986D01*
X98761645Y-105115075D01*
X98651369Y-105214458D01*
X98529851Y-105317285D01*
X98414314Y-105408707D01*
X98375690Y-105437275D01*
X98338170Y-105462835D01*
X98329179Y-105459350D01*
X98348216Y-105418908D01*
X98371796Y-105375599D01*
X98430295Y-105268947D01*
X98289468Y-105395472D01*
X98187548Y-105477423D01*
X98073205Y-105555366D01*
X98000702Y-105596880D01*
X97908443Y-105647380D01*
X97864984Y-105681889D01*
X97871722Y-105701362D01*
X97930058Y-105706753D01*
X98041389Y-105699018D01*
X98134793Y-105688403D01*
X98269145Y-105679405D01*
X98370522Y-105693101D01*
X98458753Y-105732237D01*
X98460989Y-105733582D01*
X98514518Y-105780668D01*
X98534402Y-105843900D01*
X98521740Y-105934544D01*
X98490092Y-106031221D01*
X98458340Y-106119391D01*
X98447038Y-106168398D01*
X98456732Y-106191894D01*
X98487972Y-106203536D01*
X98497105Y-106205703D01*
X98590830Y-106251314D01*
X98657735Y-106328871D01*
X98688295Y-106422356D01*
X98676593Y-106507498D01*
X98656000Y-106572925D01*
X98667417Y-106594629D01*
X98709303Y-106578523D01*
X98756732Y-106568514D01*
X98773005Y-106586103D01*
X98800976Y-106742189D01*
X98783936Y-106865821D01*
X98767372Y-106944376D01*
X98771234Y-107006558D01*
X98801839Y-107065836D01*
X98865503Y-107135676D01*
X98944537Y-107208253D01*
X99150608Y-107395250D01*
X99315080Y-107553056D01*
X99441583Y-107686248D01*
X99533749Y-107799399D01*
X99595210Y-107897085D01*
X99629599Y-107983881D01*
X99640546Y-108064362D01*
X99640028Y-108084361D01*
X99605562Y-108221023D01*
X99525064Y-108338396D01*
X99482884Y-108375198D01*
X99456680Y-108398395D01*
X99467433Y-108404752D01*
X99521682Y-108394590D01*
X99580592Y-108379989D01*
X99729258Y-108327706D01*
X99826818Y-108259043D01*
X99873425Y-108172301D01*
X99869234Y-108065778D01*
X99814400Y-107937775D01*
X99709076Y-107786593D01*
X99641696Y-107706500D01*
X99414273Y-107412337D01*
X99240914Y-107107340D01*
X99160391Y-106913185D01*
X99122986Y-106802916D01*
X99105021Y-106726571D01*
X99104173Y-106665998D01*
X99118122Y-106603038D01*
X99119937Y-106596923D01*
X99166373Y-106481586D01*
X99232237Y-106366267D01*
X99306323Y-106267546D01*
X99377417Y-106201995D01*
X99393202Y-106192836D01*
X99439655Y-106166721D01*
X99448306Y-106140798D01*
X99420513Y-106096090D01*
X99401845Y-106071742D01*
X99344687Y-105987589D01*
X99330768Y-105939563D01*
X99359782Y-105927880D01*
X99431420Y-105952752D01*
X99511817Y-105994888D01*
X99681111Y-106068890D01*
X99849131Y-106093001D01*
X100031953Y-106069191D01*
X100060067Y-106062033D01*
X100160210Y-106049058D01*
X100227181Y-106068296D01*
X100254202Y-106114962D01*
X100234497Y-106184278D01*
X100234170Y-106184844D01*
X100189207Y-106220263D01*
X100109669Y-106251789D01*
X100017387Y-106273341D01*
X99934193Y-106278836D01*
X99909239Y-106275386D01*
X99856225Y-106270447D01*
X99836257Y-106278029D01*
X99848276Y-106307669D01*
X99891838Y-106365089D01*
X99956933Y-106439861D01*
X100033555Y-106521559D01*
X100111699Y-106599757D01*
X100181355Y-106664028D01*
X100232518Y-106703944D01*
X100252480Y-106711702D01*
X100287096Y-106677681D01*
X100327771Y-106599021D01*
X100370247Y-106486576D01*
X100410265Y-106351202D01*
X100434995Y-106246444D01*
X100459016Y-106143481D01*
X100477981Y-106082240D01*
X100489901Y-106066450D01*
X100492791Y-106099841D01*
X100489448Y-106144200D01*
X100495359Y-106163642D01*
X100522269Y-106132337D01*
X100570502Y-106049818D01*
X100619942Y-105955841D01*
X100697011Y-105809462D01*
X100778385Y-105661867D01*
X100858899Y-105521676D01*
X100933389Y-105397514D01*
X100996689Y-105298002D01*
X101043638Y-105231762D01*
X101068122Y-105207569D01*
X101087637Y-105227453D01*
X101099145Y-105292249D01*
X101102079Y-105390911D01*
X101095872Y-105512400D01*
X101087762Y-105589754D01*
X101065985Y-105764250D01*
X101189713Y-105599132D01*
X101252369Y-105518065D01*
X101302701Y-105457618D01*
X101330820Y-105429601D01*
X101332189Y-105428990D01*
X101355111Y-105442859D01*
X101351449Y-105501215D01*
X101322807Y-105599645D01*
X101270791Y-105733732D01*
X101197003Y-105899062D01*
X101103050Y-106091219D01*
X101063755Y-106167739D01*
X100916507Y-106451020D01*
X100996588Y-106682800D01*
X101048375Y-106819689D01*
X101114803Y-106977425D01*
X101183613Y-107127235D01*
X101201149Y-107162873D01*
X101330383Y-107439691D01*
X101438126Y-107709552D01*
X101521664Y-107963763D01*
X101578280Y-108193637D01*
X101605262Y-108390483D01*
X101607087Y-108462228D01*
X101605547Y-108550170D01*
X101667506Y-108448377D01*
X101729464Y-108346582D01*
X101730884Y-108426551D01*
X101737054Y-108488702D01*
X101752247Y-108495190D01*
X101776279Y-108446037D01*
X101785599Y-108419195D01*
X101823656Y-108348394D01*
X101871108Y-108330995D01*
X101923739Y-108368503D01*
X101924594Y-108369551D01*
X101950301Y-108395181D01*
X101968109Y-108386639D01*
X101986130Y-108335457D01*
X101997077Y-108293884D01*
X102010806Y-108206644D01*
X102008219Y-108103446D01*
X101988493Y-107968386D01*
X101977230Y-107909856D01*
X101923098Y-107689414D01*
X101852834Y-107505943D01*
X101756865Y-107340347D01*
X101625620Y-107173535D01*
X101585593Y-107128767D01*
X101428835Y-106948571D01*
X101312581Y-106794882D01*
X101232034Y-106660541D01*
X101182395Y-106538386D01*
X101176840Y-106518899D01*
X101159125Y-106421852D01*
X101169926Y-106339509D01*
X101201666Y-106261165D01*
X101264686Y-106130960D01*
X101323038Y-106015684D01*
X101372325Y-105923439D01*
X101408154Y-105862321D01*
X101426127Y-105840431D01*
X101427215Y-105845555D01*
X101420342Y-105898462D01*
X101409653Y-105980112D01*
X101405965Y-106008187D01*
X101390039Y-106129326D01*
X101484103Y-105955318D01*
X101574865Y-105816926D01*
X101699353Y-105680738D01*
X101786176Y-105601970D01*
X101882316Y-105519869D01*
X101946725Y-105469213D01*
X101990270Y-105444408D01*
X102023813Y-105439862D01*
X102058219Y-105449981D01*
X102070999Y-105455323D01*
X102127463Y-105478762D01*
X102222489Y-105517600D01*
X102342261Y-105566210D01*
X102458567Y-105613170D01*
X102673143Y-105706344D01*
X102838305Y-105794025D01*
X102960302Y-105880074D01*
X103045382Y-105968359D01*
X103055673Y-105982503D01*
X103111531Y-106062493D01*
X103324139Y-106005525D01*
X103437629Y-105978855D01*
X103513631Y-105968983D01*
X103544340Y-105976915D01*
X103544415Y-105977171D01*
X103543843Y-106034087D01*
X103527229Y-106119945D01*
X103500126Y-106211540D01*
X103472592Y-106277341D01*
X103448250Y-106330015D01*
X103456832Y-106353159D01*
X103502416Y-106366659D01*
X103582863Y-106412977D01*
X103660753Y-106510819D01*
X103733733Y-106655261D01*
X103799448Y-106841381D01*
X103855541Y-107064259D01*
X103869390Y-107133570D01*
X103892058Y-107271758D01*
X103897058Y-107360459D01*
X103883201Y-107404172D01*
X103849302Y-107407397D01*
X103803884Y-107381694D01*
X103755596Y-107368332D01*
X103672354Y-107376614D01*
X103567284Y-107401264D01*
X103465832Y-107430034D01*
X103402595Y-107456452D01*
X103361069Y-107492008D01*
X103324749Y-107548194D01*
X103305595Y-107583480D01*
X103258159Y-107683726D01*
X103219634Y-107784928D01*
X103209028Y-107821184D01*
X103182443Y-107928040D01*
X103272360Y-107779401D01*
X103378585Y-107640448D01*
X103505043Y-107548130D01*
X103626653Y-107502228D01*
X103701704Y-107494931D01*
X103777716Y-107520978D01*
X103830356Y-107552962D01*
X103898702Y-107592761D01*
X103985021Y-107635316D01*
X104075004Y-107674659D01*
X104154342Y-107704824D01*
X104208722Y-107719843D01*
X104224579Y-107717357D01*
X104217683Y-107688487D01*
X104197036Y-107612607D01*
X104164664Y-107496906D01*
X104122594Y-107348568D01*
X104072851Y-107174780D01*
X104018998Y-106988050D01*
X103948174Y-106746526D01*
X103889886Y-106555236D01*
X103842636Y-106409740D01*
X103804923Y-106305604D01*
X103775246Y-106238388D01*
X103754717Y-106206398D01*
X103701915Y-106116132D01*
X103705505Y-106027018D01*
X103765440Y-105939342D01*
X103803027Y-105906425D01*
X103878651Y-105833045D01*
X103907932Y-105764728D01*
X103908894Y-105746425D01*
X103897613Y-105669323D01*
X103870546Y-105575193D01*
X103834891Y-105483168D01*
X103797845Y-105412380D01*
X103772640Y-105384231D01*
X103758820Y-105391832D01*
X103768709Y-105445736D01*
X103797669Y-105534308D01*
X103830386Y-105636172D01*
X103840986Y-105702887D01*
X103831329Y-105750404D01*
X103824450Y-105763839D01*
X103781603Y-105808407D01*
X103741788Y-105803127D01*
X103721531Y-105765839D01*
X103704399Y-105734050D01*
X103672616Y-105744434D01*
X103639636Y-105772817D01*
X103575625Y-105795502D01*
X103463792Y-105788471D01*
X103304294Y-105751747D01*
X103143255Y-105701268D01*
X102994936Y-105646400D01*
X102839619Y-105581518D01*
X102691880Y-105513390D01*
X102566294Y-105448788D01*
X102477438Y-105394484D01*
X102468250Y-105387700D01*
X102408100Y-105346460D01*
X102317840Y-105289993D01*
X102216773Y-105230362D01*
X102214541Y-105229087D01*
X102090003Y-105166281D01*
X102000498Y-105141634D01*
X101940282Y-105154280D01*
X101913242Y-105183554D01*
X101883825Y-105214709D01*
X101828562Y-105261446D01*
X101761740Y-105313071D01*
X101697645Y-105358884D01*
X101650561Y-105388188D01*
X101634608Y-105392212D01*
X101641679Y-105360989D01*
X101663413Y-105294042D01*
X101683533Y-105237580D01*
X101735792Y-105095383D01*
X101649814Y-104999993D01*
X101490043Y-104805396D01*
X101342573Y-104593351D01*
X101221983Y-104385383D01*
X101191355Y-104323003D01*
X101128132Y-104193869D01*
X101070365Y-104087999D01*
X101022842Y-104013199D01*
X100990354Y-103977275D01*
X100979750Y-103978142D01*
X100985720Y-104009853D01*
X101009491Y-104081901D01*
X101046500Y-104182804D01*
X101092181Y-104301074D01*
X101141969Y-104425226D01*
X101191300Y-104543777D01*
X101235610Y-104645239D01*
X101270332Y-104718129D01*
X101282623Y-104740190D01*
X101316856Y-104825616D01*
X101303573Y-104888375D01*
X101245377Y-104921881D01*
X101209400Y-104925629D01*
X101163940Y-104918616D01*
X101129842Y-104887237D01*
X101095252Y-104818606D01*
X101082600Y-104787815D01*
X101040010Y-104673731D01*
X100999323Y-104552512D01*
X100987412Y-104513359D01*
X100949335Y-104393778D01*
X100921787Y-104327794D01*
X100906246Y-104313291D01*
X100904197Y-104348151D01*
X100917116Y-104430255D01*
X100946486Y-104557488D01*
X100949194Y-104568017D01*
X101030625Y-104882794D01*
X100890196Y-104978266D01*
X100801368Y-105046028D01*
X100756343Y-105097130D01*
X100756760Y-105128024D01*
X100804258Y-105135158D01*
X100818460Y-105133574D01*
X100843195Y-105132619D01*
X100856800Y-105142537D01*
X100857448Y-105170268D01*
X100843307Y-105222752D01*
X100812550Y-105306928D01*
X100763347Y-105429736D01*
X100699792Y-105583831D01*
X100631412Y-105748157D01*
X100581027Y-105866016D01*
X100545161Y-105943147D01*
X100520341Y-105985286D01*
X100503092Y-105998170D01*
X100489940Y-105987537D01*
X100477410Y-105959123D01*
X100475537Y-105954131D01*
X100460246Y-105888621D01*
X100471594Y-105823572D01*
X100513582Y-105736847D01*
X100515347Y-105733697D01*
X100556150Y-105640071D01*
X100562560Y-105571920D01*
X100535514Y-105536834D01*
X100491129Y-105537481D01*
X100450431Y-105532891D01*
X100442078Y-105521405D01*
X100457278Y-105490816D01*
X100472326Y-105484083D01*
X100515698Y-105451875D01*
X100531292Y-105427447D01*
X100534143Y-105393703D01*
X100513290Y-105343360D01*
X100463875Y-105267359D01*
X100397732Y-105178360D01*
X100272976Y-105010802D01*
X100181854Y-104876402D01*
X100119878Y-104766692D01*
X100082564Y-104673203D01*
X100065423Y-104587465D01*
X100063044Y-104546641D01*
X100069126Y-104437327D01*
X100087331Y-104312573D01*
X100099952Y-104254451D01*
X100119557Y-104136537D01*
X100125061Y-104013290D01*
X100121378Y-103959546D01*
X100110284Y-103850102D01*
X100104077Y-103742491D01*
X100103592Y-103712591D01*
X100103726Y-103603909D01*
X100225524Y-103595284D01*
X100313684Y-103583583D01*
X100431757Y-103560848D01*
X100555458Y-103531805D01*
X100565654Y-103529144D01*
X100733142Y-103472447D01*
X100874263Y-103393352D01*
X101001893Y-103282174D01*
X101128907Y-103129231D01*
X101166203Y-103077477D01*
X101234528Y-102978107D01*
X101268783Y-102922126D01*
X101269281Y-102908159D01*
X101236336Y-102934833D01*
X101187875Y-102982714D01*
X101081856Y-103077503D01*
X100952470Y-103173153D01*
X100811298Y-103263153D01*
X100669926Y-103340994D01*
X100539934Y-103400165D01*
X100432905Y-103434157D01*
X100375547Y-103439296D01*
X100353464Y-103421833D01*
X100371966Y-103382279D01*
X100423096Y-103327350D01*
X100498902Y-103263766D01*
X100591428Y-103198245D01*
X100692721Y-103137506D01*
X100787537Y-103091318D01*
X100924645Y-103026139D01*
X101040708Y-102952397D01*
X101144292Y-102861345D01*
X101173199Y-102827381D01*
X100444541Y-103022624D01*
X100434563Y-103039906D01*
X100417280Y-103029929D01*
X100427259Y-103012646D01*
X100444541Y-103022624D01*
X101173199Y-102827381D01*
X101243966Y-102744233D01*
X101274266Y-102700109D01*
X100596687Y-102881666D01*
X100599284Y-102892823D01*
X100567960Y-102929861D01*
X100566235Y-102931581D01*
X100515187Y-102975857D01*
X100481262Y-102996105D01*
X100478665Y-102984948D01*
X100509988Y-102947910D01*
X100511713Y-102946190D01*
X100562761Y-102901914D01*
X100596687Y-102881666D01*
X101274266Y-102700109D01*
X101348291Y-102592314D01*
X101463430Y-102401008D01*
X101549920Y-102245519D01*
X101634153Y-102083916D01*
X101707894Y-101932671D01*
X101762910Y-101808253D01*
X101774409Y-101778951D01*
X101816463Y-101663428D01*
X101835373Y-101598433D01*
X101829588Y-101582345D01*
X101797556Y-101613542D01*
X101737729Y-101690401D01*
X101716721Y-101718619D01*
X101630594Y-101827725D01*
X101515119Y-101963895D01*
X101381357Y-102114781D01*
X101240373Y-102268043D01*
X101103227Y-102411332D01*
X101030695Y-102484127D01*
X100925498Y-102587413D01*
X100855831Y-102654478D01*
X100817231Y-102688931D01*
X100805235Y-102694383D01*
X100815378Y-102674443D01*
X100838580Y-102639481D01*
X100902925Y-102543379D01*
X100977589Y-102429204D01*
X101056837Y-102306063D01*
X101134934Y-102183060D01*
X101206149Y-102069299D01*
X101264745Y-101973883D01*
X101304989Y-101905917D01*
X101321146Y-101874507D01*
X101321061Y-101873441D01*
X101300528Y-101891504D01*
X101253815Y-101944821D01*
X101189093Y-102023856D01*
X101150591Y-102072513D01*
X101077966Y-102163027D01*
X101017244Y-102234493D01*
X100977362Y-102276586D01*
X100968023Y-102283393D01*
X100958515Y-102285585D01*
X100953932Y-102280741D01*
X100956379Y-102260790D01*
X100967967Y-102217661D01*
X100990805Y-102143282D01*
X101026999Y-102029582D01*
X101066506Y-101906391D01*
X101107072Y-101777978D01*
X101140102Y-101669794D01*
X101163881Y-101588097D01*
X101176690Y-101539148D01*
X101176815Y-101529205D01*
X101162536Y-101564526D01*
X101153007Y-101591035D01*
X101118432Y-101668123D01*
X101059710Y-101778353D01*
X100984850Y-101908482D01*
X100901866Y-102045266D01*
X100818768Y-102175461D01*
X100743567Y-102285821D01*
X100690208Y-102356110D01*
X100582324Y-102485556D01*
X100632892Y-102342250D01*
X100664341Y-102243379D01*
X100694076Y-102133386D01*
X100719037Y-102026195D01*
X100736168Y-101935735D01*
X100742409Y-101875932D01*
X100738825Y-101859856D01*
X100722603Y-101879538D01*
X100694617Y-101938704D01*
X100667990Y-102005917D01*
X100600637Y-102163133D01*
X100509139Y-102343122D01*
X100404333Y-102526873D01*
X100297056Y-102695379D01*
X100198891Y-102828723D01*
X100058156Y-102983066D01*
X99910093Y-103115320D01*
X99767825Y-103214436D01*
X99698453Y-103250106D01*
X99596979Y-103294311D01*
X99701650Y-103225453D01*
X99883008Y-103079172D01*
X100053893Y-102884930D01*
X100216274Y-102640081D01*
X100372118Y-102341980D01*
X100394377Y-102293985D01*
X100472476Y-102122474D01*
X100528143Y-101997604D01*
X100562718Y-101914817D01*
X100577539Y-101869560D01*
X100573945Y-101857276D01*
X100553274Y-101873409D01*
X100516867Y-101913405D01*
X100500740Y-101932098D01*
X100382318Y-102061225D01*
X100285365Y-102148068D01*
X100213103Y-102189844D01*
X100198744Y-102192983D01*
X100157564Y-102212897D01*
X100086161Y-102262027D01*
X99996329Y-102331894D01*
X99939906Y-102379027D01*
X99849177Y-102454785D01*
X99774839Y-102513072D01*
X99726749Y-102546369D01*
X99714328Y-102551109D01*
X99696733Y-102511461D01*
X99704028Y-102439592D01*
X99732614Y-102352011D01*
X99775489Y-102270413D01*
X99854920Y-102175032D01*
X99974578Y-102076058D01*
X100074787Y-102008285D01*
X100197915Y-101927821D01*
X100276482Y-101872223D01*
X100309566Y-101842406D01*
X100296249Y-101839284D01*
X100235613Y-101863775D01*
X100206023Y-101877612D01*
X100013845Y-101979923D01*
X99870597Y-102082647D01*
X99769185Y-102193108D01*
X99702520Y-102318629D01*
X99670233Y-102430965D01*
X99646225Y-102530252D01*
X99625199Y-102590482D01*
X99610149Y-102607566D01*
X99604064Y-102577423D01*
X99607675Y-102516417D01*
X99608266Y-102453917D01*
X99597925Y-102422454D01*
X99586020Y-102432092D01*
X99587636Y-102441630D01*
X99580886Y-102496962D01*
X99548402Y-102571020D01*
X99502831Y-102641578D01*
X99456820Y-102686413D01*
X99445537Y-102691342D01*
X99387715Y-102695610D01*
X99298759Y-102690733D01*
X99240142Y-102683730D01*
X99122865Y-102654618D01*
X99037539Y-102600386D01*
X98974565Y-102511136D01*
X98924341Y-102376968D01*
X98916740Y-102350286D01*
X98883082Y-102243128D01*
X98855925Y-102190964D01*
X98834170Y-102192860D01*
X98816715Y-102247880D01*
X98814010Y-102262969D01*
X98809521Y-102348907D01*
X98831419Y-102428769D01*
X98885850Y-102516018D01*
X98978889Y-102624037D01*
X99057036Y-102711263D01*
X99094731Y-102762819D01*
X99092829Y-102781502D01*
X99052185Y-102770109D01*
X99018740Y-102754571D01*
X98972105Y-102733373D01*
X98967968Y-102741788D01*
X98988198Y-102770058D01*
X99027938Y-102832912D01*
X99059600Y-102894178D01*
X99078891Y-102943148D01*
X99068666Y-102966566D01*
X99017762Y-102977297D01*
X98984414Y-102980828D01*
X98840254Y-102971990D01*
X98703543Y-102912636D01*
X98620925Y-102851174D01*
X98577847Y-102810502D01*
X98546822Y-102766567D01*
X98521785Y-102705482D01*
X98496670Y-102613359D01*
X98473947Y-102514708D01*
X98415713Y-102254040D01*
X98389421Y-102405877D01*
G36*
X101046158Y-107843377D02*
X100944391Y-107876049D01*
X100845089Y-107915256D01*
X100842745Y-107916314D01*
X100784950Y-107945329D01*
X100760797Y-107975423D01*
X100763548Y-108025691D01*
X100780472Y-108092818D01*
X100799090Y-108158770D01*
X100819966Y-108198953D01*
X100855154Y-108217674D01*
X100916711Y-108219240D01*
X101016695Y-108207958D01*
X101079343Y-108199581D01*
X101159417Y-108187189D01*
X101195990Y-108171409D01*
X101201568Y-108141839D01*
X101193096Y-108104956D01*
X101176319Y-108022958D01*
X101163013Y-107927841D01*
X101162366Y-107921485D01*
X101151872Y-107814729D01*
X101046158Y-107843377D01*
X101046158Y-107843377D01*
G37*
X101046158Y-107843377D02*
X100944391Y-107876049D01*
X100845089Y-107915256D01*
X100842745Y-107916314D01*
X100784950Y-107945329D01*
X100760797Y-107975423D01*
X100763548Y-108025691D01*
X100780472Y-108092818D01*
X100799090Y-108158770D01*
X100819966Y-108198953D01*
X100855154Y-108217674D01*
X100916711Y-108219240D01*
X101016695Y-108207958D01*
X101079343Y-108199581D01*
X101159417Y-108187189D01*
X101195990Y-108171409D01*
X101201568Y-108141839D01*
X101193096Y-108104956D01*
X101176319Y-108022958D01*
X101163013Y-107927841D01*
X101162366Y-107921485D01*
X101151872Y-107814729D01*
X101046158Y-107843377D01*
G36*
X104568733Y-105577131D02*
X104566159Y-105582057D01*
X104506585Y-105652323D01*
X104412599Y-105716066D01*
X104302175Y-105765560D01*
X104193284Y-105793082D01*
X104103899Y-105790907D01*
X104090564Y-105786482D01*
X104006482Y-105765102D01*
X103960419Y-105785394D01*
X103951557Y-105848074D01*
X103961727Y-105898963D01*
X103977078Y-105969371D01*
X103971351Y-105995281D01*
X103950927Y-105989510D01*
X103893578Y-105973660D01*
X103872063Y-105975581D01*
X103851636Y-105988400D01*
X103878930Y-106011088D01*
X103885608Y-106015003D01*
X103964566Y-106071230D01*
X104036087Y-106147550D01*
X104104009Y-106250832D01*
X104172167Y-106387949D01*
X104244399Y-106565771D01*
X104324542Y-106791171D01*
X104333024Y-106816253D01*
X104373656Y-106936846D01*
X104354947Y-106816885D01*
X104336237Y-106696925D01*
X104461109Y-106754044D01*
X104531105Y-106781972D01*
X104573123Y-106790733D01*
X104579039Y-106785257D01*
X104550357Y-106753282D01*
X104519915Y-106735359D01*
X104470139Y-106701651D01*
X104411262Y-106648745D01*
X104362879Y-106595601D01*
X104345020Y-106566139D01*
X104364319Y-106547445D01*
X104390074Y-106538007D01*
X104440737Y-106507393D01*
X104477194Y-106459282D01*
X104482827Y-106426189D01*
X104456774Y-106425109D01*
X104396749Y-106441457D01*
X104372361Y-106450092D01*
X104299451Y-106471543D01*
X104263507Y-106464729D01*
X104255294Y-106449362D01*
X104235481Y-106396068D01*
X104204619Y-106328392D01*
X104182252Y-106269665D01*
X104193833Y-106241885D01*
X104209053Y-106235897D01*
X104252112Y-106249122D01*
X104270693Y-106285121D01*
X104288035Y-106346214D01*
X104322769Y-106271167D01*
X104352573Y-106216044D01*
X104373578Y-106191813D01*
X104392722Y-106211535D01*
X104407055Y-106248583D01*
X104424456Y-106309660D01*
X104442202Y-106243450D01*
X104471706Y-106192759D01*
X104503889Y-106177668D01*
X104512868Y-106168002D01*
X104477568Y-106143724D01*
X104468396Y-106139067D01*
X104396167Y-106115142D01*
X104339069Y-106113407D01*
X104284600Y-106113811D01*
X104265024Y-106104030D01*
X104270727Y-106081979D01*
X104322136Y-106059546D01*
X104326956Y-106058216D01*
X104414556Y-106054979D01*
X104510639Y-106096075D01*
X104517001Y-106099988D01*
X104620962Y-106164825D01*
X104583156Y-106096870D01*
X104562782Y-106041068D01*
X104579791Y-106019688D01*
X104589453Y-106001548D01*
X104551923Y-105970218D01*
X104514446Y-105941653D01*
X104511855Y-105914205D01*
X104546214Y-105870173D01*
X104566034Y-105848960D01*
X104642903Y-105777373D01*
X104713939Y-105728123D01*
X104765894Y-105709771D01*
X104777384Y-105712380D01*
X104785500Y-105744382D01*
X104778986Y-105795809D01*
X104769595Y-105844240D01*
X104778996Y-105843540D01*
X104797443Y-105819005D01*
X104818883Y-105743253D01*
X104793472Y-105652154D01*
X104734171Y-105567822D01*
X104669500Y-105516207D01*
X104615924Y-105519177D01*
X104568733Y-105577131D01*
X104568733Y-105577131D01*
G37*
X104568733Y-105577131D02*
X104566159Y-105582057D01*
X104506585Y-105652323D01*
X104412599Y-105716066D01*
X104302175Y-105765560D01*
X104193284Y-105793082D01*
X104103899Y-105790907D01*
X104090564Y-105786482D01*
X104006482Y-105765102D01*
X103960419Y-105785394D01*
X103951557Y-105848074D01*
X103961727Y-105898963D01*
X103977078Y-105969371D01*
X103971351Y-105995281D01*
X103950927Y-105989510D01*
X103893578Y-105973660D01*
X103872063Y-105975581D01*
X103851636Y-105988400D01*
X103878930Y-106011088D01*
X103885608Y-106015003D01*
X103964566Y-106071230D01*
X104036087Y-106147550D01*
X104104009Y-106250832D01*
X104172167Y-106387949D01*
X104244399Y-106565771D01*
X104324542Y-106791171D01*
X104333024Y-106816253D01*
X104373656Y-106936846D01*
X104354947Y-106816885D01*
X104336237Y-106696925D01*
X104461109Y-106754044D01*
X104531105Y-106781972D01*
X104573123Y-106790733D01*
X104579039Y-106785257D01*
X104550357Y-106753282D01*
X104519915Y-106735359D01*
X104470139Y-106701651D01*
X104411262Y-106648745D01*
X104362879Y-106595601D01*
X104345020Y-106566139D01*
X104364319Y-106547445D01*
X104390074Y-106538007D01*
X104440737Y-106507393D01*
X104477194Y-106459282D01*
X104482827Y-106426189D01*
X104456774Y-106425109D01*
X104396749Y-106441457D01*
X104372361Y-106450092D01*
X104299451Y-106471543D01*
X104263507Y-106464729D01*
X104255294Y-106449362D01*
X104235481Y-106396068D01*
X104204619Y-106328392D01*
X104182252Y-106269665D01*
X104193833Y-106241885D01*
X104209053Y-106235897D01*
X104252112Y-106249122D01*
X104270693Y-106285121D01*
X104288035Y-106346214D01*
X104322769Y-106271167D01*
X104352573Y-106216044D01*
X104373578Y-106191813D01*
X104392722Y-106211535D01*
X104407055Y-106248583D01*
X104424456Y-106309660D01*
X104442202Y-106243450D01*
X104471706Y-106192759D01*
X104503889Y-106177668D01*
X104512868Y-106168002D01*
X104477568Y-106143724D01*
X104468396Y-106139067D01*
X104396167Y-106115142D01*
X104339069Y-106113407D01*
X104284600Y-106113811D01*
X104265024Y-106104030D01*
X104270727Y-106081979D01*
X104322136Y-106059546D01*
X104326956Y-106058216D01*
X104414556Y-106054979D01*
X104510639Y-106096075D01*
X104517001Y-106099988D01*
X104620962Y-106164825D01*
X104583156Y-106096870D01*
X104562782Y-106041068D01*
X104579791Y-106019688D01*
X104589453Y-106001548D01*
X104551923Y-105970218D01*
X104514446Y-105941653D01*
X104511855Y-105914205D01*
X104546214Y-105870173D01*
X104566034Y-105848960D01*
X104642903Y-105777373D01*
X104713939Y-105728123D01*
X104765894Y-105709771D01*
X104777384Y-105712380D01*
X104785500Y-105744382D01*
X104778986Y-105795809D01*
X104769595Y-105844240D01*
X104778996Y-105843540D01*
X104797443Y-105819005D01*
X104818883Y-105743253D01*
X104793472Y-105652154D01*
X104734171Y-105567822D01*
X104669500Y-105516207D01*
X104615924Y-105519177D01*
X104568733Y-105577131D01*
G36*
X98984004Y-107559653D02*
X99015001Y-107625501D01*
X99061987Y-107715253D01*
X99078394Y-107745137D01*
X99141973Y-107863777D01*
X99203724Y-107985727D01*
X99250802Y-108085580D01*
X99252687Y-108089872D01*
X99315523Y-108233734D01*
X99291941Y-108077777D01*
X99245695Y-107892455D01*
X99169609Y-107727466D01*
X99071521Y-107599585D01*
X99066043Y-107594338D01*
X99012669Y-107548801D01*
X98979232Y-107529146D01*
X98975026Y-107530250D01*
X98984004Y-107559653D01*
X98984004Y-107559653D01*
G37*
X98984004Y-107559653D02*
X99015001Y-107625501D01*
X99061987Y-107715253D01*
X99078394Y-107745137D01*
X99141973Y-107863777D01*
X99203724Y-107985727D01*
X99250802Y-108085580D01*
X99252687Y-108089872D01*
X99315523Y-108233734D01*
X99291941Y-108077777D01*
X99245695Y-107892455D01*
X99169609Y-107727466D01*
X99071521Y-107599585D01*
X99066043Y-107594338D01*
X99012669Y-107548801D01*
X98979232Y-107529146D01*
X98975026Y-107530250D01*
X98984004Y-107559653D01*
G36*
X99399013Y-106481705D02*
X99358404Y-106562785D01*
X99322372Y-106664133D01*
X99296689Y-106767875D01*
X99287128Y-106856141D01*
X99291425Y-106893857D01*
X99314781Y-106977567D01*
X99350626Y-106887614D01*
X99404962Y-106807035D01*
X99464368Y-106776787D01*
X99527662Y-106766923D01*
X99565640Y-106785775D01*
X99586173Y-106842849D01*
X99596344Y-106936203D01*
X99605913Y-107047638D01*
X99617937Y-107158129D01*
X99621755Y-107187491D01*
X99632767Y-107253947D01*
X99642412Y-107269978D01*
X99654480Y-107241367D01*
X99655275Y-107238663D01*
X99687911Y-107154005D01*
X99730847Y-107075782D01*
X99773029Y-107022452D01*
X99791945Y-107010409D01*
X99812606Y-107030901D01*
X99834910Y-107091934D01*
X99855318Y-107177840D01*
X99870293Y-107272956D01*
X99876298Y-107361615D01*
X99875925Y-107382347D01*
X99877937Y-107398101D01*
X99886008Y-107369521D01*
X99897832Y-107308095D01*
X99911102Y-107225309D01*
X99919320Y-107166195D01*
X99932055Y-107108317D01*
X99946291Y-107099599D01*
X99959228Y-107132921D01*
X99968068Y-107201163D01*
X99970056Y-107295302D01*
X99973951Y-107444489D01*
X99993789Y-107543388D01*
X100030667Y-107596165D01*
X100051849Y-107605671D01*
X100081717Y-107619794D01*
X100091551Y-107652727D01*
X100085773Y-107721785D01*
X100084315Y-107732771D01*
X100078234Y-107818871D01*
X100084403Y-107873663D01*
X100099252Y-107890010D01*
X100119211Y-107860773D01*
X100130462Y-107825038D01*
X100165735Y-107745854D01*
X100216437Y-107686414D01*
X100217321Y-107685770D01*
X100243477Y-107665980D01*
X100259578Y-107645177D01*
X100263938Y-107614911D01*
X100254869Y-107566738D01*
X100230686Y-107492208D01*
X100189700Y-107382875D01*
X100130226Y-107230291D01*
X100122350Y-107210163D01*
X100055016Y-107044854D01*
X99994871Y-106919234D01*
X99931865Y-106819248D01*
X99855946Y-106730840D01*
X99757065Y-106639950D01*
X99654578Y-106555932D01*
X99547335Y-106477709D01*
X99472343Y-106439757D01*
X99438425Y-106438764D01*
X99399013Y-106481705D01*
X99399013Y-106481705D01*
G37*
X99399013Y-106481705D02*
X99358404Y-106562785D01*
X99322372Y-106664133D01*
X99296689Y-106767875D01*
X99287128Y-106856141D01*
X99291425Y-106893857D01*
X99314781Y-106977567D01*
X99350626Y-106887614D01*
X99404962Y-106807035D01*
X99464368Y-106776787D01*
X99527662Y-106766923D01*
X99565640Y-106785775D01*
X99586173Y-106842849D01*
X99596344Y-106936203D01*
X99605913Y-107047638D01*
X99617937Y-107158129D01*
X99621755Y-107187491D01*
X99632767Y-107253947D01*
X99642412Y-107269978D01*
X99654480Y-107241367D01*
X99655275Y-107238663D01*
X99687911Y-107154005D01*
X99730847Y-107075782D01*
X99773029Y-107022452D01*
X99791945Y-107010409D01*
X99812606Y-107030901D01*
X99834910Y-107091934D01*
X99855318Y-107177840D01*
X99870293Y-107272956D01*
X99876298Y-107361615D01*
X99875925Y-107382347D01*
X99877937Y-107398101D01*
X99886008Y-107369521D01*
X99897832Y-107308095D01*
X99911102Y-107225309D01*
X99919320Y-107166195D01*
X99932055Y-107108317D01*
X99946291Y-107099599D01*
X99959228Y-107132921D01*
X99968068Y-107201163D01*
X99970056Y-107295302D01*
X99973951Y-107444489D01*
X99993789Y-107543388D01*
X100030667Y-107596165D01*
X100051849Y-107605671D01*
X100081717Y-107619794D01*
X100091551Y-107652727D01*
X100085773Y-107721785D01*
X100084315Y-107732771D01*
X100078234Y-107818871D01*
X100084403Y-107873663D01*
X100099252Y-107890010D01*
X100119211Y-107860773D01*
X100130462Y-107825038D01*
X100165735Y-107745854D01*
X100216437Y-107686414D01*
X100217321Y-107685770D01*
X100243477Y-107665980D01*
X100259578Y-107645177D01*
X100263938Y-107614911D01*
X100254869Y-107566738D01*
X100230686Y-107492208D01*
X100189700Y-107382875D01*
X100130226Y-107230291D01*
X100122350Y-107210163D01*
X100055016Y-107044854D01*
X99994871Y-106919234D01*
X99931865Y-106819248D01*
X99855946Y-106730840D01*
X99757065Y-106639950D01*
X99654578Y-106555932D01*
X99547335Y-106477709D01*
X99472343Y-106439757D01*
X99438425Y-106438764D01*
X99399013Y-106481705D01*
G36*
X100705116Y-106252624D02*
X100675202Y-106283429D01*
X100620637Y-106347264D01*
X100551262Y-106432482D01*
X100522114Y-106469253D01*
X100368534Y-106664484D01*
X100657438Y-107742689D01*
X100744718Y-107714036D01*
X100827259Y-107686204D01*
X100927362Y-107651508D01*
X100957853Y-107640755D01*
X101083708Y-107596129D01*
X100909122Y-106913678D01*
X100852034Y-106693053D01*
X100806357Y-106522738D01*
X100770655Y-106398077D01*
X100743491Y-106314419D01*
X100723431Y-106267110D01*
X100709037Y-106251495D01*
X100705116Y-106252624D01*
X100705116Y-106252624D01*
G37*
X100705116Y-106252624D02*
X100675202Y-106283429D01*
X100620637Y-106347264D01*
X100551262Y-106432482D01*
X100522114Y-106469253D01*
X100368534Y-106664484D01*
X100657438Y-107742689D01*
X100744718Y-107714036D01*
X100827259Y-107686204D01*
X100927362Y-107651508D01*
X100957853Y-107640755D01*
X101083708Y-107596129D01*
X100909122Y-106913678D01*
X100852034Y-106693053D01*
X100806357Y-106522738D01*
X100770655Y-106398077D01*
X100743491Y-106314419D01*
X100723431Y-106267110D01*
X100709037Y-106251495D01*
X100705116Y-106252624D01*
G36*
X102156319Y-105888793D02*
X102148783Y-105893589D01*
X102036573Y-105965505D01*
X102199520Y-105919380D01*
X102359998Y-105874820D01*
X102477188Y-105845822D01*
X102561857Y-105831694D01*
X102624770Y-105831745D01*
X102676695Y-105845285D01*
X102728399Y-105871623D01*
X102749067Y-105884126D01*
X102833969Y-105941533D01*
X102866849Y-105977246D01*
X102847595Y-105991743D01*
X102776087Y-105985510D01*
X102727002Y-105976104D01*
X102638700Y-105959432D01*
X102573807Y-105950667D01*
X102552192Y-105950699D01*
X102563261Y-105960282D01*
X102615690Y-105976395D01*
X102647851Y-105984201D01*
X102720621Y-106004687D01*
X102763412Y-106023765D01*
X102768724Y-106036124D01*
X102729056Y-106036449D01*
X102719978Y-106035299D01*
X102667128Y-106031027D01*
X102576001Y-106026387D01*
X102464755Y-106022280D01*
X102445597Y-106021712D01*
X102319343Y-106021202D01*
X102224468Y-106031039D01*
X102136243Y-106055412D01*
X102054307Y-106087989D01*
X101961864Y-106128504D01*
X101888831Y-106162397D01*
X101853703Y-106180789D01*
X101837127Y-106213676D01*
X101867024Y-106251042D01*
X101934681Y-106285523D01*
X101999369Y-106303899D01*
X102074300Y-106325335D01*
X102120708Y-106348975D01*
X102126908Y-106357162D01*
X102110922Y-106374465D01*
X102069311Y-106369633D01*
X102010070Y-106362424D01*
X101998428Y-106375248D01*
X102032443Y-106401103D01*
X102084413Y-106423967D01*
X102182835Y-106446813D01*
X102283088Y-106450759D01*
X102285237Y-106450552D01*
X102387115Y-106440235D01*
X102305954Y-106362860D01*
X102238847Y-106286111D01*
X102210915Y-106224531D01*
X102224923Y-106185811D01*
X102239913Y-106179171D01*
X102279134Y-106194110D01*
X102299294Y-106237221D01*
X102336710Y-106296374D01*
X102394752Y-106309163D01*
X102457365Y-106272131D01*
X102458023Y-106271429D01*
X102503939Y-106231576D01*
X102527737Y-106218921D01*
X102558125Y-106229568D01*
X102564246Y-106267750D01*
X102544159Y-106309160D01*
X102535531Y-106316655D01*
X102511913Y-106346780D01*
X102517361Y-106358559D01*
X102547916Y-106349337D01*
X102580849Y-106305522D01*
X102605024Y-106247322D01*
X102609307Y-106194948D01*
X102608756Y-106192683D01*
X102609736Y-106148782D01*
X102647923Y-106134290D01*
X102728746Y-106147996D01*
X102764014Y-106157993D01*
X102841108Y-106186217D01*
X102874730Y-106221601D01*
X102875341Y-106282405D01*
X102865137Y-106334490D01*
X102842525Y-106395990D01*
X102799591Y-106433486D01*
X102724079Y-106453177D01*
X102615091Y-106460901D01*
X102549174Y-106467740D01*
X102525798Y-106480642D01*
X102528277Y-106484859D01*
X102568600Y-106499638D01*
X102573724Y-106498776D01*
X102616943Y-106496774D01*
X102680279Y-106500800D01*
X102762956Y-106509223D01*
X102697199Y-106569312D01*
X102620080Y-106621629D01*
X102547565Y-106651874D01*
X102492843Y-106668744D01*
X102488921Y-106682189D01*
X102527330Y-106700194D01*
X102600094Y-106714305D01*
X102686628Y-106698029D01*
X102798451Y-106648389D01*
X102860473Y-106614155D01*
X102934343Y-106575735D01*
X102985055Y-106557058D01*
X102999105Y-106559063D01*
X102983768Y-106587741D01*
X102937855Y-106647649D01*
X102869331Y-106728781D01*
X102818759Y-106785600D01*
X102737008Y-106876429D01*
X102669100Y-106953139D01*
X102624396Y-107005091D01*
X102612709Y-107019802D01*
X102601835Y-107045088D01*
X102628384Y-107033428D01*
X102689166Y-106987074D01*
X102780993Y-106908279D01*
X102820287Y-106873083D01*
X102970770Y-106736206D01*
X103083174Y-106631678D01*
X103162045Y-106554848D01*
X103211929Y-106501065D01*
X103237375Y-106465679D01*
X103242925Y-106444037D01*
X103242234Y-106441435D01*
X103223791Y-106389587D01*
X103212169Y-106356493D01*
X103174315Y-106313652D01*
X103105216Y-106277267D01*
X103090294Y-106272388D01*
X102987222Y-106242109D01*
X103062162Y-106221919D01*
X103118281Y-106199340D01*
X103122833Y-106169773D01*
X103076528Y-106124081D01*
X103070208Y-106119113D01*
X103022086Y-106060085D01*
X102994766Y-105997656D01*
X102945608Y-105919132D01*
X102846733Y-105851917D01*
X102704345Y-105799618D01*
X102622155Y-105780832D01*
X102467840Y-105771272D01*
X102317064Y-105806186D01*
X102156319Y-105888793D01*
X102156319Y-105888793D01*
G37*
X102156319Y-105888793D02*
X102148783Y-105893589D01*
X102036573Y-105965505D01*
X102199520Y-105919380D01*
X102359998Y-105874820D01*
X102477188Y-105845822D01*
X102561857Y-105831694D01*
X102624770Y-105831745D01*
X102676695Y-105845285D01*
X102728399Y-105871623D01*
X102749067Y-105884126D01*
X102833969Y-105941533D01*
X102866849Y-105977246D01*
X102847595Y-105991743D01*
X102776087Y-105985510D01*
X102727002Y-105976104D01*
X102638700Y-105959432D01*
X102573807Y-105950667D01*
X102552192Y-105950699D01*
X102563261Y-105960282D01*
X102615690Y-105976395D01*
X102647851Y-105984201D01*
X102720621Y-106004687D01*
X102763412Y-106023765D01*
X102768724Y-106036124D01*
X102729056Y-106036449D01*
X102719978Y-106035299D01*
X102667128Y-106031027D01*
X102576001Y-106026387D01*
X102464755Y-106022280D01*
X102445597Y-106021712D01*
X102319343Y-106021202D01*
X102224468Y-106031039D01*
X102136243Y-106055412D01*
X102054307Y-106087989D01*
X101961864Y-106128504D01*
X101888831Y-106162397D01*
X101853703Y-106180789D01*
X101837127Y-106213676D01*
X101867024Y-106251042D01*
X101934681Y-106285523D01*
X101999369Y-106303899D01*
X102074300Y-106325335D01*
X102120708Y-106348975D01*
X102126908Y-106357162D01*
X102110922Y-106374465D01*
X102069311Y-106369633D01*
X102010070Y-106362424D01*
X101998428Y-106375248D01*
X102032443Y-106401103D01*
X102084413Y-106423967D01*
X102182835Y-106446813D01*
X102283088Y-106450759D01*
X102285237Y-106450552D01*
X102387115Y-106440235D01*
X102305954Y-106362860D01*
X102238847Y-106286111D01*
X102210915Y-106224531D01*
X102224923Y-106185811D01*
X102239913Y-106179171D01*
X102279134Y-106194110D01*
X102299294Y-106237221D01*
X102336710Y-106296374D01*
X102394752Y-106309163D01*
X102457365Y-106272131D01*
X102458023Y-106271429D01*
X102503939Y-106231576D01*
X102527737Y-106218921D01*
X102558125Y-106229568D01*
X102564246Y-106267750D01*
X102544159Y-106309160D01*
X102535531Y-106316655D01*
X102511913Y-106346780D01*
X102517361Y-106358559D01*
X102547916Y-106349337D01*
X102580849Y-106305522D01*
X102605024Y-106247322D01*
X102609307Y-106194948D01*
X102608756Y-106192683D01*
X102609736Y-106148782D01*
X102647923Y-106134290D01*
X102728746Y-106147996D01*
X102764014Y-106157993D01*
X102841108Y-106186217D01*
X102874730Y-106221601D01*
X102875341Y-106282405D01*
X102865137Y-106334490D01*
X102842525Y-106395990D01*
X102799591Y-106433486D01*
X102724079Y-106453177D01*
X102615091Y-106460901D01*
X102549174Y-106467740D01*
X102525798Y-106480642D01*
X102528277Y-106484859D01*
X102568600Y-106499638D01*
X102573724Y-106498776D01*
X102616943Y-106496774D01*
X102680279Y-106500800D01*
X102762956Y-106509223D01*
X102697199Y-106569312D01*
X102620080Y-106621629D01*
X102547565Y-106651874D01*
X102492843Y-106668744D01*
X102488921Y-106682189D01*
X102527330Y-106700194D01*
X102600094Y-106714305D01*
X102686628Y-106698029D01*
X102798451Y-106648389D01*
X102860473Y-106614155D01*
X102934343Y-106575735D01*
X102985055Y-106557058D01*
X102999105Y-106559063D01*
X102983768Y-106587741D01*
X102937855Y-106647649D01*
X102869331Y-106728781D01*
X102818759Y-106785600D01*
X102737008Y-106876429D01*
X102669100Y-106953139D01*
X102624396Y-107005091D01*
X102612709Y-107019802D01*
X102601835Y-107045088D01*
X102628384Y-107033428D01*
X102689166Y-106987074D01*
X102780993Y-106908279D01*
X102820287Y-106873083D01*
X102970770Y-106736206D01*
X103083174Y-106631678D01*
X103162045Y-106554848D01*
X103211929Y-106501065D01*
X103237375Y-106465679D01*
X103242925Y-106444037D01*
X103242234Y-106441435D01*
X103223791Y-106389587D01*
X103212169Y-106356493D01*
X103174315Y-106313652D01*
X103105216Y-106277267D01*
X103090294Y-106272388D01*
X102987222Y-106242109D01*
X103062162Y-106221919D01*
X103118281Y-106199340D01*
X103122833Y-106169773D01*
X103076528Y-106124081D01*
X103070208Y-106119113D01*
X103022086Y-106060085D01*
X102994766Y-105997656D01*
X102945608Y-105919132D01*
X102846733Y-105851917D01*
X102704345Y-105799618D01*
X102622155Y-105780832D01*
X102467840Y-105771272D01*
X102317064Y-105806186D01*
X102156319Y-105888793D01*
G36*
X101376964Y-103994161D02*
X101418215Y-104012875D01*
X101504365Y-104046874D01*
X101628513Y-104093718D01*
X101783759Y-104150970D01*
X101963202Y-104216192D01*
X102159942Y-104286944D01*
X102367080Y-104360787D01*
X102577713Y-104435284D01*
X102784944Y-104507995D01*
X102981870Y-104576482D01*
X103161594Y-104638306D01*
X103317212Y-104691029D01*
X103441826Y-104732211D01*
X103528535Y-104759414D01*
X103570439Y-104770201D01*
X103572783Y-104770189D01*
X103626581Y-104742674D01*
X103687157Y-104695896D01*
X103747862Y-104648572D01*
X103797946Y-104622384D01*
X103838627Y-104592309D01*
X103888751Y-104530964D01*
X103906547Y-104503633D01*
X103954562Y-104432631D01*
X103997611Y-104393899D01*
X104041206Y-104390613D01*
X104090860Y-104425948D01*
X104152087Y-104503080D01*
X104230398Y-104625182D01*
X104289569Y-104724216D01*
X104376645Y-104868421D01*
X104469406Y-105015929D01*
X104563414Y-105160384D01*
X104654232Y-105295427D01*
X104737422Y-105414701D01*
X104808545Y-105511848D01*
X104863166Y-105580513D01*
X104896845Y-105614335D01*
X104905143Y-105606958D01*
X104904881Y-105605700D01*
X104888824Y-105576649D01*
X104847262Y-105508901D01*
X104785563Y-105411010D01*
X104709097Y-105291531D01*
X104661071Y-105217216D01*
X104421456Y-104847699D01*
X104435342Y-104681537D01*
X104440737Y-104581920D01*
X104433579Y-104517090D01*
X104409951Y-104466053D01*
X104389903Y-104438058D01*
X104342679Y-104384215D01*
X104323863Y-104377157D01*
X104336960Y-104413015D01*
X104367675Y-104462573D01*
X104400035Y-104525789D01*
X104407616Y-104597295D01*
X104399794Y-104669999D01*
X104380050Y-104801163D01*
X104246092Y-104563978D01*
X104184693Y-104461549D01*
X104129352Y-104380456D01*
X104087984Y-104331767D01*
X104073566Y-104322742D01*
X104031794Y-104295749D01*
X104024821Y-104280718D01*
X104010249Y-104264421D01*
X103983400Y-104297043D01*
X103978373Y-104305569D01*
X103942004Y-104351530D01*
X103874567Y-104422654D01*
X103787597Y-104507075D01*
X103738220Y-104552529D01*
X103631416Y-104645032D01*
X103556541Y-104699842D01*
X103507541Y-104721019D01*
X103488920Y-104719615D01*
X103449871Y-104704125D01*
X103367183Y-104670764D01*
X103249466Y-104623023D01*
X103105328Y-104564395D01*
X102943375Y-104498373D01*
X102906532Y-104483334D01*
X102568017Y-104348165D01*
X102274076Y-104237507D01*
X102019362Y-104149531D01*
X101798528Y-104082408D01*
X101606230Y-104034305D01*
X101575815Y-104027852D01*
X101477224Y-104008360D01*
X101406895Y-103996099D01*
X101376624Y-103993065D01*
X101376964Y-103994161D01*
X101376964Y-103994161D01*
G37*
X101376964Y-103994161D02*
X101418215Y-104012875D01*
X101504365Y-104046874D01*
X101628513Y-104093718D01*
X101783759Y-104150970D01*
X101963202Y-104216192D01*
X102159942Y-104286944D01*
X102367080Y-104360787D01*
X102577713Y-104435284D01*
X102784944Y-104507995D01*
X102981870Y-104576482D01*
X103161594Y-104638306D01*
X103317212Y-104691029D01*
X103441826Y-104732211D01*
X103528535Y-104759414D01*
X103570439Y-104770201D01*
X103572783Y-104770189D01*
X103626581Y-104742674D01*
X103687157Y-104695896D01*
X103747862Y-104648572D01*
X103797946Y-104622384D01*
X103838627Y-104592309D01*
X103888751Y-104530964D01*
X103906547Y-104503633D01*
X103954562Y-104432631D01*
X103997611Y-104393899D01*
X104041206Y-104390613D01*
X104090860Y-104425948D01*
X104152087Y-104503080D01*
X104230398Y-104625182D01*
X104289569Y-104724216D01*
X104376645Y-104868421D01*
X104469406Y-105015929D01*
X104563414Y-105160384D01*
X104654232Y-105295427D01*
X104737422Y-105414701D01*
X104808545Y-105511848D01*
X104863166Y-105580513D01*
X104896845Y-105614335D01*
X104905143Y-105606958D01*
X104904881Y-105605700D01*
X104888824Y-105576649D01*
X104847262Y-105508901D01*
X104785563Y-105411010D01*
X104709097Y-105291531D01*
X104661071Y-105217216D01*
X104421456Y-104847699D01*
X104435342Y-104681537D01*
X104440737Y-104581920D01*
X104433579Y-104517090D01*
X104409951Y-104466053D01*
X104389903Y-104438058D01*
X104342679Y-104384215D01*
X104323863Y-104377157D01*
X104336960Y-104413015D01*
X104367675Y-104462573D01*
X104400035Y-104525789D01*
X104407616Y-104597295D01*
X104399794Y-104669999D01*
X104380050Y-104801163D01*
X104246092Y-104563978D01*
X104184693Y-104461549D01*
X104129352Y-104380456D01*
X104087984Y-104331767D01*
X104073566Y-104322742D01*
X104031794Y-104295749D01*
X104024821Y-104280718D01*
X104010249Y-104264421D01*
X103983400Y-104297043D01*
X103978373Y-104305569D01*
X103942004Y-104351530D01*
X103874567Y-104422654D01*
X103787597Y-104507075D01*
X103738220Y-104552529D01*
X103631416Y-104645032D01*
X103556541Y-104699842D01*
X103507541Y-104721019D01*
X103488920Y-104719615D01*
X103449871Y-104704125D01*
X103367183Y-104670764D01*
X103249466Y-104623023D01*
X103105328Y-104564395D01*
X102943375Y-104498373D01*
X102906532Y-104483334D01*
X102568017Y-104348165D01*
X102274076Y-104237507D01*
X102019362Y-104149531D01*
X101798528Y-104082408D01*
X101606230Y-104034305D01*
X101575815Y-104027852D01*
X101477224Y-104008360D01*
X101406895Y-103996099D01*
X101376624Y-103993065D01*
X101376964Y-103994161D01*
G36*
X98260593Y-106521258D02*
X98295989Y-106658608D01*
X98322523Y-106750739D01*
X98344411Y-106807341D01*
X98365868Y-106838105D01*
X98391110Y-106852720D01*
X98406667Y-106857045D01*
X98460030Y-106887887D01*
X98471768Y-106935587D01*
X98471521Y-107018589D01*
X98471205Y-107064818D01*
X98484206Y-107113680D01*
X98519696Y-107115633D01*
X98570451Y-107071756D01*
X98589565Y-107047062D01*
X98625119Y-106981427D01*
X98638060Y-106924188D01*
X98626571Y-106891182D01*
X98607635Y-106889477D01*
X98563950Y-106920176D01*
X98549104Y-106940222D01*
X98528420Y-106959893D01*
X98511353Y-106929173D01*
X98507060Y-106914162D01*
X98471831Y-106845938D01*
X98423197Y-106792005D01*
X98380927Y-106741242D01*
X98336760Y-106654283D01*
X98286753Y-106522893D01*
X98268513Y-106469033D01*
X98179594Y-106200681D01*
X98260593Y-106521258D01*
X98260593Y-106521258D01*
G37*
X98260593Y-106521258D02*
X98295989Y-106658608D01*
X98322523Y-106750739D01*
X98344411Y-106807341D01*
X98365868Y-106838105D01*
X98391110Y-106852720D01*
X98406667Y-106857045D01*
X98460030Y-106887887D01*
X98471768Y-106935587D01*
X98471521Y-107018589D01*
X98471205Y-107064818D01*
X98484206Y-107113680D01*
X98519696Y-107115633D01*
X98570451Y-107071756D01*
X98589565Y-107047062D01*
X98625119Y-106981427D01*
X98638060Y-106924188D01*
X98626571Y-106891182D01*
X98607635Y-106889477D01*
X98563950Y-106920176D01*
X98549104Y-106940222D01*
X98528420Y-106959893D01*
X98511353Y-106929173D01*
X98507060Y-106914162D01*
X98471831Y-106845938D01*
X98423197Y-106792005D01*
X98380927Y-106741242D01*
X98336760Y-106654283D01*
X98286753Y-106522893D01*
X98268513Y-106469033D01*
X98179594Y-106200681D01*
X98260593Y-106521258D01*
G36*
X101981241Y-105995261D02*
X101989325Y-106010465D01*
X102004283Y-106008566D01*
X102024050Y-105992579D01*
X102017588Y-105985522D01*
X101984362Y-105990929D01*
X101981241Y-105995261D01*
X101981241Y-105995261D01*
G37*
X101981241Y-105995261D02*
X101989325Y-106010465D01*
X102004283Y-106008566D01*
X102024050Y-105992579D01*
X102017588Y-105985522D01*
X101984362Y-105990929D01*
X101981241Y-105995261D01*
G36*
X98175269Y-106073197D02*
X98175176Y-106078246D01*
X98187096Y-106138696D01*
X98198099Y-106159756D01*
X98207291Y-106158264D01*
X98199511Y-106114610D01*
X98197745Y-106108164D01*
X98182485Y-106066938D01*
X98175269Y-106073197D01*
X98175269Y-106073197D01*
G37*
X98175269Y-106073197D02*
X98175176Y-106078246D01*
X98187096Y-106138696D01*
X98198099Y-106159756D01*
X98207291Y-106158264D01*
X98199511Y-106114610D01*
X98197745Y-106108164D01*
X98182485Y-106066938D01*
X98175269Y-106073197D01*
G36*
X100542843Y-104576572D02*
X100490864Y-104623490D01*
X100458474Y-104661798D01*
X100443029Y-104701854D01*
X100445773Y-104755137D01*
X100467949Y-104833131D01*
X100510801Y-104947315D01*
X100531619Y-104999717D01*
X100564697Y-105080069D01*
X100583513Y-105113167D01*
X100594295Y-105104355D01*
X100602959Y-105060883D01*
X100632013Y-104983871D01*
X100684707Y-104906635D01*
X100691211Y-104899555D01*
X100735394Y-104850411D01*
X100740719Y-104832146D01*
X100708958Y-104836456D01*
X100704435Y-104837643D01*
X100663964Y-104841296D01*
X100638125Y-104816382D01*
X100615350Y-104750321D01*
X100611662Y-104736756D01*
X100597333Y-104654498D01*
X100599536Y-104590752D01*
X100604201Y-104578057D01*
X100613108Y-104546177D01*
X100589292Y-104547031D01*
X100542843Y-104576572D01*
X100542843Y-104576572D01*
G37*
X100542843Y-104576572D02*
X100490864Y-104623490D01*
X100458474Y-104661798D01*
X100443029Y-104701854D01*
X100445773Y-104755137D01*
X100467949Y-104833131D01*
X100510801Y-104947315D01*
X100531619Y-104999717D01*
X100564697Y-105080069D01*
X100583513Y-105113167D01*
X100594295Y-105104355D01*
X100602959Y-105060883D01*
X100632013Y-104983871D01*
X100684707Y-104906635D01*
X100691211Y-104899555D01*
X100735394Y-104850411D01*
X100740719Y-104832146D01*
X100708958Y-104836456D01*
X100704435Y-104837643D01*
X100663964Y-104841296D01*
X100638125Y-104816382D01*
X100615350Y-104750321D01*
X100611662Y-104736756D01*
X100597333Y-104654498D01*
X100599536Y-104590752D01*
X100604201Y-104578057D01*
X100613108Y-104546177D01*
X100589292Y-104547031D01*
X100542843Y-104576572D01*
G36*
X102375351Y-103988140D02*
X102446205Y-104029068D01*
X102485112Y-104050454D01*
X102574396Y-104096571D01*
X102680878Y-104147991D01*
X102795536Y-104200850D01*
X102909352Y-104251276D01*
X103013304Y-104295404D01*
X103098374Y-104329367D01*
X103155541Y-104349296D01*
X103175785Y-104351324D01*
X103167301Y-104342955D01*
X103124377Y-104318497D01*
X103041532Y-104276759D01*
X102930509Y-104223188D01*
X102803053Y-104163234D01*
X102670908Y-104102344D01*
X102545817Y-104045964D01*
X102439526Y-103999546D01*
X102363779Y-103968536D01*
X102347187Y-103962510D01*
X102339938Y-103964419D01*
X102375351Y-103988140D01*
X102375351Y-103988140D01*
G37*
X102375351Y-103988140D02*
X102446205Y-104029068D01*
X102485112Y-104050454D01*
X102574396Y-104096571D01*
X102680878Y-104147991D01*
X102795536Y-104200850D01*
X102909352Y-104251276D01*
X103013304Y-104295404D01*
X103098374Y-104329367D01*
X103155541Y-104349296D01*
X103175785Y-104351324D01*
X103167301Y-104342955D01*
X103124377Y-104318497D01*
X103041532Y-104276759D01*
X102930509Y-104223188D01*
X102803053Y-104163234D01*
X102670908Y-104102344D01*
X102545817Y-104045964D01*
X102439526Y-103999546D01*
X102363779Y-103968536D01*
X102347187Y-103962510D01*
X102339938Y-103964419D01*
X102375351Y-103988140D01*
G36*
X102562091Y-101804379D02*
X102531538Y-101828375D01*
X102512141Y-101870170D01*
X102488971Y-101947699D01*
X102474111Y-102011318D01*
X102458464Y-102079200D01*
X102437944Y-102151960D01*
X102409128Y-102239593D01*
X102368595Y-102352095D01*
X102312920Y-102499458D01*
X102259259Y-102638634D01*
X102258850Y-102653613D01*
X102282942Y-102625466D01*
X102287387Y-102619103D01*
X102325071Y-102573089D01*
X102349035Y-102559078D01*
X102365612Y-102587042D01*
X102397416Y-102654228D01*
X102439125Y-102748028D01*
X102485418Y-102855833D01*
X102530974Y-102965034D01*
X102570471Y-103063025D01*
X102598589Y-103137195D01*
X102610004Y-103174939D01*
X102609826Y-103176989D01*
X102586901Y-103165342D01*
X102531104Y-103124334D01*
X102452331Y-103061441D01*
X102406997Y-103023767D01*
X102317035Y-102949702D01*
X102241814Y-102890768D01*
X102192745Y-102855775D01*
X102182115Y-102850150D01*
X102152752Y-102866928D01*
X102099748Y-102919163D01*
X102032910Y-102996843D01*
X102009311Y-103026581D01*
X101938382Y-103113382D01*
X101876656Y-103181082D01*
X101834749Y-103218271D01*
X101827633Y-103221773D01*
X101779268Y-103245315D01*
X101707697Y-103292146D01*
X101624680Y-103352970D01*
X101541977Y-103418492D01*
X101471351Y-103479419D01*
X101424562Y-103526456D01*
X101412780Y-103549635D01*
X101448853Y-103562216D01*
X101520673Y-103564027D01*
X101566554Y-103560139D01*
X101674439Y-103559497D01*
X101797772Y-103576092D01*
X101859284Y-103591283D01*
X101974588Y-103622679D01*
X102041017Y-103630997D01*
X102061562Y-103615433D01*
X102039208Y-103575184D01*
X102016264Y-103549140D01*
X101989378Y-103512227D01*
X101990297Y-103499583D01*
X102040368Y-103503354D01*
X102125419Y-103526155D01*
X102229169Y-103563385D01*
X102258019Y-103575207D01*
X102360528Y-103608280D01*
X102477642Y-103632332D01*
X102513408Y-103636671D01*
X102614513Y-103654561D01*
X102705259Y-103684530D01*
X102732560Y-103698563D01*
X102803896Y-103726993D01*
X102853479Y-103720750D01*
X102897325Y-103721010D01*
X102967886Y-103747186D01*
X103047751Y-103790001D01*
X103119506Y-103840172D01*
X103164518Y-103886522D01*
X103188720Y-103899174D01*
X103227496Y-103870960D01*
X103247101Y-103849965D01*
X103295101Y-103806550D01*
X103329220Y-103793490D01*
X103330908Y-103794219D01*
X103358088Y-103781017D01*
X103398167Y-103732183D01*
X103410483Y-103712953D01*
X103452231Y-103654426D01*
X103472669Y-103644619D01*
X103468281Y-103678686D01*
X103436856Y-103749300D01*
X103393355Y-103832297D01*
X103541489Y-103699177D01*
X103642773Y-103833143D01*
X103744057Y-103967109D01*
X103686264Y-104098228D01*
X103656837Y-104179276D01*
X103657942Y-104215654D01*
X103686623Y-104208130D01*
X103739922Y-104157467D01*
X103814439Y-104065030D01*
X103873901Y-103987866D01*
X103912839Y-103948969D01*
X103943138Y-103940391D01*
X103976683Y-103954187D01*
X103978588Y-103955281D01*
X104013779Y-103973222D01*
X104015977Y-103962016D01*
X103985316Y-103913716D01*
X103979411Y-103905017D01*
X103926647Y-103848906D01*
X103872764Y-103822182D01*
X103867022Y-103821811D01*
X103817953Y-103802020D01*
X103751821Y-103750862D01*
X103708008Y-103706753D01*
X103604570Y-103591360D01*
X103676921Y-103367337D01*
X103709622Y-103262893D01*
X103733541Y-103180327D01*
X103744817Y-103133215D01*
X103745096Y-103127728D01*
X103728886Y-103142414D01*
X103688935Y-103194792D01*
X103632353Y-103275288D01*
X103600173Y-103322900D01*
X103496606Y-103473964D01*
X103417754Y-103579485D01*
X103360677Y-103643128D01*
X103322874Y-103668440D01*
X103318632Y-103651195D01*
X103338409Y-103599463D01*
X103353847Y-103568946D01*
X103411114Y-103462405D01*
X103335714Y-103529977D01*
X103273592Y-103582512D01*
X103245695Y-103594785D01*
X103249754Y-103563854D01*
X103283504Y-103486777D01*
X103290732Y-103471585D01*
X103342719Y-103321935D01*
X103374558Y-103144297D01*
X103382237Y-102964767D01*
X103378139Y-102902961D01*
X103367068Y-102794674D01*
X103342389Y-102918157D01*
X103325278Y-102982618D01*
X103309467Y-103007909D01*
X103303317Y-103001671D01*
X103289782Y-102998084D01*
X103274745Y-103040252D01*
X103271982Y-103053894D01*
X103261523Y-103105664D01*
X103253437Y-103115590D01*
X103243471Y-103078860D01*
X103230217Y-103006650D01*
X103216241Y-102938368D01*
X103206487Y-102909907D01*
X103203674Y-102918804D01*
X103190400Y-102965596D01*
X103176690Y-102977166D01*
X103170035Y-103005497D01*
X103178144Y-103072361D01*
X103195489Y-103148373D01*
X103217592Y-103259094D01*
X103225319Y-103362500D01*
X103220201Y-103449103D01*
X103203771Y-103509419D01*
X103177559Y-103533960D01*
X103143096Y-103513243D01*
X103137723Y-103506222D01*
X103123808Y-103467010D01*
X103103609Y-103385281D01*
X103080169Y-103274185D01*
X103062913Y-103182959D01*
X103018954Y-102967197D01*
X102972014Y-102798584D01*
X102918293Y-102667832D01*
X102853998Y-102565650D01*
X102777547Y-102484699D01*
X102715701Y-102424996D01*
X102678539Y-102379190D01*
X102673177Y-102362145D01*
X102711931Y-102345218D01*
X102780747Y-102374300D01*
X102878042Y-102448662D01*
X102896960Y-102465445D01*
X102964558Y-102523580D01*
X103013283Y-102560113D01*
X103030970Y-102567284D01*
X103017047Y-102541883D01*
X102973754Y-102482723D01*
X102908171Y-102399140D01*
X102842280Y-102318391D01*
X102763357Y-102219868D01*
X102721405Y-102160344D01*
X102713974Y-102138416D01*
X102738620Y-102152681D01*
X102792893Y-102201740D01*
X102874347Y-102284187D01*
X102978625Y-102396516D01*
X103062972Y-102488254D01*
X103115790Y-102541238D01*
X103142510Y-102559379D01*
X103148563Y-102546582D01*
X103141325Y-102513618D01*
X103124729Y-102465416D01*
X103097830Y-102410757D01*
X103054578Y-102339585D01*
X102988927Y-102241845D01*
X102909589Y-102128375D01*
X102894288Y-102098332D01*
X102911076Y-102100601D01*
X102951360Y-102128362D01*
X103006551Y-102174798D01*
X103068055Y-102233090D01*
X103127281Y-102296419D01*
X103139668Y-102310968D01*
X103207048Y-102383820D01*
X103247282Y-102408290D01*
X103258401Y-102398872D01*
X103281715Y-102390811D01*
X103333289Y-102429988D01*
X103375773Y-102473792D01*
X103434783Y-102534535D01*
X103463735Y-102553485D01*
X103467286Y-102533358D01*
X103465702Y-102526260D01*
X103438045Y-102461596D01*
X103391092Y-102387193D01*
X103385470Y-102379755D01*
X103345024Y-102317526D01*
X103343371Y-102292310D01*
X103374786Y-102306417D01*
X103432334Y-102360832D01*
X103473592Y-102403422D01*
X103482272Y-102403848D01*
X103467390Y-102373353D01*
X103425178Y-102313270D01*
X103360536Y-102239944D01*
X103284526Y-102163693D01*
X103208215Y-102094839D01*
X103142663Y-102043702D01*
X103098936Y-102020599D01*
X103090134Y-102021451D01*
X103052665Y-102018519D01*
X102979903Y-101992778D01*
X102885595Y-101949364D01*
X102855440Y-101933811D01*
X102757944Y-101880426D01*
X102706761Y-101846849D01*
X102697061Y-101829020D01*
X102723459Y-101822899D01*
X102772194Y-101819161D01*
X102766793Y-101809198D01*
X102732210Y-101794618D01*
X102644180Y-101781562D01*
X102562091Y-101804379D01*
X102562091Y-101804379D01*
G37*
X102562091Y-101804379D02*
X102531538Y-101828375D01*
X102512141Y-101870170D01*
X102488971Y-101947699D01*
X102474111Y-102011318D01*
X102458464Y-102079200D01*
X102437944Y-102151960D01*
X102409128Y-102239593D01*
X102368595Y-102352095D01*
X102312920Y-102499458D01*
X102259259Y-102638634D01*
X102258850Y-102653613D01*
X102282942Y-102625466D01*
X102287387Y-102619103D01*
X102325071Y-102573089D01*
X102349035Y-102559078D01*
X102365612Y-102587042D01*
X102397416Y-102654228D01*
X102439125Y-102748028D01*
X102485418Y-102855833D01*
X102530974Y-102965034D01*
X102570471Y-103063025D01*
X102598589Y-103137195D01*
X102610004Y-103174939D01*
X102609826Y-103176989D01*
X102586901Y-103165342D01*
X102531104Y-103124334D01*
X102452331Y-103061441D01*
X102406997Y-103023767D01*
X102317035Y-102949702D01*
X102241814Y-102890768D01*
X102192745Y-102855775D01*
X102182115Y-102850150D01*
X102152752Y-102866928D01*
X102099748Y-102919163D01*
X102032910Y-102996843D01*
X102009311Y-103026581D01*
X101938382Y-103113382D01*
X101876656Y-103181082D01*
X101834749Y-103218271D01*
X101827633Y-103221773D01*
X101779268Y-103245315D01*
X101707697Y-103292146D01*
X101624680Y-103352970D01*
X101541977Y-103418492D01*
X101471351Y-103479419D01*
X101424562Y-103526456D01*
X101412780Y-103549635D01*
X101448853Y-103562216D01*
X101520673Y-103564027D01*
X101566554Y-103560139D01*
X101674439Y-103559497D01*
X101797772Y-103576092D01*
X101859284Y-103591283D01*
X101974588Y-103622679D01*
X102041017Y-103630997D01*
X102061562Y-103615433D01*
X102039208Y-103575184D01*
X102016264Y-103549140D01*
X101989378Y-103512227D01*
X101990297Y-103499583D01*
X102040368Y-103503354D01*
X102125419Y-103526155D01*
X102229169Y-103563385D01*
X102258019Y-103575207D01*
X102360528Y-103608280D01*
X102477642Y-103632332D01*
X102513408Y-103636671D01*
X102614513Y-103654561D01*
X102705259Y-103684530D01*
X102732560Y-103698563D01*
X102803896Y-103726993D01*
X102853479Y-103720750D01*
X102897325Y-103721010D01*
X102967886Y-103747186D01*
X103047751Y-103790001D01*
X103119506Y-103840172D01*
X103164518Y-103886522D01*
X103188720Y-103899174D01*
X103227496Y-103870960D01*
X103247101Y-103849965D01*
X103295101Y-103806550D01*
X103329220Y-103793490D01*
X103330908Y-103794219D01*
X103358088Y-103781017D01*
X103398167Y-103732183D01*
X103410483Y-103712953D01*
X103452231Y-103654426D01*
X103472669Y-103644619D01*
X103468281Y-103678686D01*
X103436856Y-103749300D01*
X103393355Y-103832297D01*
X103541489Y-103699177D01*
X103642773Y-103833143D01*
X103744057Y-103967109D01*
X103686264Y-104098228D01*
X103656837Y-104179276D01*
X103657942Y-104215654D01*
X103686623Y-104208130D01*
X103739922Y-104157467D01*
X103814439Y-104065030D01*
X103873901Y-103987866D01*
X103912839Y-103948969D01*
X103943138Y-103940391D01*
X103976683Y-103954187D01*
X103978588Y-103955281D01*
X104013779Y-103973222D01*
X104015977Y-103962016D01*
X103985316Y-103913716D01*
X103979411Y-103905017D01*
X103926647Y-103848906D01*
X103872764Y-103822182D01*
X103867022Y-103821811D01*
X103817953Y-103802020D01*
X103751821Y-103750862D01*
X103708008Y-103706753D01*
X103604570Y-103591360D01*
X103676921Y-103367337D01*
X103709622Y-103262893D01*
X103733541Y-103180327D01*
X103744817Y-103133215D01*
X103745096Y-103127728D01*
X103728886Y-103142414D01*
X103688935Y-103194792D01*
X103632353Y-103275288D01*
X103600173Y-103322900D01*
X103496606Y-103473964D01*
X103417754Y-103579485D01*
X103360677Y-103643128D01*
X103322874Y-103668440D01*
X103318632Y-103651195D01*
X103338409Y-103599463D01*
X103353847Y-103568946D01*
X103411114Y-103462405D01*
X103335714Y-103529977D01*
X103273592Y-103582512D01*
X103245695Y-103594785D01*
X103249754Y-103563854D01*
X103283504Y-103486777D01*
X103290732Y-103471585D01*
X103342719Y-103321935D01*
X103374558Y-103144297D01*
X103382237Y-102964767D01*
X103378139Y-102902961D01*
X103367068Y-102794674D01*
X103342389Y-102918157D01*
X103325278Y-102982618D01*
X103309467Y-103007909D01*
X103303317Y-103001671D01*
X103289782Y-102998084D01*
X103274745Y-103040252D01*
X103271982Y-103053894D01*
X103261523Y-103105664D01*
X103253437Y-103115590D01*
X103243471Y-103078860D01*
X103230217Y-103006650D01*
X103216241Y-102938368D01*
X103206487Y-102909907D01*
X103203674Y-102918804D01*
X103190400Y-102965596D01*
X103176690Y-102977166D01*
X103170035Y-103005497D01*
X103178144Y-103072361D01*
X103195489Y-103148373D01*
X103217592Y-103259094D01*
X103225319Y-103362500D01*
X103220201Y-103449103D01*
X103203771Y-103509419D01*
X103177559Y-103533960D01*
X103143096Y-103513243D01*
X103137723Y-103506222D01*
X103123808Y-103467010D01*
X103103609Y-103385281D01*
X103080169Y-103274185D01*
X103062913Y-103182959D01*
X103018954Y-102967197D01*
X102972014Y-102798584D01*
X102918293Y-102667832D01*
X102853998Y-102565650D01*
X102777547Y-102484699D01*
X102715701Y-102424996D01*
X102678539Y-102379190D01*
X102673177Y-102362145D01*
X102711931Y-102345218D01*
X102780747Y-102374300D01*
X102878042Y-102448662D01*
X102896960Y-102465445D01*
X102964558Y-102523580D01*
X103013283Y-102560113D01*
X103030970Y-102567284D01*
X103017047Y-102541883D01*
X102973754Y-102482723D01*
X102908171Y-102399140D01*
X102842280Y-102318391D01*
X102763357Y-102219868D01*
X102721405Y-102160344D01*
X102713974Y-102138416D01*
X102738620Y-102152681D01*
X102792893Y-102201740D01*
X102874347Y-102284187D01*
X102978625Y-102396516D01*
X103062972Y-102488254D01*
X103115790Y-102541238D01*
X103142510Y-102559379D01*
X103148563Y-102546582D01*
X103141325Y-102513618D01*
X103124729Y-102465416D01*
X103097830Y-102410757D01*
X103054578Y-102339585D01*
X102988927Y-102241845D01*
X102909589Y-102128375D01*
X102894288Y-102098332D01*
X102911076Y-102100601D01*
X102951360Y-102128362D01*
X103006551Y-102174798D01*
X103068055Y-102233090D01*
X103127281Y-102296419D01*
X103139668Y-102310968D01*
X103207048Y-102383820D01*
X103247282Y-102408290D01*
X103258401Y-102398872D01*
X103281715Y-102390811D01*
X103333289Y-102429988D01*
X103375773Y-102473792D01*
X103434783Y-102534535D01*
X103463735Y-102553485D01*
X103467286Y-102533358D01*
X103465702Y-102526260D01*
X103438045Y-102461596D01*
X103391092Y-102387193D01*
X103385470Y-102379755D01*
X103345024Y-102317526D01*
X103343371Y-102292310D01*
X103374786Y-102306417D01*
X103432334Y-102360832D01*
X103473592Y-102403422D01*
X103482272Y-102403848D01*
X103467390Y-102373353D01*
X103425178Y-102313270D01*
X103360536Y-102239944D01*
X103284526Y-102163693D01*
X103208215Y-102094839D01*
X103142663Y-102043702D01*
X103098936Y-102020599D01*
X103090134Y-102021451D01*
X103052665Y-102018519D01*
X102979903Y-101992778D01*
X102885595Y-101949364D01*
X102855440Y-101933811D01*
X102757944Y-101880426D01*
X102706761Y-101846849D01*
X102697061Y-101829020D01*
X102723459Y-101822899D01*
X102772194Y-101819161D01*
X102766793Y-101809198D01*
X102732210Y-101794618D01*
X102644180Y-101781562D01*
X102562091Y-101804379D01*
G36*
X100750589Y-103734984D02*
X100711239Y-103792305D01*
X100692691Y-103854882D01*
X100687752Y-103888121D01*
X100701646Y-103882940D01*
X100741436Y-103836021D01*
X100746573Y-103829583D01*
X100814476Y-103744287D01*
X101021581Y-103783526D01*
X101117640Y-103799723D01*
X101163511Y-103802620D01*
X101157153Y-103792163D01*
X101146048Y-103786969D01*
X101068172Y-103760534D01*
X100966091Y-103734793D01*
X100918810Y-103725383D01*
X100815389Y-103715191D01*
X100750589Y-103734984D01*
X100750589Y-103734984D01*
G37*
X100750589Y-103734984D02*
X100711239Y-103792305D01*
X100692691Y-103854882D01*
X100687752Y-103888121D01*
X100701646Y-103882940D01*
X100741436Y-103836021D01*
X100746573Y-103829583D01*
X100814476Y-103744287D01*
X101021581Y-103783526D01*
X101117640Y-103799723D01*
X101163511Y-103802620D01*
X101157153Y-103792163D01*
X101146048Y-103786969D01*
X101068172Y-103760534D01*
X100966091Y-103734793D01*
X100918810Y-103725383D01*
X100815389Y-103715191D01*
X100750589Y-103734984D01*
G36*
X103284079Y-102933781D02*
X103301362Y-102943760D01*
X103311340Y-102926477D01*
X103294058Y-102916499D01*
X103284079Y-102933781D01*
X103284079Y-102933781D01*
G37*
X103284079Y-102933781D02*
X103301362Y-102943760D01*
X103311340Y-102926477D01*
X103294058Y-102916499D01*
X103284079Y-102933781D01*
G36*
X102913962Y-101384990D02*
X103173017Y-101545307D01*
X103383944Y-101687279D01*
X103550852Y-101813952D01*
X103677846Y-101928373D01*
X103742795Y-101999877D01*
X103833544Y-102147381D01*
X103890008Y-102317956D01*
X103906747Y-102491081D01*
X103896847Y-102580978D01*
X103881400Y-102675316D01*
X103881835Y-102716469D01*
X103895628Y-102704612D01*
X103920257Y-102639918D01*
X103938557Y-102578097D01*
X103958564Y-102491749D01*
X103963387Y-102416146D01*
X103952070Y-102330256D01*
X103923662Y-102213049D01*
X103921658Y-102205553D01*
X103890361Y-102096579D01*
X103858741Y-102015422D01*
X103816500Y-101943722D01*
X103753347Y-101863122D01*
X103686635Y-101786433D01*
X103458830Y-101562420D01*
X103215534Y-101390101D01*
X102950076Y-101265415D01*
X102718713Y-101197564D01*
X102529821Y-101154756D01*
X102913962Y-101384990D01*
X102913962Y-101384990D01*
G37*
X102913962Y-101384990D02*
X103173017Y-101545307D01*
X103383944Y-101687279D01*
X103550852Y-101813952D01*
X103677846Y-101928373D01*
X103742795Y-101999877D01*
X103833544Y-102147381D01*
X103890008Y-102317956D01*
X103906747Y-102491081D01*
X103896847Y-102580978D01*
X103881400Y-102675316D01*
X103881835Y-102716469D01*
X103895628Y-102704612D01*
X103920257Y-102639918D01*
X103938557Y-102578097D01*
X103958564Y-102491749D01*
X103963387Y-102416146D01*
X103952070Y-102330256D01*
X103923662Y-102213049D01*
X103921658Y-102205553D01*
X103890361Y-102096579D01*
X103858741Y-102015422D01*
X103816500Y-101943722D01*
X103753347Y-101863122D01*
X103686635Y-101786433D01*
X103458830Y-101562420D01*
X103215534Y-101390101D01*
X102950076Y-101265415D01*
X102718713Y-101197564D01*
X102529821Y-101154756D01*
X102913962Y-101384990D01*
G36*
X101962418Y-102626465D02*
X101917804Y-102673707D01*
X101840482Y-102764965D01*
X101837389Y-102768690D01*
X101688295Y-102927455D01*
X101493368Y-103101231D01*
X101259231Y-103284189D01*
X101214026Y-103317219D01*
X101118142Y-103387474D01*
X101041110Y-103445570D01*
X100993364Y-103483550D01*
X100983130Y-103493342D01*
X100994797Y-103502810D01*
X101045166Y-103493206D01*
X101121709Y-103469142D01*
X101211896Y-103435237D01*
X101303197Y-103396109D01*
X101383083Y-103356370D01*
X101426426Y-103330022D01*
X101548771Y-103227078D01*
X101678687Y-103087372D01*
X101802994Y-102926633D01*
X101908512Y-102760591D01*
X101918182Y-102743090D01*
X101960792Y-102661732D01*
X101976143Y-102622665D01*
X101962418Y-102626465D01*
X101962418Y-102626465D01*
G37*
X101962418Y-102626465D02*
X101917804Y-102673707D01*
X101840482Y-102764965D01*
X101837389Y-102768690D01*
X101688295Y-102927455D01*
X101493368Y-103101231D01*
X101259231Y-103284189D01*
X101214026Y-103317219D01*
X101118142Y-103387474D01*
X101041110Y-103445570D01*
X100993364Y-103483550D01*
X100983130Y-103493342D01*
X100994797Y-103502810D01*
X101045166Y-103493206D01*
X101121709Y-103469142D01*
X101211896Y-103435237D01*
X101303197Y-103396109D01*
X101383083Y-103356370D01*
X101426426Y-103330022D01*
X101548771Y-103227078D01*
X101678687Y-103087372D01*
X101802994Y-102926633D01*
X101908512Y-102760591D01*
X101918182Y-102743090D01*
X101960792Y-102661732D01*
X101976143Y-102622665D01*
X101962418Y-102626465D01*
G36*
X98157238Y-103484772D02*
X98065745Y-103524062D01*
X98053212Y-103530223D01*
X97950214Y-103581995D01*
X98072998Y-103549543D01*
X98164345Y-103520090D01*
X98241850Y-103486363D01*
X98258085Y-103477003D01*
X98298047Y-103449881D01*
X98291725Y-103445117D01*
X98238300Y-103457684D01*
X98157238Y-103484772D01*
X98157238Y-103484772D01*
G37*
X98157238Y-103484772D02*
X98065745Y-103524062D01*
X98053212Y-103530223D01*
X97950214Y-103581995D01*
X98072998Y-103549543D01*
X98164345Y-103520090D01*
X98241850Y-103486363D01*
X98258085Y-103477003D01*
X98298047Y-103449881D01*
X98291725Y-103445117D01*
X98238300Y-103457684D01*
X98157238Y-103484772D01*
D12*
X94742000Y-136398000D03*
D13*
X94742000Y-138938000D03*
X92202000Y-136398000D03*
X92202000Y-138938000D03*
D14*
X90062300Y-130926840D03*
X94062300Y-130926840D03*
D15*
X102013000Y-98539300D03*
X106013000Y-98539300D03*
X94704920Y-107670600D03*
X90704920Y-107670600D03*
X102622600Y-94983300D03*
X106622600Y-94983300D03*
X102523540Y-88262460D03*
X106523540Y-88262460D03*
X104680000Y-74676000D03*
X108680000Y-74676000D03*
X89948000Y-82804000D03*
X93948000Y-82804000D03*
X75381100Y-77518260D03*
X79381100Y-77518260D03*
X77248000Y-88392000D03*
X81248000Y-88392000D03*
X78772000Y-99060000D03*
X82772000Y-99060000D03*
D16*
X83667600Y-113576100D03*
X84937600Y-113576100D03*
X86207600Y-113576100D03*
X87477600Y-113576100D03*
X88747600Y-113576100D03*
X90017600Y-113576100D03*
X91287600Y-113576100D03*
X92557600Y-113576100D03*
X93827600Y-113576100D03*
X95097600Y-113576100D03*
X97637600Y-113576100D03*
X96367600Y-113576100D03*
X98907600Y-113576100D03*
X100177600Y-113576100D03*
X100177600Y-123101100D03*
X98907600Y-123101100D03*
X97637600Y-123101100D03*
X96367600Y-123101100D03*
X95097600Y-123101100D03*
X93827600Y-123101100D03*
X92557600Y-123101100D03*
X91287600Y-123101100D03*
X90017600Y-123101100D03*
X88747600Y-123101100D03*
X87477600Y-123101100D03*
X86207600Y-123101100D03*
X84937600Y-123101100D03*
X83667600Y-123101100D03*
M02*
