G04 #@! TF.FileFunction,Copper,L2,Bot,Signal*
%FSLAX46Y46*%
G04 Gerber Fmt 4.6, Leading zero omitted, Abs format (unit mm)*
G04 Created by KiCad (PCBNEW 4.0.6) date 06/05/18 18:48:05*
%MOMM*%
%LPD*%
G01*
G04 APERTURE LIST*
%ADD10C,0.100000*%
%ADD11R,2.000000X1.700000*%
%ADD12R,0.508000X1.143000*%
%ADD13C,1.700000*%
%ADD14O,1.700000X1.700000*%
%ADD15C,0.600000*%
%ADD16C,0.250000*%
G04 APERTURE END LIST*
D10*
D11*
X78772000Y-99060000D03*
X82772000Y-99060000D03*
X77248000Y-88392000D03*
X81248000Y-88392000D03*
X74200000Y-75692000D03*
X78200000Y-75692000D03*
X89948000Y-82804000D03*
X93948000Y-82804000D03*
X104680000Y-74676000D03*
X108680000Y-74676000D03*
X103664000Y-87376000D03*
X107664000Y-87376000D03*
X102140000Y-98552000D03*
X106140000Y-98552000D03*
X94964000Y-108712000D03*
X90964000Y-108712000D03*
D12*
X84709000Y-113284000D03*
X85979000Y-113284000D03*
X87249000Y-113284000D03*
X88519000Y-113284000D03*
X89789000Y-113284000D03*
X91059000Y-113284000D03*
X92329000Y-113284000D03*
X93599000Y-113284000D03*
X94869000Y-113284000D03*
X96139000Y-113284000D03*
X97409000Y-113284000D03*
X98679000Y-113284000D03*
X99949000Y-113284000D03*
X101219000Y-113284000D03*
X101219000Y-120396000D03*
X99949000Y-120396000D03*
X98679000Y-120396000D03*
X97409000Y-120396000D03*
X96139000Y-120396000D03*
X94869000Y-120396000D03*
X93599000Y-120396000D03*
X92329000Y-120396000D03*
X91059000Y-120396000D03*
X89789000Y-120396000D03*
X88519000Y-120396000D03*
X87249000Y-120396000D03*
X85979000Y-120396000D03*
X84709000Y-120396000D03*
D13*
X94742000Y-136398000D03*
D14*
X94742000Y-138938000D03*
X92202000Y-136398000D03*
X92202000Y-138938000D03*
D15*
X91948000Y-133096000D03*
X92964000Y-127000000D03*
X102108000Y-112268000D03*
X130302000Y-118872000D03*
X96012000Y-125984000D03*
X91948000Y-85090000D03*
X99060000Y-87630000D03*
X103886000Y-89408000D03*
X104394000Y-95504000D03*
X98806000Y-124206000D03*
X100838000Y-100838000D03*
X97536000Y-108712000D03*
X94996000Y-129540000D03*
X94996000Y-127000000D03*
X80772000Y-99060000D03*
X79248000Y-88392000D03*
X76200000Y-75692000D03*
X91948000Y-82804000D03*
X106680000Y-74676000D03*
X105664000Y-87376000D03*
X104140000Y-98552000D03*
X92964000Y-108712000D03*
X109220000Y-97028000D03*
X116078000Y-105156000D03*
X97536000Y-103124000D03*
X103124000Y-107696000D03*
X104140000Y-107696000D03*
X99314000Y-127508000D03*
X93726000Y-121920000D03*
X98552000Y-132588000D03*
X96520000Y-134620000D03*
D16*
X91440000Y-135636000D02*
X92202000Y-136398000D01*
X91440000Y-133604000D02*
X91440000Y-135636000D01*
X91948000Y-133096000D02*
X91440000Y-133604000D01*
X97409000Y-120396000D02*
X97409000Y-122555000D01*
X97409000Y-122555000D02*
X92964000Y-127000000D01*
X94869000Y-113284000D02*
X94869000Y-115189000D01*
X97409000Y-117729000D02*
X97409000Y-120396000D01*
X94869000Y-115189000D02*
X97409000Y-117729000D01*
X96139000Y-112522000D02*
X96139000Y-113284000D01*
X96520000Y-112141000D02*
X96139000Y-112522000D01*
X101981000Y-112141000D02*
X96520000Y-112141000D01*
X102108000Y-112268000D02*
X101981000Y-112141000D01*
X129286000Y-118999000D02*
X130302000Y-118872000D01*
X106680000Y-95758000D02*
X109474000Y-95758000D01*
X109474000Y-95758000D02*
X118364000Y-104648000D01*
X118364000Y-104648000D02*
X118364000Y-106172000D01*
X118364000Y-106172000D02*
X121666000Y-109474000D01*
X121666000Y-109474000D02*
X121666000Y-111379000D01*
X121666000Y-111379000D02*
X129286000Y-118999000D01*
X96012000Y-125984000D02*
X96520000Y-125476000D01*
X91948000Y-85090000D02*
X94488000Y-87630000D01*
X94488000Y-87630000D02*
X99060000Y-87630000D01*
X106680000Y-95758000D02*
X108204000Y-94234000D01*
X105664000Y-91186000D02*
X103886000Y-89408000D01*
X107442000Y-91186000D02*
X105664000Y-91186000D01*
X108204000Y-91948000D02*
X107442000Y-91186000D01*
X108204000Y-94234000D02*
X108204000Y-91948000D01*
X104648000Y-95758000D02*
X106680000Y-95758000D01*
X104394000Y-95504000D02*
X104648000Y-95758000D01*
X99187000Y-123825000D02*
X99060000Y-123698000D01*
X98806000Y-124206000D02*
X99187000Y-123825000D01*
X100838000Y-105410000D02*
X100838000Y-100838000D01*
X97536000Y-108712000D02*
X100838000Y-105410000D01*
X99949000Y-120396000D02*
X99949000Y-122047000D01*
X99949000Y-122047000D02*
X98552000Y-123444000D01*
X101219000Y-120396000D02*
X101219000Y-121793000D01*
X101219000Y-121793000D02*
X97536000Y-125476000D01*
X97536000Y-125476000D02*
X96520000Y-125476000D01*
X89916000Y-136652000D02*
X92202000Y-138938000D01*
X89916000Y-133604000D02*
X89916000Y-136652000D01*
X91440000Y-132080000D02*
X89916000Y-133604000D01*
X93980000Y-132080000D02*
X91440000Y-132080000D01*
X94996000Y-131064000D02*
X93980000Y-132080000D01*
X94996000Y-129540000D02*
X94996000Y-131064000D01*
X98679000Y-120396000D02*
X98679000Y-123317000D01*
X96520000Y-125476000D02*
X94996000Y-127000000D01*
X98679000Y-123317000D02*
X98552000Y-123444000D01*
X98552000Y-123444000D02*
X96520000Y-125476000D01*
X96139000Y-113284000D02*
X96139000Y-115443000D01*
X96139000Y-115443000D02*
X98679000Y-117983000D01*
X98679000Y-117983000D02*
X98679000Y-120396000D01*
X80772000Y-99060000D02*
X82772000Y-99060000D01*
X81248000Y-88392000D02*
X79248000Y-88392000D01*
X78200000Y-75692000D02*
X76200000Y-75692000D01*
X93948000Y-82804000D02*
X91948000Y-82804000D01*
X108680000Y-74676000D02*
X106680000Y-74676000D01*
X107664000Y-87376000D02*
X105664000Y-87376000D01*
X106140000Y-98552000D02*
X104140000Y-98552000D01*
X90964000Y-108712000D02*
X92964000Y-108712000D01*
X109220000Y-97028000D02*
X116078000Y-103886000D01*
X116078000Y-103886000D02*
X116078000Y-105156000D01*
X84709000Y-113284000D02*
X82804000Y-113284000D01*
X82804000Y-113284000D02*
X79756000Y-110236000D01*
X79756000Y-110236000D02*
X79756000Y-100044000D01*
X79756000Y-100044000D02*
X78772000Y-99060000D01*
X82296000Y-111760000D02*
X84836000Y-111760000D01*
X84836000Y-111760000D02*
X85979000Y-112903000D01*
X85979000Y-113284000D02*
X85979000Y-112903000D01*
X76708000Y-88932000D02*
X76708000Y-93472000D01*
X78740000Y-95504000D02*
X83312000Y-95504000D01*
X80772000Y-110236000D02*
X80772000Y-104648000D01*
X82296000Y-111760000D02*
X80772000Y-110236000D01*
X84836000Y-100584000D02*
X84836000Y-97028000D01*
X80772000Y-104648000D02*
X84836000Y-100584000D01*
X83312000Y-95504000D02*
X84836000Y-97028000D01*
X76708000Y-93472000D02*
X78740000Y-95504000D01*
X76708000Y-88932000D02*
X77248000Y-88392000D01*
X85852000Y-111252000D02*
X82804000Y-111252000D01*
X87249000Y-112649000D02*
X85852000Y-111252000D01*
X87249000Y-113284000D02*
X87249000Y-112649000D01*
X74200000Y-82836000D02*
X74200000Y-75692000D01*
X77724000Y-86360000D02*
X74200000Y-82836000D01*
X82296000Y-86360000D02*
X77724000Y-86360000D01*
X83312000Y-87376000D02*
X82296000Y-86360000D01*
X83312000Y-89916000D02*
X83312000Y-87376000D01*
X82804000Y-90424000D02*
X83312000Y-89916000D01*
X79248000Y-90424000D02*
X82804000Y-90424000D01*
X77724000Y-91948000D02*
X79248000Y-90424000D01*
X77724000Y-92964000D02*
X77724000Y-91948000D01*
X79248000Y-94488000D02*
X77724000Y-92964000D01*
X83312000Y-94488000D02*
X79248000Y-94488000D01*
X85344000Y-96520000D02*
X83312000Y-94488000D01*
X85344000Y-101092000D02*
X85344000Y-96520000D01*
X81280000Y-105156000D02*
X85344000Y-101092000D01*
X81280000Y-109728000D02*
X81280000Y-105156000D01*
X82804000Y-111252000D02*
X81280000Y-109728000D01*
X89948000Y-89884000D02*
X89948000Y-97504000D01*
X89948000Y-82804000D02*
X89948000Y-89884000D01*
X86360000Y-110744000D02*
X88519000Y-112903000D01*
X86360000Y-110744000D02*
X83312000Y-110744000D01*
X83312000Y-110744000D02*
X81788000Y-109220000D01*
X81788000Y-109220000D02*
X81788000Y-105664000D01*
X89948000Y-97504000D02*
X81788000Y-105664000D01*
X88519000Y-113284000D02*
X88519000Y-112903000D01*
X89789000Y-113284000D02*
X89789000Y-112649000D01*
X100076000Y-79280000D02*
X104680000Y-74676000D01*
X100076000Y-88392000D02*
X100076000Y-79280000D01*
X82296000Y-106172000D02*
X100076000Y-88392000D01*
X82296000Y-108712000D02*
X82296000Y-106172000D01*
X83820000Y-110236000D02*
X82296000Y-108712000D01*
X87376000Y-110236000D02*
X83820000Y-110236000D01*
X89789000Y-112649000D02*
X87376000Y-110236000D01*
X91059000Y-113284000D02*
X91059000Y-112903000D01*
X91059000Y-112903000D02*
X87884000Y-109728000D01*
X87884000Y-109728000D02*
X84328000Y-109728000D01*
X84328000Y-109728000D02*
X82804000Y-108204000D01*
X82804000Y-108204000D02*
X82804000Y-106680000D01*
X82804000Y-106680000D02*
X102108000Y-87376000D01*
X102108000Y-87376000D02*
X103664000Y-87376000D01*
X92329000Y-113284000D02*
X92329000Y-112903000D01*
X92329000Y-112903000D02*
X93980000Y-111252000D01*
X93980000Y-111252000D02*
X94488000Y-110744000D01*
X94488000Y-110744000D02*
X99060000Y-110744000D01*
X99060000Y-110744000D02*
X102140000Y-107664000D01*
X102140000Y-107664000D02*
X102140000Y-98552000D01*
X93599000Y-113284000D02*
X93599000Y-112649000D01*
X94964000Y-105696000D02*
X94964000Y-108712000D01*
X97536000Y-103124000D02*
X94964000Y-105696000D01*
X99568000Y-111252000D02*
X103124000Y-107696000D01*
X94996000Y-111252000D02*
X99568000Y-111252000D01*
X93599000Y-112649000D02*
X94996000Y-111252000D01*
X93599000Y-120396000D02*
X93599000Y-121793000D01*
X104140000Y-109728000D02*
X104140000Y-107696000D01*
X103632000Y-110236000D02*
X104140000Y-109728000D01*
X103632000Y-124714000D02*
X103632000Y-110236000D01*
X100838000Y-127508000D02*
X103632000Y-124714000D01*
X99314000Y-127508000D02*
X100838000Y-127508000D01*
X93599000Y-121793000D02*
X93726000Y-121920000D01*
X98679000Y-113284000D02*
X98679000Y-115951000D01*
X97536000Y-136144000D02*
X94742000Y-138938000D01*
X97536000Y-127000000D02*
X97536000Y-136144000D01*
X102616000Y-121920000D02*
X97536000Y-127000000D01*
X102616000Y-119888000D02*
X102616000Y-121920000D01*
X98679000Y-115951000D02*
X102616000Y-119888000D01*
X94742000Y-136398000D02*
X96520000Y-134620000D01*
X99949000Y-116584602D02*
X99949000Y-113284000D01*
X103124000Y-119759602D02*
X99949000Y-116584602D01*
X103124000Y-122428000D02*
X103124000Y-119759602D01*
X98552000Y-127000000D02*
X103124000Y-122428000D01*
X98552000Y-132588000D02*
X98552000Y-127000000D01*
M02*
