M48
;DRILL file {KiCad 4.0.6} date 06/05/18 18:48:09
;FORMAT={-:-/ absolute / inch / decimal}
FMAT,2
INCH,TZ
T1C0.016
T2C0.039
%
G90
G05
M72
T1
X3.Y-2.98
X3.12Y-3.48
X3.18Y-3.9
X3.62Y-3.26
X3.62Y-3.35
X3.62Y-5.24
X3.66Y-4.28
X3.66Y-5.
X3.69Y-4.8
X3.74Y-5.
X3.74Y-5.1
X3.78Y-4.96
X3.8Y-5.3
X3.84Y-4.06
X3.84Y-4.28
X3.88Y-5.22
X3.89Y-4.89
X3.9Y-3.45
X3.91Y-5.02
X3.97Y-3.97
X4.02Y-4.42
X4.06Y-4.24
X4.09Y-3.52
X4.1Y-3.88
X4.1Y-4.24
X4.11Y-3.76
X4.16Y-3.44
X4.2Y-2.94
X4.3Y-3.82
X4.57Y-4.14
X5.13Y-4.68
T2
X3.63Y-5.37
X3.63Y-5.47
X3.73Y-5.37
X3.73Y-5.47
T0
M30
